<?xml version="1.0" encoding="utf-8"?>
<!-- Generator: Adobe Illustrator 18.0.0, SVG Export Plug-In . SVG Version: 6.00 Build 0)  -->
<!DOCTYPE svg PUBLIC "-//W3C//DTD SVG 1.1//EN" "http://www.w3.org/Graphics/SVG/1.1/DTD/svg11.dtd">
<svg version="1.1" id="Capa_1" xmlns="http://www.w3.org/2000/svg" xmlns:xlink="http://www.w3.org/1999/xlink" x="0px" y="0px"
	 viewBox="0 0 1280 800" enable-background="new 0 0 1280 800" xml:space="preserve">
<g>
	<path fill="#881C9B" d="M526.4,385c-13,0-23.6,10.5-23.6,23.6c0,13,10.5,23.6,23.6,23.6c13,0,23.6-10.5,23.6-23.6
		C550,395.6,539.4,385,526.4,385z M535.8,404.9c0,0.2,0,0.4,0,0.6c0,6.4-4.9,13.8-13.8,13.8c-2.7,0-5.3-0.8-7.4-2.2
		c0.4,0,0.8,0.1,1.2,0.1c2.3,0,4.4-0.8,6-2.1c-2.1,0-3.9-1.4-4.5-3.4c0.3,0.1,0.6,0.1,0.9,0.1c0.4,0,0.9-0.1,1.3-0.2
		c-2.2-0.4-3.9-2.4-3.9-4.7v-0.1c0.7,0.4,1.4,0.6,2.2,0.6c-1.3-0.9-2.2-2.4-2.2-4c0-0.9,0.2-1.7,0.7-2.4c2.4,2.9,6,4.9,10,5.1
		c-0.1-0.4-0.1-0.7-0.1-1.1c0-2.7,2.2-4.8,4.8-4.8c1.4,0,2.7,0.6,3.5,1.5c1.1-0.2,2.1-0.6,3.1-1.2c-0.4,1.1-1.1,2.1-2.1,2.7
		c1-0.1,1.9-0.4,2.8-0.8C537.6,403.4,536.8,404.2,535.8,404.9z"/>
	<path fill="#881C9B" d="M611.6,385c-13,0-23.6,10.5-23.6,23.6c0,13,10.5,23.6,23.6,23.6c13,0,23.6-10.5,23.6-23.6
		C635.1,395.6,624.6,385,611.6,385z M616.8,404.6l-0.3,3.5h-3.6v12.2h-4.6v-12.2h-2.4v-3.5h2.4v-2.4c0-1,0-2.7,0.8-3.6
		c0.8-1.1,1.9-1.8,3.8-1.8c3.1,0,4.4,0.4,4.4,0.4l-0.6,3.6c0,0-1-0.3-2-0.3c-0.9,0-1.8,0.3-1.8,1.3v2.8H616.8z"/>
	<path fill="#881C9B" d="M700.5,385c-13,0-23.6,10.5-23.6,23.6c0,13,10.5,23.6,23.6,23.6c13,0,23.6-10.5,23.6-23.6
		C724.1,395.6,713.5,385,700.5,385z M713.6,416.6c0,1.3-1,2.4-2.3,2.4h-21.5c-1.3,0-2.3-1.1-2.3-2.4v-13.3c0,1.5,1.5,2.9,4.2,4.2
		c2.7,1.3,8.9,4,8.9,4s8.3-3.1,9.9-4.2c1.6-1.1,3.2-1.7,3.2-3.8V416.6z M713.6,401.2c0,2.6-13.1,7.7-13.1,7.7s-13.1-5-13.1-8.1v-0.3
		c0-1.3,1-2.4,2.3-2.4h21.5c1.3,0,2.3,1.1,2.3,2.4V401.2z"/>
</g>
<g>
	<path fill="none" stroke="#FFFFFF" stroke-width="2" stroke-linecap="round" stroke-miterlimit="10" stroke-dasharray="6" d="
		M527.4,387c-13,0-23.6,10.5-23.6,23.6c0,13,10.5,23.6,23.6,23.6c13,0,23.6-10.5,23.6-23.6C551,397.6,540.4,387,527.4,387z"/>
	<path fill="none" stroke="#FFFFFF" stroke-width="2" stroke-linecap="round" stroke-miterlimit="10" stroke-dasharray="6" d="
		M612.6,387c-13,0-23.6,10.5-23.6,23.6c0,13,10.5,23.6,23.6,23.6c13,0,23.6-10.5,23.6-23.6C636.1,397.6,625.6,387,612.6,387z"/>
	<path fill="none" stroke="#FFFFFF" stroke-width="2" stroke-linecap="round" stroke-miterlimit="10" stroke-dasharray="6" d="
		M701.5,387c-13,0-23.6,10.5-23.6,23.6c0,13,10.5,23.6,23.6,23.6c13,0,23.6-10.5,23.6-23.6C725.1,397.6,714.5,387,701.5,387z"/>
</g>
</svg>
