<?xml version="1.0" encoding="utf-8"?>
<!-- Generator: Adobe Illustrator 19.0.0, SVG Export Plug-In . SVG Version: 6.00 Build 0)  -->
<svg version="1.1" id="Capa_1" xmlns="http://www.w3.org/2000/svg" xmlns:xlink="http://www.w3.org/1999/xlink" x="0px" y="0px"
	 viewBox="-4 2 20 20" style="enable-background:new -4 2 20 20;" xml:space="preserve">
<style type="text/css">
	.st0{fill:#FFFFFF;}
</style>
<path id="path1_fill_2_" class="st0" d="M6.5,20L6.5,20c-0.3,0-0.4-0.2-0.4-0.4c0-0.1,0-0.2,0.1-0.3l-0.1,0.1
	c-0.1,0.2,0,0.4,0.2,0.5C6.4,20,6.5,20,6.5,20z M6.4,20c-0.2-0.1-0.3-0.3-0.2-0.5l0.1-0.1c-0.1,0.1-0.1,0.2-0.1,0.3
	C6.1,19.9,6.3,20,6.4,20h0.1H6.4z M8.1,15.8l0.1,0.4C8.2,16.1,8.2,15.9,8.1,15.8z M5.6,3.9L5.6,3.9c0,0,0.1,0,0.1-0.1
	C5.7,3.9,5.6,3.9,5.6,3.9z M5.7,3.9C5.7,3.9,5.7,3.8,5.7,3.9l1-0.5C6.4,3.4,6,3.6,5.7,3.9z M6.8,3.2L6.7,3.3
	C6.8,3.3,6.8,3.2,6.8,3.2c0.1,0,0.1,0,0.2-0.1C6.9,3.2,6.8,3.2,6.8,3.2z M5.7,3.9C5.7,3.9,5.7,3.8,5.7,3.9l1-0.5
	C6.4,3.4,6,3.6,5.7,3.9z M5.6,3.9L5.6,3.9c0,0,0.1,0,0.1-0.1C5.7,3.9,5.6,3.9,5.6,3.9z M6.8,3.2L6.7,3.3C6.8,3.3,6.8,3.2,6.8,3.2
	c0.1,0,0.1,0,0.2-0.1C6.9,3.2,6.8,3.2,6.8,3.2z M15.9,4.3c-0.1-0.1-0.2-0.1-0.3-0.1h-2.8c-0.2-0.4-0.9-1.1-2.1-1.8
	C9,1.5,6.6,2.5,6.5,2.5l0,0L6.4,2.6l0,0l0,0C5.8,2.8,4.9,3.3,4.4,4C3.6,5.2,3,6.9,3.6,8.1C3.8,8.4,4.1,8.8,4.7,9
	c-0.5,1.6-1.3,3.8-3,5.8c-1.2,1.5-3.1,4.3-3.1,5.9C-1.7,20.6-2,20.3-2.2,20c-0.4-0.6-0.4-1.5,0.1-2.7c0.4-1.1,0.1-1.8-0.2-2.1
	c-0.3-0.4-0.9-0.6-1.5-0.5c-0.2,0-0.4,0.2-0.3,0.4c0,0.2,0.2,0.4,0.4,0.3c0.3,0,0.6,0.1,0.8,0.3c0.2,0.3,0.2,0.7,0,1.3
	c-0.5,1.4-0.5,2.5,0,3.3c0.5,0.9,1.4,1.2,1.8,1.3C-0.8,21.8-0.5,22,0,22h9.5c0.1,0,0.2-0.1,0.3-0.2s0.7-1,0.3-1.8
	c-0.3-0.5-0.9-0.8-2-0.8H7l1.1-3l0,0L8,15.8c0-0.1-0.1-0.1-0.2-0.1c-0.2-0.1-0.4,0-0.5,0.2l-1.1,2.9L6,19.3l-0.1,0.1
	c-0.1,0.2,0,0.4,0.2,0.5h0.1h1.7c0.7,0,1.2,0.1,1.3,0.4c0.1,0.2,0,0.6-0.2,0.8H0c-0.4,0-0.4-0.1-0.5-0.2c-0.3-0.7,0.7-3.1,2.8-5.8
	c1.5-1.9,2.4-3.9,2.9-5.5c0.1-0.2,0.1-0.5,0.2-0.7c0.1,0,0.2,0,0.2,0c0.3,0,0.7,0,0.9-0.1C7,8.7,7.4,8.4,7.7,8
	c0.6-0.9,0.5-2.2-0.1-4.1C7.5,3.7,7.3,3.6,7.1,3.7C7,4,6.9,4.2,7,4.4c0.6,1.5,0.7,2.7,0.2,3.3C7,7.9,6.8,8.1,6.5,8.2
	C6.3,8.3,6,8.4,5.7,8.4C5,8.4,4.5,8.1,4.3,7.7C3.9,6.9,4.4,5.4,5.1,4.4C5.2,4.2,5.4,4,5.6,3.9l0,0h0.1c0.3-0.2,0.7-0.4,1-0.5l0,0
	l0.1-0.1c0,0,0.1,0,0.2-0.1C7.5,3,9.2,2.5,10.4,3.1c1.4,0.8,1.9,1.7,1.9,1.7c0,0.1,0.1,0.2,0.3,0.2h2.5l-0.6,2.1
	c-0.1,0.1-0.3,0.3-0.7,0.6h-0.1l0,0c-0.2,0-0.5,0-0.8-0.1c-0.2,0-0.5-0.1-0.7-0.2c-0.5-0.2-0.6-0.4-0.7-0.6l0,0c0-0.1,0-0.2,0-0.2
	c0-0.2-0.2-0.4-0.4-0.4s-0.4,0.2-0.4,0.4c0,0.5,0.2,1.2,1.2,1.6c0,0,0,0,0.1,0l-0.9,0.3c0,0-0.1,0.2-0.1,0.3c0,0-0.3,2.3-0.7,4.4
	c-0.3,1.3-1.1,3.4-1.7,4.9l0,0c-0.1,0.2-0.1,0.4-0.2,0.5c-0.1,0.2,0,0.4,0.2,0.5h0.1c0.2,0,0.3-0.1,0.4-0.2c0.6-1.4,1.6-4,1.9-5.5
	c0.4-1.7,0.6-3.6,0.7-4.2l1.1-0.4c1.5,0,2.4-1.2,2.4-1.3l0.1-0.1L16,4.7C16,4.6,16,4.4,15.9,4.3z M8.1,15.8l0.1,0.4
	C8.2,16.1,8.2,15.9,8.1,15.8z"/>
</svg>
