<?xml version="1.0" encoding="utf-8"?>
<!-- Generator: Adobe Illustrator 19.0.0, SVG Export Plug-In . SVG Version: 6.00 Build 0)  -->
<svg version="1.1" id="Capa_1" xmlns="http://www.w3.org/2000/svg" xmlns:xlink="http://www.w3.org/1999/xlink" x="0px" y="0px"
	 viewBox="-4 2 20 20" style="enable-background:new -4 2 20 20;" xml:space="preserve">
<style type="text/css">
	.st0{fill:#FFFFFF;}
</style>
<path id="path1_fill_1_" class="st0" d="M15.6,8.3c0-0.1-0.1-0.1-0.2-0.2l-1.5-0.5l-0.3-0.4c-0.1-0.1-0.2-0.3-0.4-0.3l-1.4-0.3
	C11.5,6.5,11.2,6.7,11,7L8.9,9.9c-0.1,0.2-0.4,0.3-0.7,0.4c-1,0.1-2.8,0.4-4.7,0.3c-0.9,0-1.7,0.1-2.5,0.3c-0.2,0.2-0.4,0.2-0.6,0.3
	c-0.4,0-2.7-0.1-3,1.3c-0.3,1.3,0.7,2.6,0.9,2.8c0,0,0,0,0,0.1c0,0.9,0,0.9-0.7,1.3c-1.2,0.7-1.5,1-1.5,1.1
	c-0.1,0.1-0.1,0.1-0.1,0.1L-4,20.7c0,0.1,0,0.1,0.1,0.2c0,0.1,0.1,0.1,0.2,0.1h1.3c0.1,0,0.2-0.1,0.3-0.1C-2,20.8-2,20.7-2,20.6
	v-0.1C-2.1,20.2-2.3,20-2.5,20c0-0.6,0.2-1.7,0.9-2c0.3-0.1,0.7-0.3,1.1-0.6c0.1,0.3,0.1,0.5,0.1,0.8c0,0.1,0.1,0.3,0.3,0.3h0.1
	c0.1,0,0.3-0.1,0.3-0.3c0.1-0.4,0.1-0.8-0.1-1.3c0.1,0,0.1-0.1,0.2-0.1c0.8-0.6,1.3-1.2,1.5-1.9c0.1-0.2,0.2-0.6,0.3-0.7
	c0.1-0.2,0.3-0.4,0.6-0.5s0.6-0.1,0.9,0l2.9,1.3c0.7,0.3,1.6,0.5,2.4,0.5c0.4,1.7,0.2,2.8,0.1,3.3c-0.1,0.2,0,0.5,0.1,0.7l0.6,1.1
	c0.1,0.1,0.1,0.1,0.3,0.1h1.2c0.1,0,0.2-0.1,0.3-0.1c0.1-0.1,0.1-0.2,0-0.3l-0.1-0.2c-0.1-0.2-0.3-0.3-0.5-0.4l-0.2-0.5l0.3-3.8
	c0-0.3,0.1-0.5,0.3-0.7c0.3-0.5,0.7-1.2,0.7-2.4c0-1.4,0.9-2.8,1.3-3.3l1.7,0.1c0.5,0,0.9-0.2,1.2-0.6l-0.4-0.2
	C15.6,8.4,15.6,8.4,15.6,8.3z M-1.9,12.7c0.1-0.6,0.9-0.8,1.5-0.9c-0.6,0.5-0.9,1.1-1.1,1.7c-0.1,0.3-0.1,0.7-0.1,0.9
	C-1.9,14-2.1,13.3-1.9,12.7z M14.2,8.7l-1.8-0.1c-0.1,0-0.3-0.1-0.4-0.2l-0.3-0.3c-0.1-0.1-0.3-0.1-0.4-0.1
	c-0.1,0.1-0.1,0.3-0.1,0.4l0.3,0.3C11.7,8.8,11.9,8.9,12,9c-0.4,0.7-1.3,2.1-1.3,3.4c0,1.1-0.3,1.8-0.5,2.1s-0.3,0.6-0.3,1l-0.3,3.8
	c0,0.1,0,0.1,0,0.1l0.3,0.7c0,0.1,0.1,0.1,0.1,0.1H9.8l-0.5-0.9c-0.1-0.1-0.1-0.2-0.1-0.3c0.2-0.8,0.5-3-0.9-5.6
	c-0.1-0.1-0.3-0.2-0.4-0.1s-0.2,0.2-0.1,0.4c0.3,0.5,0.4,1,0.5,1.5c-0.7,0-1.4-0.2-2-0.5l-2.9-1.3c-0.4-0.2-0.9-0.2-1.3-0.1
	C2.3,13.1,2.4,13,2.4,13c0.1-0.1,0-0.3-0.1-0.4s-0.3,0-0.4,0.1c0,0-0.4,0.7-0.9,2.1c-0.1,0.7-0.7,1.8-3,2.8
	c-1.3,0.6-1.3,2.5-1.3,2.6s0.1,0.2,0.1,0.3h-0.3l0.1-2.3c0.1-0.1,0.5-0.4,1.3-0.9c0.9-0.5,0.9-0.9,0.9-1.8c0-0.5,0-1.1,0.2-1.9
	c0.1-1,0.9-1.7,2.3-2.2c0.9-0.4,1.7-0.5,2.4-0.5c1.9,0.1,3.8-0.2,4.8-0.3c0.5-0.1,0.8-0.3,1.1-0.7l2.1-2.8c0.1-0.1,0.2-0.1,0.3-0.1
	h-0.1c-0.1,0.1-0.1,0.3,0,0.4s0.1,0.1,0.2,0.1c0.1,0,0.1,0,0.2-0.1l0.3-0.3l0.7,0.1l0.1,0.1C13.1,7.6,13,7.7,13,7.8
	c0,0.1,0.1,0.3,0.3,0.3c0,0,0,0,0.1,0L13.6,8l1.1,0.4C14.7,8.6,14.5,8.7,14.2,8.7z"/>
</svg>
