<svg width="32" height="42" viewBox="0 0 32 42" version="1.1" xmlns="http://www.w3.org/2000/svg" xmlns:xlink="http://www.w3.org/1999/xlink">
<title>Group</title>
<desc>Created using Figma</desc>
<g id="Canvas" transform="translate(1027 4676)">
<g id="Group">
<g id="Vector 8">
<use xlink:href="#path0_stroke" transform="translate(-1026.23 -4675)" fill="#7DD1C4"/>
</g>
<g id="Group">
<g id="003-grooming">
<g id="Fill 1">
<use xlink:href="#path1_fill" transform="translate(-1007.96 -4668.81)" fill="#6A2499"/>
</g>
<g id="Fill 2">
<use xlink:href="#path2_fill" transform="translate(-1004.76 -4667.46)" fill="#6A2499"/>
</g>
<g id="Group 6">
<mask id="mask0_outline" mask-type="alpha">
<g id="Clip 4">
<use xlink:href="#path3_fill" transform="translate(-1021 -4669)" fill="#FFFFFF"/>
</g>
</mask>
<g id="Fill 3" mask="url(#mask0_outline)">
<use xlink:href="#path4_fill" transform="translate(-1011.69 -4653.25)" fill="#6A2499"/>
</g>
<g id="Fill 5" mask="url(#mask0_outline)">
<use xlink:href="#path5_fill" transform="translate(-1021.01 -4669)" fill="#6A2499"/>
</g>
</g>
<g id="Fill 7">
<use xlink:href="#path6_fill" transform="translate(-1019.79 -4653.25)" fill="#6A2499"/>
</g>
</g>
</g>
</g>
</g>
<defs>
<path id="path0_stroke" d="M 15.0469 40L 14.7488 40.4014L 15.0409 40.6184L 15.3372 40.4071L 15.0469 40ZM 0 28.8235L -0.5 28.8235L -0.5 29.075L -0.29814 29.2249L 0 28.8235ZM 0 0L 0 -0.5L -0.5 -0.5L -0.5 0L 0 0ZM 30.7208 0L 31.2208 0L 31.2208 -0.5L 30.7208 -0.5L 30.7208 0ZM 30.7208 28.8235L 31.0111 29.2306L 31.2208 29.0811L 31.2208 28.8235L 30.7208 28.8235ZM 15.3451 39.5986L 0.29814 28.4221L -0.29814 29.2249L 14.7488 40.4014L 15.3451 39.5986ZM 0.5 28.8235L 0.5 0L -0.5 0L -0.5 28.8235L 0.5 28.8235ZM 0 0.5L 30.7208 0.5L 30.7208 -0.5L 0 -0.5L 0 0.5ZM 30.2208 0L 30.2208 28.8235L 31.2208 28.8235L 31.2208 0L 30.2208 0ZM 30.4305 28.4164L 14.7566 39.5929L 15.3372 40.4071L 31.0111 29.2306L 30.4305 28.4164Z"/>
<path id="path1_fill" fill-rule="evenodd" d="M 7.87207 17.1363C 7.77931 16.7208 7.69419 16.3039 7.61928 15.8969C 7.58564 15.7131 7.41458 15.593 7.23773 15.6279C 7.06068 15.6628 6.94448 15.8403 6.97833 16.0241C 7.05488 16.4394 7.14159 16.865 7.23614 17.2891C 7.28121 17.4903 7.30383 17.7004 7.30383 17.9139C 7.30383 18.632 7.03704 19.306 6.6076 19.6731C 6.60478 19.6754 6.60216 19.6776 6.5996 19.6799C 6.59699 19.682 6.59416 19.6843 6.59155 19.6866C 6.38506 19.8576 6.1515 19.948 5.91655 19.948C 5.6814 19.948 5.44809 19.8576 5.24155 19.6866C 5.23894 19.6843 5.23617 19.6822 5.23355 19.6801C 5.23094 19.6776 5.22817 19.6754 5.22555 19.6731C 4.79591 19.306 4.52912 18.632 4.52912 17.9139C 4.52912 17.7006 4.55194 17.4905 4.59681 17.2892C 5.04147 15.297 5.29006 13.3607 5.33569 11.5339C 5.3379 11.4427 5.30467 11.3543 5.24319 11.2889C 5.18166 11.2234 5.09757 11.1866 5.00942 11.1866L 0.65254 11.1866L 0.65254 10.2675L 4.58558 10.2675C 4.76586 10.2675 4.9119 10.116 4.9119 9.9289C 4.9119 9.74187 4.76586 9.59033 4.58558 9.59033L 0.65254 9.59033L 0.65254 8.61926L 4.58558 8.61926C 4.76586 8.61926 4.9119 8.46772 4.9119 8.28069C 4.9119 8.09361 4.76586 7.94212 4.58558 7.94212L 0.65254 7.94212L 0.65254 6.97105L 4.58558 6.97105C 4.76586 6.97105 4.9119 6.81951 4.9119 6.63222C 4.9119 6.4454 4.76586 6.29364 4.58558 6.29364L 0.65254 6.29364L 0.65254 5.32258L 4.58558 5.32258C 4.76586 5.32258 4.9119 5.17104 4.9119 4.98401C 4.9119 4.79692 4.76586 4.64538 4.58558 4.64538L 0.65254 4.64538L 0.65254 3.67453L 4.58558 3.67453C 4.76586 3.67453 4.9119 3.52283 4.9119 3.33574C 4.9119 3.14871 4.76586 2.99717 4.58558 2.99717L 0.65254 2.99717L 0.65254 2.02632L 2.45664 2.02632C 2.63688 2.02632 2.78291 1.87478 2.78291 1.68774C 2.78291 1.50066 2.63688 1.34912 2.45664 1.34912L 0.65254 1.34912L 0.65254 0.677354L 4.96897 0.677354C 5.80702 0.677354 6.48864 1.38466 6.48864 2.25432L 6.48864 10.9033C 6.48864 12.1897 6.59078 13.5345 6.79189 14.9005C 6.81911 15.0855 6.98576 15.2122 7.16384 15.184C 7.34187 15.1557 7.46427 14.983 7.43704 14.7982C 7.24076 13.4659 7.14118 12.1556 7.14118 10.9033L 7.14118 2.25432C 7.14118 1.0114 6.16673 0 4.96897 0L 0.32627 0C 0.145983 0 0 0.1517 0 0.338571L 0 11.5252C 0 11.7123 0.145983 11.8638 0.32627 11.8638L 4.67213 11.8638C 4.60644 13.5428 4.36765 15.3147 3.96108 17.1365C 3.90499 17.3876 3.87653 17.6492 3.87653 17.9139C 3.87653 18.8084 4.20024 19.6324 4.74622 20.1384C 4.78268 20.1952 4.83514 20.2401 4.89708 20.2657C 5.20571 20.5012 5.55644 20.6252 5.91635 20.6252C 6.2763 20.6252 6.62724 20.5014 6.93566 20.2657C 6.99755 20.2401 7.05027 20.1952 7.08672 20.1384C 7.63271 19.6324 7.95642 18.8084 7.95642 17.9139C 7.95642 17.6492 7.92817 17.3876 7.87207 17.1363Z"/>
<path id="path2_fill" fill-rule="evenodd" d="M 1.38646 0L 0.326321 0C 0.14624 0 0 0.15154 0 0.338624C 0 0.525654 0.14624 0.677194 0.326321 0.677194L 1.38646 0.677194C 1.56674 0.677194 1.71278 0.525654 1.71278 0.338624C 1.71278 0.15154 1.56674 0 1.38646 0Z"/>
<path id="path3_fill" fill-rule="evenodd" d="M 0 3.0246e-15L 1.0674e-18 21L 14.3765 21L 14.3765 0L 1.0674e-18 0L 0 3.0246e-15Z"/>
<path id="path4_fill" fill-rule="evenodd" d="M 1.92686 0C 0.864311 0 0 0.896895 0 1.9995C 0 3.10194 0.864311 3.99878 1.92686 3.99878C 2.98925 3.99878 3.85356 3.10194 3.85356 1.9995C 3.85356 0.896895 2.98925 0 1.92686 0ZM 1.92691 3.32169C 1.22428 3.32169 0.652649 2.72846 0.652649 1.99934C 0.652649 1.27021 1.22428 0.677246 1.92691 0.677246C 2.6294 0.677246 3.20102 1.27042 3.20102 1.99934C 3.20102 2.72846 2.6294 3.32169 1.92691 3.32169Z"/>
<path id="path5_fill" fill-rule="evenodd" d="M 14.3776 17.6294C 14.3228 15.999 13.0526 14.6247 11.4856 14.5006C 11.2094 14.4788 10.9326 14.4944 10.6622 14.5472L 10.2734 14.4811C 9.76927 14.3956 9.29738 14.1439 8.93685 13.7692L 8.67206 12.8816L 10.6066 1.87792C 10.7229 1.21616 10.4928 0.529012 10.0061 0.0843951C 9.9231 0.00851865 9.80875 -0.0184584 9.7022 0.0127222C 9.59565 0.0438496 9.51171 0.128878 9.47884 0.238649L 7.18988 7.91238L 4.90086 0.238649C 4.86819 0.128878 4.7841 0.0438496 4.67775 0.0128818C 4.57115 -0.0182456 4.45681 0.00873149 4.37369 0.0846079C 3.88697 0.529012 3.657 1.21616 3.77319 1.87792L 4.48783 5.94263C 4.52008 6.12657 4.69016 6.24837 4.86743 6.2149C 5.04469 6.18122 5.16226 6.00499 5.12981 5.82105L 4.41532 1.75655C 4.37589 1.53185 4.39794 1.30262 4.47301 1.09393L 6.87822 9.15764L 6.87822 9.15785L 8.02491 13.0026L 8.02511 13.0026L 8.33636 14.0468C 8.35118 14.0959 8.37641 14.141 8.4103 14.1786C 8.87476 14.6912 9.49889 15.036 10.1681 15.1495L 10.6015 15.2231C 10.6442 15.232 10.6891 15.2324 10.7335 15.2226C 10.9634 15.1728 11.1998 15.157 11.436 15.1759C 12.6556 15.2723 13.6827 16.3837 13.7254 17.6528C 13.7492 18.3597 13.5022 19.0282 13.0299 19.5355C 12.5576 20.0431 11.9231 20.3226 11.2433 20.3226C 10.1146 20.3226 9.12673 19.5324 8.84092 18.401C 8.83851 18.3917 8.83589 18.3826 8.83292 18.3736L 7.69982 13.3701C 7.675 13.2606 7.59926 13.171 7.4981 13.1311L 7.30602 13.0554C 7.30602 13.0552 7.30581 13.0552 7.30566 13.0552L 6.44376 12.7152L 6.33418 12.6722L 5.32491 6.93094C 5.29245 6.74699 5.12258 6.62498 4.94531 6.65867C 4.76805 6.69213 4.65048 6.86858 4.68293 7.05252L 5.70764 12.8816L 5.44285 13.7694C 5.08232 14.1439 4.61043 14.3958 4.10628 14.4813L 3.71751 14.5472C 3.44728 14.4946 3.16931 14.4788 2.89391 14.5006C 1.32717 14.6247 0.0568509 15.999 0.00198541 17.6294C -0.0280624 18.5212 0.283799 19.3653 0.880089 20.0061C 1.47658 20.6469 2.27777 20.9998 3.13624 20.9998C 4.54654 20.9998 5.78296 20.0225 6.15835 18.6172C 6.16415 18.6019 6.16897 18.5861 6.17276 18.5695L 7.18967 14.0784L 8.20678 18.5695C 8.21058 18.5858 8.2154 18.6019 8.22119 18.6172C 8.59653 20.0225 9.83301 21 11.2433 21C 12.1018 21 12.903 20.6469 13.4995 20.0061C 14.0957 19.3653 14.4076 18.5212 14.3776 17.6294ZM 8.25716 11.483L 7.53412 9.05845L 9.90943 1.09473C 9.98455 1.30341 10.0066 1.53264 9.96712 1.75734L 8.25716 11.483ZM 5.54886 18.3733C 5.54584 18.3822 5.54322 18.3914 5.54086 18.4007C 5.255 19.532 4.26716 20.3223 3.13847 20.3223C 2.45865 20.3223 1.82411 20.0427 1.35181 19.5352C 0.879706 19.0278 0.63276 18.3591 0.656399 17.6525C 0.699061 16.3831 1.72617 15.272 2.94578 15.1753C 3.00987 15.1703 3.07458 15.1678 3.13847 15.1678C 3.30953 15.1678 3.481 15.1861 3.64821 15.2223C 3.69272 15.2319 3.73738 15.2316 3.77963 15.2227L 4.21368 15.1491C 4.88289 15.0356 5.50717 14.6908 5.97148 14.1783C 6.00553 14.1406 6.03075 14.0955 6.04537 14.0465L 6.2495 13.3618L 6.42173 13.4298L 6.64807 13.5189L 5.54886 18.3733Z"/>
<path id="path6_fill" fill-rule="evenodd" d="M 1.92686 0C 0.864465 0 0 0.896895 0 1.9995C 0 3.10194 0.864465 3.99878 1.92686 3.99878C 2.98925 3.99878 3.85351 3.10194 3.85351 1.9995C 3.85351 0.896895 2.98925 0 1.92686 0ZM 1.9269 3.32169C 1.22427 3.32169 0.652588 2.72846 0.652588 1.99934C 0.652588 1.27021 1.22427 0.677246 1.9269 0.677246C 2.62954 0.677246 3.20101 1.27042 3.20101 1.99934C 3.20101 2.72846 2.62954 3.32169 1.9269 3.32169Z"/>
</defs>
</svg>
