<?xml version="1.0" encoding="utf-8"?>
<!-- Generator: Adobe Illustrator 19.0.0, SVG Export Plug-In . SVG Version: 6.00 Build 0)  -->
<svg version="1.1" id="Capa_1" xmlns="http://www.w3.org/2000/svg" xmlns:xlink="http://www.w3.org/1999/xlink" x="0px" y="0px"
	 viewBox="-4 2 20 20" style="enable-background:new -4 2 20 20;" xml:space="preserve">
<style type="text/css">
	.st0{fill:#5FC3AF;}
</style>
<path id="XMLID_26_" class="st0" d="M15.3,9.2H8.5c-0.7,0-1.3-0.8-1.4-1.8l0-1.3c0.4,0.2,0.9,0.5,1.6,0.5H14c0.7,0,1.3,0.8,1.3,1.8
	L15.3,9.2L15.3,9.2z M14,5.7H8.7C7.6,5.7,7,4.8,7,4.8C6.9,4.6,6.7,4.6,6.6,4.7C6.5,4.8,6.3,5,6.4,5.2l0.1,2.3c0,1.5,1,2.7,2.1,2.7
	h7.1c0.2,0,0.4-0.2,0.4-0.5V8.4C16,6.9,15.1,5.7,14,5.7z"/>
<path class="st0" d="M15.3,14.8v-3.4c0-0.3-0.2-0.5-0.4-0.5s-0.4,0.2-0.4,0.5v3.3h-1.1v-3.3c0-0.3-0.2-0.5-0.4-0.5s-0.4,0.2-0.4,0.5
	v3.3h-1.1v-3.3c0-0.3-0.2-0.5-0.4-0.5s-0.4,0.2-0.4,0.5v3.3H9.7v-3.3c0-0.3-0.2-0.5-0.4-0.5S9,11.2,9,11.5v3.3H8v-3.3
	C8,11.2,7.8,11,7.6,11s-0.4,0.2-0.4,0.5v3.3H6.5v1.5H-4v3.1h18.4c0.9,0,1.6-1,1.6-2.3v-2.3H15.3z M6.5,18.3h-9.8v-1h9.8V18.3z
	 M15.3,17c0,0.7-0.4,1.3-0.9,1.3H7.3v-2.5h8V17z"/>
</svg>
