<svg width="29" height="30" viewBox="0 0 29 30" version="1.1" xmlns="http://www.w3.org/2000/svg" xmlns:xlink="http://www.w3.org/1999/xlink">
<title>Group</title>
<desc>Created using Figma</desc>
<g id="Canvas" transform="translate(-1484 4810)">
<g id="Group">
<g id="Fill 1">
<use xlink:href="#path0_fill" transform="translate(1495.16 -4790.52)" fill="#6A2499"/>
</g>
<g id="Fill 2">
<use xlink:href="#path1_fill" transform="translate(1494.02 -4793.05)" fill="#6A2499"/>
</g>
<g id="Fill 3">
<use xlink:href="#path2_fill" transform="translate(1497 -4794.04)" fill="#6A2499"/>
</g>
<g id="Fill 4">
<use xlink:href="#path3_fill" transform="translate(1499.98 -4793.05)" fill="#6A2499"/>
</g>
<g id="Fill 6">
<use xlink:href="#path4_fill" transform="translate(1484.07 -4809.6)" fill="#6A2499"/>
</g>
<g id="Fill 8">
<use xlink:href="#path5_fill" transform="translate(1489.67 -4797.41)" fill="#6A2499"/>
</g>
</g>
</g>
<defs>
<path id="path0_fill" fill-rule="evenodd" d="M 3.10262 0C 1.39188 0 0 1.29944 0 2.89708C 0 3.65568 0.445787 4.10871 1.19218 4.10871C 1.53501 4.10871 1.91121 4.02111 2.27497 3.93664C 2.57607 3.86677 2.88743 3.79421 3.10262 3.79421C 3.29015 3.79421 3.58595 3.86351 3.87185 3.93025C 4.24643 4.01806 4.63402 4.10871 4.9912 4.10871C 5.7516 4.10843 6.20545 3.65568 6.20545 2.89708C 6.20545 1.29944 4.81356 0 3.10262 0ZM 5.18354 3.08255C 5.18298 3.08276 5.14097 3.11298 4.99049 3.11298C 4.74709 3.11298 4.41643 3.03567 4.0963 2.96091C 3.74025 2.87749 3.40351 2.79883 3.10191 2.79883C 2.77344 2.79883 2.40579 2.88416 2.05052 2.96672C 1.74114 3.03872 1.42102 3.11298 1.19148 3.11298C 1.06412 3.11298 1.02211 3.0878 1.02162 3.09028C 1.01936 3.08667 0.991211 3.03985 0.991211 2.89608C 0.991211 1.84709 1.93815 0.993652 3.10191 0.993652C 4.26616 0.993652 5.2131 1.84709 5.2131 2.89608C 5.2131 3.01822 5.19047 3.07369 5.18354 3.08255Z"/>
<path id="path1_fill" fill-rule="evenodd" d="M 2.69954 1.58785C 2.69954 0.712283 2.09408 0 1.34995 0C 0.605461 0 0 0.712283 0 1.58785C 0 2.46341 0.605461 3.17577 1.34995 3.17577C 2.09408 3.17577 2.69954 2.46341 2.69954 1.58785ZM 0.990723 1.58733C 0.990723 1.24793 1.17996 0.994141 1.34904 0.994141C 1.51804 0.994141 1.70699 1.24793 1.70699 1.58733C 1.70699 1.92673 1.51804 2.18059 1.34904 2.18059C 1.17996 2.18059 0.990723 1.92673 0.990723 1.58733Z"/>
<path id="path2_fill" fill-rule="evenodd" d="M 1.34995 3.17577C 2.09408 3.17577 2.6999 2.46341 2.6999 1.58785C 2.6999 0.712354 2.09408 0 1.34995 0C 0.605532 0 0 0.712354 0 1.58785C 0 2.46341 0.605532 3.17577 1.34995 3.17577ZM 1.34997 0.995117C 1.51905 0.995117 1.70793 1.24891 1.70793 1.58831C 1.70793 1.92778 1.51905 2.18157 1.34997 2.18157C 1.18089 2.18157 0.991943 1.92778 0.991943 1.58831C 0.991943 1.24891 1.18089 0.995117 1.34997 0.995117Z"/>
<path id="path3_fill" fill-rule="evenodd" d="M 1.34966 0C 0.605532 0 0 0.712283 0 1.58785C 0 2.46341 0.605532 3.17577 1.34966 3.17577C 2.09415 3.17577 2.69961 2.46341 2.69961 1.58785C 2.69961 0.712283 2.09415 0 1.34966 0ZM 1.34966 2.18059C 1.18093 2.18059 0.991699 1.92673 0.991699 1.58733C 0.991699 1.24793 1.18065 0.994141 1.34966 0.994141C 1.51874 0.994141 1.70797 1.24793 1.70797 1.58733C 1.70797 1.92673 1.51874 2.18059 1.34966 2.18059Z"/>
<path id="path4_fill" fill-rule="evenodd" d="M 28.1062 9.89316L 15.3319 0.311172C 15.0604 0.107814 14.7372 0 14.3969 0L 14.3906 0C 14.3875 0 14.3823 0 14.3823 0L 14.372 0.000283721C 14.3685 3.75182e-13 14.3649 0 14.3613 0L 14.35 0C 14.35 0 14.3449 0 14.3419 0L 14.3353 0C 13.9953 0 13.6718 0.107814 13.4005 0.311172L 0.626246 9.89316C -0.0637195 10.4107 -0.205432 11.3948 0.310575 12.0872L 1.38092 13.5227C 1.67459 13.9168 2.1428 14.1517 2.63335 14.1517C 2.88255 14.1517 3.12284 14.0929 3.34078 13.9813L 3.34078 27.4855C 3.34078 28.3497 4.04213 29.0532 4.904 29.0532L 23.8285 29.0532C 24.6903 29.0532 25.3917 28.3497 25.3917 27.4855L 25.3917 13.9813C 25.6096 14.0929 25.85 14.1517 26.0991 14.1517C 26.5897 14.1517 27.0579 13.9165 27.3515 13.5227L 28.4219 12.0872C 28.9377 11.3948 28.7962 10.4107 28.1062 9.89316ZM 23.8288 28.0578L 4.90424 28.0578C 4.58907 28.0578 4.33301 27.801 4.33301 27.4851L 4.33301 13.2658L 14.3665 5.73975L 24.4 13.2658L 24.4 27.4851C 24.4 27.801 24.1437 28.0578 23.8288 28.0578ZM 27.6271 11.4917L 26.5567 12.9272C 26.4479 13.0733 26.281 13.1572 26.0987 13.1572C 25.9749 13.1572 25.857 13.1176 25.7576 13.0431L 14.6627 4.72095C 14.5746 4.65498 14.4703 4.622 14.3658 4.622C 14.2614 4.622 14.157 4.65498 14.0689 4.72095L 2.97406 13.0431C 2.87464 13.1176 2.7564 13.1572 2.63293 13.1572C 2.45063 13.1572 2.28353 13.0733 2.1747 12.9272L 1.10457 11.4917C 0.915905 11.2387 0.967598 10.8791 1.21977 10.6899L 13.994 1.10818C 14.0926 1.0342 14.2106 0.995117 14.3401 0.995117C 14.5211 0.995117 14.6391 1.0342 14.7373 1.10818L 27.5116 10.6899C 27.7638 10.8791 27.8155 11.2387 27.6271 11.4917Z"/>
<path id="path5_fill" fill-rule="evenodd" d="M 12.4403 0C 11.0343 0 9.72606 0.563825 8.76893 1.56515C 7.81152 0.563825 6.50358 0 5.09756 0C 2.28664 0 0 2.2936 0 5.11309C 0 6.42778 0.465728 7.75219 1.38424 9.04972C 2.0991 10.0593 3.09024 11.0566 4.33023 12.0133C 6.42042 13.6258 8.47893 14.5623 8.56563 14.6014C 8.63026 14.6305 8.69963 14.6449 8.76893 14.6449C 8.83003 14.6449 8.89134 14.6338 8.94933 14.6111C 9.03638 14.577 11.1031 13.7588 13.2002 12.2031C 14.4447 11.2798 15.4393 10.2871 16.1564 9.25308C 17.073 7.93087 17.5379 6.53808 17.5379 5.11309C 17.5379 2.2936 15.2512 0 12.4403 0ZM 8.78239 13.6029C 7.5692 13.0119 0.992432 9.59948 0.992432 5.11257C 0.992432 2.84166 2.83434 0.994141 5.09828 0.994141C 6.39576 0.994141 7.58992 1.59038 8.37408 2.63029C 8.46806 2.75442 8.61444 2.82726 8.76966 2.82726C 8.92495 2.82726 9.07133 2.75442 9.16495 2.63029C 9.94946 1.59038 11.1436 0.994141 12.441 0.994141C 14.705 0.994141 16.5467 2.84166 16.5467 5.11257C 16.5467 10.02 10.0014 13.0764 8.78239 13.6029Z"/>
</defs>
</svg>
