<?xml version="1.0" encoding="utf-8"?>
<!-- Generator: Adobe Illustrator 19.0.0, SVG Export Plug-In . SVG Version: 6.00 Build 0)  -->
<svg version="1.1" id="Capa_1" xmlns="http://www.w3.org/2000/svg" xmlns:xlink="http://www.w3.org/1999/xlink" x="0px" y="0px"
	 viewBox="-4 2 20 20" style="enable-background:new -4 2 20 20;" xml:space="preserve">
<style type="text/css">
	.st0{fill:#FFFFFF;}
</style>
<path id="path0_fill_3_" class="st0" d="M5.1,10.1C5,10,4.8,10,4.7,10.1c-0.2,0.2-0.5,0.3-0.8,0.3c-0.3,0-0.6-0.1-0.8-0.3
	c-0.2-0.1-0.3-0.1-0.4,0c-0.1,0.1-0.1,0.3,0,0.4C3,10.8,3.4,11,3.9,11c0.4,0,0.8-0.2,1.1-0.4C5.2,10.4,5.2,10.3,5.1,10.1z"/>
<path id="path1_fill_3_" class="st0" d="M2.2,8C2.1,8,1.9,8.2,1.9,8.3v0.3c0,0.2,0.1,0.3,0.3,0.3c0.2,0,0.3-0.1,0.3-0.3V8.3
	C2.5,8.2,2.4,8,2.2,8z"/>
<path id="path2_fill_2_" class="st0" d="M5.5,8C5.3,8,5.2,8.2,5.2,8.3v0.3c0,0.2,0.1,0.3,0.3,0.3s0.3-0.1,0.3-0.3V8.3
	C5.8,8.2,5.7,8,5.5,8z"/>
<path id="path3_fill_2_" class="st0" d="M8.1,14c-0.2,0-0.3,0.1-0.3,0.3v0.3c0,0.2,0.1,0.3,0.3,0.3s0.3-0.1,0.3-0.3v-0.3
	C8.4,14.2,8.3,14,8.1,14z"/>
<path id="path4_fill_1_" class="st0" d="M10.8,14c-0.2,0-0.3,0.1-0.3,0.3v0.3c0,0.2,0.1,0.3,0.3,0.3s0.3-0.1,0.3-0.3v-0.3
	C11,14.2,10.9,14,10.8,14z"/>
<path id="path5_fill_1_" class="st0" d="M8.5,20.7c-0.2,0-0.3,0.1-0.3,0.3v0.7c0,0.2,0.1,0.3,0.3,0.3s0.3-0.1,0.3-0.3V21
	C8.7,20.9,8.6,20.7,8.5,20.7z"/>
<path id="path6_fill" class="st0" d="M10.4,20.7c-0.2,0-0.3,0.1-0.3,0.3v0.7c0,0.2,0.1,0.3,0.3,0.3s0.3-0.1,0.3-0.3V21
	C10.7,20.9,10.6,20.7,10.4,20.7z"/>
<path id="path7_fill" class="st0" d="M14,12.8c-0.7-1-2-2-2-2.1c-0.1-0.1-0.3-0.1-0.4,0L11,11.3c-0.5-0.1-1-0.3-1.6-0.3
	c-0.3,0-0.6,0-0.8,0.1C8.5,10,8.4,8.5,8.4,6.6C8.4,4,6.4,2,3.8,2C1.4,2-0.7,4.1-0.7,6.6c0,3.3-0.3,5.6-0.3,5.6c0,0.1,0,0.2,0.2,0.3
	c0.1,0,1.3,0.6,2.6,1l-0.1,0.1l-2.8,1.5C-1.7,15.4-2,15.8-2,16.3v1.4c0,0.2,0.1,0.4,0.3,0.6v3.5c0,0.2,0.1,0.3,0.3,0.3
	s0.3-0.1,0.3-0.3v-3.4H0v3.4C0,21.9,0.1,22,0.3,22c0.2,0,0.3-0.1,0.3-0.3v-4.4c0-0.2-0.1-0.3-0.3-0.3C0.1,17,0,17.1,0,17.3v0.4h-1.4
	l0,0v-1.4c0-0.3,0.1-0.5,0.4-0.6l1.5-0.8c0.5,1.4,1.8,2.4,3.4,2.4c1.1,0,2.1-0.5,2.8-1.4c0.1,0.4,0.3,0.7,0.5,1
	c0,0.2,0.1,0.4,0.2,0.6l-0.6,4.2C6.8,21.9,6.9,22,7,22l0,0c0.1,0,0.3-0.1,0.3-0.3l0.5-3.9c0,0,0.1,0,0.2,0.1
	c0.3,0.4,0.8,0.7,1.3,0.7s1-0.3,1.3-0.7c0.1,0,0.1,0,0.2-0.1l0.5,3.9c0,0.1,0.1,0.3,0.3,0.3l0,0c0.2,0,0.3-0.2,0.2-0.3l-0.6-4.2
	c0.1-0.2,0.2-0.3,0.2-0.6c0.4-0.5,0.6-1.1,0.7-1.7c1-0.5,1.6-2,1.6-2.1C14,13,14,12.9,14,12.8z M-0.1,6.6c0-2.2,1.8-4.1,4-4.1
	s4,1.8,4,4.1c0,2,0.1,3.7,0.2,4.7H8l-0.6-0.6l0,0c0.2-0.5,0.4-1,0.4-1.5V8.9c0-1.7-1.3-2-2.8-2.4C4.2,6.4,3.3,6.2,2.4,5.7
	C2.2,5.6,2,5.7,2,5.8c0,0-0.6,1.2-1.8,1.5c-0.1,0-0.2,0-0.3,0.1C-0.1,7.2-0.1,6.9-0.1,6.6z M7.2,9c0,1.9-1.5,3.4-3.3,3.4
	C2,12.4,0.5,10.9,0.5,9c0-0.2-0.1-0.3-0.3-0.3C0,8.7-0.2,8.5-0.2,8.3c0-0.2,0.2-0.4,0.4-0.4c0,0,0,0,0.1,0c1.1-0.3,1.7-1.1,2-1.6
	C3.2,6.8,4.1,7,4.8,7.2C6.4,7.5,7.2,7.8,7.2,9z M-0.4,12.2c0.1-0.4,0.2-1.5,0.2-3c0,0,0.1,0,0.2,0.1c0.1,1.4,0.9,2.6,2,3.2V13
	C1,12.8,0,12.4-0.4,12.2z M3.9,16.7c-1.3,0-2.5-0.9-2.8-2.1l0.8-0.4C2.3,14,2.6,13.5,2.6,13v-0.3C2.9,12.9,3.4,13,3.9,13
	c0.4,0,0.8-0.1,1.1-0.2l0,0c-0.1,0.1-0.1,0.2,0,0.3c0,0.1,0.6,1.5,1.6,2.1C5.9,16.1,5,16.7,3.9,16.7z M6.5,14v0.5
	c-0.5-0.4-0.8-1.1-1-1.5c0.5-0.7,1.3-1.4,1.6-1.7l0.4,0.4C6.9,12.3,6.5,13.1,6.5,14z M9.4,18.1c-0.2,0-0.4-0.1-0.5-0.2
	c0.2-0.1,0.4-0.2,0.5-0.4c0.1,0.2,0.3,0.3,0.5,0.4C9.8,18,9.6,18.1,9.4,18.1z M9.1,16c0-0.2,0.2-0.4,0.4-0.4s0.4,0.2,0.4,0.4
	c0,0.2-0.2,0.4-0.4,0.4C9.2,16.4,9.1,16.2,9.1,16z M11.8,15c0,0.4-0.1,0.7-0.2,1.1c-0.1-0.1-0.2-0.2-0.3-0.3s-0.3-0.1-0.4,0
	c-0.1,0.1-0.1,0.3,0,0.4c0.1,0.1,0.2,0.3,0.2,0.5c0,0.4-0.3,0.7-0.7,0.7c-0.3,0-0.6-0.2-0.7-0.5c0.4-0.1,0.6-0.5,0.6-0.9
	c0-0.5-0.4-1-0.9-1s-0.9,0.4-0.9,1c0,0.4,0.3,0.8,0.6,0.9c-0.1,0.3-0.4,0.5-0.7,0.5c-0.4,0-0.7-0.3-0.7-0.7c0-0.2,0.1-0.4,0.2-0.5
	c0.1-0.1,0.1-0.3,0-0.4c-0.1-0.1-0.3-0.1-0.4,0c-0.1,0.1-0.2,0.2-0.3,0.3C7,15.8,7,15.4,7,15v-1c0-1.3,1-2.4,2.3-2.4
	s2.3,1.1,2.3,2.4v1H11.8z M12.4,14.5V14c0-0.9-0.4-1.7-1-2.2l0.4-0.4c0.4,0.3,1.1,1,1.6,1.7C13.2,13.4,12.8,14.1,12.4,14.5z"/>
</svg>
