<?xml version="1.0" encoding="utf-8"?>
<!-- Generator: Adobe Illustrator 19.0.0, SVG Export Plug-In . SVG Version: 6.00 Build 0)  -->
<svg version="1.1" id="Capa_1" xmlns="http://www.w3.org/2000/svg" xmlns:xlink="http://www.w3.org/1999/xlink" x="0px" y="0px"
	 viewBox="0 0 20 20" style="enable-background:new 0 0 20 20;" xml:space="preserve">
<style type="text/css">
	.st0{fill:#7DD1C4;}
</style>
<path id="path1_fill_2_" class="st0" d="M10.5,18L10.5,18c-0.3,0-0.4-0.2-0.4-0.4c0-0.1,0-0.2,0.1-0.3l-0.1,0.1
	c-0.1,0.2,0,0.4,0.2,0.5C10.4,18,10.5,18,10.5,18z M10.4,18c-0.2-0.1-0.3-0.3-0.2-0.5l0.1-0.1c-0.1,0.1-0.1,0.2-0.1,0.3
	C10.1,17.9,10.3,18,10.4,18l0.1,0C10.5,18,10.4,18,10.4,18z M12.1,13.8l0.1,0.4C12.2,14.1,12.2,13.9,12.1,13.8z M9.6,1.9L9.6,1.9
	c0,0,0.1,0,0.1-0.1C9.7,1.9,9.6,1.9,9.6,1.9z M9.7,1.9C9.7,1.9,9.7,1.8,9.7,1.9l1-0.5C10.4,1.4,10,1.6,9.7,1.9z M10.8,1.2l-0.1,0.1
	C10.8,1.3,10.8,1.2,10.8,1.2c0.1,0,0.1,0,0.2-0.1C10.9,1.2,10.8,1.2,10.8,1.2z M9.7,1.9C9.7,1.9,9.7,1.8,9.7,1.9l1-0.5
	C10.4,1.4,10,1.6,9.7,1.9z M9.6,1.9L9.6,1.9c0,0,0.1,0,0.1-0.1C9.7,1.9,9.6,1.9,9.6,1.9z M10.8,1.2l-0.1,0.1
	C10.8,1.3,10.8,1.2,10.8,1.2c0.1,0,0.1,0,0.2-0.1C10.9,1.2,10.8,1.2,10.8,1.2z M19.9,2.3c-0.1-0.1-0.2-0.1-0.3-0.1h-2.8
	c-0.2-0.4-0.9-1.1-2.1-1.8c-1.7-0.9-4.1,0.1-4.2,0.1c0,0,0,0,0,0l-0.1,0.1c0,0,0,0,0,0c0,0,0,0,0,0C9.8,0.8,8.9,1.3,8.4,2
	C7.6,3.2,7,4.9,7.6,6.1C7.8,6.4,8.1,6.8,8.7,7c-0.5,1.6-1.3,3.8-3,5.8c-1.2,1.5-3.1,4.3-3.1,5.9c-0.3-0.1-0.6-0.4-0.8-0.7
	c-0.4-0.6-0.4-1.5,0.1-2.7c0.4-1.1,0.1-1.8-0.2-2.1c-0.3-0.4-0.9-0.6-1.5-0.5c-0.2,0-0.4,0.2-0.3,0.4c0,0.2,0.2,0.4,0.4,0.3
	c0.3,0,0.6,0.1,0.8,0.3c0.2,0.3,0.2,0.7,0,1.3c-0.5,1.4-0.5,2.5,0,3.3c0.5,0.9,1.4,1.2,1.8,1.3C3.2,19.8,3.5,20,4,20h9.5
	c0.1,0,0.2-0.1,0.3-0.2c0.1-0.1,0.7-1,0.3-1.8c-0.3-0.5-0.9-0.8-2-0.8h-1.1l1.1-3c0,0,0,0,0,0l-0.1-0.4c0-0.1-0.1-0.1-0.2-0.1
	c-0.2-0.1-0.4,0-0.5,0.2l-1.1,2.9l-0.2,0.5l-0.1,0.1c-0.1,0.2,0,0.4,0.2,0.5c0,0,0.1,0,0.1,0h1.7c0.7,0,1.2,0.1,1.3,0.4
	c0.1,0.2,0,0.6-0.2,0.8H4c-0.4,0-0.4-0.1-0.5-0.2c-0.3-0.7,0.7-3.1,2.8-5.8c1.5-1.9,2.4-3.9,2.9-5.5c0.1-0.2,0.1-0.5,0.2-0.7
	c0.1,0,0.2,0,0.2,0c0.3,0,0.7,0,0.9-0.1c0.5-0.1,0.9-0.4,1.2-0.8c0.6-0.9,0.5-2.2-0.1-4.1c-0.1-0.2-0.3-0.3-0.5-0.2
	C11,2,10.9,2.2,11,2.4c0.6,1.5,0.7,2.7,0.2,3.3c-0.2,0.2-0.4,0.4-0.7,0.5C10.3,6.3,10,6.4,9.7,6.4C9,6.4,8.5,6.1,8.3,5.7
	C7.9,4.9,8.4,3.4,9.1,2.4c0.1-0.2,0.3-0.4,0.5-0.5l0,0c0,0,0.1,0,0.1,0c0.3-0.2,0.7-0.4,1-0.5h0l0.1-0.1c0,0,0.1,0,0.2-0.1
	c0.5-0.2,2.2-0.7,3.4-0.1c1.4,0.8,1.9,1.7,1.9,1.7C16.3,2.9,16.4,3,16.6,3h2.5l-0.6,2.1c-0.1,0.1-0.3,0.3-0.7,0.6c0,0-0.1,0-0.1,0h0
	c-0.2,0-0.5,0-0.8-0.1c-0.2,0-0.5-0.1-0.7-0.2c-0.5-0.2-0.6-0.4-0.7-0.6v0c0-0.1,0-0.2,0-0.2c0-0.2-0.2-0.4-0.4-0.4
	c-0.2,0-0.4,0.2-0.4,0.4c0,0.5,0.2,1.2,1.2,1.6c0,0,0,0,0.1,0l-0.9,0.3C15.1,6.5,15,6.7,15,6.8c0,0-0.3,2.3-0.7,4.4
	c-0.3,1.3-1.1,3.4-1.7,4.9v0c-0.1,0.2-0.1,0.4-0.2,0.5c-0.1,0.2,0,0.4,0.2,0.5c0,0,0.1,0,0.1,0c0.2,0,0.3-0.1,0.4-0.2
	c0.6-1.4,1.6-4,1.9-5.5c0.4-1.7,0.6-3.6,0.7-4.2l1.1-0.4c1.5,0,2.4-1.2,2.4-1.3c0,0,0.1-0.1,0.1-0.1L20,2.7C20,2.6,20,2.4,19.9,2.3z
	 M12.1,13.8l0.1,0.4C12.2,14.1,12.2,13.9,12.1,13.8z"/>
</svg>
