<?xml version="1.0" encoding="utf-8"?>
<!-- Generator: Adobe Illustrator 19.0.0, SVG Export Plug-In . SVG Version: 6.00 Build 0)  -->
<svg version="1.1" id="Capa_1" xmlns="http://www.w3.org/2000/svg" xmlns:xlink="http://www.w3.org/1999/xlink" x="0px" y="0px"
	 viewBox="0 0 20 20" style="enable-background:new 0 0 20 20;" xml:space="preserve">
<style type="text/css">
	.st0{fill:#7DD1C4;}
</style>
<path id="path0_fill_3_" class="st0" d="M9.1,8.1C9,8,8.8,8,8.7,8.1C8.5,8.3,8.2,8.4,7.9,8.4c-0.3,0-0.6-0.1-0.8-0.3
	C6.9,8,6.8,8,6.7,8.1c-0.1,0.1-0.1,0.3,0,0.4C7,8.8,7.4,9,7.9,9C8.3,9,8.7,8.8,9,8.6C9.2,8.4,9.2,8.3,9.1,8.1z"/>
<path id="path1_fill_3_" class="st0" d="M6.2,6C6.1,6,5.9,6.2,5.9,6.3v0.3c0,0.2,0.1,0.3,0.3,0.3c0.2,0,0.3-0.1,0.3-0.3V6.3
	C6.5,6.2,6.4,6,6.2,6z"/>
<path id="path2_fill_2_" class="st0" d="M9.5,6C9.3,6,9.2,6.2,9.2,6.3v0.3c0,0.2,0.1,0.3,0.3,0.3c0.2,0,0.3-0.1,0.3-0.3V6.3
	C9.8,6.2,9.7,6,9.5,6z"/>
<path id="path3_fill_2_" class="st0" d="M12.1,12c-0.2,0-0.3,0.1-0.3,0.3v0.3c0,0.2,0.1,0.3,0.3,0.3c0.2,0,0.3-0.1,0.3-0.3v-0.3
	C12.4,12.2,12.3,12,12.1,12z"/>
<path id="path4_fill_1_" class="st0" d="M14.8,12c-0.2,0-0.3,0.1-0.3,0.3v0.3c0,0.2,0.1,0.3,0.3,0.3c0.2,0,0.3-0.1,0.3-0.3v-0.3
	C15,12.2,14.9,12,14.8,12z"/>
<path id="path5_fill_1_" class="st0" d="M12.5,18.7c-0.2,0-0.3,0.1-0.3,0.3v0.7c0,0.2,0.1,0.3,0.3,0.3c0.2,0,0.3-0.1,0.3-0.3V19
	C12.7,18.9,12.6,18.7,12.5,18.7z"/>
<path id="path6_fill" class="st0" d="M14.4,18.7c-0.2,0-0.3,0.1-0.3,0.3v0.7c0,0.2,0.1,0.3,0.3,0.3c0.2,0,0.3-0.1,0.3-0.3V19
	C14.7,18.9,14.6,18.7,14.4,18.7z"/>
<path id="path7_fill" class="st0" d="M18,10.8c-0.7-1-2-2-2-2.1c-0.1-0.1-0.3-0.1-0.4,0l-0.6,0.6C14.5,9.2,14,9,13.4,9
	c-0.3,0-0.6,0-0.8,0.1c-0.1-1.1-0.2-2.6-0.2-4.5c0-2.6-2-4.6-4.6-4.6C5.4,0,3.3,2.1,3.3,4.6c0,3.3-0.3,5.6-0.3,5.6
	c0,0.1,0,0.2,0.2,0.3c0.1,0,1.3,0.6,2.6,1c0,0-0.1,0.1-0.1,0.1l-2.8,1.5C2.3,13.4,2,13.8,2,14.3v1.4c0,0.2,0.1,0.4,0.3,0.6v3.5
	c0,0.2,0.1,0.3,0.3,0.3c0.2,0,0.3-0.1,0.3-0.3v-3.4H4v3.4C4,19.9,4.1,20,4.3,20c0.2,0,0.3-0.1,0.3-0.3v-4.4c0-0.2-0.1-0.3-0.3-0.3
	c-0.2,0-0.3,0.1-0.3,0.3v0.4H2.6c0,0,0,0,0,0v-1.4c0-0.3,0.1-0.5,0.4-0.6l1.5-0.8c0.5,1.4,1.8,2.4,3.4,2.4c1.1,0,2.1-0.5,2.8-1.4
	c0.1,0.4,0.3,0.7,0.5,1c0,0.2,0.1,0.4,0.2,0.6l-0.6,4.2c0,0.2,0.1,0.3,0.2,0.3c0,0,0,0,0,0c0.1,0,0.3-0.1,0.3-0.3l0.5-3.9
	c0,0,0.1,0,0.2,0.1c0.3,0.4,0.8,0.7,1.3,0.7c0.5,0,1-0.3,1.3-0.7c0.1,0,0.1,0,0.2-0.1l0.5,3.9c0,0.1,0.1,0.3,0.3,0.3c0,0,0,0,0,0
	c0.2,0,0.3-0.2,0.2-0.3l-0.6-4.2c0.1-0.2,0.2-0.3,0.2-0.6c0.4-0.5,0.6-1.1,0.7-1.7c1-0.5,1.6-2,1.6-2.1C18,11,18,10.9,18,10.8z
	 M3.9,4.6c0-2.2,1.8-4.1,4-4.1c2.2,0,4,1.8,4,4.1c0,2,0.1,3.7,0.2,4.7c0,0-0.1,0-0.1,0l-0.6-0.6c0,0,0,0,0,0c0.2-0.5,0.4-1,0.4-1.5
	c0,0,0-0.3,0-0.3c0-1.7-1.3-2-2.8-2.4C8.2,4.4,7.3,4.2,6.4,3.7C6.2,3.6,6,3.7,6,3.8c0,0-0.6,1.2-1.8,1.5c-0.1,0-0.2,0-0.3,0.1
	C3.9,5.2,3.9,4.9,3.9,4.6z M11.2,7c0,1.9-1.5,3.4-3.3,3.4C6,10.4,4.5,8.9,4.5,7c0-0.2-0.1-0.3-0.3-0.3c-0.2,0-0.4-0.2-0.4-0.4
	c0-0.2,0.2-0.4,0.4-0.4c0,0,0,0,0.1,0c1.1-0.3,1.7-1.1,2-1.6C7.2,4.8,8.1,5,8.8,5.2C10.4,5.5,11.2,5.8,11.2,7z M3.6,10.2
	c0.1-0.4,0.2-1.5,0.2-3c0,0,0.1,0,0.2,0.1c0.1,1.4,0.9,2.6,2,3.2V11C5,10.8,4,10.4,3.6,10.2z M7.9,14.7c-1.3,0-2.5-0.9-2.8-2.1
	l0.8-0.4c0.4-0.2,0.7-0.7,0.7-1.2v-0.3C6.9,10.9,7.4,11,7.9,11c0.4,0,0.8-0.1,1.1-0.2c0,0,0,0,0,0c-0.1,0.1-0.1,0.2,0,0.3
	c0,0.1,0.6,1.5,1.6,2.1C9.9,14.1,9,14.7,7.9,14.7z M10.5,12v0.5c-0.5-0.4-0.8-1.1-1-1.5c0.5-0.7,1.3-1.4,1.6-1.7l0.4,0.4
	C10.9,10.3,10.5,11.1,10.5,12z M13.4,16.1c-0.2,0-0.4-0.1-0.5-0.2c0.2-0.1,0.4-0.2,0.5-0.4c0.1,0.2,0.3,0.3,0.5,0.4
	C13.8,16,13.6,16.1,13.4,16.1z M13.1,14c0-0.2,0.2-0.4,0.4-0.4c0.2,0,0.4,0.2,0.4,0.4c0,0.2-0.2,0.4-0.4,0.4
	C13.2,14.4,13.1,14.2,13.1,14z M15.8,13c0,0.4-0.1,0.7-0.2,1.1c-0.1-0.1-0.2-0.2-0.3-0.3c-0.1-0.1-0.3-0.1-0.4,0
	c-0.1,0.1-0.1,0.3,0,0.4c0.1,0.1,0.2,0.3,0.2,0.5c0,0.4-0.3,0.7-0.7,0.7c-0.3,0-0.6-0.2-0.7-0.5c0.4-0.1,0.6-0.5,0.6-0.9
	c0-0.5-0.4-1-0.9-1s-0.9,0.4-0.9,1c0,0.4,0.3,0.8,0.6,0.9c-0.1,0.3-0.4,0.5-0.7,0.5c-0.4,0-0.7-0.3-0.7-0.7c0-0.2,0.1-0.4,0.2-0.5
	c0.1-0.1,0.1-0.3,0-0.4c-0.1-0.1-0.3-0.1-0.4,0c-0.1,0.1-0.2,0.2-0.3,0.3c-0.2-0.3-0.2-0.7-0.2-1.1v-1c0-1.3,1-2.4,2.3-2.4
	s2.3,1.1,2.3,2.4V13z M16.4,12.5V12c0-0.9-0.4-1.7-1-2.2l0.4-0.4c0.4,0.3,1.1,1,1.6,1.7C17.2,11.4,16.8,12.1,16.4,12.5z"/>
</svg>
