<?xml version="1.0" encoding="utf-8"?>
<!-- Generator: Adobe Illustrator 18.0.0, SVG Export Plug-In . SVG Version: 6.00 Build 0)  -->
<!DOCTYPE svg PUBLIC "-//W3C//DTD SVG 1.1//EN" "http://www.w3.org/Graphics/SVG/1.1/DTD/svg11.dtd">
<svg version="1.1" id="Capa_1" xmlns="http://www.w3.org/2000/svg" xmlns:xlink="http://www.w3.org/1999/xlink" x="0px" y="0px"
	 viewBox="0 0 1698.9 800" enable-background="new 0 0 1698.9 800" xml:space="preserve">
<rect x="193.5" y="400.5" fill="#8FFFDE" width="1249.6" height="21.3"/>
<rect x="193.5" y="400.5" fill="#8FFFDE" width="435.7" height="21.3"/>
<g>
	<path fill="#8FFFDE" d="M189.9,328c-43.5,0-78.7,35.2-78.7,78.7c0,43.5,35.2,78.7,78.7,78.7c43.5,0,78.7-35.2,78.7-78.7
		C268.6,363.3,233.3,328,189.9,328z"/>
</g>
<g>
	<g>
		<g>
			
				<circle fill="none" stroke="#006E8F" stroke-width="5" stroke-linecap="round" stroke-miterlimit="10" stroke-dasharray="15.4548,15.4548" cx="200.2" cy="416.4" r="78.7"/>
		</g>
	</g>
</g>
<g>
	<path fill="#881C9B" d="M190.3,367.7h7.5c2.9,0,5.1,3.3,5.2,5.7v77.1c0,3.6-2.8,6.4-6.2,6.4c-3.6,0-6.4-2.8-6.4-6.4v-70.3
		c-3.7,0-6.5-2.8-6.5-6.2C183.9,370.4,186.7,367.7,190.3,367.7z"/>
</g>
<g>
	<path fill="#8FFFDE" d="M790,328c-43.5,0-78.7,35.2-78.7,78.7c0,43.5,35.2,78.7,78.7,78.7c43.5,0,78.7-35.2,78.7-78.7
		C868.7,363.3,833.4,328,790,328z"/>
</g>
<g>
	<g>
		<g>
			
				<circle fill="none" stroke="#006E8F" stroke-width="5" stroke-linecap="round" stroke-miterlimit="10" stroke-dasharray="15.4548,15.4548" cx="800.3" cy="416.4" r="78.7"/>
		</g>
	</g>
</g>
<g>
	<path fill="#8FFFDE" d="M1411.5,328c-43.5,0-78.7,35.2-78.7,78.7c0,43.5,35.2,78.7,78.7,78.7c43.5,0,78.7-35.2,78.7-78.7
		C1490.2,363.3,1454.9,328,1411.5,328z"/>
</g>
<g>
	<g>
		<g>
			
				<circle fill="none" stroke="#006E8F" stroke-width="5" stroke-linecap="round" stroke-miterlimit="10" stroke-dasharray="15.4548,15.4548" cx="1421.8" cy="416.4" r="78.7"/>
		</g>
	</g>
</g>
<g>
	<path fill="#881C9B" d="M1389,367.7h7.5c2.9,0,5.1,3.3,5.2,5.7v77.1c0,3.6-2.8,6.4-6.2,6.4c-3.6,0-6.4-2.8-6.4-6.4v-70.3
		c-3.7,0-6.5-2.8-6.5-6.2C1382.6,370.4,1385.4,367.7,1389,367.7z"/>
	<path fill="#881C9B" d="M1461,431v0.1c-0.1,14.1-11.7,25.6-25.8,25.6c-14.1,0-25.6-11.4-25.7-25.6V431v-16.8v-20.7v-0.1
		c0.1-14.1,11.6-25.6,25.7-25.6c14.1,0,25.7,11.5,25.8,25.6v0.1v16.9V431z M1448.4,430.8v-16.7v-20.6c0-7.3-5.8-13.2-13.2-13.2
		c-7.3,0-13.1,6-13.1,13.2v16.8v20.5c0,7.4,5.9,13.2,13.1,13.2C1442.6,444.1,1448.4,438.2,1448.4,430.8z"/>
</g>
<g>
	<path fill="#881C9B" d="M825,425c0,17.4-14.2,31.6-31.6,31.6c-12.2,0-23-6.8-28.4-17.7c-1.5-3.1-0.1-6.8,2.9-8.3
		c3.1-1.5,6.8-0.3,8.3,2.8c3.3,6.7,9.8,10.8,17.2,10.8c10.6,0,19.1-8.6,19.1-19.1c0-10.6-8.7-19.1-19.1-19.1c-3.7,0-7.1,1-9.9,2.8
		c-1.4,0.8-2.3,1.6-4.3,1.6c-3.3,0-5.9-2.4-6.2-5.5v-30.3v-0.1c0-3.4,2.8-6.2,6.2-6.2h39.6c3.4,0,6.3,2.8,6.3,6.2s-2.9,6.3-6.3,6.3
		h-33.5v13.8C804,389.7,825,403.6,825,425z"/>
</g>
</svg>
