<svg width="57" height="73" viewBox="0 0 57 73" version="1.1" xmlns="http://www.w3.org/2000/svg" xmlns:xlink="http://www.w3.org/1999/xlink">
<title>Group</title>
<desc>Created using Figma</desc>
<g id="Canvas" transform="translate(-1755 4663)">
<g id="Group">
<g id="Group">
<g id="Vector 8">
<use xlink:href="#path0_stroke" transform="translate(1756 -4662)" fill="#7DD1C4"/>
</g>
<g id="Group">
<g id="Fill 1">
<use xlink:href="#path1_fill" transform="translate(1780.85 -4627.76)" fill="#6A2499"/>
</g>
<g id="Fill 2">
<use xlink:href="#path2_fill" transform="translate(1779.65 -4630.47)" fill="#6A2499"/>
</g>
<g id="Fill 3">
<use xlink:href="#path3_fill" transform="translate(1782.8 -4631.52)" fill="#6A2499"/>
</g>
<g id="Fill 4">
<use xlink:href="#path4_fill" transform="translate(1785.96 -4630.47)" fill="#6A2499"/>
</g>
<g id="Fill 6">
<use xlink:href="#path5_fill" transform="translate(1769.13 -4648.13)" fill="#6A2499"/>
</g>
<g id="Fill 8">
<use xlink:href="#path6_fill" transform="translate(1775.05 -4635.11)" fill="#6A2499"/>
</g>
</g>
</g>
</g>
</g>
<defs>
<path id="path0_stroke" d="M 26.9388 71L 26.7164 71.302L 26.9343 71.4624L 27.1553 71.3062L 26.9388 71ZM 0 51.1618L -0.375 51.1618L -0.375 51.3513L -0.222367 51.4637L 0 51.1618ZM 0 0L 0 -0.375L -0.375 -0.375L -0.375 0L 0 0ZM 55 0L 55.375 0L 55.375 -0.375L 55 -0.375L 55 0ZM 55 51.1618L 55.2165 51.468L 55.375 51.3559L 55.375 51.1618L 55 51.1618ZM 27.1611 70.698L 0.222367 50.8598L -0.222367 51.4637L 26.7164 71.302L 27.1611 70.698ZM 0.375 51.1618L 0.375 0L -0.375 0L -0.375 51.1618L 0.375 51.1618ZM 0 0.375L 55 0.375L 55 -0.375L 0 -0.375L 0 0.375ZM 54.625 0L 54.625 51.1618L 55.375 51.1618L 55.375 0L 54.625 0ZM 54.7835 50.8556L 26.7223 70.6938L 27.1553 71.3062L 55.2165 51.468L 54.7835 50.8556Z"/>
<path id="path1_fill" fill-rule="evenodd" d="M 3.27979 0C 1.47136 0 0 1.38703 0 3.09235C 0 3.90208 0.471243 4.38565 1.26026 4.38565C 1.62266 4.38565 2.02035 4.29215 2.40488 4.20198C 2.72318 4.1274 3.05232 4.04995 3.27979 4.04995C 3.47803 4.04995 3.79073 4.12392 4.09295 4.19516C 4.48892 4.28889 4.89864 4.38565 5.27622 4.38565C 6.08004 4.38535 6.5598 3.90208 6.5598 3.09235C 6.5598 1.38703 5.08844 0 3.27979 0ZM 5.47946 3.28878C 5.47887 3.28901 5.43446 3.32126 5.27539 3.32126C 5.01809 3.32126 4.66854 3.23873 4.33014 3.15893C 3.95375 3.0699 3.59778 2.98593 3.27896 2.98593C 2.93173 2.98593 2.54309 3.07702 2.16753 3.16514C 1.84049 3.24199 1.50208 3.32126 1.25943 3.32126C 1.1248 3.32126 1.0804 3.29438 1.07987 3.29703C 1.07748 3.29317 1.04773 3.2432 1.04773 3.08973C 1.04773 1.97004 2.04875 1.05908 3.27896 1.05908C 4.50969 1.05908 5.51071 1.97004 5.51071 3.08973C 5.51071 3.22011 5.48679 3.27932 5.47946 3.28878Z"/>
<path id="path2_fill" fill-rule="evenodd" d="M 2.8537 1.69487C 2.8537 0.760293 2.21366 0 1.42704 0C 0.640036 0 0 0.760293 0 1.69487C 0 2.62945 0.640036 3.38982 1.42704 3.38982C 2.21366 3.38982 2.8537 2.62945 2.8537 1.69487ZM 1.04773 1.6947C 1.04773 1.33242 1.24777 1.06152 1.4265 1.06152C 1.60516 1.06152 1.8049 1.33242 1.8049 1.6947C 1.8049 2.05698 1.60516 2.32795 1.4265 2.32795C 1.24777 2.32795 1.04773 2.05698 1.04773 1.6947Z"/>
<path id="path3_fill" fill-rule="evenodd" d="M 1.42704 3.38982C 2.21366 3.38982 2.85407 2.62945 2.85407 1.69487C 2.85407 0.760369 2.21366 0 1.42704 0C 0.64011 0 0 0.760369 0 1.69487C 0 2.62945 0.64011 3.38982 1.42704 3.38982ZM 1.4273 1.06445C 1.60604 1.06445 1.8057 1.33535 1.8057 1.69763C 1.8057 2.05998 1.60604 2.33088 1.4273 2.33088C 1.24857 2.33088 1.04883 2.05998 1.04883 1.69763C 1.04883 1.33535 1.24857 1.06445 1.4273 1.06445Z"/>
<path id="path4_fill" fill-rule="evenodd" d="M 1.42674 0C 0.64011 0 0 0.760293 0 1.69487C 0 2.62945 0.64011 3.38982 1.42674 3.38982C 2.21374 3.38982 2.85377 2.62945 2.85377 1.69487C 2.85377 0.760293 2.21374 0 1.42674 0ZM 1.42674 2.32795C 1.24838 2.32795 1.04834 2.05698 1.04834 1.6947C 1.04834 1.33242 1.24808 1.06152 1.42674 1.06152C 1.60547 1.06152 1.80551 1.33242 1.80551 1.6947C 1.80551 2.05698 1.60547 2.32795 1.42674 2.32795Z"/>
<path id="path5_fill" fill-rule="evenodd" d="M 29.7112 10.56L 16.2074 0.332145C 15.9204 0.115081 15.5788 0 15.219 0L 15.2123 0C 15.2091 0 15.2036 0 15.2036 0L 15.1927 0.000302845C 15.189 2.45432e-13 15.1852 0 15.1814 0L 15.1694 0C 15.1694 0 15.1641 0 15.1609 0L 15.1539 0C 14.7944 0 14.4525 0.115081 14.1658 0.332145L 0.662007 10.56C -0.0673581 11.1124 -0.217163 12.1629 0.32831 12.902L 1.45977 14.4342C 1.77022 14.8548 2.26516 15.1056 2.78372 15.1056C 3.04715 15.1056 3.30116 15.0428 3.53155 14.9237L 3.53155 29.3381C 3.53155 30.2606 4.27295 31.0115 5.18404 31.0115L 25.1892 31.0115C 26.1002 31.0115 26.8416 30.2606 26.8416 29.3381L 26.8416 14.9237C 27.072 15.0428 27.3261 15.1056 27.5895 15.1056C 28.1081 15.1056 28.603 14.8545 28.9134 14.4342L 30.045 12.902C 30.5901 12.1629 30.4406 11.1124 29.7112 10.56ZM 25.1896 29.9489L 5.18442 29.9489C 4.85125 29.9489 4.58057 29.6747 4.58057 29.3376L 4.58057 14.1598L 15.187 6.12646L 25.7935 14.1598L 25.7935 29.3376C 25.7935 29.6747 25.5225 29.9489 25.1896 29.9489ZM 29.2052 12.2652L 28.0736 13.7974C 27.9586 13.9533 27.7822 14.0429 27.5895 14.0429C 27.4586 14.0429 27.334 14.0006 27.2288 13.9211L 15.5005 5.038C 15.4073 4.96759 15.297 4.93238 15.1866 4.93238C 15.0762 4.93238 14.9658 4.96759 14.8727 5.038L 3.14431 13.9211C 3.03921 14.0006 2.91422 14.0429 2.7837 14.0429C 2.59099 14.0429 2.41435 13.9533 2.2993 13.7974L 1.16807 12.2652C 0.968626 11.9951 1.02327 11.6113 1.28984 11.4093L 14.7935 1.18172C 14.8978 1.10275 15.0225 1.06104 15.1594 1.06104C 15.3507 1.06104 15.4754 1.10275 15.5793 1.18172L 29.0831 11.4093C 29.3497 11.6113 29.4043 11.9951 29.2052 12.2652Z"/>
<path id="path6_fill" fill-rule="evenodd" d="M 13.1507 0C 11.6644 0 10.2815 0.601829 9.26968 1.67065C 8.2576 0.601829 6.87496 0 5.38865 0C 2.41721 0 0 2.4482 0 5.45772C 0 6.86103 0.492324 8.27471 1.46329 9.6597C 2.21897 10.7374 3.26671 11.8018 4.5775 12.823C 6.78705 14.5442 8.96311 15.5438 9.05476 15.5855C 9.12309 15.6166 9.19642 15.632 9.26968 15.632C 9.33426 15.632 9.39907 15.6201 9.46037 15.5959C 9.55239 15.5596 11.7371 14.6862 13.954 13.0256C 15.2695 12.0401 16.321 10.9805 17.0791 9.87677C 18.0479 8.46543 18.5394 6.97876 18.5394 5.45772C 18.5394 2.4482 16.1221 0 13.1507 0ZM 9.28374 14.5221C 8.00128 13.8912 1.04895 10.2488 1.04895 5.4595C 1.04895 3.03553 2.99604 1.06348 5.38926 1.06348C 6.76083 1.06348 8.02318 1.69991 8.85212 2.80991C 8.95147 2.9424 9.1062 3.02016 9.27029 3.02016C 9.43445 3.02016 9.58918 2.9424 9.68816 2.80991C 10.5175 1.69991 11.7798 1.06348 13.1513 1.06348C 15.5446 1.06348 17.4914 3.03553 17.4914 5.4595C 17.4914 10.6977 10.5723 13.9601 9.28374 14.5221Z"/>
</defs>
</svg>
