<?xml version="1.0" encoding="utf-8"?>
<!-- Generator: Adobe Illustrator 19.0.0, SVG Export Plug-In . SVG Version: 6.00 Build 0)  -->
<svg version="1.1" id="Capa_1" xmlns="http://www.w3.org/2000/svg" xmlns:xlink="http://www.w3.org/1999/xlink" x="0px" y="0px"
	 viewBox="-122.8 -35.4 120.5 71.4" style="enable-background:new -122.8 -35.4 120.5 71.4;" xml:space="preserve">
<style type="text/css">
	.st0{fill:#0D7AD9;}
	.st1{fill:#7DD1C4;}
	.st2{fill:#6B1C9B;}
	.st3{filter:url(#Adobe_OpacityMaskFilter);}
	.st4{fill:#FFFFFF;}
	.st5{mask:url(#mask-2);}
	.st6{filter:url(#Adobe_OpacityMaskFilter_1_);}
	.st7{mask:url(#mask-4);}
</style>
<path id="path0_fill" class="st0" d="M-31.3-2.2c-5.4,13.5-32.3,22.5-32.3,22.5s-8.3-23.4-2.9-36.9c5.4-13.5,17.7-21.2,27.4-17.2
	C-29.3-29.9-25.8-15.7-31.3-2.2z"/>
<path id="path1_fill" class="st1" d="M-58.1-16.3c5.3,13.6-8,38.5-8,38.5S-88.2,11-93.5-2.6c-5.3-13.6-1.7-27.6,8.1-31.4
	S-63.4-29.8-58.1-16.3z"/>
<path id="path2_stroke_2x" d="M-61.5,26.3l-1.7,0.6l0.6,1.7l1.7-0.6L-61.5,26.3z M-31,3.1c-2.5,6.1-9.9,11.4-17.3,15.4
	c-3.6,1.9-7.1,3.4-9.6,4.5c-1.3,0.5-2.3,0.9-3.1,1.2c-0.4,0.1-0.6,0.2-0.8,0.3c-0.1,0-0.2,0.1-0.2,0.1c0,0,0,0-0.1,0c0,0,0,0,0,0
	c0,0,0,0,0,0c0,0,0,0,0,0c0,0,0,0,0.6,1.8c0.6,1.8,0.6,1.8,0.6,1.8c0,0,0,0,0,0c0,0,0,0,0,0c0,0,0,0,0,0c0,0,0,0,0.1,0
	c0.1,0,0.1,0,0.2-0.1c0.2-0.1,0.5-0.2,0.9-0.3c0.8-0.3,1.9-0.7,3.2-1.2c2.6-1.1,6.2-2.6,10-4.6c7.4-3.9,16-9.8,19-17.2L-31,3.1z
	 M-61.5,26.3c1.7-0.6,1.7-0.6,1.7-0.6c0,0,0,0,0,0c0,0,0,0,0,0c0,0,0,0,0,0c0,0,0,0,0,0c0,0,0-0.1-0.1-0.2c-0.1-0.2-0.1-0.4-0.2-0.7
	c-0.2-0.7-0.5-1.6-0.8-2.8c-0.7-2.4-1.5-5.6-2.2-9.4c-1.4-7.5-2-16.3,0.5-22.5l-3.4-1.4c-2.9,7.3-2.1,17-0.7,24.6
	c0.7,3.8,1.6,7.3,2.3,9.7c0.4,1.2,0.7,2.2,0.9,2.9c0.1,0.3,0.2,0.6,0.3,0.8c0,0.1,0.1,0.2,0.1,0.2c0,0,0,0,0,0.1c0,0,0,0,0,0
	c0,0,0,0,0,0c0,0,0,0,0,0C-63.3,26.9-63.3,26.9-61.5,26.3z M-62.7-10c2.6-6.4,6.8-11.4,11.4-14.3c4.6-2.9,9.5-3.6,13.6-1.9l1.4-3.4
	c-5.5-2.3-11.7-1.1-17,2.2c-5.3,3.3-10,9-12.8,16L-62.7-10z M-37.7-26.2c4.2,1.7,7.1,5.7,8.4,11c1.3,5.3,0.8,11.8-1.7,18.3l3.4,1.4
	c2.9-7.1,3.4-14.4,1.9-20.5c-1.5-6.1-5.1-11.3-10.6-13.6L-37.7-26.2z"/>
<path id="path3_fill" class="st2" d="M-24.5,28.4c-13.2,6.1-38.9-5.8-38.9-5.8s10-22.7,23.3-28.8s27.4-3.2,31.8,6.3
	C-4,9.7-11.3,22.3-24.5,28.4z"/>
<path id="path5_stroke_2x" d="M-61.1,26l-1.7-0.7l-0.7,1.6l1.6,0.8L-61.1,26z M-22.4,30.7c-6,2.8-15.3,1.4-23.5-1
	c-4-1.2-7.6-2.5-10.3-3.6c-1.3-0.5-2.4-1-3.1-1.3c-0.4-0.2-0.6-0.3-0.8-0.4c-0.1,0-0.2-0.1-0.2-0.1c0,0,0,0-0.1,0c0,0,0,0,0,0
	c0,0,0,0,0,0c0,0,0,0,0,0c0,0,0,0-0.8,1.7c-0.8,1.7-0.8,1.7-0.8,1.7c0,0,0,0,0,0c0,0,0,0,0,0c0,0,0,0,0,0c0,0,0,0,0.1,0
	c0.1,0,0.1,0.1,0.2,0.1c0.2,0.1,0.5,0.2,0.9,0.4c0.7,0.3,1.9,0.8,3.2,1.4c2.7,1.1,6.5,2.5,10.6,3.7c8.2,2.4,18.7,4.2,26,0.8
	L-22.4,30.7z M-61.1,26c1.7,0.7,1.7,0.7,1.7,0.7c0,0,0,0,0,0c0,0,0,0,0,0c0,0,0,0,0,0c0,0,0,0,0,0c0,0,0-0.1,0.1-0.2
	c0.1-0.2,0.2-0.4,0.3-0.7c0.3-0.6,0.7-1.5,1.3-2.7c1.1-2.3,2.8-5.3,4.8-8.5C-48.8,8-43.2,1.1-37-1.8l-1.5-3.4
	C-45.8-1.8-51.8,6-56,12.6c-2.1,3.4-3.8,6.5-5,8.9c-0.6,1.2-1,2.1-1.3,2.8c-0.2,0.3-0.3,0.6-0.4,0.8c0,0.1-0.1,0.2-0.1,0.2
	c0,0,0,0,0,0.1c0,0,0,0,0,0c0,0,0,0,0,0c0,0,0,0,0,0C-62.8,25.3-62.8,25.3-61.1,26z M-37-1.8c6.4-2.9,12.9-3.6,18.3-2.5
	c5.4,1.1,9.6,4.1,11.5,8.4l3.3-1.5C-6.3-3-11.6-6.6-17.9-7.9c-6.3-1.3-13.6-0.5-20.6,2.7L-37-1.8z M-7.2,4.1
	c1.9,4.3,1.4,9.4-1.3,14.3c-2.7,4.9-7.5,9.4-13.9,12.3l1.5,3.4c7-3.2,12.5-8.3,15.6-13.9c3.1-5.6,4-12,1.5-17.6L-7.2,4.1z"/>
<path id="Fill-1" d="M-106.6-19.2c1.9-1,3-4.6,1.9-7.9c-1.1-3.3-4.5-6.2-7.5-5.3c-3.1,0.9-3.9,4.7-2.4,8.3
	C-112.9-19.9-108.3-18.3-106.6-19.2"/>
<defs>
	<filter id="Adobe_OpacityMaskFilter" filterUnits="userSpaceOnUse" x="-102" y="-35.4" width="9.7" height="10.2">
		<feColorMatrix  type="matrix" values="1 0 0 0 0  0 1 0 0 0  0 0 1 0 0  0 0 0 1 0"/>
	</filter>
</defs>
<mask maskUnits="userSpaceOnUse" x="-102" y="-35.4" width="9.7" height="10.2" id="mask-2">
	<g class="st3">
		<polygon id="path-1" class="st4" points="-100.7,-36.5 -90.4,-32.2 -93.8,-24.1 -104.1,-28.4 		"/>
	</g>
</mask>
<path id="Fill-3" class="st5" d="M-93.3-25.9c1.7-1.5,1.1-5.6-1.6-7.8c-1.6-1.3-4.8-2.3-6.2-1.1c-1.3,1.1-1.3,4,0.1,6.4
	C-99.4-25.8-95.1-24.3-93.3-25.9"/>
<path id="Fill-6" d="M-109.2,12.4c2.5-1.5,2.3-6.2,0.3-9c-1.7-2.3-5.6-3.8-7.2-2.9s-2.6,4.2-1.1,7.5
	C-115.6,11.7-111.4,13.8-109.2,12.4"/>
<path id="Fill-8" d="M-112.7-14.6c-1.6-2.6-4.9-4.9-7.3-3.8c-3.3,1.6-3,5.8-2.6,7.4c1.2,5,6.4,7.5,8.5,6.6
	C-112.3-5.2-110-10.2-112.7-14.6"/>
<defs>
	<filter id="Adobe_OpacityMaskFilter_1_" filterUnits="userSpaceOnUse" x="-108" y="-22.3" width="49.9" height="56.1">
		<feColorMatrix  type="matrix" values="1 0 0 0 0  0 1 0 0 0  0 0 1 0 0  0 0 0 1 0"/>
	</filter>
</defs>
<mask maskUnits="userSpaceOnUse" x="-108" y="-22.3" width="49.9" height="56.1" id="mask-4">
	<g class="st6">
		<polygon id="path-3" class="st4" points="-119.3,17.6 -67.6,39.3 -48.1,-7.1 -99.9,-28.8 		"/>
	</g>
</mask>
<path id="Fill-11" class="st7" d="M-92.3-22.1c-6.7,0.8-12.3,5-15.3,11.6c-1.5,3.5,1.3,6,2.7,6.6c1.4,0.6,4.6,0.9,6.3-2.3
	c1.7-3.2,4.5-5.5,9.2-6.6s11.7,0.8,17.5,8.5c4.7,6.2,6.3,15.3,2.6,23.3c-0.9,2-3.3,5.1-7.3,5.9c-4,0.8-8-1.1-9.8-3.2
	c-3.2-3.7-5.8-10.1-4.8-16.4c0.8-4.9-6.4-6.1-7.2-1.7c-0.8,4.5-0.8,12.9,5,20.9c5.9,8,12,10.2,19.4,9.2c7.4-1.1,11.1-5.7,13.6-11.5
	c3.9-8.9,3.6-23.6-7.9-34.8C-75.2-19.7-84.5-23.1-92.3-22.1"/>
</svg>
