<?xml version="1.0" encoding="UTF-8" standalone="no"?>
<svg width="107px" height="109px" viewBox="0 0 107 109" version="1.1" xmlns="http://www.w3.org/2000/svg" xmlns:xlink="http://www.w3.org/1999/xlink">
    <!-- Generator: Sketch 41.2 (35397) - http://www.bohemiancoding.com/sketch -->
    <title>buscador</title>
    <desc>Created with Sketch.</desc>
    <defs>
        <polygon id="path-1" points="0.0153658537 0.101007978 0.0153658537 104.744781 104.896024 104.744781 104.896024 0.101007978 0.0153658537 0.101007978"></polygon>
    </defs>
    <g id="gray-version" stroke="none" stroke-width="1" fill="none" fill-rule="evenodd">
        <g id="buscador">
            <g id="Group-16" transform="translate(1.000000, 2.000000)">
                <g id="001-pawprint">
                    <g id="Group-3">
                        <mask id="mask-2" fill="white">
                            <use xlink:href="#path-1"></use>
                        </mask>
                        <g id="Clip-2"></g>
                        <path d="M70.3197805,12.1074453 C54.258622,-3.90262774 28.1197683,-3.90262774 12.0586098,12.1163869 C-4.0215,28.1535401 -4.01765854,54.2167883 12.0586098,70.2557299 C27.1133049,85.264854 50.9372927,86.0164599 67.1175366,72.8633577 L73.8091098,79.5327737 L71.8604634,81.4756569 L95.1873659,104.744781 L104.896024,95.0597445 L81.5711707,71.7847445 L79.6363537,73.719708 L72.9306951,67.0344526 C86.1317561,50.9066058 85.4026463,27.1525912 70.3197805,12.1074453 Z M68.6062317,63.7431752 L63.7962073,68.5412409 C49.7820366,80.0475547 29.0440244,79.4390146 15.952061,66.3796715 C2.02368293,52.4943796 2.01984146,29.879781 15.952061,16.000365 C29.8684024,2.11405109 52.526122,2.11405109 66.4383659,15.9934672 C79.5392927,29.0584307 80.1505976,49.7480292 68.6062317,63.7431752 Z" id="Fill-1" fill="#21E3BE" mask="url(#mask-2)"></path>
                    </g>
                    <path d="M40.9356585,36.7655839 C34.8492439,36.7655839 23.9502439,45.6175182 23.9502439,56.5431387 C23.9502439,67.4695255 31.549939,59.385292 40.9356585,59.385292 C50.3190732,59.385292 57.9190244,67.4695255 57.9190244,56.5431387 C57.9190244,45.6175182 47.0279634,36.7696715 40.9356585,36.7655839 Z" id="Fill-4" fill="#21E3BE"></path>
                    <path d="M55.1710976,26.994708 C53.9945854,31.3748175 50.4670976,34.2338321 47.2960976,33.3866788 C44.1258659,32.5423358 42.5080976,28.3012044 43.6815366,23.9262044 C44.8549756,19.5430292 48.3824634,16.6870803 51.557561,17.5311679 C54.7249756,18.3785766 56.3445366,22.614854 55.1710976,26.994708 Z M38.193622,23.9331022 C39.367061,28.3132117 37.7544146,32.5484672 34.5811098,33.3935766 C31.4119024,34.2389416 27.8867195,31.3778832 26.7091829,26.9977737 C25.5357439,22.6227737 27.1522317,18.3875182 30.3234878,17.5383212 C33.4926951,16.6929562 37.0171098,19.5529927 38.193622,23.9331022 Z M17.3867195,31.1880657 C19.9036463,29.7382482 23.5760854,31.3817153 25.5836341,34.8577007 C27.596561,38.330365 27.1842439,42.3272628 24.6703902,43.7763139 C22.1534634,45.2274088 18.4779512,43.5826642 16.4701463,40.1097445 C14.4564512,36.6329927 14.8667195,32.6401825 17.3867195,31.1880657 Z M56.3053537,34.8615328 C58.3193049,31.3888686 61.9855976,29.7420803 64.5035488,31.195219 C67.0184268,32.645292 67.425622,36.6398905 65.4129512,40.1128102 C63.4030976,43.5857299 59.7288659,45.2322628 57.2147561,43.7793796 C54.6947561,42.3272628 54.2857683,38.3344526 56.3053537,34.8615328 Z" id="Fill-5" fill="#21E3BE"></path>
                </g>
            </g>
        </g>
    </g>
</svg>