<?xml version="1.0" encoding="UTF-8" standalone="no"?>
<svg width="86px" height="74px" viewBox="0 0 86 74" version="1.1" xmlns="http://www.w3.org/2000/svg" xmlns:xlink="http://www.w3.org/1999/xlink">
    <!-- Generator: Sketch 41.2 (35397) - http://www.bohemiancoding.com/sketch -->
    <title>Artboard 2</title>
    <desc>Created with Sketch.</desc>
    <defs></defs>
    <g id="gray-version" stroke="none" stroke-width="1" fill="none" fill-rule="evenodd">
        <g id="Artboard-2">
            <ellipse id="Oval-2-Copy" fill="#95E9E1" transform="translate(56.209614, 35.209614) rotate(-45.000000) translate(-56.209614, -35.209614) " cx="56.2096143" cy="35.2096143" rx="31.9507683" ry="23.5"></ellipse>
            <polygon id="Fill-5-Copy-2" fill="#BC67DC" points="61.5639361 7.5845774 61.5639361 6 59.548016 6 59.548016 7.5845774 58 7.5845774 58 9.64773167 59.548016 9.64773167 59.548016 11.2323091 61.5639361 11.2323091 61.5639361 9.64773167 63.1121127 9.64773167 63.1121127 7.5845774"></polygon>
            <polygon id="Fill-5-Copy-2" fill="#BC67DC" points="67.5639361 50.5845774 67.5639361 49 65.548016 49 65.548016 50.5845774 64 50.5845774 64 52.6477317 65.548016 52.6477317 65.548016 54.2323091 67.5639361 54.2323091 67.5639361 52.6477317 69.1121127 52.6477317 69.1121127 50.5845774"></polygon>
            <polygon id="Fill-5-Copy-2" fill="#BC67DC" points="31.5639361 67.5845774 31.5639361 66 29.548016 66 29.548016 67.5845774 28 67.5845774 28 69.6477317 29.548016 69.6477317 29.548016 71.2323091 31.5639361 71.2323091 31.5639361 69.6477317 33.1121127 69.6477317 33.1121127 67.5845774"></polygon>
            <path d="M37.0190271,44.7745479 C28.7461943,44.7745479 22.0157596,37.8858667 22.0157596,29.4191797 C22.0157596,20.9518355 28.7461943,14.0631543 37.0190271,14.0631543 C45.2912177,14.0631543 52.0222945,20.9518355 52.0222945,29.4185225 C52.0222945,37.8858667 45.2918598,44.7745479 37.0190271,44.7745479 M37.0190271,12 C27.6344607,12 20,19.8139627 20,29.4185225 C20,39.0237395 27.6351028,46.8378665 37.0190271,46.8378665 C46.4029514,46.8378665 54.0380541,39.0237395 54.0380541,29.4185225 C54.0380541,19.8139627 46.4035934,12 37.0190271,12" id="Fill-1" fill="#221F20"></path>
            <path d="M36.6516649,33.24917 L33.3641373,35.0184094 L33.9919153,31.2712822 L31.3320051,28.6181624 L35.0083024,28.0714052 L36.6516649,24.6623869 L38.2956695,28.0714052 L41.9713248,28.6181624 L39.3114146,31.2712822 L39.9390321,35.0184094 L36.6516649,33.24917 Z M46.3033299,27.1775031 L39.6343727,26.1853556 L36.6516649,20 L33.6689571,26.1853556 L27,27.1775031 L31.8254312,31.9918583 L30.6868914,38.7900157 L36.6516649,35.5806099 L42.6164385,38.7900157 L41.4777382,31.9918583 L46.3033299,27.1775031 Z" id="Fill-3" fill="#221F20"></path>
            <polygon id="Fill-5" fill="#221F20" points="61.5639361 7.5845774 61.5639361 6 59.548016 6 59.548016 7.5845774 58 7.5845774 58 9.64773167 59.548016 9.64773167 59.548016 11.2323091 61.5639361 11.2323091 61.5639361 9.64773167 63.1121127 9.64773167 63.1121127 7.5845774"></polygon>
            <g id="Group-22" transform="translate(3.000000, 41.000000)">
                <g id="Group-21">
                    <polygon id="Fill-5-Copy-2" fill="#BC67DC" points="3.56393615 2.78083908 3.56393615 1.19626168 1.54801604 1.19626168 1.54801604 2.78083908 0 2.78083908 0 4.84399336 1.54801604 4.84399336 1.54801604 6.42857075 3.56393615 6.42857075 3.56393615 4.84399336 5.11211271 4.84399336 5.11211271 2.78083908"></polygon>
                    <polygon id="Fill-5-Copy" fill="#221F20" points="4.19010437 2.15467086 4.19010437 0.570093458 2.17418427 0.570093458 2.17418427 2.15467086 0.626168224 2.15467086 0.626168224 4.21782513 2.17418427 4.21782513 2.17418427 5.80240253 4.19010437 5.80240253 4.19010437 4.21782513 5.73828093 4.21782513 5.73828093 2.15467086"></polygon>
                </g>
            </g>
            <polygon id="Fill-7" fill="#221F20" points="68.5639361 49.5845774 68.5639361 48 66.548016 48 66.548016 49.5845774 65 49.5845774 65 51.6485531 66.548016 51.6485531 66.548016 53.2323091 68.5639361 53.2323091 68.5639361 51.6485531 70.1121127 51.6485531 70.1121127 49.5845774"></polygon>
            <polygon id="Fill-9" fill="#221F20" points="32.5639361 66.5845774 32.5639361 65 30.5481766 65 30.5481766 66.5845774 29 66.5845774 29 68.647896 30.5481766 68.647896 30.5481766 70.2323091 32.5639361 70.2323091 32.5639361 68.647896 34.1121127 68.647896 34.1121127 66.5845774"></polygon>
            <path d="M58.1248189,59.2944403 L48.0079787,48.9397322 L49.6237325,46.2596688 L51.2131617,45.8630727 L63.3791488,58.3151074 L58.1248189,59.2944403 Z M55.7421198,66.1310416 L42.4863898,52.564299 L43.6809496,53.0668622 L45.1474236,53.6829498 L46.9200014,50.744294 L56.6995976,60.7538287 L55.7421198,66.1310416 Z M37.2620764,48.137504 L30.193916,51.1088536 L29.0695016,49.2444902 L29.0107528,49.1469019 L27.9815244,47.4399285 L26.1816588,44.4551071 L22.687226,43.5828913 L18.7587581,42.6022441 L19.325861,34.8070104 L14.390958,28.8418035 L19.325861,22.8761037 L18.7587581,15.0805415 L26.1816588,13.2278428 L30.1931134,6.57409629 L37.2620764,9.54528159 L44.3310393,6.57409629 L48.342815,13.2278428 L55.7653946,15.0805415 L55.1986127,22.8761037 L60.1331948,28.8418035 L55.1986127,34.8070104 L55.7653946,42.6022441 L51.8370872,43.5828913 L48.342815,44.4551071 L46.5426284,47.4399285 L45.7048955,48.8299865 L45.4546511,49.2444902 L44.3303972,51.1088536 L37.2620764,48.137504 Z M18.7820329,66.1310416 L17.8247157,60.7538287 L27.6041513,50.744294 L29.3767292,53.6829498 L32.0372815,52.5649561 L18.7820329,66.1310416 Z M16.3994943,59.2944403 L11.145004,58.3151074 L23.3109911,45.8624155 L24.9005808,46.2596688 L26.5164951,48.9397322 L16.3994943,59.2944403 Z M53.5050087,45.2906862 L57.9028253,44.1925716 L57.2702319,35.49555 L62.7748062,28.8418035 L57.2702319,22.1872356 L57.9028253,13.4903782 L49.6237325,11.4239382 L45.1474236,4 L37.2620764,7.31455148 L29.3760871,4 L24.9005808,11.4239382 L16.6213274,13.4903782 L17.2539209,22.1872356 L11.7493466,28.8418035 L17.2539209,35.49555 L16.6213274,44.1925716 L21.019144,45.2906862 L7,59.6391208 L15.8715573,61.2935215 L17.4884347,70.3738318 L36.8753934,50.5312098 L37.2620764,50.3682341 L37.6489199,50.5312098 L57.0357181,70.3738318 L58.652756,61.2935215 L67.5244738,59.6391208 L53.5050087,45.2906862 Z" id="Fill-16" fill="#221F20"></path>
            <polygon id="Star" fill="#BC67DC" points="36.657453 32.9228972 33.1609548 34.7611151 33.8287265 30.8677071 31 28.1103802 34.9092039 27.5423396 36.657453 24 38.4057021 27.5423396 42.314906 28.1103802 39.4861795 30.8677071 40.1539513 34.7611151"></polygon>
        </g>
    </g>
</svg>