<?xml version="1.0" encoding="UTF-8" standalone="no"?>
<svg width="86px" height="74px" viewBox="0 0 86 74" version="1.1" xmlns="http://www.w3.org/2000/svg" xmlns:xlink="http://www.w3.org/1999/xlink">
    <!-- Generator: Sketch 41.2 (35397) - http://www.bohemiancoding.com/sketch -->
    <title>Artboard 2 Copy 2</title>
    <desc>Created with Sketch.</desc>
    <defs>
        <polygon id="path-1" points="3.45116799e-21 0.00298377997 3.45116799e-21 35.5861497 52.1528054 35.5861497 52.1528054 0.00298377997 0 0.00298377997"></polygon>
        <polygon id="path-3" points="17.9315091 14.9999533 0 14.9999533 0 0.0319318327 17.9315091 0.0319318327"></polygon>
    </defs>
    <g id="gray-version" stroke="none" stroke-width="1" fill="none" fill-rule="evenodd">
        <g id="Artboard-2-Copy-2">
            <g id="Group-20" transform="translate(0.000000, -6.000000)">
                <ellipse id="Oval-2-Copy-4" fill="#95E9E1" transform="translate(57.209614, 39.209614) rotate(-45.000000) translate(-57.209614, -39.209614) " cx="57.2096143" cy="39.2096143" rx="31.9507683" ry="23.5"></ellipse>
                <g id="Group-22-Copy" transform="translate(11.000000, 9.000000)">
                    <g id="Group-21">
                        <polygon id="Fill-5-Copy-2" fill="#BC67DC" points="3.56393615 2.78083908 3.56393615 1.19626168 1.54801604 1.19626168 1.54801604 2.78083908 0 2.78083908 0 4.84399336 1.54801604 4.84399336 1.54801604 6.42857075 3.56393615 6.42857075 3.56393615 4.84399336 5.11211271 4.84399336 5.11211271 2.78083908"></polygon>
                        <polygon id="Fill-5-Copy" fill="#221F20" points="4.19010437 2.15467086 4.19010437 0.570093458 2.17418427 0.570093458 2.17418427 2.15467086 0.626168224 2.15467086 0.626168224 4.21782513 2.17418427 4.21782513 2.17418427 5.80240253 4.19010437 5.80240253 4.19010437 4.21782513 5.73828093 4.21782513 5.73828093 2.15467086"></polygon>
                    </g>
                </g>
                <g id="Group-22-Copy-2" transform="translate(0.000000, 19.000000)">
                    <g id="Group-21">
                        <polygon id="Fill-5-Copy-2" fill="#BC67DC" points="3.56393615 2.78083908 3.56393615 1.19626168 1.54801604 1.19626168 1.54801604 2.78083908 0 2.78083908 0 4.84399336 1.54801604 4.84399336 1.54801604 6.42857075 3.56393615 6.42857075 3.56393615 4.84399336 5.11211271 4.84399336 5.11211271 2.78083908"></polygon>
                        <polygon id="Fill-5-Copy" fill="#221F20" points="4.19010437 2.15467086 4.19010437 0.570093458 2.17418427 0.570093458 2.17418427 2.15467086 0.626168224 2.15467086 0.626168224 4.21782513 2.17418427 4.21782513 2.17418427 5.80240253 4.19010437 5.80240253 4.19010437 4.21782513 5.73828093 4.21782513 5.73828093 2.15467086"></polygon>
                    </g>
                </g>
                <g id="Group-3" transform="translate(10.796494, 22.000000)">
                    <mask id="mask-2" fill="white">
                        <use xlink:href="#path-1"></use>
                    </mask>
                    <g id="Clip-2"></g>
                    <path d="M3.3114594,1.52630128 C2.359955,1.52630128 1.58606985,2.26955598 1.58606985,3.17997573 L1.58606985,32.4062228 C1.58606985,33.3201889 2.359955,34.0634436 3.3114594,34.0634436 L48.844249,34.0634436 C49.7942255,34.0634436 50.5667101,33.3201889 50.5667101,32.4062228 L50.5667101,3.17997573 C50.5667101,2.26808855 49.7942255,1.52630128 48.844249,1.52630128 L3.3114594,1.52630128 Z M48.844249,35.5861497 L3.3114594,35.5861497 C1.48611924,35.5861497 -2.5465125e-05,34.1593159 -2.5465125e-05,32.4062228 L-2.5465125e-05,3.17997573 C-2.5465125e-05,1.42883929 1.48611924,0.00298377997 3.3114594,0.00298377997 L48.844249,0.00298377997 C50.6681886,0.00298377997 52.1528054,1.42883929 52.1528054,3.17997573 L52.1528054,32.4062228 C52.1528054,34.1593159 50.6681886,35.5861497 48.844249,35.5861497 L48.844249,35.5861497 Z" id="Fill-1" fill="#000000" mask="url(#mask-2)"></path>
                </g>
                <path d="M45.0645886,31.5233175 C40.0610735,31.5233175 35.9885633,35.4317024 35.9885633,40.2371779 C35.9885633,45.0426534 40.0595456,48.95434 45.0645886,48.95434 C50.0681037,48.95434 54.1394679,45.0441208 54.1394679,40.2371779 C54.1394679,35.4331698 50.0681037,31.5233175 45.0645886,31.5233175 M45.0645886,50.4772906 C39.1857098,50.4772906 34.402468,45.88337 34.402468,40.2371779 C34.402468,34.5924531 39.1857098,30 45.0645886,30 C50.9439767,30 55.7251812,34.5924531 55.7251812,40.2371779 C55.7251812,45.88337 50.9439767,50.4772906 45.0645886,50.4772906" id="Fill-4" fill="#000000"></path>
                <path d="M19.6454563,21.6128081 L27.6082736,21.6128081 L27.6082736,17.5233175 L19.6454563,17.5233175 L19.6454563,21.6128081 Z M28.3996024,23.1361256 L18.8524723,23.1361256 C18.4149815,23.1361256 18.0598703,22.7945806 18.0598703,22.3741611 L18.0598703,16.7614753 C18.0598703,16.3410558 18.4149815,16 18.8524723,16 L28.4016396,16 C28.8392578,16 29.1943689,16.3410558 29.1943689,16.7614753 L29.1943689,22.3761177 C29.1927137,22.7964149 28.8392578,23.1361256 28.3996024,23.1361256 L28.3996024,23.1361256 Z" id="Fill-6" fill="#000000"></path>
                <path d="M18.8525997,50.8870712 C18.4149815,50.8870712 18.0598703,50.5461377 18.0598703,50.1257182 L18.0598703,30.7619645 C18.0598703,30.341545 18.4149815,30 18.8525997,30 C19.2903452,30 19.6455837,30.341545 19.6455837,30.7619645 L19.6455837,50.1257182 C19.6455837,50.5476051 19.2903452,50.8870712 18.8525997,50.8870712" id="Fill-8" fill="#000000"></path>
                <path d="M45.2027864,39.5214832 C44.6272746,39.5214832 44.1593529,39.9708845 44.1593529,40.5221501 C44.1593529,41.0753722 44.6272746,41.5244067 45.2027864,41.5244067 C45.7772796,41.5244067 46.2448193,41.0753722 46.2448193,40.5221501 C46.2462199,39.9708845 45.7786802,39.5214832 45.2027864,39.5214832 M45.2027864,43.0490693 C43.7519109,43.0490693 42.5737669,41.9160889 42.5737669,40.5236175 C42.5737669,39.1316352 43.7534388,38 45.2027864,38 C46.6526433,38 47.8309146,39.1331027 47.8309146,40.5236175 C47.8323152,41.9160889 46.6526433,43.0490693 45.2027864,43.0490693" id="Fill-9" fill="#000000"></path>
                <path d="M55.9065045,57 L55.9065045,73.3422812 C55.9065045,73.9113802 55.425523,74.374396 54.8339748,74.374396 L26.4774872,74.374396 C25.8850465,74.374396 25.4031724,73.9113802 25.4031724,73.3422812 L25.4031724,57 L24.415325,57 L24.415325,73.3422812 C24.415325,74.433974 25.3408044,75.3226085 26.4774872,75.3226085 L54.8339748,75.3226085 C55.9696535,75.3226085 56.8943519,74.433974 56.8943519,73.3422812 L56.8943519,57 L55.9065045,57 Z" id="Fill-10" stroke="#000000" stroke-width="0.5" fill="#000000"></path>
                <path d="M57.6295985,57 L57.6295985,75.64997 C57.6295985,76.2994313 57.0806977,76.8278293 56.4056172,76.8278293 L24.0449182,76.8278293 C23.3688192,76.8278293 22.8188998,76.2994313 22.8188998,75.64997 L22.8188998,57 L21.6915587,57 L21.6915587,75.64997 C21.6915587,76.8958204 22.7477248,77.9099387 24.0449182,77.9099387 L56.4056172,77.9099387 C57.7016648,77.9099387 58.7569396,76.8958204 58.7569396,75.64997 L58.7569396,57 L57.6295985,57 Z" id="Fill-10" stroke="#000000" stroke-width="0.5" fill="#000000"></path>
                <g id="Page-1" transform="translate(30.770780, 59.000000)">
                    <g id="Group-3" transform="translate(0.000000, 0.027849)">
                        <mask id="mask-4" fill="white">
                            <use xlink:href="#path-3"></use>
                        </mask>
                        <g id="Clip-2"></g>
                        <path d="M15.3638206,5.87091003 C15.4695776,5.60270369 15.5657489,5.28077242 15.6205697,4.91372177 C15.7522021,4.03320658 15.6582237,2.73609906 14.623709,1.26550602 C15.4245306,1.81506607 16.4707613,2.65625867 17.1601871,3.67768976 C17.064517,3.98826648 16.6543325,5.05481695 15.3638206,5.87091003 L15.3638206,5.87091003 Z M14.8848438,4.7624075 C14.6925013,3.48047921 13.8151186,2.35739506 12.5427758,1.61821409 L13.4617596,0.908853747 C14.5723342,2.1681327 15.0505591,3.46362668 14.8848438,4.7624075 L14.8848438,4.7624075 Z M14.1731764,6.62102721 C14.1731764,7.47172178 13.8273984,8.28650012 13.1993718,8.96221515 C13.1675445,8.65994518 13.0376036,8.3701652 12.81807,8.11701858 C12.7025392,7.98387158 12.4690967,7.94837368 12.2965523,8.03729771 C12.1240079,8.12646078 12.0777705,8.30669926 12.1933013,8.43990602 C12.3645927,8.63747513 12.4553759,8.86833098 12.4553759,9.10725454 C12.4553759,9.77000148 11.7569281,10.3089839 10.8984038,10.3089839 C10.2185011,10.3089839 9.63382991,9.97306858 9.42432064,9.49474338 C9.87880037,9.35400676 10.2006452,9.01056161 10.2006452,8.61010469 C10.2006452,8.08456848 9.64679893,7.65686065 8.96570587,7.65686065 C8.28480076,7.65686065 7.73101715,8.08456848 7.73101715,8.61010469 C7.73101715,9.01056161 8.05279932,9.35400676 8.50727905,9.49474338 C8.29776978,9.97306858 7.71309859,10.3089839 7.03300797,10.3089839 C6.17479687,10.3089839 5.47622382,9.77000148 5.47622382,9.10725454 C5.47622382,8.86833098 5.56681903,8.63747513 5.73836101,8.43990602 C5.85389183,8.30669926 5.80759179,8.12646078 5.63504738,8.03729771 C5.46256562,7.94813464 5.22906053,7.98387158 5.11359235,8.11701858 C4.89399607,8.3701652 4.76405521,8.65994518 4.73222785,8.96221515 C4.10426393,8.28650012 3.75842328,7.47172178 3.75842328,6.62102721 L3.75842328,5.29493572 C3.75842328,3.07846851 6.09441398,1.27530679 8.96570587,1.27530679 C11.8371857,1.27530679 14.1731764,3.07846851 14.1731764,5.29493572 L14.1731764,6.62102721 Z M8.48284465,8.61010469 C8.48284465,8.40452764 8.69943363,8.23719749 8.96570587,8.23719749 C9.23222872,8.23719749 9.44881769,8.40452764 9.44881769,8.61010469 C9.44881769,8.81562198 9.23222872,8.9830119 8.96570587,8.9830119 C8.69943363,8.9830119 8.48284465,8.81562198 8.48284465,8.61010469 L8.48284465,8.61010469 Z M8.96570587,11.6350754 C8.09082926,11.6350754 7.28311592,11.3506141 6.71561146,10.8721096 C6.8194263,10.8832849 6.92530868,10.8893207 7.03300797,10.8893207 C7.83721278,10.8893207 8.55182483,10.5722898 8.96589382,10.0839846 C9.37977486,10.5722898 10.0944496,10.8893207 10.8985917,10.8893207 C11.0065416,10.8893207 11.1125493,10.8832849 11.2165521,10.8721096 C10.648985,11.3506141 9.84158491,11.6350754 8.96570587,11.6350754 L8.96570587,11.6350754 Z M4.46996536,0.908853747 L5.38894917,1.61821409 C4.11648113,2.35739506 3.23909843,3.48047921 3.04675589,4.7624075 C2.88104058,3.46362668 3.35932818,2.1681327 4.46996536,0.908853747 L4.46996536,0.908853747 Z M2.31115533,4.91372177 C2.36566283,5.27999553 2.46158349,5.60132919 2.56708995,5.86941601 C1.28397101,5.05463766 0.868899575,3.98713102 0.771663218,3.67727143 C1.4614023,2.65590011 2.5071317,1.81482702 3.30764004,1.26550602 C2.273376,2.73609906 2.17939757,4.03320658 2.31115533,4.91372177 L2.31115533,4.91372177 Z M17.8919658,3.50749108 C16.5738243,1.47293566 14.0072731,0.136565312 13.8985714,0.0806292313 C13.7495216,0.00395616299 13.5510392,0.0191353986 13.4242936,0.116904019 L11.9008404,1.29293622 C11.0339833,0.912439393 10.0322358,0.69496995 8.96570587,0.69496995 C7.89911325,0.69496995 6.89742841,0.912618675 6.0305713,1.29293622 L4.50711817,0.116904019 C4.38056054,0.0191353986 4.18182747,0.00395616299 4.03284032,0.0806292313 C3.92413859,0.136565312 1.35758745,1.47293566 0.0396964921,3.50749108 C0.00417264264,3.56241123 -0.00804455428,3.62438315 0.00517507931,3.68504033 C0.0235322008,3.76984086 0.473814223,5.72808178 3.01148265,6.79827766 C3.07595186,8.10285527 3.84970767,9.3198236 5.15782487,10.1593429 C5.16102014,10.1614345 5.16452866,10.1631078 5.16784924,10.1648409 L3.43977372,14.6685918 C3.41045245,14.8272567 3.55311172,14.9742084 3.75873654,14.9969175 C3.7767804,14.9987701 3.7946363,14.9999653 3.81230425,14.9999653 C3.99631403,14.9999653 4.15714246,14.8955035 4.1840203,14.7507629 L5.79268054,10.8998386 C6.48893546,11.7135413 7.66811425,12.2154122 8.96570587,12.2154122 C10.2644879,12.2154122 11.4429148,11.7137205 12.1389191,10.8998386 L13.7475794,14.7505836 C13.7742693,14.8955035 13.9350351,14.9997263 14.1193581,14.9997263 C14.1369634,14.9997263 14.1548193,14.9987701 14.1729258,14.9969175 C14.378488,14.9742084 14.5212099,14.8272567 14.491826,14.6685918 L12.762748,10.1657373 C12.7666951,10.1637054 12.7703289,10.1616138 12.7740254,10.1593429 C14.081892,9.31964432 14.8557731,8.10267599 14.920117,6.79827766 C17.4577855,5.72808178 17.9080675,3.76984086 17.9264246,3.68504033 C17.9393936,3.62438315 17.927427,3.56241123 17.8919658,3.50749108 L17.8919658,3.50749108 Z" id="Fill-1" fill="#000000" mask="url(#mask-4)"></path>
                    </g>
                    <path d="M6.38891108,5.76435657 C6.18134404,5.76435657 6.01299733,5.92475448 6.01299733,6.12292119 L6.01299733,6.53240199 C6.01299733,6.73056871 6.18134404,6.89096661 6.38891108,6.89096661 C6.59641547,6.89096661 6.76482483,6.73056871 6.76482483,6.53240199 L6.76482483,6.12292119 C6.76482483,5.92475448 6.59641547,5.76435657 6.38891108,5.76435657" id="Fill-4" fill="#000000"></path>
                    <path d="M11.5427701,5.76435657 C11.3350151,5.76435657 11.1668563,5.92475448 11.1668563,6.12292119 L11.1668563,6.53240199 C11.1668563,6.73056871 11.3350151,6.89096661 11.5427701,6.89096661 C11.7503371,6.89096661 11.9186838,6.73056871 11.9186838,6.53240199 L11.9186838,6.12292119 C11.9186838,5.92475448 11.7503371,5.76435657 11.5427701,5.76435657" id="Fill-6" fill="#000000"></path>
                </g>
            </g>
        </g>
    </g>
</svg>