<?xml version="1.0" encoding="utf-8"?>
<!-- Generator: Adobe Illustrator 21.1.0, SVG Export Plug-In . SVG Version: 6.00 Build 0)  -->
<svg version="1.1" id="Layer_1" xmlns="http://www.w3.org/2000/svg" xmlns:xlink="http://www.w3.org/1999/xlink" x="0px" y="0px"
	 viewBox="0 0 86 74" style="enable-background:new 0 0 86 74;" xml:space="preserve">
<style type="text/css">
	.st0{fill:#95E9E1;}
	.st1{fill:#231F20;}
	.st2{fill:#33E1BE;}
</style>
<ellipse id="Oval-2-Copy-4" transform="matrix(0.7071 -0.7071 0.7071 0.7071 -6.7264 50.1802)" class="st0" cx="57.2" cy="33.2" rx="32" ry="23.5"/>
<path id="path1_fill" class="st1" d="M53.6,47.1l0.3,0.2c2,1.1,4.1,1.7,6.3,1.7h2c1.9,0,3.6-0.7,5-2l2.9-2.8c0.3-0.3,0.9-0.7,1.3-1
	l6.6-3.6l-0.7-1.5l-6.5,3.6c-0.6,0.3-1.2,0.7-1.7,1.2l-2.9,2.8c-1,1-2.4,1.5-3.8,1.5h-2c-2.4,0-4.7-0.7-6.6-2.2l-1.2-0.9
	c-2.1-1.6-4.7-2.5-7.4-2.5h-7.4c-1.3,0-2.4-1-2.4-2.2c0-1.2,1-2.2,2.4-2.2h8.3c1.7,0,3.3-0.3,4.8-0.9l4.3-1.6l-0.6-1.7l-4.3,1.6
	c-1.5,0.5-2.9,0.7-4.3,0.7h-2.6v-10l0.5-0.2c0.6-0.3,1.3-0.3,2.1-0.3l18.5,2.6c0.2,0.1,0.5,0.1,0.7,0.1c0.8,0,1.6-0.2,2.2-0.5
	l2.9-1.5L69.8,24l-2.9,1.5c-0.6,0.3-1.4,0.3-1.9,0.3l-18.5-2.6c-1-0.2-2.1,0-3.1,0.5l-2,0.8h-39c-0.5,0-0.9,0.4-0.9,0.9v15.4
	l-0.1,0.1v4.5l0.1-0.1V47c0,0.5,0.4,0.9,0.9,0.9h7.5l10.9-0.1l2.4,0.1H40l6.8,1c1,0.1,1.9,0.2,2.8,0.2h2.8c0.3,0,0.6-0.2,0.7-0.4
	l0.1-0.1c0.2-0.3,0.3-0.6,0.4-1L53.6,47.1z M51.8,47.2h-2.2c-0.9,0-1.7-0.1-2.5-0.2l-3.5-0.5v-3.1h1.5c2.3,0,4.5,0.7,6.3,2.1
	l0.4,0.3V46c0.1,0.3,0.1,0.6,0,1V47.2z M3.5,46H3.2V26.2h38.6v9.3h-4c-2.2,0-4.1,1.8-4.1,3.9c0,2.1,1.8,3.9,4.1,3.9h4V46H18.3
	L9.8,46H3.5L3.5,46z"/>
<path id="path2_fill" class="st2" d="M19.8,41.7c-0.7-0.1-1.4-0.3-2.1-0.6c-0.7-0.3-1.3-0.6-1.9-1.1l1.1-1.6c0.5,0.4,1,0.7,1.4,1
	c0.5,0.2,1,0.4,1.6,0.5v-3.3c-1.3-0.3-2.2-0.7-2.8-1.3c-0.6-0.5-0.9-1.3-0.9-2.2v-0.1c0-0.5,0.1-0.9,0.2-1.3c0.2-0.4,0.4-0.7,0.7-1
	c0.3-0.3,0.7-0.5,1.1-0.7s0.9-0.3,1.4-0.3v-0.9h1.5v1c0.6,0.1,1.2,0.2,1.7,0.5c0.5,0.2,1,0.5,1.5,0.9l-0.9,1.6
	c-0.7-0.6-1.5-0.9-2.3-1.1V35c1.3,0.3,2.2,0.7,2.8,1.3s0.9,1.3,0.9,2.2v0.1c0,0.5-0.1,0.9-0.3,1.3c-0.2,0.4-0.4,0.7-0.7,1
	c-0.3,0.3-0.7,0.5-1.1,0.7c-0.5,0.2-0.9,0.3-1.5,0.3v1.7h-1.5V41.7z M19.9,31.6c-0.5,0.1-0.9,0.2-1.2,0.5c-0.3,0.3-0.4,0.6-0.4,0.9
	v0.1c0,0.3,0.1,0.6,0.3,0.9s0.6,0.5,1.3,0.6L19.9,31.6L19.9,31.6z M21.3,40c0.5-0.1,1-0.2,1.3-0.5c0.3-0.2,0.5-0.6,0.5-1v-0.1
	c0-0.3-0.1-0.7-0.3-0.9c-0.2-0.2-0.7-0.5-1.3-0.6L21.3,40L21.3,40z"/>
<path id="path2_fill_1_" d="M20.9,41.7c-0.7-0.1-1.4-0.3-2.1-0.6c-0.7-0.3-1.3-0.6-1.9-1.1l1.1-1.6c0.5,0.4,1,0.7,1.4,1
	c0.5,0.2,1,0.4,1.6,0.5v-3.3c-1.3-0.3-2.2-0.7-2.8-1.3c-0.6-0.5-0.9-1.3-0.9-2.2v-0.1c0-0.5,0.1-0.9,0.2-1.3s0.4-0.7,0.7-1
	c0.3-0.3,0.7-0.5,1.1-0.7s0.9-0.3,1.4-0.3v-0.9h1.5v1c0.6,0.1,1.2,0.2,1.7,0.5c0.5,0.2,1,0.5,1.5,0.9l-0.9,1.6
	c-0.7-0.6-1.5-0.9-2.3-1.1V35c1.3,0.3,2.2,0.7,2.8,1.3s0.9,1.3,0.9,2.2v0.1c0,0.5-0.1,0.9-0.3,1.3c-0.2,0.4-0.4,0.7-0.7,1
	c-0.3,0.3-0.7,0.5-1.1,0.7c-0.5,0.2-0.9,0.3-1.5,0.3v1.7h-1.5V41.7z M20.9,31.6c-0.5,0.1-0.9,0.2-1.2,0.5c-0.3,0.3-0.4,0.6-0.4,0.9
	v0.1c0,0.3,0.1,0.6,0.3,0.9s0.6,0.5,1.3,0.6L20.9,31.6L20.9,31.6z M22.3,40c0.5-0.1,1-0.2,1.3-0.5c0.3-0.2,0.5-0.6,0.5-1v-0.1
	c0-0.3-0.1-0.7-0.3-0.9c-0.2-0.2-0.7-0.5-1.3-0.6L22.3,40L22.3,40z"/>
</svg>
