<?xml version="1.0" encoding="utf-8"?>
<!-- Generator: Adobe Illustrator 21.1.0, SVG Export Plug-In . SVG Version: 6.00 Build 0)  -->
<svg version="1.1" id="Layer_1" xmlns="http://www.w3.org/2000/svg" xmlns:xlink="http://www.w3.org/1999/xlink" x="0px" y="0px"
	 viewBox="0 0 86 74" style="enable-background:new 0 0 86 74;" xml:space="preserve">
<style type="text/css">
	.st0{fill:#95E9E1;}
</style>
<ellipse id="Oval-2-Copy-4" transform="matrix(0.7071 -0.7071 0.7071 0.7071 -6.7264 50.1802)" class="st0" cx="57.2" cy="33.2" rx="32" ry="23.5"/>
<path id="path1_fill" d="M32.7,39.3c0-1.9-1.5-3.4-3.4-3.4c-1.9,0-3.4,1.5-3.4,3.4c0,1.3,0.7,2.4,1.8,3c0,0.1,0,0.2,0,0.2v5.2
	c0,1,0.8,1.8,1.8,1.8c1,0,1.8-0.8,1.8-1.8v-5.2c0-0.1,0-0.2,0-0.2C32,41.7,32.7,40.6,32.7,39.3z"/>
<path id="path2_fill" d="M44.8,24.5h-2.4v-8c0-5.6-4.5-10.1-10.1-10.1h-5.6c-5.6,0-10.1,4.5-10.1,10.1v8h-2.3
	c-3.4,0-6.1,2.7-6.1,6.1v22.8c0,3.4,2.7,6.1,6.1,6.1h30.3c3.4,0,6.1-2.7,6.1-6.1V30.6C51,27.2,48.2,24.5,44.8,24.5z M19.4,16.5
	c0-4.1,3.4-7.5,7.5-7.5h5.6c4.1,0,7.5,3.4,7.5,7.5v8H19.3L19.4,16.5L19.4,16.5z M48.4,53.4c0,2-1.6,3.6-3.6,3.6H14.5
	c-2,0-3.6-1.6-3.6-3.6V30.6c0-2,1.6-3.6,3.6-3.6h30.3c2,0,3.6,1.6,3.6,3.6V53.4z"/>
</svg>
