<?xml version="1.0" encoding="UTF-8" standalone="no"?>
<svg width="86px" height="74px" viewBox="0 0 86 74" version="1.1" xmlns="http://www.w3.org/2000/svg" xmlns:xlink="http://www.w3.org/1999/xlink">
    <!-- Generator: Sketch 41.2 (35397) - http://www.bohemiancoding.com/sketch -->
    <title>Artboard 2 Copy</title>
    <desc>Created with Sketch.</desc>
    <defs>
        <polygon id="path-1" points="2.45685435 0.101028468 2.45685435 3.08785051 0.100051899 3.08785051 0.100051899 0.101028468 2.45685435 0.101028468"></polygon>
        <polygon id="path-3" points="0 15.0225265 13.5212131 15.0225265 13.5212131 0.000239838589 9.5810619e-21 0.000239838589"></polygon>
        <polygon id="path-5" points="2.45685435 0.101028468 2.45685435 3.08785051 0.100051899 3.08785051 0.100051899 0.101028468 2.45685435 0.101028468"></polygon>
        <polygon id="path-7" points="0 0.000239838589 0 15.0225265 13.5212131 15.0225265 13.5212131 0.000239838589 9.5810619e-21 0.000239838589"></polygon>
    </defs>
    <g id="gray-version" stroke="none" stroke-width="1" fill="none" fill-rule="evenodd">
        <g id="Artboard-2-Copy">
            <ellipse id="Oval-2-Copy-3" fill="#95E9E1" transform="translate(55.209614, 33.500000) rotate(-45.000000) translate(-55.209614, -33.500000) " cx="55.2096143" cy="33.5" rx="31.9507683" ry="23.5"></ellipse>
            <circle id="Oval-3" fill="#BC67DC" cx="48" cy="30.2903857" r="2"></circle>
            <path d="M13.6134562,15.2332906 L15.2094732,15.2332906 L15.2094732,12.0831223 L13.6134562,12.0831223 L13.6134562,15.2332906 Z M16.1046737,10.2903857 L12.7183994,10.2903857 C12.2244659,10.2903857 11.8237735,10.6918735 11.8237735,11.1868979 L11.8237735,12.4395686 L10.8439521,12.4395686 C7.06977192,12.4395686 4,15.5149077 4,19.2945052 L4,26.2805369 C4,26.7758491 4.40069237,27.177193 4.89505682,27.177193 C5.38899026,27.177193 5.78968263,26.7758491 5.78968263,26.2805369 L5.78968263,19.2945052 C5.78968263,16.5029418 8.05692045,14.232593 10.8439521,14.232593 L11.8237735,14.232593 L11.8237735,16.1298028 C11.8237735,16.6249711 12.2238912,17.0264589 12.7183994,17.0264589 L16.104099,17.0264589 C16.5984635,17.0264589 16.9991558,16.6249711 16.9991558,16.1298028 L16.9991558,11.1868979 C16.9991558,10.6918735 16.5990381,10.2903857 16.1046737,10.2903857 L16.1046737,10.2903857 Z" id="Fill-1" fill="#000000"></path>
            <path d="M27.6385511,16.2332906 L29.2347119,16.2332906 L29.2347119,13.0831223 L27.6385511,13.0831223 L27.6385511,16.2332906 Z M32.0198758,13.4395686 L31.0243945,13.4395686 L31.0243945,12.1868979 C31.0243945,11.6918735 30.6237021,11.2903857 30.1297687,11.2903857 L26.744069,11.2903857 C26.2495609,11.2903857 25.8488685,11.6918735 25.8488685,12.1868979 L25.8488685,17.1298028 C25.8488685,17.6249711 26.2495609,18.0264589 26.744069,18.0264589 L30.1297687,18.0264589 C30.6237021,18.0264589 31.0243945,17.6249711 31.0243945,17.1298028 L31.0243945,15.2321613 L32.0198758,15.2321613 C34.8069075,15.2321613 37.0741453,17.5029418 37.0741453,20.2945052 L37.0741453,30.8995394 C37.0741453,39.5380028 30.0567849,46.5667735 21.4316266,46.5667735 C17.2534497,46.5667735 13.3255438,44.9372223 10.3714253,41.9775808 C7.41716315,39.018515 5.79025731,35.0845101 5.79025731,30.8995394 L5.79025731,30.2187369 C5.79025731,29.7235686 5.38956494,29.3222247 4.89505682,29.3222247 C4.40069237,29.3222247 4,29.7235686 4,30.2187369 L4,30.8995394 C4,35.5634174 5.81324432,39.9478369 9.10584659,43.245793 C12.1279205,46.2722052 16.0643028,48.0502638 20.2913271,48.3216638 L20.2913271,52.606215 C20.2913271,53.1008077 20.6914448,53.5021516 21.1858093,53.5021516 C21.6801737,53.5021516 22.0810097,53.1008077 22.0810097,52.606215 L22.0810097,48.346415 C31.3930487,48.0030638 38.8638279,40.3093199 38.8638279,30.8995394 L38.8638279,20.2945052 C38.8638279,16.5149077 35.7934813,13.4395686 32.0198758,13.4395686 L32.0198758,13.4395686 Z" id="Fill-3" fill="#000000"></path>
            <g id="Page-1" transform="translate(14.000000, 19.290386)">
                <path d="M10.4464295,3.70902558 C10.8750225,4.07101417 11.9022319,3.9749062 12.609543,3.36386946 C13.3166773,2.75265173 13.6736909,1.62704821 13.1374635,0.961894179 C12.6010595,0.296559152 11.5639527,0.484793218 10.8354329,1.22614585 C9.98178161,2.09473747 10.0538913,3.37762503 10.4464295,3.70902558 L11.4040309,2.88402575" id="Fill-1" fill="#BC67DC"></path>
                <g id="Group-5" transform="translate(12.901976, 3.290114)">
                    <mask id="mask-2" fill="white">
                        <use xlink:href="#path-1"></use>
                    </mask>
                    <g id="Clip-4"></g>
                    <path d="M0.601497189,3.02211604 C1.15416128,3.28853964 2.11244229,2.71641667 2.38409075,1.8241148 C2.54103533,1.30828106 2.45496324,0.394440866 2.02106802,0.169102969 C1.60626066,-0.0466422297 0.885163921,0.268830826 0.438189986,0.855433335 C-0.064456858,1.51497654 -0.00401198431,2.73071522 0.601497189,3.02211604" id="Fill-3" fill="#BC67DC" mask="url(#mask-2)"></path>
                </g>
                <path d="M4.60128648,5.48262488 C4.98516445,4.82416763 4.94999331,3.71123371 4.57053382,3.41747997 C4.19107434,3.12372623 3.2649599,3.21838625 2.59175954,3.91630025 C1.85422603,4.68118214 1.79059985,5.93836851 2.34679873,6.34669164 C2.97015858,6.80406422 4.13699208,6.27881878 4.60128648,5.48262488 Z" id="Fill-6" fill="#BC67DC"></path>
                <g id="Group-10" transform="translate(5.655661, 0.032217)" fill="#BC67DC">
                    <path d="M3.03219411,2.65464332 C3.52352964,1.99691005 3.74233301,0.929405703 3.22554701,0.46443136 C2.49313895,-0.178098386 1.47936177,0.316378027 1.12146449,0.580629697 C0.0011134582,1.4086786 -0.0679916459,2.92414382 0.358480519,3.35907311 C0.731930864,3.73952312 2.19851438,3.77047315 3.03219411,2.65464332" id="Fill-8"></path>
                </g>
                <g id="Group-13" transform="translate(0.000000, 4.376080)">
                    <mask id="mask-4" fill="white">
                        <use xlink:href="#path-3"></use>
                    </mask>
                    <g id="Clip-12"></g>
                    <path d="M12.6658698,2.56892442 C11.7667965,1.0025998 10.1482171,0.0422440684 8.20655809,0.000615380602 C7.18482763,-0.0214659233 6.86333867,0.935993895 6.86333867,1.34576498 C6.86333867,1.75589805 7.12084797,2.57308729 8.07983594,2.66231748 C9.03900064,2.75136667 9.91156305,3.21760797 10.6703053,4.2414927 C11.4290475,5.26537742 11.6902683,7.19586257 10.3769179,9.44544066 C9.32902999,11.2401801 7.224594,12.5730221 4.87979242,12.5000814 C4.28577131,12.4818009 3.28949133,12.2150154 2.66789887,11.2939354 C2.05779447,10.3902309 2.11099303,9.20978609 2.44662114,8.53757328 C3.02667984,7.37522792 4.34550922,6.06573419 6.02700784,5.66392686 C7.3187961,5.3549696 6.88419392,3.45416752 5.69137973,3.70737853 C4.49874228,3.96077055 2.40491065,4.83913586 1.03376641,7.10826133 C-0.337554574,9.3773868 -0.261203155,11.1286876 0.772722317,12.8455995 C1.80647105,14.5626924 3.33190878,14.9864 5.03921136,15.0213319 C7.65371725,15.0749062 11.2669775,13.4651429 12.8512694,9.47820063 C13.8215687,7.03676858 13.7190599,4.40420657 12.6658698,2.56892442" id="Fill-11" fill="#BC67DC" mask="url(#mask-4)"></path>
                </g>
            </g>
            <g id="Page-1-Copy-3" transform="translate(14.000000, 18.290386)">
                <path d="M10.4464295,3.70902558 C10.8750225,4.07101417 11.9022319,3.9749062 12.609543,3.36386946 C13.3166773,2.75265173 13.6736909,1.62704821 13.1374635,0.961894179 C12.6010595,0.296559152 11.5639527,0.484793218 10.8354329,1.22614585 C9.98178161,2.09473747 10.0538913,3.37762503 10.4464295,3.70902558" id="Fill-1" fill="#000000"></path>
                <g id="Group-5" transform="translate(12.901976, 3.290114)">
                    <mask id="mask-6" fill="white">
                        <use xlink:href="#path-5"></use>
                    </mask>
                    <g id="Clip-4"></g>
                    <path d="M0.601497189,3.02211604 C1.15416128,3.28853964 2.11244229,2.71641667 2.38409075,1.8241148 C2.54103533,1.30828106 2.45496324,0.394440866 2.02106802,0.169102969 C1.60626066,-0.0466422297 0.885163921,0.268830826 0.438189986,0.855433335 C-0.064456858,1.51497654 -0.00401198431,2.73071522 0.601497189,3.02211604" id="Fill-3" fill="#000000" mask="url(#mask-6)"></path>
                </g>
                <path d="M2.34679873,6.34669164 C2.97015858,6.80406422 4.13699208,6.27881878 4.60128648,5.48262488 C4.98516445,4.82416763 4.94999331,3.71123371 4.57053382,3.41747997 C4.19107434,3.12372623 3.2649599,3.21838625 2.59175954,3.91630025 C1.85422603,4.68118214 1.79059985,5.93836851 2.34679873,6.34669164" id="Fill-6" fill="#000000"></path>
                <g id="Group-10" transform="translate(5.655661, 0.032217)" fill="#000000">
                    <path d="M3.03219411,2.65464332 C3.52352964,1.99691005 3.74233301,0.929405703 3.22554701,0.46443136 C2.49313895,-0.178098386 1.47936177,0.316378027 1.12146449,0.580629697 C0.0011134582,1.4086786 -0.0679916459,2.92414382 0.358480519,3.35907311 C0.731930864,3.73952312 2.19851438,3.77047315 3.03219411,2.65464332" id="Fill-8"></path>
                </g>
                <g id="Group-13" transform="translate(0.000000, 4.376080)">
                    <mask id="mask-8" fill="white">
                        <use xlink:href="#path-7"></use>
                    </mask>
                    <g id="Clip-12"></g>
                    <path d="M12.6658698,2.56892442 C11.7667965,1.0025998 10.1482171,0.0422440684 8.20655809,0.000615380602 C7.18482763,-0.0214659233 6.86333867,0.935993895 6.86333867,1.34576498 C6.86333867,1.75589805 7.12084797,2.57308729 8.07983594,2.66231748 C9.03900064,2.75136667 9.91156305,3.21760797 10.6703053,4.2414927 C11.4290475,5.26537742 11.6902683,7.19586257 10.3769179,9.44544066 C9.32902999,11.2401801 7.224594,12.5730221 4.87979242,12.5000814 C4.28577131,12.4818009 3.28949133,12.2150154 2.66789887,11.2939354 C2.05779447,10.3902309 2.11099303,9.20978609 2.44662114,8.53757328 C3.02667984,7.37522792 4.34550922,6.06573419 6.02700784,5.66392686 C7.3187961,5.3549696 6.88419392,3.45416752 5.69137973,3.70737853 C4.49874228,3.96077055 2.40491065,4.83913586 1.03376641,7.10826133 C-0.337554574,9.3773868 -0.261203155,11.1286876 0.772722317,12.8455995 C1.80647105,14.5626924 3.33190878,14.9864 5.03921136,15.0213319 C7.65371725,15.0749062 11.2669775,13.4651429 12.8512694,9.47820063 C13.8215687,7.03676858 13.7190599,4.40420657 12.6658698,2.56892442" id="Fill-11" fill="#000000" mask="url(#mask-8)"></path>
                </g>
            </g>
            <path d="M48.3779416,32.265093 C47.5024237,32.265093 46.7896826,31.551193 46.7896826,30.6742516 C46.7896826,29.7968784 47.5024237,29.083554 48.3779416,29.083554 C49.2540341,29.083554 49.9662005,29.7968784 49.9662005,30.6742516 C49.9662005,31.551193 49.2540341,32.265093 48.3779416,32.265093 M48.3779416,27.2903857 C46.5152752,27.2903857 45,28.8085564 45,30.6742516 C45,32.5399467 46.5152752,34.0576857 48.3779416,34.0576857 C50.240608,34.0576857 51.7564578,32.5399467 51.7564578,30.6742516 C51.7564578,28.8085564 50.240608,27.2903857 48.3779416,27.2903857" id="Fill-4" fill="#000000"></path>
            <path d="M48.4849968,35.9577077 C45.7670698,35.9577077 43.5558628,33.7429052 43.5558628,31.0205589 C43.5558628,28.2982125 45.7670698,26.0829784 48.4849968,26.0829784 C51.2029237,26.0829784 53.4147054,28.2982125 53.4147054,31.0205589 C53.4147054,33.7429052 51.2034984,35.9577077 48.4849968,35.9577077 M48.4849968,24.2903857 C44.7799213,24.2903857 41.7656055,27.3094589 41.7656055,31.0205589 C41.7656055,34.427593 44.3073945,37.249376 47.5903709,37.6889979 L47.5903709,55.8027174 C47.5903709,62.6516101 42.0278011,68.2233686 35.1900268,68.2233686 C28.3522524,68.2233686 22.7896826,62.6516101 22.7896826,55.8027174 L22.7896826,55.3276955 C22.7896826,54.8325272 22.3888466,54.4311833 21.8944821,54.4311833 C21.4001177,54.4311833 21,54.8325272 21,55.3276955 L21,55.8027174 C21,63.6403638 27.3656786,70.0166808 35.1900268,70.0166808 C43.014375,70.0166808 49.3800536,63.6403638 49.3800536,55.8027174 L49.3800536,37.6889979 C52.6637484,37.249376 55.204388,34.427593 55.204388,31.0205589 C55.204388,27.3094589 52.1900722,24.2903857 48.4849968,24.2903857" id="Fill-10" fill="#000000"></path>
            <path d="M48.3779416,32.265093 C47.5024237,32.265093 46.7896826,31.551193 46.7896826,30.6742516 C46.7896826,29.7968784 47.5024237,29.083554 48.3779416,29.083554 C49.2540341,29.083554 49.9662005,29.7968784 49.9662005,30.6742516 C49.9662005,31.551193 49.2540341,32.265093 48.3779416,32.265093 M48.3779416,27.2903857 C46.5152752,27.2903857 45,28.8085564 45,30.6742516 C45,32.5399467 46.5152752,34.0576857 48.3779416,34.0576857 C50.240608,34.0576857 51.7564578,32.5399467 51.7564578,30.6742516 C51.7564578,28.8085564 50.240608,27.2903857 48.3779416,27.2903857" id="Fill-4" fill="#000000"></path>
            <path d="M48.4849968,35.9577077 C45.7670698,35.9577077 43.5558628,33.7429052 43.5558628,31.0205589 C43.5558628,28.2982125 45.7670698,26.0829784 48.4849968,26.0829784 C51.2029237,26.0829784 53.4147054,28.2982125 53.4147054,31.0205589 C53.4147054,33.7429052 51.2034984,35.9577077 48.4849968,35.9577077 M48.4849968,24.2903857 C44.7799213,24.2903857 41.7656055,27.3094589 41.7656055,31.0205589 C41.7656055,34.427593 44.3073945,37.249376 47.5903709,37.6889979 L47.5903709,55.8027174 C47.5903709,62.6516101 42.0278011,68.2233686 35.1900268,68.2233686 C28.3522524,68.2233686 22.7896826,62.6516101 22.7896826,55.8027174 L22.7896826,55.3276955 C22.7896826,54.8325272 22.3888466,54.4311833 21.8944821,54.4311833 C21.4001177,54.4311833 21,54.8325272 21,55.3276955 L21,55.8027174 C21,63.6403638 27.3656786,70.0166808 35.1900268,70.0166808 C43.014375,70.0166808 49.3800536,63.6403638 49.3800536,55.8027174 L49.3800536,37.6889979 C52.6637484,37.249376 55.204388,34.427593 55.204388,31.0205589 C55.204388,27.3094589 52.1900722,24.2903857 48.4849968,24.2903857" id="Fill-10" fill="#000000"></path>
        </g>
    </g>
</svg>