<?xml version="1.0" standalone="no"?>
<!DOCTYPE svg PUBLIC "-//W3C//DTD SVG 1.1//EN" "http://www.w3.org/Graphics/SVG/1.1/DTD/svg11.dtd">
<svg xmlns="http://www.w3.org/2000/svg">
<metadata>Copyright (C) 2015 by original authors @ fontello.com</metadata>
<defs>
<font id="fontello" horiz-adv-x="1000" >
<font-face font-family="fontello" font-weight="400" font-stretch="normal" units-per-em="1000" ascent="850" descent="-150" />
<missing-glyph horiz-adv-x="1000" />
<glyph glyph-name="glyph" unicode="&#xe800;" d="m500 756c-224 0-406-182-406-406s182-406 406-406 406 182 406 406-182 406-406 406z m0-750c-190 0-344 154-344 344s154 344 344 344 344-154 344-344-154-344-344-344z m-37 447c-18-14-35-24-51-29v-55c30 10 56 25 78 46v-222h64v312h-53c-7-19-19-38-38-52z" horiz-adv-x="1000" />
<glyph glyph-name="glyph-1" unicode="&#xe801;" d="m500 756c-224 0-406-182-406-406s182-406 406-406 406 182 406 406-182 406-406 406z m0-750c-190 0-344 154-344 344s154 344 344 344 344-154 344-344-154-344-344-344z m49 289c19 17 32 30 39 39 11 14 19 28 24 41 5 12 8 26 8 40 0 25-9 45-27 62-17 17-42 25-72 25-29 0-52-7-71-22s-30-38-33-71l59-6c1 18 6 30 13 38 8 7 18 11 30 11 13 0 23-3 30-11 7-7 11-17 11-30 0-13-5-25-13-37-6-9-22-26-50-51-33-32-56-57-67-76-11-18-18-38-21-59h211v55h-119c3 6 7 11 12 17 5 6 17 17 36 35z" horiz-adv-x="1000" />
<glyph glyph-name="glyph-2" unicode="&#xe802;" d="m500 756c-224 0-406-182-406-406s182-406 406-406 406 182 406 406-182 406-406 406z m0-750c-190 0-344 154-344 344s154 344 344 344 344-154 344-344-154-344-344-344z m39 368c30 17 45 39 45 66 0 20-7 37-22 53-18 18-41 28-71 28-17 0-33-4-47-10s-25-15-32-27c-8-11-14-26-18-45l56-10c1 14 6 25 13 32 7 7 16 10 26 10 11 0 19-3 25-9 7-6 10-15 10-25 0-13-4-23-13-30-9-8-21-11-37-11l-7-49c11 3 20 5 28 5 11 0 21-5 29-13 9-9 13-21 13-36 0-16-5-29-13-38-9-10-19-14-31-14-12 0-22 4-30 11-8 8-13 20-15 34l-58-7c3-26 14-47 32-64 19-16 43-24 71-24 30 0 55 10 75 29 20 19 30 43 30 70 0 19-5 35-16 49-11 13-25 22-43 25z" horiz-adv-x="1000" />
<glyph glyph-name="glyph-3" unicode="&#xe803;" d="m500 756c-224 0-406-182-406-406s182-406 406-406 406 182 406 406-182 406-406 406z m0-750c-190 0-344 154-344 344s154 344 344 344 344-154 344-344-154-344-344-344z m68 490h-50l-136-199v-53h128v-63h58v63h39v53h-39v199z m-58-199h-72l72 107v-107z" horiz-adv-x="1000" />
<glyph glyph-name="glyph-4" unicode="&#xe804;" d="m500 756c-224 0-406-182-406-406s182-406 406-406 406 182 406 406-182 406-406 406z m0-750c-190 0-344 154-344 344s154 344 344 344 344-154 344-344-154-344-344-344z m8 410c-14 0-28-3-41-10l10 53h113v56h-159l-31-163 49-7c14 16 29 23 46 23 14 0 25-5 34-14s13-24 13-44c0-20-4-35-13-46-9-10-19-15-32-15-11 0-21 4-29 12-8 8-13 18-15 32l-60-6c4-26 14-47 33-63 18-15 42-23 70-23 37 0 65 14 85 41 15 21 23 44 23 69 0 31-10 57-28 76-19 19-41 29-68 29z" horiz-adv-x="1000" />
<glyph glyph-name="glyph-5" unicode="&#xe805;" d="m500 756c-224 0-406-182-406-406s182-406 406-406 406 182 406 406-182 406-406 406z m0-750c-190 0-344 154-344 344s154 344 344 344 344-154 344-344-154-344-344-344z m16 385c-22 0-40-9-55-26 2 36 7 59 16 71s20 17 32 17c10 0 17-3 23-9s10-14 12-26l58 6c-5 25-15 45-30 58-16 13-35 20-59 20-34 0-62-13-83-38-21-25-32-67-32-124 0-56 10-96 31-121 20-25 46-37 78-37 29 0 53 10 72 29 19 20 28 45 28 77 0 31-8 55-26 74-18 20-40 29-65 29z m22-146c-8-9-17-13-28-13-12 0-22 5-31 16s-13 26-13 45c0 18 4 31 12 40s17 14 29 14c12 0 22-5 30-14s12-25 12-45c0-20-4-34-11-43z" horiz-adv-x="1000" />
<glyph glyph-name="glyph-6" unicode="&#xe806;" d="m500 756c-224 0-406-182-406-406s182-406 406-406 406 182 406 406-182 406-406 406z m0-750c-190 0-344 154-344 344s154 344 344 344 344-154 344-344-154-344-344-344z m-102 429h137c-28-36-51-76-68-121-17-45-25-89-26-133h57c0 28 5 59 14 94 9 36 23 69 40 100 17 31 35 55 52 72v43h-206v-55z" horiz-adv-x="1000" />
<glyph glyph-name="glyph-7" unicode="&#xe807;" d="m500 756c-224 0-406-182-406-406s182-406 406-406 406 182 406 406-182 406-406 406z m0-750c-190 0-344 154-344 344s154 344 344 344 344-154 344-344-154-344-344-344z m38 363c13 6 24 15 32 26s11 24 11 39c0 23-8 42-25 58-16 15-39 23-69 23-30 0-53-8-70-23-16-16-24-35-24-58 0-14 3-26 10-38 8-11 19-20 34-27-18-8-31-19-39-33-9-14-13-30-13-47 0-30 11-55 34-72 18-15 42-23 71-23 30 0 55 9 73 27 19 18 28 42 28 71 0 18-5 33-14 46s-22 24-39 31z m-78 88c7 6 16 10 28 10 11 0 20-3 26-10 7-7 10-16 10-27 0-12-3-22-10-28-7-7-16-11-27-11-11 0-20 4-27 10-7 7-10 17-10 28 0 12 3 21 10 28z m59-201c-8-9-18-13-30-13-13 0-24 4-32 13-9 10-13 23-13 39 0 12 4 23 11 33 7 10 18 15 33 15 12 0 23-4 31-13 8-9 13-21 13-35 0-17-5-30-13-39z" horiz-adv-x="1000" />
<glyph glyph-name="glyph-8" unicode="&#xe808;" d="m500 756c-224 0-406-182-406-406s182-406 406-406 406 182 406 406-182 406-406 406z m0-750c-190 0-344 154-344 344s154 344 344 344 344-154 344-344-154-344-344-344z m-12 490c-29 0-53-10-72-29-19-20-29-45-29-77 0-31 9-55 27-74 18-19 39-29 64-29 23 0 41 9 57 26-3-36-8-59-17-71-9-11-19-17-32-17-9 0-17 3-23 9s-10 14-11 26l-58-6c4-26 13-46 29-59 15-13 34-20 59-20 34 0 62 13 83 39 21 25 32 66 32 124 0 56-11 96-31 121-20 24-46 37-78 37z m29-151c-7-9-17-14-29-14-12 0-22 5-30 14s-12 25-12 45c0 20 4 34 11 43 8 9 17 13 28 13 12 0 22-5 31-16 9-11 13-26 13-45 0-18-4-31-12-40z" horiz-adv-x="1000" />
<glyph glyph-name="glyph-9" unicode="&#xe809;" d="m500 756c-224 0-406-182-406-406s182-406 406-406 406 182 406 406-182 406-406 406z m0-750c-190 0-344 154-344 344s154 344 344 344 344-154 344-344-154-344-344-344z m0 509c-31 0-54-11-71-33-21-25-31-68-31-127 0-60 9-102 28-125s43-35 74-35c30 0 54 10 71 32 20 26 31 68 31 127 0 60-11 102-31 128-17 22-41 33-71 33z m33-239c-3-12-8-20-14-25-5-4-12-7-19-7-7 0-14 3-20 7s-10 14-14 28-5 39-5 75 2 63 6 79c3 12 8 20 13 25 6 4 13 7 20 7 7 0 14-3 19-7 6-5 11-14 14-28s6-39 6-76-2-62-6-78z" horiz-adv-x="1000" />
<glyph glyph-name="glyph-10" unicode="&#xe80a;" d="m500 756c-224 0-406-182-406-406s182-406 406-406 406 182 406 406-182 406-406 406z m55-610h-77v291c-28-27-62-46-100-59v70c20 7 42 19 66 38 23 18 40 40 48 64h63v-404z" horiz-adv-x="1000" />
<glyph glyph-name="glyph-11" unicode="&#xe80b;" d="m500 756c-224 0-406-182-406-406s182-406 406-406 406 182 406 406-182 406-406 406z m136-544v-72h-271c3 27 12 53 27 77 14 24 43 56 86 97 35 32 56 54 64 65 11 16 16 32 16 48 0 17-4 30-14 39s-22 14-38 14c-16 0-29-5-38-14s-15-26-16-49l-77 8c4 42 18 73 43 92 24 18 54 27 90 27 40 0 71-10 94-32 22-21 34-48 34-80 0-18-4-35-10-52s-17-33-31-51c-9-12-26-29-51-51-24-23-39-37-46-45-6-7-12-14-16-21h154z" horiz-adv-x="1000" />
<glyph glyph-name="glyph-12" unicode="&#xe80c;" d="m500 756c-224 0-406-182-406-406s182-406 406-406 406 182 406 406-182 406-406 406z m94-573c-26-25-58-38-97-38-36 0-66 11-90 32-24 21-38 48-42 82l75 9c2-19 8-34 19-44 10-10 23-15 38-15 16 0 29 6 40 18 11 13 16 29 16 49 0 20-5 35-15 47-11 11-24 17-39 17-10 0-21-2-35-6l8 62c21 0 37 4 48 14 11 9 17 22 17 38 0 14-4 24-12 32-8 8-19 13-32 13-14 0-25-5-34-14-9-9-15-23-17-40l-71 12c5 24 12 44 22 58s24 27 42 35 38 12 60 12c38 0 68-12 91-36 19-20 28-42 28-67 0-35-19-63-58-84 23-5 42-17 56-34 13-17 20-38 20-62 0-35-13-65-38-90z" horiz-adv-x="1000" />
<glyph glyph-name="glyph-13" unicode="&#xe80d;" d="m511 301v137l-93-137h93z m-11 455c-224 0-406-182-406-406s182-406 406-406 406 182 406 406-182 406-406 406z m136-523h-50v-81h-75v81h-165v67l175 256h65v-255h50v-68z" horiz-adv-x="1000" />
<glyph glyph-name="glyph-14" unicode="&#xe80e;" d="m500 756c-224 0-406-182-406-406s182-406 406-406 406 182 406 406-182 406-406 406z m111-552c-26-36-63-53-109-53-37 0-68 9-91 29-24 21-38 47-42 81l77 8c2-17 9-31 19-41 11-10 24-15 38-15 16 0 29 6 40 19 12 13 17 33 17 59 0 25-5 44-17 56-11 12-25 18-43 18-22 0-42-9-60-29l-62 9 40 210h204v-72h-146l-12-69c17 9 35 13 53 13 34 0 63-13 87-37 24-25 36-58 36-97 0-34-10-63-29-89z" horiz-adv-x="1000" />
<glyph glyph-name="glyph-15" unicode="&#xe80f;" d="m502 349c-15 0-27-6-38-18-10-11-15-28-15-51 0-25 6-44 17-58 12-14 25-21 40-21 14 0 26 6 36 17s14 30 14 55c0 26-5 45-15 58s-24 18-39 18z m-2 407c-224 0-406-182-406-406s182-406 406-406 406 182 406 406-182 406-406 406z m95-581c-24-25-55-37-93-37-41 0-74 15-100 47-26 31-39 83-39 155 0 74 13 127 41 160 27 32 62 49 106 49 30 0 56-9 76-26 20-17 33-42 38-75l-74-8c-2 15-7 26-15 34-7 7-17 11-30 11-16 0-30-8-41-22-12-15-19-45-22-91 20 22 44 34 72 34 32 0 60-13 83-37s35-56 35-95c0-41-13-74-37-99z" horiz-adv-x="1000" />
<glyph glyph-name="glyph-16" unicode="&#xe810;" d="m500 756c-224 0-406-182-406-406s182-406 406-406 406 182 406 406-182 406-406 406z m137-276c-22-21-44-52-66-92s-40-83-52-128c-12-45-17-85-17-121h-74c1 56 12 113 34 170 22 58 51 110 87 156h-176v72h264v-57z" horiz-adv-x="1000" />
<glyph glyph-name="glyph-17" unicode="&#xe811;" d="m507 329c-19 0-33-6-42-19-10-13-14-28-14-43 0-21 5-38 16-50s25-18 41-18c16 0 29 6 39 17s16 28 16 50c0 19-5 35-16 46-11 12-24 17-40 17z m-1 61c14 0 26 5 35 13 8 9 13 21 13 37 0 14-5 26-13 34-9 9-20 14-35 14-14 0-26-5-35-14-9-8-13-20-13-35 0-15 4-27 13-36 9-8 20-13 35-13z m-6 366c-224 0-406-182-406-406s182-406 406-406 406 182 406 406-182 406-406 406z m104-584c-24-23-56-35-95-35-37 0-67 10-91 29-29 23-43 54-43 94 0 21 5 41 16 60 11 18 28 32 51 42-20 8-35 20-44 35-9 14-13 30-13 48 0 30 10 55 31 74 21 20 51 30 90 30 38 0 68-10 89-30 21-19 32-44 32-74 0-19-5-35-15-50-10-14-23-25-41-33 22-9 39-22 51-39 11-18 17-38 17-60 0-37-12-68-35-91z" horiz-adv-x="1000" />
<glyph glyph-name="glyph-18" unicode="&#xe812;" d="m498 492c-14 0-26-5-36-16-9-12-14-30-14-56 0-26 5-45 15-57 11-12 24-18 39-18 15 0 27 6 38 18s15 28 15 51c0 25-6 44-17 58s-25 20-40 20z m2 264c-224 0-406-182-406-406s182-406 406-406 406 182 406 406-182 406-406 406z m100-562c-27-33-62-49-106-49-31 0-57 8-76 25-19 17-32 42-37 75l74 9c2-16 7-27 15-34 7-8 17-11 30-11 16 0 29 7 40 22 12 15 19 45 22 91-20-22-44-34-73-34-32 0-59 13-82 37-23 24-35 56-35 95 0 41 13 74 37 99 24 25 55 37 93 37 40 0 74-15 100-47 26-32 39-84 39-156 0-74-13-127-41-159z" horiz-adv-x="1000" />
<glyph glyph-name="glyph-19" unicode="&#xe813;" d="m523 491c-7 6-16 9-25 9s-18-3-25-9c-7-6-13-16-17-32-6-20-8-53-8-100s2-80 7-98 11-29 18-35c7-6 16-9 25-9s18 3 25 9 13 17 17 32c6 20 8 53 8 101s-2 79-7 97c-5 18-11 29-18 35z m-23 265c-224 0-406-182-406-406s182-406 406-406 406 182 406 406-182 406-406 406z m89-562c-21-27-52-41-91-41-39 0-71 15-95 45s-36 84-36 161c0 76 13 131 40 164 22 28 52 41 91 41s70-14 92-42c26-32 39-87 39-163 0-77-13-131-40-165z" horiz-adv-x="1000" />
<glyph glyph-name="glyph-20" unicode="&#xe814;" d="m500 756c-224 0-406-182-406-406s182-406 406-406 406 182 406 406-182 406-406 406z m0-750c-190 0-344 154-344 344s154 344 344 344 344-154 344-344-154-344-344-344z m-42 476c-21 23-46 35-76 35-30 0-55-11-75-32-8-8-14-18-19-30-4-12-7-24-7-36 0-25 7-46 21-63 14-18 32-28 55-31l8-1 6-1c11-1 16-5 16-12 0-7-7-18-21-32-14-16-37-32-69-49-13-6-19-15-19-25 0-7 2-12 6-17 5-4 10-6 17-6 18 0 41 10 72 30 35 23 64 52 85 85 22 34 32 67 32 100 0 15-2 31-8 46-6 16-14 29-24 39z m246 0c-21 23-46 35-75 35-31 0-56-11-75-32-8-8-14-19-19-30-5-12-7-24-7-36 0-25 7-46 21-63s31-28 54-31l8-1 6-1c10-1 16-5 16-12 0-7-7-18-20-32-15-16-37-32-69-49-13-6-20-15-20-25 0-7 3-12 7-17 5-4 10-6 17-6 17 0 41 10 71 30 36 23 64 52 86 85 21 34 31 67 31 100 0 15-3 31-8 46-6 16-14 29-24 39z" horiz-adv-x="1000" />
<glyph glyph-name="glyph-21" unicode="&#xe815;" d="m500 756c-224 0-406-182-406-406s182-406 406-406 406 182 406 406-182 406-406 406z m0-750c-190 0-344 154-344 344s154 344 344 344 344-154 344-344-154-344-344-344z m-44 464c13 7 20 15 20 25 0 7-3 12-7 17-5 4-10 6-17 6-17 0-41-10-71-30-36-23-64-52-86-85-21-34-31-67-31-100 0-15 3-31 8-46 6-15 14-28 24-39 21-23 46-35 75-35 31 0 56 11 75 32 8 8 14 19 19 31 5 12 7 23 7 35 0 25-7 46-21 64s-31 28-54 31l-8 0-6 1c-10 2-16 6-16 12 0 7 7 18 21 33 14 15 36 31 68 48z m247 0c13 7 20 15 20 25 0 7-3 12-7 17-5 4-10 6-17 6-17 0-41-10-72-30-35-23-64-52-85-85s-32-67-32-100c0-15 3-31 8-46 6-15 14-28 24-39 21-23 46-35 76-35 30 0 55 11 75 32 8 8 14 19 19 30 5 12 7 24 7 36 0 25-7 46-21 63-14 18-32 28-55 32l-7 0-7 1c-10 2-16 6-16 12 0 7 7 18 21 33 15 15 37 31 69 48z" horiz-adv-x="1000" />
<glyph glyph-name="glyph-22" unicode="&#xe816;" d="m856 347l-382 379h-348l-1-348 378-385c24-25 64-25 89-1l265 265c24 25 24 65-1 90z m-638 222c0 34 28 62 63 62s62-28 62-62c0-35-28-63-62-63s-63 28-63 63z m340-436l-243 243 22 22 243-243-22-22z m67 66l-244 243 23 22 243-243-22-22z m66 66l-243 243 22 23 243-244-22-22z" horiz-adv-x="1000" />
<glyph glyph-name="glyph-23" unicode="&#xe817;" d="m903 238l-291-291c-24-24-64-24-89 0l-357 357-88 273 64 64 124-123c-3-24 4-49 22-67 31-31 81-31 112 0 31 31 31 81 0 112-18 18-43 25-67 22l-123 123 63 63 274-86 356-357c25-25 25-65 0-90z m-548 258c-6-6-16-6-22 0l-247 246c-6 6-6 16 0 22s17 6 23 0l246-246c6-6 6-16 0-22z" horiz-adv-x="1000" />
<glyph glyph-name="glyph-24" unicode="&#xe818;" d="m792 543l-110-190c-17-30-55-40-85-23l-27 16 31 54c15-9 34-4 43 11l78 136c8 15 3 34-12 42l-108 63c-15 9-34 3-42-12l-79-135c-8-15-3-34 12-43l-31-54-27 16c-30 17-41 55-23 85l109 190c17 30 55 40 85 23l163-94c30-17 40-56 23-85z m-370-328c-15 8-20 27-12 42l125 217c9 15 28 20 43 11s20-27 12-42l-125-217c-9-15-28-20-43-11z m-23 85v0c-15 9-34 4-43-11l-78-136c-8-15-3-34 12-42l108-63c15-8 34-3 43 12l78 135c8 15 3 34-12 43v0l32 54 27-16c30-17 40-55 22-85l-109-190c-17-30-55-40-85-23l-163 94c-30 17-40 56-23 86l110 189c17 30 55 40 85 23l27-16-31-54z" horiz-adv-x="1000" />
<glyph glyph-name="glyph-25" unicode="&#xe819;" d="m441 655l-234-406c-13-23 31-72 31-72l281 487c0 0-65 13-78-9z m75-278c22-13 51-5 64 17l125 217c13 22 5 51-17 64-23 13-52 5-64-17l-125-217c-13-22-6-51 17-64z m-32-54c-22 13-51 5-64-17l-125-217c-13-22-5-51 18-64 22-13 51-5 64 17l125 217c13 22 5 51-18 64z m278 200l-281-487c0 0 65-13 78 10l234 405c13 23-31 72-31 72z" horiz-adv-x="1000" />
<glyph glyph-name="glyph-26" unicode="&#xe81a;" d="m156-88v751l131 125h395l131-125v-751h-657z m625 251v468h-593v-687h593v219z m-31 250h-531v187h531v-187z m-187 125h-157v-32h157v32z m187-344h-531v187h531v-187z m-187 125h-157v-31h157v31z m187-344h-531v188h531v-188z m-187 125h-157v-31h157v31z" horiz-adv-x="1000" />
<glyph glyph-name="glyph-27" unicode="&#xe81b;" d="m156-119v782l131 125h395l131-125v-782h-657z m32 31h593v719h-593v-719z m31 344h531v-312h-531v312z m187-125v-31h157v94h-32v-63h-93v63h-32v-63z m-187 469h531v-312h-531v312z m187-156h157v94h-32v-63h-93v63h-32v-94z" horiz-adv-x="1000" />
<glyph glyph-name="glyph-28" unicode="&#xe81c;" d="m844-119h-688c-34 0-62 28-62 63v687c0 35 28 63 62 63h63v-31c0-52 42-94 94-94 51 0 93 42 93 94v31h188v-31c0-52 42-94 94-94s93 42 93 94v31h63c34 0 62-28 62-63v-687c0-35-28-63-62-63z m0 594h-688v-531h688v531z m-531-156h-94v94h94v-94z m0-156h-94v93h94v-93z m0-157h-94v94h94v-94z m156 313h-94v94h94v-94z m0-156h-94v93h94v-93z m0-157h-94v94h94v-94z m156 313h-94v94h94v-94z m0-156h-94v93h94v-93z m0-157h-94v94h94v-94z m156 313h-93v94h93v-94z m0-156h-93v93h93v-93z m0-157h-93v94h93v-94z m-94 594c-34 0-62 28-62 62v64c0 34 28 62 62 62s61-28 61-62v-64c0-34-27-62-61-62z m-375 0c-34 0-62 28-62 62v64c0 34 28 62 62 62s61-28 61-62v-64c0-34-27-62-61-62z" horiz-adv-x="1000" />
<glyph glyph-name="glyph-29" unicode="&#xe81d;" d="m875-88h-750c-34 0-62 28-62 63v656c0 35 28 63 62 63h63v-31c0-52 42-94 93-94s94 42 94 94v31h250v-31c0-52 42-94 94-94s94 42 94 94v31h62c35 0 63-28 63-63v-656c0-35-28-63-63-63z m0 563h-750v-500h750v500z m-467-245c7 10 10 21 10 31 0 25-13 37-39 37-23 0-44-9-65-27v51c23 14 48 22 77 22 27 0 48-7 63-20s23-32 23-55c0-31-19-62-55-95l-54-48v-1h106v-48h-173v45l76 72c15 14 25 27 31 36z m212-104c8 6 12 15 12 27 0 11-5 20-15 27s-24 9-42 9h-24v45h22c34 0 51 11 51 34 0 21-13 32-39 32-17 0-35-6-51-17v47c18 9 40 14 64 14 27 0 48-6 63-18s22-28 22-47c0-35-17-56-52-65v-1c19-2 33-9 44-20s16-25 16-41c0-25-9-44-27-58s-42-22-74-22c-27 0-49 5-66 14v50c17-13 38-19 61-19 15 0 27 3 35 9z m98 474c-34 0-62 28-62 62v64c0 34 28 62 62 62s61-28 61-62v-64c0-34-27-62-61-62z m-438 0c-34 0-61 28-61 62v64c0 34 27 62 61 62s62-28 62-62v-64c0-34-28-62-62-62z" horiz-adv-x="1000" />
<glyph glyph-name="glyph-30" unicode="&#xe81e;" d="m344 756h-63v-125h63v125z m344-156h-63v-62h63v62z m-344 0h-63v-62h63v62z m373 63l2-157h-125v157h-219v-157h-125v157h-94v-751h657v751h-96z m-373-655h-94v94h94v-94z m0 125h-94v94h94v-94z m0 125h-94v94h94v-94z m125-250h-94v94h94v-94z m0 125h-94v94h94v-94z m0 125h-94v94h94v-94z m125-250h-94v94h94v-94z m0 125h-94v94h94v-94z m0 125h-94v94h94v-94z m125-250h-94v94h94v-94z m0 125h-94v94h94v-94z m0 125h-94v94h94v-94z m-31 498h-63v-125h63v125z" horiz-adv-x="1000" />
<glyph glyph-name="glyph-31" unicode="&#xe81f;" d="m654 724h-435v-748h312v63h-250v623h313v-94h125v-344h62v377l-127 123z m65-562h-63v-63h-62v-62h62v-61h63v63h62v60h-62v63z" horiz-adv-x="1000" />
<glyph glyph-name="glyph-32" unicode="&#xe820;" d="m654 724h-435v-748h312v63h-250v623h313v-94h125v-344h62v377l-127 123z m-60-656l187 2v60h-187v-62z" horiz-adv-x="1000" />
<glyph glyph-name="glyph-33" unicode="&#xe821;" d="m344 381h31v32h-31v-32z m0-93h31v31h-31v-31z m0 187h31v31h-31v-31z m0-281h31v31h-31v-31z m0-94h31v31h-31v-31z m62 188h250v31h-250v-31z m0 187h250v31h-250v-31z m248 250h-435v-750h562v625l-127 125z m65-686h-438v624h313v-92h125v-532z m-313 155h250v31h-250v-31z m0 187h250v32h-250v-32z m0-281h250v31h-250v-31z" horiz-adv-x="1000" />
<glyph glyph-name="glyph-34" unicode="&#xe822;" d="m531 349h-250v-29h250v29z m0-94h-250v-30h250v30z m-155 470v-95h-95v-94h-92v-592h436v95h92v92h95v594h-436z m219-751h-376v534h376v-534z m92 93h-62v469h-314v64h376v-533z m94 94h-64v469h-311v64h375v-533z m-250-93h-250v-30h250v30z m0 94h-250v-30h250v30z m0 281h-250v-31h250v31z" horiz-adv-x="1000" />
<glyph glyph-name="glyph-35" unicode="&#xe823;" d="m688 725h-375c-35 0-63-28-63-62v-625c0-35 28-63 63-63h375c34 0 62 28 62 63v625c0 34-28 62-62 62z m-282-31h157l1-31h-158v31z m93-672c-17 0-31 14-31 31s14 31 31 31c18 0 32-14 32-31s-14-31-32-31z m189 109h-375l0 500h375v-500z" horiz-adv-x="1000" />
<glyph glyph-name="glyph-36" unicode="&#xe824;" d="m719 725h-469c-34 0-62-28-62-62v-625c0-35 28-63 62-63h469c34 0 62 28 62 63v625c0 34-28 62-62 62z m-235-719c-17 0-31 14-31 32s14 31 31 31c18 0 32-14 32-31s-14-32-32-32z m235 96h-470v560h470v-560z" horiz-adv-x="1000" />
<glyph glyph-name="glyph-37" unicode="&#xe825;" d="m875 725h-750c-34 0-62-28-62-62v-625c0-35 28-63 62-63h750c35 0 63 28 63 63v625c0 34-28 62-63 62z m-514-47c18 0 32-14 32-31s-14-31-32-31c-17 0-31 14-31 31s14 31 31 31z m-95 0c17 0 31-14 31-31s-14-31-31-31c-18 0-32 14-32 31s14 31 32 31z m-94 0c17 0 31-14 31-31s-14-31-31-31c-17 0-31 14-31 31s14 31 31 31z m703-640h-750v530h750v-530z m0 593h-437v31h437v-31z" horiz-adv-x="1000" />
<glyph glyph-name="glyph-38" unicode="&#xe826;" d="m531 71h-93v-49l-94-16v-31h279v29l-92 18v49z m313 654h-719c-34 0-62-28-62-62v-438c0-34 28-62 62-62h719c34 0 62 28 62 62v438c0 34-28 62-62 62z m-363-516c-18 0-32 14-32 32 0 17 14 31 32 31 17 0 31-14 31-31 0-18-14-32-31-32z m363 110h-719v344h719v-344z" horiz-adv-x="1000" />
<glyph glyph-name="glyph-39" unicode="&#xe827;" d="m688 725h-375c-35 0-63-28-63-62v-625c0-35 28-63 63-63h375c34 0 62 28 62 63v625c0 34-28 62-62 62z m-188-687c-60 0-109 49-109 109 0 60 49 109 109 109 60 0 109-49 109-109 0-60-49-109-109-109z m188 281h-375l0 344h375v-344z m-188-110c-34 0-62-28-62-62s28-63 62-63 63 28 63 63-28 62-63 62z" horiz-adv-x="1000" />
<glyph glyph-name="glyph-40" unicode="&#xe828;" d="m876-55h-65v-33h-95v33h-434v-33h-95l0 33h-62c-35 0-63 28-63 63v591c0 35 28 63 63 63h217c0 0 14 19 39 36l-80 80 22 22 86-86c16 7 35 12 57 12 23 0 43-6 60-14l87 88 22-22-82-82c23-17 35-35 35-35h287c35 0 63-27 63-62v-591c0-35-28-63-62-63z m-222 592c0 17-14 31-31 31h-434c-18 0-31-14-31-31v-467c0-17 13-31 31-31h434c17 0 31 14 31 31v467z m97-498h92v31h-92v-31z m0 62h92v31h-92v-31z m0 64h92v31h-92v-31z m0 62h92v31h-92v-31z m44 341c-26 0-47-21-47-47s21-47 47-47c25 0 46 21 46 47s-21 47-46 47z m0-124c-26 0-47-21-47-47s21-46 47-46c25 0 46 21 46 46s-21 47-46 47z" horiz-adv-x="1000" />
<glyph glyph-name="glyph-41" unicode="&#xe829;" d="m875 631l-469 0 0 92-250 2v-94h-62c-35 0-63-28-63-62v-531c0-35 28-63 63-63h781c35 0 63 28 63 63v531c0 34-28 62-63 62z m-656 32h125v-94h-125v94z m156-593c-121 0-219 98-219 219s98 219 219 219c121 0 219-98 219-219 0-121-98-219-219-219z m422 358c-35 0-63 27-63 62 0 35 28 63 63 63 34 0 62-28 62-63 0-34-28-62-62-62z m-422-4c-78 0-141-63-141-140s63-141 141-141 141 63 141 141-63 140-141 140z" horiz-adv-x="1000" />
<glyph glyph-name="glyph-42" unicode="&#xe82a;" d="m875 600h-186c0 0-1 4-1 47s-35 78-79 78h-250c-43 0-78-35-78-78s2-47 2-47h-189c-35 0-63-28-63-62v-500c0-35 28-63 63-63h781c35 0 63 28 63 63v500c0 34-28 62-63 62z m-389-499c-104 0-188 84-188 187 0 104 84 188 188 188 103 0 187-84 187-188 0-103-84-187-187-187z" horiz-adv-x="1000" />
<glyph glyph-name="glyph-43" unicode="&#xe82b;" d="m844 317l-156 63v125l156 63c17 0 31-14 31-32v-187c0-18-14-32-31-32z m-297 220c-78 0-141 63-141 140s63 141 141 141 141-63 141-141c0-77-63-140-141-140z m-281 0c-78 0-141 63-141 140s63 141 141 141 140-63 140-141c0-77-63-140-140-140z m390 0v-282h-174c-2-26-13-49-30-61h18l124-282h-31l-41 94h-84v-156h-31v156h-84l-42-94h-31l126 282h12c-17 12-28 35-30 61h-202v282h500z m-249-353c-1 0-2 1-3 1l-67-148h70v147z m31 2v-149h70l-67 150c-1 0-2 0-3-1z" horiz-adv-x="1000" />
<glyph glyph-name="glyph-44" unicode="&#xe82c;" d="m948 24c-4 7-17 9-38 6-40-5-69 8-87 39-14 24-17 47-11 71s26 58 59 103l20 28c60 83 73 155 37 217-36 63-141 57-216 25-60 125-188 212-337 212-207 0-375-168-375-375 0-207 168-375 375-375 207 0 375 168 375 375 0 46-9 90-24 130 26 9 56 16 85 17 37 2 71-6 85-30 30-52 15-114-44-185l-12-14c-69-83-86-156-50-218 15-25 38-43 70-54 32-11 58-10 80 3 11 6 14 14 8 25z m-745 246c-43 0-78 35-78 78 0 43 35 78 78 78s78-35 78-78c0-43-35-78-78-78z m172-172c-43 0-78 35-78 78s35 78 78 78 78-35 78-78-35-78-78-78z m-31 250c0 17 14 31 32 31s31-14 31-31c0-17-14-31-31-31s-32 14-32 31z m31 94c-43 0-78 35-78 78 0 43 35 78 78 78s78-35 78-78c0-43-35-78-78-78z m172-172c-43 0-78 35-78 78 0 43 35 78 78 78s78-35 78-78c0-43-35-78-78-78z" horiz-adv-x="1000" />
<glyph glyph-name="glyph-45" unicode="&#xe82d;" d="m125 663v-688h688v688h-688z m125-625h-62v62h62v-62z m0 93h-62v63h62v-63z m0 94h-62v63h62v-63z m0 125h-62v63h62v-63z m0 94h-62v62h62v-62z m0 94h-62v62h62v-62z m375-500h-312v250h312v-250z m0 312h-312v250h312v-250z m125-312h-62v62h62v-62z m0 93h-62v63h62v-63z m0 94h-62v63h62v-63z m0 125h-62v63h62v-63z m0 94h-62v62h62v-62z m0 94h-62v62h62v-62z" horiz-adv-x="1000" />
<glyph glyph-name="glyph-46" unicode="&#xe82e;" d="m750 319c-34 0-62-28-62-63v-125h-157v438h344v-250h-125z m-156 219h-31v-63h31v63z m0-313h-31v-62h31v62z m62 313h-31v-63h31v63z m0-313h-31v-62h31v62z m63 313h-31v-63h31v63z m62 0h-31v-63h31v63z m63 0h-31v-63h31v63z m-719 125h406v-63h-406v63z m375-94v-438h-344v438h344z m31-531h-406v62h406v-62z" horiz-adv-x="1000" />
<glyph glyph-name="glyph-47" unicode="&#xe82f;" d="m719 271v46h-31v-46c0-112-93-202-204-202h-1c-111 0-202 90-202 202v46h-31v-46c0-118 87-214 200-230v-95c-88-6-155-36-155-64 0-1 384-1 384 0 0 29-73 60-166 65v93c115 15 206 112 206 231z m-236-169c95 0 174 76 174 171v44h-345v-44c0-95 77-171 171-171z m174 514c0 95-79 172-174 172-94 0-171-77-171-172v-267h345v267z m-110 109c9 0 16-7 16-16s-7-16-16-16c-9 0-16 7-16 16s7 16 16 16z m-63 0c9 0 16-7 16-16s-7-16-16-16c-8 0-15 7-15 16s7 16 15 16z m-62 0c9 0 16-7 16-16s-7-16-16-16c-9 0-16 7-16 16s7 16 16 16z m-63-344c-8 0-15 7-15 16s7 15 15 15c9 0 16-7 16-15s-7-16-16-16z m0 62c-8 0-15 7-15 16s7 16 15 16c9 0 16-7 16-16s-7-16-16-16z m0 63c-8 0-15 7-15 16s7 15 15 15c9 0 16-7 16-15 0-9-7-16-16-16z m0 62c-8 0-15 7-15 16s7 16 15 16c9 0 16-7 16-16s-7-16-16-16z m32 63c-9 0-16 7-16 16s7 15 16 15c8 0 15-7 15-15s-7-16-15-16z m31-250c-9 0-16 7-16 16s7 15 16 15c9 0 16-7 16-15s-7-16-16-16z m0 62c-9 0-16 7-16 16s7 16 16 16c9 0 16-7 16-16s-7-16-16-16z m0 63c-9 0-16 7-16 16s7 15 16 15c9 0 16-7 16-15 0-9-7-16-16-16z m0 62c-9 0-16 7-16 16s7 16 16 16c9 0 16-7 16-16s-7-16-16-16z m31 63c-8 0-15 7-15 16s7 15 15 15c9 0 16-7 16-15s-7-16-16-16z m31-250c-8 0-15 7-15 16s7 15 15 15c9 0 16-7 16-15s-7-16-16-16z m0 62c-8 0-15 7-15 16s7 16 15 16c9 0 16-7 16-16s-7-16-16-16z m0 63c-8 0-15 7-15 16s7 15 15 15c9 0 16-7 16-15 0-9-7-16-16-16z m0 62c-8 0-15 7-15 16s7 16 15 16c9 0 16-7 16-16s-7-16-16-16z m32 63c-9 0-16 7-16 16s7 15 16 15c8 0 15-7 15-15s-7-16-15-16z m31-250c-9 0-16 7-16 16s7 15 16 15c9 0 16-7 16-15s-7-16-16-16z m0 62c-9 0-16 7-16 16s7 16 16 16c9 0 16-7 16-16s-7-16-16-16z m0 63c-9 0-16 7-16 16s7 15 16 15c9 0 16-7 16-15 0-9-7-16-16-16z m0 62c-9 0-16 7-16 16s7 16 16 16c9 0 16-7 16-16s-7-16-16-16z m31 63c-8 0-15 7-15 16s7 15 15 15c9 0 16-7 16-15s-7-16-16-16z m31-250c-8 0-15 7-15 16s7 15 15 15c9 0 16-7 16-15s-7-16-16-16z m0 62c-8 0-15 7-15 16s7 16 15 16c9 0 16-7 16-16s-7-16-16-16z m0 63c-8 0-15 7-15 16s7 15 15 15c9 0 16-7 16-15 0-9-7-16-16-16z m0 62c-8 0-15 7-15 16s7 16 15 16c9 0 16-7 16-16s-7-16-16-16z" horiz-adv-x="1000" />
<glyph glyph-name="glyph-48" unicode="&#xe830;" d="m513 40v-93c93-5 166-36 166-65 0-1-384-1-384 0 0 28 67 58 155 64v95c-113 16-200 112-200 230v46h31v-46c0-112 91-202 202-202h1c111 0 204 90 204 202v46h31v-46c0-119-91-216-206-231z m-30 62c-94 0-171 76-171 171v44h345v-44c0-95-79-171-174-171z m-171 514c0 95 77 172 171 172s174-77 174-172v-267h-345v267z" horiz-adv-x="1000" />
<glyph glyph-name="glyph-49" unicode="&#xe831;" d="m513 40v-94c93-5 165-36 165-65 0-1-383-1-383 0 0 28 67 58 155 65v94c-113 16-200 112-200 230v48h31v-48c0-112 91-202 202-202h1c111 0 202 90 202 202v48h33v-48c0-119-92-216-206-230z m-29 61c-94 0-171 77-171 172v78h140v31h-140v31h140v31h-140v31h140v32h-140v31h140v31h-140v49c0 95 77 170 171 170 95 0 172-75 172-170v-49h-140v-31h140v-31h-140v-32h140v-31h-140v-31h140v-31h-140v-31h140v-78c0-95-77-172-172-172z" horiz-adv-x="1000" />
<glyph glyph-name="glyph-50" unicode="&#xe832;" d="m721 572c17 0 31-14 31-32l-57-628c0-17-14-31-32-31h-326c-18 0-32 14-32 31l-57 628c0 18 14 32 32 32h281l33 170 152 77-11-40-112-57-30-150h128z m-174-221h126l-35-407h-276l-35 407h188l40 189h-275l57-628h326l57 628h-133l-40-189z" horiz-adv-x="1000" />
<glyph glyph-name="glyph-51" unicode="&#xe833;" d="m764 569h-561l1 61h44l95 93h285l93-93h45l-2-61z m-232 92h-93v-31h93v31z m182-343h-105c-23 45-70 77-125 77s-101-32-124-77h-104l-20 218h499l-21-218z m-306-63c0 44 35 78 78 78 43 0 78-34 78-78s-35-78-78-78c-43 0-78 35-78 78z m76-141c56 0 104 33 127 80h92l-24-249h-388l-23 249h90c22-47 70-80 126-80z" horiz-adv-x="1000" />
<glyph glyph-name="glyph-52" unicode="&#xe834;" d="m781 571h-564l1 61h45l95 94h286l94-94h45l-2-61z m-233 92h-94v-31h94v31z m191-250h-476l-12 125h501l-13-125z m-13-280h-452l-23 248h501l-26-248z m-31-159c0-17-14-31-31-31h-327c-17 0-32 14-32 31l-12 127h415l-13-127z" horiz-adv-x="1000" />
<glyph glyph-name="glyph-53" unicode="&#xe835;" d="m830 599l-328-288v-373l183-88h-428l182 88v373l-332 288h507l101 176 27-16-92-160h180z m-76-29l-121-1-37-64h85l73 65z m-252-191c19 0 34 15 34 34s-15 33-34 33-33-15-33-33c0-19 15-34 33-34z m-318 191l73-65h302l37 64-412 1z" horiz-adv-x="1000" />
<glyph glyph-name="glyph-54" unicode="&#xe836;" d="m937 364c-12 114-127 113-187 111 1 17 1 31 1 31l-689 1c0 0 0-95 0-97 0-134 77-249 188-306v-34h313v34c32 16 60 37 84 61 154 37 315 90 290 199z m-242-141c35 54 56 118 56 187 0 0 0 1 0 4 56 2 118 7 132-48 14-61-89-111-188-143z m-419 409c0-32-51-65-51-65s100 18 100 65-99 16-99 51 49 68 49 68-95-20-95-69 96-19 96-50z m156-32c0-31-51-64-51-64s100 18 100 65-99 15-99 50 49 69 49 69-94-20-94-69 95-19 95-51z m125 32c0-32-51-65-51-65s100 18 100 65-99 16-99 51 49 68 49 68-94-20-94-69 95-19 95-50z m-497-592c0-43 154-78 344-78s344 35 344 78c0-1-688-1-688 0z" horiz-adv-x="1000" />
<glyph glyph-name="glyph-55" unicode="&#xe837;" d="m805 69h-85v-68c0-48-43-88-91-88h-323c-48 0-87 40-87 88v472h94v-466h62l0 466c17-12 42-21 63-26v-440h62v438c23 4 44 13 63 26v-464h62v466h180c39 0 70-31 70-70v-264c0-39-31-70-70-70z m7 343h-92v-281h92v281z m-149 90c-30 0-58 12-78 32-26-36-67-60-115-60-45 0-85 22-111 56-20-19-47-30-77-30-54 0-100 39-111 90-17 11-28 30-28 51 0 34 28 62 62 62 2 0 4-1 7-1 19 15 42 24 68 25 12 34 44 60 83 60 29 0 56-15 71-38 12 3 24 5 36 5 13 0 26-2 38-5 16 22 42 38 72 38 38 0 69-24 82-58 0 0 1 0 1 0 63 0 114-51 114-113s-51-114-114-114z" horiz-adv-x="1000" />
<glyph glyph-name="glyph-56" unicode="&#xe838;" d="m650 514c45 113-56 132-56 131 32 80-32 133-90 133s-56-27-56-27 32 7 32-18c0-26-30-24-59-54-29-29-15-25-17-25 61 4 96-59 164-36-67-33-83 20-155 22-9 0-62 11-62-91 78-9 111-63 217-51-119-44-267 138-288-61 0-42 32-64 32-64s369 0 367 0c74 32 38 148-29 141z m-148-633l167 471h-337l170-471z" horiz-adv-x="1000" />
<glyph glyph-name="glyph-57" unicode="&#xe839;" d="m797 569c-9 0-18-1-27-3-4 57-51 102-108 102-13 0-26-3-37-7-36 57-99 95-172 95-110 0-199-87-202-197-15 6-31 10-48 10-69 0-125-56-125-125 0-67 53-122 120-125l50 50 51-50h23l51 50 51-50h23l51 50 51-50h23l51 50 51-50h23l51 50 51-50c68 1 123 56 123 125 0 69-56 125-125 125z m-47-237l-45-44h-39l-43 42-43-42h-39l-43 42-43-42h-39l-43 42-43-42h-39l-43 42-43-42h-2l83-344h426l85 344h-2l-45 44z m-391-357l-65 281h32l65-281h-32z m63 0l-33 281h31l33-281h-31z m94 0h-32v281h32v-281z m31 0l33 281h31l-33-281h-31z m94 0h-32l65 281h31l-64-281z" horiz-adv-x="1000" />
<glyph glyph-name="glyph-58" unicode="&#xe83a;" d="m675 600h-344l-206-281v-156c0-35 28-63 63-63h625c34 0 62 28 62 63v156l-200 281z m27-282l-64-94-268 1-69 93-128 1 177 249h306l175-249-129-1z" horiz-adv-x="1000" />
<glyph glyph-name="glyph-59" unicode="&#xe83b;" d="m675 600h-344l-206-281v-156c0-35 28-63 63-63h625c34 0 62 28 62 63v156l-200 281z m27-282l-64-94-268 1-69 93-128 1 177 249h306l175-249-129-1z m-159 188c0 18-10 32-27 32-18 0-30-14-30-32v-123l-76-2 106-119 103 119-76 2v123z" horiz-adv-x="1000" />
<glyph glyph-name="glyph-60" unicode="&#xe83c;" d="m675 600h-344l-206-281v-156c0-35 28-63 63-63h625c34 0 62 28 62 63v156l-200 281z m27-282l-64-94-268 1-69 93-128 1 177 249h306l175-249-129-1z m-292 95l76-2v-123c0-18 12-32 30-32 17 0 27 14 27 32v123l76 2-103 119-106-119z" horiz-adv-x="1000" />
<glyph glyph-name="glyph-61" unicode="&#xe83d;" d="m675 600h-344l-206-312v-157c0-34 28-62 63-62h625c34 0 62 28 62 62v157l-200 312z m27-313l-64-125-268 0-69 125-128 1 177 280h306l175-280-129-1z m-327-93h250v31h-250v-31z m-5 344l-138-219h544l-141 219h-265z m-26-282h312v32h-312v-32z" horiz-adv-x="1000" />
<glyph glyph-name="glyph-62" unicode="&#xe83e;" d="m500 756c-224 0-406-182-406-406s182-406 406-406 406 182 406 406-182 406-406 406z m227-291l-297-296c-7-7-19-7-26 0l-6 6 0 0-164 164c-7 8-7 20 0 27l41 41c7 7 19 7 27 0l115-117 242 243c8 7 20 7 27 0l41-41c7-7 7-19 0-27z" horiz-adv-x="1000" />
<glyph glyph-name="glyph-63" unicode="&#xe83f;" d="m682 443l-31 31c-6 6-16 6-21 0l-188-188-90 90c-5 6-15 6-20 0l-32-31c-6-6-6-15 0-21l131-132c6-6 15-6 21 0l230 230c6 6 6 15 0 21z m-182 313c-224 0-406-182-406-406s182-406 406-406 406 182 406 406-182 406-406 406z m0-718c-173 0-312 139-312 312 0 173 139 313 312 313 173 0 313-140 313-313 0-173-140-312-313-312z" horiz-adv-x="1000" />
<glyph glyph-name="glyph-64" unicode="&#xe840;" d="m500-56c-224 0-406 182-406 406s182 406 406 406 406-182 406-406-182-406-406-406z m186 525c8 7 8 20 0 27l-41 42c-8 7-20 7-28 0l-117-118-118 118c-8 7-20 7-28 0l-41-42c-8-7-8-20 0-27l118-118-118-118c-8-7-8-20 0-27l41-42c8-7 20-7 28 0l118 118 117-118c8-7 20-7 28 0l41 42c8 7 8 20 0 27l-117 118 117 118z" horiz-adv-x="1000" />
<glyph glyph-name="glyph-65" unicode="&#xe841;" d="m500-56c-224 0-406 182-406 406s182 406 406 406 406-182 406-406-182-406-406-406z m0 719c-173 0-312-140-312-313s139-312 312-312c173 0 313 139 313 312s-140 313-313 313z m142-423l-32-32c-6-6-15-6-21 0l-90 90-89-90c-6-6-16-6-21 0l-32 32c-6 5-6 15 0 21l90 89-90 90c-6 6-6 15 0 21l32 32c5 6 15 6 21 0l89-90 90 90c6 6 15 6 21 0l32-32c6-6 6-15 0-21l-90-90 90-89c6-6 6-16 0-21z" horiz-adv-x="1000" />
<glyph glyph-name="glyph-66" unicode="&#xe842;" d="m484-72c-224 0-406 182-406 406s182 407 406 407 407-182 407-407-182-406-407-406z m202 424c0 17-14 31-32 31h-125v125c0 17-14 31-31 31h-31c-17 0-31-14-31-31v-125h-125c-18 0-32-14-32-31v-31c0-18 14-32 32-32h125v-125c0-17 14-31 31-31h31c17 0 31 14 31 31v125h125c18 0 32 14 32 32v31z" horiz-adv-x="1000" />
<glyph glyph-name="glyph-67" unicode="&#xe843;" d="m500-56c-224 0-406 182-406 406s182 406 406 406 406-182 406-406-182-406-406-406z m0 719c-173 0-312-140-312-313 0-173 139-312 312-312 173 0 313 139 313 312 0 173-140 313-313 313z m125-344h-94v-94c0-17-14-31-31-31-18 0-32 14-32 31v94h-93c-18 0-32 14-32 31s14 31 32 31h93v94c0 17 14 31 32 31 17 0 31-14 31-31v-94h94c17 0 31-14 31-31s-14-31-31-31z" horiz-adv-x="1000" />
<glyph glyph-name="glyph-68" unicode="&#xe844;" d="m484 741c-224 0-406-182-406-407s182-406 406-406c225 0 407 182 407 406s-182 407-407 407z m204-418c0-18-14-32-32-32h-343c-18 0-32 14-32 32v31c0 17 14 31 32 31h343c18 0 32-14 32-31v-31z" horiz-adv-x="1000" />
<glyph glyph-name="glyph-69" unicode="&#xe845;" d="m500 756c-224 0-406-182-406-406s182-406 406-406 406 182 406 406-182 406-406 406z m0-718c-173 0-312 139-312 312 0 173 139 313 312 313 173 0 313-140 313-313 0-173-140-312-313-312z m117 343h-250c-17 0-31-14-31-31 0-17 14-31 31-31h250c17 0 31 14 31 31 0 17-14 31-31 31z" horiz-adv-x="1000" />
<glyph glyph-name="glyph-70" unicode="&#xe846;" d="m484 741c-224 0-406-182-406-407s182-406 406-406 407 182 407 406-182 407-407 407z m0-637c-25 0-46 21-46 47s21 47 46 47c26 0 47-21 47-47s-21-47-47-47z m47 203c0-26-21-47-47-47-25 0-46 21-46 47v219c0 26 21 47 46 47 26 0 47-21 47-47v-219z" horiz-adv-x="1000" />
<glyph glyph-name="glyph-71" unicode="&#xe847;" d="m484 756c-233 0-421-189-421-422s188-422 421-422 422 189 422 422-189 422-422 422z m0-750c-181 0-328 147-328 328s147 329 328 329 329-147 329-329-147-328-329-328z m0 532c-25 0-46-21-46-47v-159c0-25 21-46 46-46s47 21 47 46v159c0 26-21 47-47 47z m0-313c-25 0-46-21-46-47s21-47 46-47 47 21 47 47-21 47-47 47z" horiz-adv-x="1000" />
<glyph glyph-name="glyph-72" unicode="&#xe848;" d="m812 254h-41c-7-24-16-47-29-69l39-38c24-24 24-64 0-89l-23-22c-24-24-64-24-88 0l-39 39c-21-12-44-22-68-28v-41c0-34-28-62-63-62h-31c-35 0-63 28-63 62v41c-24 6-47 16-68 28l-39-39c-24-24-64-24-89 0l-22 22c-24 25-24 65 0 89l39 38c-13 22-22 45-29 69h-42c-34 0-62 28-62 63v31c0 35 28 63 62 63h41c7 24 16 47 28 68l-37 37c-24 24-24 64 0 88l22 23c25 24 65 24 89 0l36-36c22 12 46 22 71 29v42c0 35 28 63 63 63h31c35 0 63-28 63-63v-42c25-7 49-17 71-29l36 36c24 24 64 24 88 0l23-23c24-24 24-64 0-88l-37-37c12-21 21-44 28-68h40c35 0 63-28 63-63v-31c0-35-28-63-63-63z m-328 250c-95 0-172-77-172-173s77-172 172-172 173 77 173 172-77 173-173 173z m0-249c-43 0-78 35-78 78 0 44 35 79 78 79s79-35 79-79c0-43-35-78-79-78z" horiz-adv-x="1000" />
<glyph glyph-name="glyph-73" unicode="&#xe849;" d="m665 161l22 22c24 25 24 65 0 89l-38 38c12 22 22 45 28 69h42c34 0 62 28 62 63v31c0 35-28 63-62 63h-41c-7 24-16 47-28 68l37 37c24 24 24 64 0 88l-22 23c-25 24-64 24-89 0l-36-36c-22 12-46 22-71 29v42c0 35-28 63-63 63h-31c-35 0-63-28-63-63v-42c-25-7-49-17-71-29l-36 36c-24 24-64 24-88 0l-22-22c-25-25-25-65 0-89l36-37c-12-21-21-44-27-68h-41c-35 0-63-28-63-63v-31c0-35 28-63 63-63h41c7-24 16-47 29-69l-38-38c-25-24-25-64 0-89l22-22c24-24 64-24 88 0l39 39c21-12 44-22 68-28v-41c0-34 28-62 63-62h31c35 0 63 28 63 62v41c24 6 47 16 69 28l38-39c25-24 64-24 89 0z m-274 123c-95 0-173 77-173 173 0 95 78 172 173 172s172-77 172-172c0-96-77-173-172-173z m0 253c-44 0-79-35-79-79s35-78 79-78c43 0 78 35 78 78s-35 79-78 79z m392-589c-21 0-38-17-38-38 0-21 17-38 38-38 21 0 38 17 38 38 0 21-17 38-38 38z m159 0h-20c-3 11-7 22-13 33l18 18c12 11 12 31 0 43l-11 10c-12 12-31 12-43 0l-17-17c-11 6-23 11-35 14v21c0 16-13 30-30 30h-15c-17 0-31-14-31-30v-21c-12-3-24-8-34-14l-18 17c-12 12-31 12-43 0l-10-10c-12-12-12-32 0-43l17-18c-6-11-10-22-13-33h-20c-17 0-30-14-30-31v-15c0-17 13-30 30-30h20c3-12 8-23 14-34l-19-18c-11-12-11-31 0-43l11-11c12-12 31-12 43 0l19 19c10-6 21-11 33-14v-20c0-16 14-30 31-30h15c16 0 30 14 30 30v20c12 3 23 8 33 14l19-19c12-12 31-12 43 0l11 11c12 12 12 31 0 43l-19 18c6 11 11 22 14 34h20c17 0 31 13 31 30v15c0 17-14 31-31 31z m-159-122c-46 0-83 37-83 83 0 46 37 84 83 84s84-38 84-84c0-46-38-83-84-83z" horiz-adv-x="1000" />
<glyph glyph-name="glyph-74" unicode="&#xe84a;" d="m830 397h61v-94h-61c-4-30-11-58-22-85l52-30-47-82-53 31c-18-23-40-44-63-61l31-54-81-47-32 55c-26-10-54-18-84-21v-65h-93v67c-29 4-56 12-82 23l-34-59-81 47 34 60c-21 17-41 38-58 60l-61-36-47 82 62 35c-10 26-17 52-21 80h-72v94h72c4 28 11 55 21 80l-62 36 47 81 61-36c17 23 37 43 58 60l-34 60 81 47 34-59c26 11 53 19 82 23v67h93v-65c30-3 58-11 84-21l32 55 81-47-31-54c23-17 45-38 63-61l53 31 47-81-52-31c11-26 18-55 22-85z m-346 156c-112 0-203-90-203-203s91-203 203-203 203 91 203 203-91 203-203 203z m0-281c-43 0-78 35-78 78s35 78 78 78 79-35 79-78-35-78-79-78z" horiz-adv-x="1000" />
<glyph glyph-name="glyph-75" unicode="&#xe84b;" d="m955 62l-391 670c-33 32-86 32-119 0l-391-670c-32-33-32-86 0-118h901c33 32 33 85 0 118z m-486 429c0 26 21 47 46 47s47-21 47-47v-218c0-26-21-47-47-47s-46 21-46 47v218z m47-422c-26 0-47 21-47 47 0 26 21 47 47 47s47-21 47-47c0-26-21-47-47-47z" horiz-adv-x="1000" />
<glyph glyph-name="glyph-76" unicode="&#xe84c;" d="m844-26h-63v-61h-125v61h-343v-61h-125v61h-63c-34 0-62 28-62 63v531c0 34 28 62 62 62h719c34 0 62-28 62-62v-531c0-35-28-63-62-63z m-188 375h-125v125h-93v-125h-125v-94h125v-125h93v125h125v94z m-62 376h-188v-63h-62v30h31v95h249v-94h32v-31h-62v63z" horiz-adv-x="1000" />
<glyph glyph-name="glyph-77" unicode="&#xe84d;" d="m844-56h-125v656h125c34 0 62-28 62-62v-532c0-34-28-62-62-62z m-531 656v0 63c0 34 28 62 62 62h219c34 0 62-28 62-62v-719h-343v656z m62 0h219c0 0 0 14 0 31 0 18-14 32-31 32h-157c-17 0-31-14-31-32 0-17 0-31 0-31z m-312-594v532c0 34 28 62 62 62h125v-656h-125c-34 0-62 28-62 62z" horiz-adv-x="1000" />
<glyph glyph-name="glyph-78" unicode="&#xe84e;" d="m844-56h-719c-34 0-62 28-62 62v375c0 0 163-84 312-118v-38c0-17 14-31 31-31h157c17 0 31 14 31 31v38c149 34 312 118 312 118v-375c0-34-28-62-62-62z m-313 375c18 0 32-14 32-31v-32c0-17-14-31-32-31h-93c-18 0-32 14-32 31v32c0 17 14 31 32 31h93z m63 0c0 17-14 31-31 31h-157c-17 0-31-14-31-31v-28c-149 35-312 122-312 122v125c0 34 28 62 62 62h188v63c0 34 28 62 62 62h219c34 0 62-28 62-62v-63h188c34 0 62-28 62-62v-125c0 0-163-87-312-122v28z m0 312c0 18-14 32-31 32h-157c-17 0-31-14-31-32 0-17 0-31 0-31h219c0 0 0 14 0 31z" horiz-adv-x="1000" />
<glyph glyph-name="glyph-79" unicode="&#xe84f;" d="m875-56h-750c-34 0-62 28-62 62v282h125v-94h125v94h375v-94h125v94h125v-282c0-34-28-62-63-62z m-156 281v125h62v-125h-62z m-500 0v125h62v-125h-62z m594 156h-125v-62h-375v62h-125v-62h-125v219c0 34 28 62 62 62h750c35 0 63-28 63-62v-219h-125v62z m-219 313h-188v-63h-62v31h31v94h251v-93h30v-32h-62v63z" horiz-adv-x="1000" />
<glyph glyph-name="glyph-80" unicode="&#xe850;" d="m612 511l-99-148-71 72-71-116-54 53-58-116h455l-102 255z m-487 183v-719h719v719h-719z m656-500h-593v437h593v-437z m-453 248c26 0 47 21 47 46s-21 47-47 47c-26 0-47-21-47-47s21-46 47-46z" horiz-adv-x="1000" />
<glyph glyph-name="glyph-81" unicode="&#xe851;" d="m867 236l-41-153-2 0-45-168-290 78-3-1-306 82-1 2-81 22 15 57 1 0 151 563-1 0 16 60 534-144 1 2 147-39-96-359 1-2z m20 317l-563 151-111-415 563-151 111 415z m-505-121l38-64 97 91 49-86 131 115 33-268-432 116 84 96z m28 62c-24 7-39 32-32 57 6 24 32 39 56 32 25-6 39-31 33-56-7-25-32-39-57-33z m266 216l-13-3-118 31 175 47 27-101-69 19-2 7z m-563-151l39-145-32-118-82 307 177 47-18-68-84-23z m108-638l-32 118 237-63-205-55z" horiz-adv-x="1000" />
<glyph glyph-name="glyph-82" unicode="&#xe852;" d="m831-75l-82 23 0 227 79-22 113 422-573 153-38-140h-64l58 217 693-186-186-694z m-111-75h-720v718h720v-718z m-62 656h-596v-437h596v437z m-413-312l72 115 71-72 98 148 103-254h-455l58 116 53-53z m-42 122c-26 0-47 21-47 47s21 47 47 47 46-21 46-47-20-47-46-47z" horiz-adv-x="1015.6" />
<glyph glyph-name="glyph-83" unicode="&#xe853;" d="m719 225c-17 0-31 14-31 31v188c0 17 14 31 31 31 17 0 31-14 31-31v-188c0-17-14-31-31-31z m-94 400c31-54 31-119 31-119h-312c0 0-1 66 30 120l-59 59c-6 6-6 16 0 22s16 6 22 0l56-55c23 25 57 44 107 44 50 0 84-19 107-45l56 56c6 6 16 6 22 0s6-16 0-22l-60-60z m-203-25c-9 0-16-7-16-16s7-15 16-15c9 0 16 7 16 15s-7 16-16 16z m156 0c-8 0-15-7-15-16s7-15 15-15c9 0 16 7 16 15s-7 16-16 16z m-265-344c0-17-14-31-32-31-17 0-31 14-31 31v188c0 17 14 31 31 31 18 0 32-14 32-31v-188z m343-62c0-41-26-75-62-88v-100c0-17-14-31-31-31-18 0-32 14-32 31v94h-62v-94c0-17-14-31-31-31-18 0-32 14-32 31v100c-36 13-62 47-62 88v281h312v-281z" horiz-adv-x="1000" />
<glyph glyph-name="glyph-84" unicode="&#xe854;" d="m500 725c-207 0-375-168-375-375 0-207 168-375 375-375 207 0 375 168 375 375 0 207-168 375-375 375z m237-432l-74-82-16 116c-96 29-205 29-307 0l-10-117c0 0-80 83-81 83-38-14-78-43-78-43l-2 25c0 0 310 216 648 0l-2-25c0 0-37 32-78 43z" horiz-adv-x="1000" />
<glyph glyph-name="glyph-85" unicode="&#xe855;" d="m543 336l260-265c-66-59-154-96-250-96-207 0-375 168-375 375 0 207 168 375 375 375 106 0 201-44 269-114l-279-275z m25 265c-26 0-47-21-47-47 0-25 21-46 47-46 26 0 47 21 47 46 0 26-21 47-47 47z" horiz-adv-x="1000" />
<glyph glyph-name="glyph-86" unicode="&#xe856;" d="m876-26h-65l-63 188h-530l-62-188h-63c-52 0-94 43-94 94v564c0 52 42 94 94 94h783c51 0 93-43 93-94v-564c0-51-42-94-93-94z m-2 658h-781v-407h781v407z m-61-345h-657v282h657v-282z m-516 220c-44 0-79-35-79-78s35-78 79-78 78 35 78 78-35 78-78 78z m232-47h-92v-63h92v63z m143 47c-43 0-78-35-78-78s35-78 78-78c44 0 79 35 79 78s-35 78-79 78z m-2-110c-17 0-31 14-31 31 0 18 14 32 31 32s32-14 32-32c0-17-15-31-32-31z m-371 0c-18 0-32 14-32 31 0 18 14 32 32 32 17 0 31-14 31-32 0-17-14-31-31-31z m428-266l55-155h-597l53 155h489z m-39-94h31v31h-31v-31z m-63 0h32v31h-32v-31z m-219 0h155v31h-155v-31z m-94 0h32v31h-32v-31z m-62 0h31v31h-31v-31z" horiz-adv-x="1000" />
<glyph glyph-name="glyph-87" unicode="&#xe857;" d="m219 381h31v-31h-31v-94h62v32h-31v31h31v94h-62v-32z m187-93h32v31h-32v-31z m-93 93h31v-31h-31v-31h31v-31h-31v-32h62v157h-62v-32z m93-31h32v31h-32v-31z m63-94h94v157h-94v-157z m31 125h31v-93h-31v93z m125 32h-31v-94h62v-63h32v157h-32v-63h-31v63z m250 0h-31l0 125-176 187-43 0v63h-344v-63l-44 0-174-184-1-381 174-183 45 0v-65h344v65l42 0 177 184 0 95h31c17 0 31 14 31 32v93c0 18-14 32-31 32z m-95-228l-141-148-375 0-138 147 0 333 137 146 379 0 138-148 0-330z" horiz-adv-x="1000" />
<glyph glyph-name="glyph-88" unicode="&#xe858;" d="m877 270c0-217-176-393-393-393-216 0-392 176-392 393 0 210 165 381 373 391v68h-30c-17 0-31 14-31 31s14 31 31 31h95c17 0 31-14 31-31s-14-31-31-31h-34v-68c211-6 381-179 381-391z m-412 270v72c-97-6-183-51-243-121l52-51-22-22-49 48c-40-56-64-124-64-198 0-4 1-8 1-8h76v-31h-74c8-65 33-125 71-173l39 38 22-22-41-40c59-63 141-103 232-109v86h31v-86c94 3 177 44 238 107l-45 44 22 22 43-43c39 49 65 110 73 175h-80v32h82c0 3 1 4 1 8 0 76-25 146-67 203l-52-51-22 22 54 54c-61 68-148 113-247 116v-72h-31z m33-280h110c9 0 16-7 16-16 0-8-7-16-16-16h-126c-8 0-15 8-15 16v218c0 9 7 16 15 16s16-7 16-16v-202z" horiz-adv-x="1000" />
<glyph glyph-name="glyph-89" unicode="&#xe859;" d="m875 287h-31v-219c0-52-42-94-94-94h-125v-123h-344v123h-125c-51 0-93 42-93 94v531c0 52 42 94 93 94h125v125h344v-125h125c52 0 94-42 94-94v-219h31c17 0 31-14 31-31v-31c0-17-14-31-31-31z m-94 281c0 34-28 62-62 62h-531c-35 0-63-28-63-62v-469c0-34 28-62 63-62h531c34 0 62 28 62 62v469z m-125-250h-62v94h31v-63h31v63h32v-157h-32v63z m-156-63h-31v157h94v-157h-63z m31 125h-31v-93h31v93z m-125-62h32v-31h-32v31z m0 62h32v-31h-32v31z m-93-125v32h31v31h-31v31h31v31h-31v32h62v-157h-62z m-94 0v94h31v31h-31v32h62v-94h-31v-31h31v-32h-62z" horiz-adv-x="1000" />
<glyph glyph-name="glyph-90" unicode="&#xe85a;" d="m851 388c-43 119-148 211-278 240 33 48 89 79 152 79 102 0 184-83 184-185 0-53-22-100-58-134z m-355 312v-116c177-7 319-153 319-332 0-74-25-143-67-199l77-133-64-37-66 114c-58-48-132-77-213-77-80 0-154 28-212 76l-68-117-63 37 78 136c-42 56-67 125-67 200 0 178 139 323 315 332v116c-18 6-31 23-31 43 0 26 21 47 46 47 26 0 47-21 47-47 0-20-13-37-31-43z m-272-448c0-143 115-258 258-258 143 0 259 115 259 258 0 143-116 259-259 259-143 0-258-116-258-259z m336-56h-93c-17 0-31 14-31 31v124c0 17 14 31 31 31 17 0 31-14 31-31v-93h62c17 0 31-14 31-31s-14-31-31-31z m-442 192c-36 34-58 81-58 134 0 102 82 185 184 185 63 0 118-31 152-79-130-29-235-121-278-240z" horiz-adv-x="1000" />
<glyph glyph-name="glyph-91" unicode="&#xe85b;" d="m1219 473l-63 0v64c0 51-42 93-93 93h-969c-52 0-94-42-94-93v-344c0-52 42-94 94-94h124l-1-29h721l-1 29h126c51 0 93 42 93 94v64h64l-1 216z m-94-280c0-35-28-63-62-63h-969c-35 0-63 28-63 63v344c0 34 28 62 63 62h969c34 0 62-28 62-62v-344z m-62 375h-969c-17 0-31-14-31-31v-344c0-17 14-31 31-31h969c17 0 31 14 31 31v344c0 17-14 31-31 31z m-55-93l-25-24h-76l-21 24h122z m-29-98l11-12-13-11h-82l-10 11 12 12h82z m-98 93l21-23-5-62-16-15-8 9 8 91z m-203 0l21-23-5-62-16-15-8 9 8 91z m98-93l11-12-13-11h-82l-10 11 13 12h81z m-410 93l21-23-5-62-16-15-8 9 8 91z m98-93l11-12-13-11h-82l-10 11 12 12h82z m-174 98l-25-24h-76l-21 24h122z m-127-5l21-23-5-62-16-15-8 9 8 91z m-10-118l9 9 13-15-5-62-25-24 8 92z m-5-96l26 24h76l21-24h-123z m128 5l-21 23 5 62 16 15 8-9-8-91z m10 118l-9-9-14 15 6 62 25 24-8-92z m69-27l10 9 13-15-5-62-26-24 8 92z m-4-96l26 24h76l21-24h-123z m127 4l-21 24 6 62 16 15 7-9-8-92z m-10 191h-76l-22 24h123l-25-24z m113-195h-24l2 24h24l-2-24z m13 159h-23l2 23h23l-2-23z m70-159l25 24h76l21-24h-122z m127 5l-21 23 5 62 16 15 8-9-8-91z m-11 190h-76l-21 24h122l-25-24z m87-195l25 24h76l21-24h-122z m126 5l-21 23 6 62 16 15 7-9-8-91z m11 118l-9-9-14 15 5 62 26 24-8-92z" horiz-adv-x="1218.8" />
<glyph glyph-name="glyph-92" unicode="&#xe85c;" d="m500 741c-224 0-406-182-406-407s182-406 406-406c224 0 406 182 406 406s-182 407-406 407z m-3-736c-181 0-328 147-328 329s147 328 328 328c181 0 328-147 328-328 0-182-147-329-328-329z m95 310h-94v157c0 17-13 31-30 31-18 0-31-14-31-31v-188c0-17 13-31 31-31h124c17 0 31 14 31 31 0 17-14 31-31 31z" horiz-adv-x="1000" />
<glyph glyph-name="glyph-93" unicode="&#xe85d;" d="m750-25v63h-1c1 5 1 10 1 15v344c0 147-119 266-266 266s-265-119-265-266v-344c0-5 0-10 1-15h-1v-63c0 0-156 3-156 172 0 96 50 138 93 157v93c0 181 147 328 328 328s329-147 329-328v-93c43-19 93-61 93-157 0-169-156-172-156-172z m-469 0h-31v344h31v-344z m438 0h-31v344h31v-344z" horiz-adv-x="1000" />
<glyph glyph-name="glyph-94" unicode="&#xe85e;" d="m563 163c-35 0-63 28-63 62v63c0 34 28 62 63 62h375v-187h-375z m46 138c-25 0-46-21-46-47 0-26 21-47 46-47 26 0 47 21 47 47 0 26-21 47-47 47z m-140-13v-63c0-52 42-94 94-94h312v-125c0-52-42-94-94-94h-656c-52 0-94 42-94 94v594c0 52 42 94 94 94h301l-73-31h-244c-25 0-46-21-46-47 0-26 21-47 46-47h766v-188h-312c-52 0-94-42-94-93z m-313 218h-62v-62h31v31h31v31z m0-93h-62v-63h32l-1 31 31 0v32z m0-94h-62v-63h32l-1 32h31v31z m0-94h-62v-62h32l-1 31 31-1v32z m0-94h-62v-62h31v31h31v31z m0-93h-62v-63h32l-1 31h31v32z m125 564l368 154 70-154h-438z m427 92h73c28 0 52-12 69-31h-127l-15 31z" horiz-adv-x="1000" />
<glyph glyph-name="glyph-95" unicode="&#xe85f;" d="m906 583l-66 67c-13 12-33 12-45 0l-400-400-190 192c-12 12-32 12-44 0l-67-67c-12-12-12-32 0-44l279-281c12-12 32-12 44 0l489 489c13 12 13 32 0 44z" horiz-adv-x="1000" />
<glyph glyph-name="glyph-96" unicode="&#xe860;" d="m612 350l191-190c12-13 12-33 0-45l-68-68c-12-12-32-12-44 0l-191 191-190-191c-13-12-33-12-45 0l-68 68c-12 12-12 32 0 45l191 190-191 191c-12 12-12 32 0 44l68 68c12 12 32 12 45 0l190-191 191 191c12 12 32 12 44 0l68-68c12-12 12-32 0-44l-191-191z" horiz-adv-x="1000" />
<glyph glyph-name="glyph-97" unicode="&#xe861;" d="m536 714c-330 0-536-364-536-364s204-364 536-364c311 0 547 364 547 364s-234 364-547 364z m3-528c-90 0-163 73-163 164s73 163 163 163 164-73 164-163-73-164-164-164z m1 245c-45 0-81-36-81-81 0-45 36-81 81-81s82 36 82 81c0 45-37 81-82 81z" horiz-adv-x="1093.8" />
<glyph glyph-name="glyph-98" unicode="&#xe862;" d="m516 86v31c104-3 187-36 187-78 0-43-91-80-203-80-112 0-203 37-203 80 0 42 83 75 187 78v-31c-87-2-156-22-156-47 0-25 77-50 172-50 95 0 172 25 172 50 0 25-69 45-156 47z m-187 483c0 95 78 172 173 172 95 0 172-77 172-172 0-82-57-150-133-167l-41-413-41 414c-74 19-130 86-130 166z m171 46c0 26-21 47-47 47-26 0-47-21-47-47 0-26 21-47 47-47 26 0 47 21 47 47z" horiz-adv-x="1000" />
<glyph glyph-name="glyph-99" unicode="&#xe863;" d="m750 6h-94c-17 0-31 14-31 32v62c0 17 14 31 31 31h63v188h-219v-188h31c18 0 32-14 32-31v-62c0-18-14-32-32-32h-93c-18 0-32 14-32 32v62c0 17 14 31 32 31h31v188h-219v-188h63c17 0 31-14 31-31v-62c0-18-14-32-31-32h-94c-17 0-31 14-31 32v62c0 17 14 31 31 31v219h250v219h-31c-18 0-32 14-32 31v63c0 17 14 31 32 31h93c18 0 32-14 32-31v-63c0-17-14-31-32-31h-31v-219h250v-219c17 0 31-14 31-31v-62c0-18-14-32-31-32z" horiz-adv-x="1000" />
<glyph glyph-name="glyph-100" unicode="&#xe864;" d="m749 7h-93c-17 0-31 14-31 32v62c0 17 14 31 31 31h62v156h-218v-156h31c17 0 31-14 31-31v-62c0-18-14-32-31-32h-93c-18 0-31 14-31 32v62c0 17 13 31 31 31h31v156h-218v-156h62c17 0 31-14 31-31v-62c0-18-14-32-31-32h-93c-18 0-31 14-31 32v62c0 17 13 31 31 31v187h249v124h-94c-17 0-31 14-31 32v155c0 18 14 31 31 31h218c18 0 32-13 32-31v-155c0-18-14-32-32-32h-93v-124h249v-187c17 0 31-14 31-31v-62c0-18-14-32-31-32z m-529 94v-62h93v62h-93z m373 374v155h-218v-155h218z m-155-374v-62h93v62h-93z m311 0h-93v-62h93v62z" horiz-adv-x="1000" />
<glyph glyph-name="glyph-101" unicode="&#xe865;" d="m871-25c0 0 173 0 197 169 11 184-167 221-167 221s20 273-230 304c-215 22-280-178-280-178s-64 63-152 12c-79-49-65-137-65-137s-174-34-174-212c4-177 189-179 189-179z" horiz-adv-x="1093.8" />
<glyph glyph-name="glyph-102" unicode="&#xe866;" d="m920 365c0 0 20 273-230 304-215 22-280-178-280-178s-65 63-153 12c-78-49-64-137-64-137s-174-34-174-212c4-177 189-179 189-179h292v188h-94l157 156 156-156h-94v-188h265c0 0 172 0 196 169 12 184-166 221-166 221z" horiz-adv-x="1093.8" />
<glyph glyph-name="glyph-103" unicode="&#xe867;" d="m468 321c0 0 2 407 1 407-212 0-375-185-375-400 0-216 175-385 390-385 216 0 391 161 391 377 0 2-407 1-407 1z m438 32c0 216-192 404-408 404 3 0 0-404 0-404s408-1 408 0z" horiz-adv-x="1000" />
<glyph glyph-name="glyph-104" unicode="&#xe868;" d="m531 383c0 0 3 375 0 375 216 0 375-159 375-375 0-1-375 0-375 0z m344-77c0-224-182-406-406-406-224 0-406 182-406 406 0 224 182 406 406 406 10 0 21-1 31-2v-358h372c2-14 3-31 3-46z m-34 13h-372v362c-207 0-375-168-375-375s168-374 375-374 374 167 374 374c0 41-2 13-2 13z" horiz-adv-x="1000" />
<glyph glyph-name="glyph-105" unicode="&#xe869;" d="m125 725h-31v-750h812v30l-781 2 0 718z m219-31c0 17-14 31-31 31h-94c-17 0-31-14-31-31v-625h156v625z m187-188c0 18-14 32-31 32h-94c-17 0-31-14-31-32v-437h156v437z m188-187c0 17-14 31-31 31h-94c-17 0-31-14-31-31v-250h156v250z m156-156h-94c-17 0-31-14-31-32v-62h156v62c0 18-14 32-31 32z" horiz-adv-x="1000" />
<glyph glyph-name="glyph-106" unicode="&#xe86a;" d="m125 725h-31v-750h812v30l-781 2 0 718z m406-31c0 17-14 31-31 31h-94c-17 0-31-14-31-31v-625h156v625z m-187-188c0 18-14 32-31 32h-94c-17 0-31-14-31-32v-437h156v437z m375-187c0 17-14 31-31 31h-94c-17 0-31-14-31-31v-250h156v250z m156-156h-94c-17 0-31-14-31-32v-62h156v62c0 18-14 32-31 32z" horiz-adv-x="1000" />
<glyph glyph-name="glyph-107" unicode="&#xe86b;" d="m844 193h-625v-156h625c17 0 31 14 31 31v94c0 17-14 31-31 31z m-156 62v94c0 17-14 31-32 31h-437v-156h437c18 0 32 14 32 31z m-188 188v94c0 17-14 31-31 31h-250v-156h250c17 0 31 14 31 31z m-187 187v94c0 17-14 31-32 31h-62v-156h62c18 0 32 14 32 31z m-157 125h-31v-810h750v31h-719v779z" horiz-adv-x="1000" />
<glyph glyph-name="glyph-108" unicode="&#xe86c;" d="m844 380h-625v-156h625c17 0 31 14 31 31v94c0 17-14 31-31 31z m-156-312v94c0 17-14 31-32 31h-437v-156h437c18 0 32 14 32 31z m-188 375v94c0 17-14 31-31 31h-250v-156h250c17 0 31 14 31 31z m-187 187v94c0 17-14 31-32 31h-62v-156h62c18 0 32 14 32 31z m-157 125h-31v-810h750v31h-719v779z" horiz-adv-x="1000" />
<glyph glyph-name="glyph-109" unicode="&#xe86d;" d="m349 489c0 83 68 150 151 150s151-67 151-150-67-150-151-150-151 67-151 150z m-106-19c0-63 77-195 77-195l180-301 170 301c0 0 87 133 87 195 0 141-115 256-257 256s-257-115-257-256z" horiz-adv-x="1000" />
<glyph glyph-name="glyph-110" unicode="&#xe86e;" d="m920 365c0 0 20 273-230 304-215 22-280-178-280-178s-65 63-153 12c-78-49-64-137-64-137s-174-34-174-212c4-177 189-179 189-179h355l-157 156h94v188h125v-188h94l-156-156h327c0 0 172 0 196 169 12 184-166 221-166 221z" horiz-adv-x="1093.8" />
<glyph glyph-name="glyph-111" unicode="&#xe86f;" d="m0 413v93h117l236 236c-2 4-3 9-3 14 0 26 21 47 47 47 25 0 46-21 46-47 0-26-21-47-46-47-4 0-7 2-10 2l-205-205h604l-203 206c-4-1-8-3-13-3-26 0-47 21-47 47 0 26 21 47 47 47s47-21 47-47c0-4-1-9-3-13l237-237h118v-93h-969z m777-466c-9-37-34-35-34-35l-519-1c-26 0-33 34-33 34l-138 436 862 1-138-435z m-464 372h-32v-156h32v156z m0-188h-32v-156h32v156z m62 188h-31v-156h31v156z m0-188h-31v-156h31v156z m63 188h-32v-156h32v156z m0-188h-32v-156h32v156z m62 188h-31v-156h31v156z m0-188h-31v-156h31v156z m63 188h-32v-156h32v156z m0-188h-32v-156h32v156z m62 188h-31v-156h31v156z m0-188h-31v-156h31v156z m63 188h-32v-156h32v156z m0-188h-32v-156h32v156z" horiz-adv-x="1000" />
<glyph glyph-name="glyph-112" unicode="&#xe870;" d="m264 564h654c68 0 68 70 3 70h-453c-26 0-38 39-38 39s-19 57-55 57h-337c-49 0-36-57-36-57s75-640 80-679 45-50 45-50l89 566c6 41 35 53 48 54z m788-25h-768c-23 0-41-18-41-41l-81-513c0-23 19-41 42-41h767c23 0 42 18 42 41l80 513c0 23-18 41-41 41z" horiz-adv-x="1091.8" />
<glyph glyph-name="glyph-113" unicode="&#xe871;" d="m719 711c-44 0-130-63-203-63-73 0-164 63-203 63-268 0-422-722-221-722 169 0 192 211 423 211 188 0 298-208 423-208 200 0 49 719-219 719z m-422-407c-77 0-140 63-140 141 0 78 63 141 140 141s141-63 141-141c0-78-63-141-141-141z m373 79c-17 0-31 14-31 31s14 31 31 31 32-14 32-31-14-31-32-31z m96-94c-17 0-31 14-31 31s14 31 31 31 31-14 31-31-14-31-31-31z m0 187c-17 0-31 14-31 32s14 31 31 31 31-14 31-31-14-32-31-32z m94-93c-17 0-31 14-31 31s14 31 31 31 31-14 31-31-14-31-31-31z m-563 140c-43 0-78-35-78-78s35-78 78-78c43 0 78 35 78 78s-35 78-78 78z" horiz-adv-x="1029.3" />
<glyph glyph-name="glyph-114" unicode="&#xe872;" d="m844 60v-57h-688v57c0 0-15 32 65 107 80 76 69 271 69 404s186 135 186 135h7c0 0 0 1 0 21 0 13-45 61-45 61l0 29h125l-1-30c0 0-48-48-48-62 0-13 0-18 0-19h10c0 0 186-3 186-135s-11-328 69-404 65-107 65-107z m-265-87c0-44-36-90-79-90s-78 46-78 90c0-1 157 1 157 0z" horiz-adv-x="1000" />
<glyph glyph-name="glyph-115" unicode="&#xe873;" d="m869 60l0-57h-653l518 518c-1-128-1-287 69-354 80-75 66-107 66-107z m-739-53l665 664 22-22-664-664-23 22z m115 160c80 76 70 271 70 404s186 135 186 135h6c0 0 0 1 0 21 0 13-44 61-44 61l-1 29h125l-1-30c0 0-48-48-48-62 0-13 0-18 0-19h10c0 0 119-2 167-71l-498-497c8 9 17 19 28 29z m358-194c0-44-35-90-78-90-44 0-79 46-79 90 0-1 157 1 157 0z" horiz-adv-x="1000" />
<glyph glyph-name="glyph-116" unicode="&#xe874;" d="m479 233c-1 0-95 158-95 160-19 43-35 86-2 105l-136 229c-35-26-135-169 51-492 197-341 383-327 421-304l-133 224c-31-19-57 12-106 78z m329-215l0 0c0 0-103 174-103 174-8 14-26 19-40 11l-63-38 133-224c0 0 63 37 63 37h0c15 9 18 27 10 40z m-346 528v0c15 9 18 26 10 39l0 1c0 0-106 179-106 179-8 14-26 18-39 10l-64-38 136-228c0 0 63 37 63 37z" horiz-adv-x="1000" />
<glyph glyph-name="glyph-117" unicode="&#xe875;" d="m813-150h-657c-34 0-62 28-62 62v751c0 34 28 62 62 62v-750c0-35 28-63 63-63h125c34 0 62 28 62 63v750h407c34 0 62-28 62-62v-751c0-34-28-62-62-62z m-157 94h63v62h-63v-62z m0 94h63v62h-63v-62z m0 93h63v63h-63v-63z m0 94h63v63h-63v-63z m-93-281h62v62h-62v-62z m0 94h62v62h-62v-62z m0 93h62v63h-62v-63z m0 94h62v63h-62v-63z m250 406c0 18-14 32-32 32h-281c-17 0-31-14-31-32v-125c0-17 14-31 31-31h281c18 0 32 14 32 31v125z m0-343h-63v-63h63v63z m0-94h-63v-63h63v63z m0-94h-63v-62h63v62z m0-94h-63v-62h63v62z m-469-62h-125c-17 0-31 14-31 31v781c0 18 14 32 31 32h60v62h34v-62h31c17 0 31-14 31-32v-781c0-17-14-31-31-31z" horiz-adv-x="1000" />
<glyph glyph-name="glyph-118" unicode="&#xe876;" d="m875-56v31h-31v31h-31v407h31v31h31v31h31v-531h-31z m-31 500h-31v-31h-625v31h-32v31h-31v31h750v-31h-31v-31z m-688 0v-31h32v-407h-32v-31h-31v-31h-31v531h31v-31h31z m0-469h32v31h625v-31h31v-31h31v-32h-750v32h31v31z m246 157l71 115 72-72 98 148 103-254h-456l58 116 54-53z m-43 124c-26 0-47 21-47 47s21 47 47 47c26 0 47-21 47-47s-21-47-47-47z m422 250l-229 171c-10-9-24-14-39-14-20 0-38 10-50 25l-244-182h-31l265 204c-1 5-2 10-2 15 0 35 28 63 62 63 35 0 63-28 63-63 0-11-3-22-8-31l245-188h-32z" horiz-adv-x="1000" />
<glyph glyph-name="glyph-119" unicode="&#xe877;" d="m875-119h-750c-52 0-94 42-94 94v438c0 51 42 93 94 93h750c52 0 94-42 94-93v-438c0-52-42-94-94-94z m-625 405c-52 0-94-49-94-109 0-61 42-109 94-109 52 0 94 48 94 109 0 60-42 109-94 109z m243-27c-3 8-8 14-14 18-6 4-13 7-22 8-6 1-16 2-27 2h-56v-216h31v63h27c25 0 42 11 52 21 10 11 15 57 15 72 0 9-2 25-6 32z m164-157h-96v63h93v29h-93v64h96v29h-125v-216h125v31z m185 185h-28v-166l-94 166h-32v-216h30v158l94-158h30v216z m-410-122h-27v93h27c10 0 18-1 22-2 6-2 11-5 15-10 3-6 5-12 5-19 0-11-3-48-9-54-7-5-18-8-33-8z m-182-69c-34 0-62 35-62 78s28 78 62 78 63-35 63-78-28-78-63-78z m531 410l-229 171c-10-9-24-14-39-14-20 0-38 10-50 25l-244-182h-31l265 204c-1 5-2 10-2 15 0 35 28 63 62 63 35 0 63-28 63-63 0-11-3-22-8-31l245-188h-32z" horiz-adv-x="1000" />
<glyph glyph-name="glyph-120" unicode="&#xe878;" d="m875-119h-750c-52 0-94 42-94 94v438c0 51 42 93 94 93h63l265 204c-1 5-2 10-2 15 0 35 28 63 62 63s63-28 63-63c0-11-3-22-8-31l245-188h62c52 0 94-42 94-93v-438c0-52-42-94-94-94z m-341 201h125v24h-99v177h-27v-201z m-181 0l22 61h85l23-61h31l-83 201h-28l-78-201h28z m-186 178c-6-9-9-19-9-29 0-9 3-18 7-25s12-14 22-19c7-4 20-8 39-12s30-8 35-10c9-4 15-7 19-12s5-10 5-17c0-6-2-12-6-17s-9-9-17-12c-8-3-17-5-27-5-11 0-21 2-31 6-9 4-15 9-20 16s-7 15-8 25l-25-2c0-14 4-26 11-37 7-10 17-18 29-24 12-5 27-8 46-8 14 0 27 3 38 8 12 6 20 13 27 22 6 10 9 20 9 31 0 10-3 20-9 28-5 8-14 15-26 21-8 3-23 8-44 12-22 5-35 10-40 15-5 5-8 10-8 18 0 8 4 15 11 21 7 6 19 9 35 9 16 0 27-3 35-10 8-6 13-16 14-28l26 2c-1 11-4 22-10 31-6 10-15 17-26 21s-25 8-40 8c-13 0-26-3-37-7-11-5-19-12-25-20z m385 417c-10-9-24-14-39-14-20 0-38 10-50 25l-244-182h562l-229 171z m290-571h-124v68h112v24h-112v62h119v23h-145v-201h150v24z m-426 156c3-11 8-25 14-42l22-55h-69l22 59c5 12 8 25 11 38z" horiz-adv-x="1000" />
<glyph glyph-name="glyph-121" unicode="&#xe879;" d="m562 756h-156v-93h156v93z m0-375v63h-156v-63h156z m-156-469h156v251h-156v-251z m375 563l-68 78 68 78h-500l-81-78 81-78h500z m-63-125h-500l69-78-69-78h500l82 78-82 78z" horiz-adv-x="1000" />
<glyph glyph-name="glyph-122" unicode="&#xe87a;" d="m625-27l219 101v653l-219-101v-653z m-249 101l218-91v653l-218 91v-653z m-252 552v-653l221 91v653l-221-91z" horiz-adv-x="1000" />
<glyph glyph-name="glyph-123" unicode="&#xe87b;" d="m250 38c0-52 42-94 94-94h312c52 0 94 42 94 94l63 500h-625l62-500z m344 406h62v-406h-62v406z m-125 0h62v-406h-62v406z m-125 0h62v-406h-62v406z m453 219h-203c0 0-14 62-31 62h-125c-18 0-32-62-32-62h-203c-26 0-47-21-47-47s0-47 0-47h688c0 0 0 21 0 47s-21 47-47 47z" horiz-adv-x="1000" />
<glyph glyph-name="glyph-124" unicode="&#xe87c;" d="m30 442c45 215 230 376 451 376 221 0 405-161 450-376h-901z m488 205l-36 73-37-73h-71l57-56-15-77 64 31 73-30-23 73 60 59h-72z m-299-693c-86 63-156 161-183 270h183v-270z m62 333h-32v125h32v-125z m32 125h30v-125h-30v125z m0-155h-32v30h32v-30z m123-390c-45 5-86 16-126 32v325h126v-357z m-30 390v30h32v-30h-32z m-31 30v93h31v-93h-31z m31 125h32v-32h-32v32z m62-32v-93h-30v93h30z m125 32v-32h-30v-123h-32v123h-31v32h93z m63-510c-40-18-80-29-125-34v356h125v-322z m-31 510h93v-32h-61v-31h61v-32h-61v-30h61v-30h-93v155z m124-454v266h177c-28-107-93-203-177-266z" horiz-adv-x="1000" />
<glyph glyph-name="glyph-125" unicode="&#xe87d;" d="m1020 301c0 0-143 147-341 147-193 0-384-147-384-147l-108 45v-131c17-6 30-22 30-40 0-20-13-35-30-41l31-88h-93l32 89c-16 7-26 22-26 40 0 17 10 32 25 38v146l-156 65 687 308 629-312-296-119z m-349 72c199 0 296-105 296-105v-218c0 0-101-82-312-82s-280 82-280 82v218c0 0 97 105 296 105z m-4-358c138 0 250 28 250 62s-112 62-250 62-250-28-250-62 112-62 250-62z" horiz-adv-x="1316.4" />
<glyph glyph-name="glyph-126" unicode="&#xe87e;" d="m604 255c0 0-52-66-118 0-65 63-112 0-112 0l-155-306c-4-17 6-34 22-38h516c16 4 26 21 22 38l-175 306z m238-290l-249 419v1l-1 246h17c26 0 47 21 47 47 0 26-21 47-47 47h-250c-25 0-46-21-46-47 0-26 21-47 46-47h16l-1-246-216-420c-13-50 16-102 66-115h552c50 13 79 65 66 115z m-75-84l-534 1c-34 9-53 43-44 76l217 426 0 278h-46c-9 0-16 7-16 16 0 8 7 15 16 15h249c9 0 16-7 16-15 0-9-7-16-16-16h-46l0-277 248-427c9-34-10-68-44-77z m-252 891c0-18 14-32 31-32s32 14 32 32-14 31-32 31-31-14-31-31z m31 78c26 0 47 21 47 47s-21 46-47 46-47-21-47-46 21-47 47-47z m-125-78c18 0 32 14 32 31s-14 31-32 31-31-14-31-31 14-31 31-31z" horiz-adv-x="1000" />
<glyph glyph-name="glyph-127" unicode="&#xe87f;" d="m528 570l39 185h-198l40-185h119z m-119-35l-132-418 199-165 183 165-128 418h-122z m180-58l91-252h55v57l-146 195z" horiz-adv-x="1000" />
<glyph glyph-name="glyph-128" unicode="&#xe880;" d="m697 25c-262-151-557-128-661 52-104 179 24 447 286 598 262 151 558 128 661-52 104-179-24-447-286-598z m-619 287c-24-74-22-146 12-206 34-59 96-96 172-112l-184 318z m561 398c-90-6-190-35-286-91-97-56-174-129-225-206l246-426c92 5 194 35 292 91 95 55 171 127 222 202l-249 430z m300-327c26 75 25 148-10 208-35 60-98 98-175 113l185-321z m-401-121l-26-14-30 52 0 0-29-17 31-52-26-15-30 53 0 0-29-17 30-52-25-15-30 53 0-1-54-31-16 27 54 32-31 54 25 15 32-55 28 17-31 55 25 14 32-54 28 16-31 55 25 15 32-55 29 16-32 55 25 15 32-55 29 17-32 54 25 15 32-55 29 17-32 55 26 14 31-54 57 32 15-27-56-33 30-52-25-15-31 53-28-17 30-52-25-15-31 53 0-1-28-16 30-53-25-14-31 52 0 0-29-16 31-53z" horiz-adv-x="1017.6" />
<glyph glyph-name="glyph-129" unicode="&#xe881;" d="m500 725c-207 0-375-168-375-375s168-375 375-375c207 0 375 168 375 375 0 207-168 375-375 375z m0-580c-112 0-203 91-203 203s91 203 203 203 203-91 203-203-91-203-203-203z m26 212c9 4 16 8 20 15s7 13 7 21c0 13-5 24-15 33-9 9-22 14-37 14-16 0-28-5-38-13-9-9-14-20-14-33 0-9 2-16 7-22 4-6 11-11 20-15-11-2-19-8-25-16-6-7-9-17-9-29 0-16 5-29 16-39 11-10 25-16 43-16 18 0 32 5 43 16 10 10 16 23 16 38 0 12-3 21-9 29s-14 14-25 17z m-54 38c0 7 3 13 8 19 6 5 13 8 21 8 8 0 15-3 21-8 5-6 8-13 8-21 0-7-3-14-8-19s-12-8-21-8c-9 0-16 3-21 8s-8 12-8 21z m55-110c-7-6-15-10-26-10-7 0-13 2-19 5-6 3-10 8-13 14s-4 12-4 18c0 10 3 19 10 26s15 10 25 10c11 0 20-4 27-11s10-15 10-26c0-10-3-19-10-26z" horiz-adv-x="1000" />
<glyph glyph-name="glyph-130" unicode="&#xe882;" d="m500 741c-216 0-391-175-391-391 0-216 175-391 391-391 216 0 391 175 391 391 0 216-175 391-391 391z m-57-297c-26 0-47 21-47 47 0 26 21 47 47 47 26 0 47-21 47-47 0-26-21-47-47-47z m78 151c0 26 21 47 47 47 26 0 47-21 47-47s-21-47-47-47c-26 0-47 21-47 47z m88-229c-34 0-62 28-62 62s28 63 62 63 63-28 63-63-28-62-63-62z" horiz-adv-x="1000" />
<glyph glyph-name="glyph-131" unicode="&#xe883;" d="m591 652h-180c0 0-119-224-119-416 0-102 43-272 44-272 31-124 53-114 171-114 109 0 139-10 164 114-1 0 37 168 37 272 0 209-117 416-117 416z m-7 141c0 0 28 95 28 154s-29 146-109 146c-79 0-116-87-116-146 0-58 31-154 31-154h166z m-7-92v49h-153v-49h153z" horiz-adv-x="1000" />
<glyph glyph-name="glyph-132" unicode="&#xe884;" d="m624 350c0 202 104 315 104 315s-92 74-230 74c-137 0-229-74-229-74s106-86 106-315c0-220-106-314-106-314s111-75 229-75c122 0 230 75 230 75s-104 97-104 314z m-381 294c0 0-129-79-129-295 0-217 131-287 131-287s95 70 95 287c0 216-97 295-97 295z m511-6c0 0-97-73-97-289 0-217 95-287 95-287s134 70 134 287c0 216-132 289-132 289z" horiz-adv-x="1000" />
<glyph glyph-name="glyph-133" unicode="&#xe885;" d="m900 533c0 0-1 1-1 1l1 0 0-1z m-111-377l-146-6-76 134 79 142 153-5 65-133-75-132z m-392 130l-76 138 80 133 163 3 80-133-79-142-168 1z m4 274l-61 104 80 97 140 5 75-93-72-111-162-2z m-77-405l-129 12-62 125 54 126 131 5 77-138-71-130z m451 503l13 24c47-40 85-91 111-148l-46 8-78 116z m-138 16l-75 93c2 2 12 14 12 14-67 11-128 6-168-4 1 0 10-12 12-15l-80-97-119-21-11 33-2-1c78 71 181 114 294 114 109 0 209-40 286-106l-13-25-136 15z m-492-143l-50-12 0-2 50 11 40-108-54-127c-8 1-65 6-65 3 10-84 42-157 97-225l32 94 129-13 82-123-56-92c-169 62-290 223-290 413 0 130 57 246 146 326l11-33-72-112z m413-507l67-94 2 1-67 94 83 122 146 6c3-6 40-90 40-90 62 72 92 144 104 226-1 0-60 0-67 0l-66 133 53 117 47-7 0 1c25-56 40-118 40-183 0-243-197-440-440-440-52 0-102 10-148 26l56 92 150-4z m-207-89l-2 2 1 0c0 0 1 0 2-1l-1-1z m-145 741l0 0c0 0 0 0 0 0l0 0z m580 9l2-1 0-2c-1 1-1 1-2 2l0 1z" horiz-adv-x="1000" />
<glyph glyph-name="glyph-134" unicode="&#xe886;" d="m420 598c53 0 67-26 102-22 36 5 5 67-26 112s-103 22-157-9c-53-31-338-204-338-204h249c0 0 116 123 170 123z m-420-156v-406c0-34 28-63 63-63 0 0 240 0 502 0 47 0 90 146 138 146 42 0 73-146 115-146 278 0 526 0 526 0 34 0 62 29 62 63v406h-1406z m563-281c0-52-42-94-94-94h-281c-52 0-94 42-94 94v94c0 52 42 93 94 93h281c52 0 94-41 94-93v-94z m750 0c0-52-42-94-94-94h-281c-52 0-94 42-94 94v94c0 52 42 93 94 93h281c52 0 94-41 94-93v-94z m-429 415c36-4 49 22 103 22 53 0 169-123 169-123h249c0 0-284 173-338 204-54 31-125 53-156 9s-63-107-27-112z" horiz-adv-x="1406.3" />
<glyph glyph-name="glyph-135" unicode="&#xe887;" d="m1094-25h-250v719h250c17 0 31-14 31-31v-657c0-17-14-31-31-31z m-125 125h31v31h-31v-31z m0 63h31v31h-31v-31z m0 62h31v31h-31v-31z m-63-125h32v31h-32v-31z m0 63h32v31h-32v-31z m0 62h32v31h-32v-31z m157 344h-157v-94h157v94z m0-313h-32v-31h32v31z m0-62h-32v-31h32v31z m0-63h-32v-31h32v31z m-1063-125v657c0 17 14 31 31 31h782v-719h-782c-17 0-31 14-31 31z m751 297c18 0 32 14 32 31 0 17-14 31-32 31-17 0-31-14-31-31 0-17 14-31 31-31z m-626-172c0-17 14-31 31-31h500c18 0 32 14 32 31v407c0 17-14 31-32 31h-500c-17 0-31-14-31-31v-407z" horiz-adv-x="1125" />
<glyph glyph-name="glyph-136" unicode="&#xe888;" d="m250 6c0-17 14-31 31-31h32v-31h62v31h250v-31h63v31h31c17 0 31 14 31 31v250h-500v-250z m31 219h32v-94h-32v94z m438 500h-438c-17 0-31-14-31-31v-406h500v406c0 17-14 31-31 31z m-406-406h-32v94h32v-94z" horiz-adv-x="1000" />
<glyph glyph-name="glyph-137" unicode="&#xe889;" d="m938-56h-907c-17 0-31 14-31 31v531h969v-531c0-17-14-31-31-31z m-94 469c0 17-14 31-31 31h-657c-17 0-31-14-31-31v-375c0-18 14-32 31-32h657c17 0 31 14 31 32v375z m-563-32h407v-31h-407v31z m-281 282c0 17 14 31 31 31h63c0 0 7 31 15 31h250c9 0 16-31 16-31h219c0 0 7 31 15 31h250c9 0 16-31 16-31h63c17 0 31-14 31-31v-125h-969v125z m890-95c26 0 47 21 47 47 0 26-21 47-47 47-26 0-47-21-47-47 0-26 21-47 47-47z m-123 0c26 0 47 21 47 47 0 26-21 47-47 47s-47-21-47-47c0-26 21-47 47-47z m-125 0c26 0 47 21 47 47 0 26-21 47-47 47-26 0-47-21-47-47 0-26 21-47 47-47z m-125 0c26 0 47 21 47 47 0 26-21 47-47 47s-47-21-47-47c0-26 21-47 47-47z" horiz-adv-x="1000" />
<glyph glyph-name="glyph-138" unicode="&#xe88a;" d="m125 444v-469c0-17 14-31 31-31h657c17 0 31 14 31 31v469c0 0-177 64-360 64-176 0-359-64-359-64z m547-223c0-99-81-180-180-180s-179 81-179 180 80 180 179 180 180-81 180-180z m141 504h-657c-17 0-31-14-31-31v-219c0 0 182 63 359 63 182 0 360-63 360-63v219c0 17-14 31-31 31z m-469-125h-156v63h156v-63z m234 0c-17 0-31 14-31 31s14 32 31 32c17 0 31-14 31-32s-14-31-31-31z m94 0c-17 0-31 14-31 31s14 32 31 32c17 0 31-14 31-32s-14-31-31-31z m92 0c-18 0-32 14-32 31s14 32 32 32c17 0 31-14 31-32s-14-31-31-31z m-418-379c0-81 65-146 146-146s147 65 147 146c0 0-50-51-147 6-96 57-146-6-146-6z" horiz-adv-x="1000" />
<glyph glyph-name="glyph-139" unicode="&#xe88b;" d="m717-118h-155c-104 0-187 84-187 187v280h189v-62c0-34 26-62 60-62h31c35 0 62 28 62 62v62h189v-280c0-103-85-187-189-187z m0 530c0 34-27 62-62 62v0 185c0 0-41 2 60 2 102 0 191-66 191-187 0-62 0-84 0-91h-189v29z m-91 270c0 60-28 94-85 94-60 0-106-43-138-130l-6-18c-37-101-92-151-164-151-29 0-56 11-81 33-25 22-38 46-38 71 0 13 6 19 18 19 8 0 16-10 25-30 15-37 41-56 77-56 27 0 49 9 66 27 18 17 38 51 60 101l14 32c42 93 98 140 169 140 81 0 122-46 122-132h-39z m60-286v-93c0-26-21-47-46-47s-47 21-47 47v93c0 26 21 47 47 47s46-21 46-47z m-122 265c101 0 62-2 62-2v-185c-35 0-62-28-62-62v-29h-189c0 7 0 29 0 91 0 121 87 187 189 187z" horiz-adv-x="1000" />
<glyph glyph-name="glyph-140" unicode="&#xe88c;" d="m500 725c-207 0-375-168-375-375s168-375 375-375c207 0 375 168 375 375s-168 375-375 375z m125-182c26 0 47-28 47-62s-21-63-47-63-47 28-47 63 21 62 47 62z m-252 0c26 0 47-28 47-62s-21-63-47-63-47 28-47 63 21 62 47 62z m123-421c-128 0-214 84-230 223h31c24-108 91-162 199-162s175 54 199 162h31c-15-140-102-223-230-223z" horiz-adv-x="1000" />
<glyph glyph-name="glyph-141" unicode="&#xe88d;" d="m500 725c-207 0-375-168-375-375 0-207 168-375 375-375 207 0 375 168 375 375 0 207-168 375-375 375z m123-178c26 0 47-28 47-62s-21-63-47-63-47 28-47 63 21 62 47 62z m-250 0c26 0 47-28 47-62s-21-63-47-63-47 28-47 63 21 62 47 62z m125-330c-145 0-189-76-189-76s41 131 189 131c149 0 186-135 186-135s-42 80-186 80z" horiz-adv-x="1000" />
<glyph glyph-name="glyph-142" unicode="&#xe88e;" d="m500-40c-215 0-390 175-390 390s175 390 390 390c215 0 390-175 390-390s-175-390-390-390z m-125 594c-27 0-49-29-49-65 0-36 22-65 49-65 27 0 49 29 49 65 0 36-22 65-49 65z m-5-279l-16-28 114-66-116-67 16-28 133 76 133-76 16 28-117 67 115 66-17 28-130-75-131 75z m257 279c-27 0-49-29-49-65 0-36 22-65 49-65 26 0 48 29 48 65 0 36-22 65-48 65z" horiz-adv-x="1000" />
<glyph glyph-name="glyph-143" unicode="&#xe88f;" d="m653 100l93 124 108 104c0 0-36 43-81 43-20 0-38-6-55-17-17-12-32-29-46-52-19-7-34-13-45-19-2 24-5 41-8 53l62 242c15 58 19 88-17 104s-71-28-89-83l-59-187 1 241c0 59-18 88-55 88-38 0-57-26-57-78v-241l-60 211c-15 37-42 74-77 62s-33-69-24-106l54-206-87 144c-26 46-72 55-83 44-16-17-27-54 3-106l96-167 85-297v-57h250v74c29 20 54 47 91 82v0z" horiz-adv-x="1000" />
<glyph glyph-name="glyph-144" unicode="&#xe890;" d="m968 480c-6 121-55 243-149 336-95 93-219 140-343 146l-7 69c144-9 283-64 394-172 110-109 167-246 176-387l-71 8z m-94-15l-68 9c1 85-31 170-96 234-65 64-150 95-234 95l-12 68c104-3 208-43 288-121 81-80 121-181 122-285z m-165 4l-61 17c7 43-16 80-50 113-30 31-72 44-112 41l-23 68c64 4 129-18 178-66 49-48 71-111 68-173z m-129 37c0-44-36-79-81-79-15 0-30 4-42 12l-34-35 251-244c-6-7-13-14-20-21-141-139-370-139-510 0-141 138-141 362 0 500 6 7 12 12 19 18l237-230 33 33c-9 13-15 29-15 46 0 44 37 79 81 79s81-35 81-79z m-308-473c-3 0 82-183 82-183h-354l122 283c0 0 37-54 150-100z" horiz-adv-x="1000" />
<glyph glyph-name="glyph-145" unicode="&#xe891;" d="m0 198l348-348c0 0 83 197-34 314-115 116-314 34-314 34z m934-28l-177-176 22-23 177 177-22 22z m88-44l-199 199c-24 24-64 24-88 0l-18-17-48 48 87 88c24 24 22 67-3 91l-107 108c-25 24-64 24-89 0l-79-77-42 42 3 3c24 24 24 64 0 88l-199 199c-25 24-64 24-89 0l-132-133c-25-24-25-64 0-88l199-199c24-24 64-24 88 0l44 44 43-44-80-80c-25-24-16-160-16-160l54-54c0 0 136-9 161 15l69 69 48-48-27-28c-24-24-24-64 0-88l199-199c24-24 64-24 88 0l133 133c24 24 24 64 0 88z m-981 617l133 133c12 12 31 12 44 0l-177-177c-12 12-12 32 0 44z m22-66l177 177 22-22-177-177-22 22z m44-44l177 177 22-22-177-177-22 22z m44-44l177 176 22-22-176-176-23 22z m45-45l176 177 22-22-176-177-22 22z m88-44c-12-12-32-12-44 0l177 177c12-12 12-32 0-44l-133-133z m88-166l-16 17 228 229 17-17-229-229z m252-164l133 133c12 12 32 12 44 0l-177-177c-12 12-12 32 0 44z m376-110l-133-133c-12-12-32-12-44 0l-132 133 176 177-22 22-177-177-22 22 177 177 177-177c12-12 12-32 0-44z m-22 66l-177-177 22-22 177 177-22 22z m-89 89l-176-177 22-22 177 177-23 22z" horiz-adv-x="1039.1" />
<glyph glyph-name="glyph-146" unicode="&#xe892;" d="m500 427c-142 0-257-115-257-257s115-257 257-257c142 0 257 115 257 257s-115 257-257 257z m0-477c-120 0-218 98-218 218 0 120 98 218 218 218 120 0 218-98 218-218 0-120-98-218-218-218z m129 683l89 154h-436l90-154h257z m46-263l158 260-106 153-198-349c87-8 146-64 146-64z m-205 66l-197 347-106-153 153-264c0 0 56 57 150 70z m-5-209c-12-9-23-15-34-19v-35c20 6 37 16 51 30v-148h39v205h-32c-4-12-12-23-24-33z" horiz-adv-x="1000" />
<glyph glyph-name="glyph-147" unicode="&#xe893;" d="m287 224c-39 0-44 18-44 18l-152-299 122 13 67-101c0 0 141 293 141 291-73 2-44 76-134 78z m344-32c19 32 47 48 84 48 37 1 56 20 56 57 1 37 17 65 49 84 32 19 38 44 20 77s-18 64 0 97 12 58-20 77-48 47-49 84c0 37-19 56-56 56-37 1-65 17-84 49-19 32-45 38-77 20s-65-18-97 0-58 11-77-20c-19-32-47-48-84-49-37 0-56-19-57-56 0-37-16-65-48-84s-39-45-21-77c18-33 18-65 0-97-18-33-11-58 21-77 32-19 48-47 48-84 1-37 20-56 57-57 37 0 65-16 84-48 19-32 44-39 77-21s64 18 97 0 58-11 77 21z m-84 158h-55v210c-21-19-45-33-72-42v50c14 5 30 14 47 27s29 29 35 47h45v-292z m208-120c-111-11-89-39-114-60-29-32-66-26-66-26l172-295 42 109 120-15-154 287z" horiz-adv-x="1000" />
<glyph glyph-name="glyph-148" unicode="&#xe894;" d="m125 788v-876h719v876h-719z m78-830c-17 0-31 14-31 31 0 18 14 32 31 32 17 0 31-14 31-32 0-17-14-31-31-31z m1 720c-17 0-31 14-31 31 0 18 14 32 31 32 17 0 31-14 31-32 0-17-14-31-31-31z m452-640h-343v625h343v-625z m108-77c-17 0-31 14-31 31s14 31 31 31 32-14 32-31-14-31-32-31z m1 717c-17 0-31 14-31 31 0 18 14 32 31 32 17 0 31-14 31-32 0-17-14-31-31-31z m-171-78h-219v-312h219v312z m0-344h-219v-156h219v156z" horiz-adv-x="1000" />
<glyph glyph-name="glyph-149" unicode="&#xe895;" d="m557 302l-314-314c-24-25-63-25-88 0-24 24-24 64 0 88l24 24-68 68c-12 12-12 32 0 44 12 12 32 12 44 0l68-68 22 22-24 24c-12 12-12 32 0 44 13 12 32 12 45 0l23-24 22 22-68 68c-12 12-12 32 0 44 12 12 32 12 44 0l68-68 114 114c-74 103-83 226-15 294 79 79 232 54 342-55s135-263 56-343c-68-68-191-58-295 16z m173 260c-49 49-113 64-144 34s-15-95 34-144c48-48 113-63 143-33s15 95-33 143z" horiz-adv-x="1000" />
<glyph glyph-name="glyph-150" unicode="&#xe896;" d="m841 271l-420 420c-18 19-18 48 0 66 19 19 48 19 67 0l99-99 122 122c18 18 48 18 66 0 18-19 18-48 0-67l-122-121 89-89 121 122c19 18 48 18 67 0 18-18 18-48 0-66l-122-122 100-99c18-19 18-48 0-67-19-18-48-18-67 0z m-188-165c-40-41-221-45-221-45l-221 221c0 0 4 181 45 221 40 41 154 155 154 155l398-398c0 0-114-114-155-154z m-442 132l177-177c12-12 12-32 0-44s-32-12-44 0l-177 177c-12 12-12 32 0 44s32 12 44 0z m89-221c0 0-15-15-33-33-19-18-48-18-67 0l-11 11-88-88-44 44 88 88-11 11c-18 19-18 48 0 67s35 31 35 31l131-131z" horiz-adv-x="1000" />
<glyph glyph-name="glyph-151" unicode="&#xe897;" d="m125-119v500h94v157c0 138 112 250 250 250h31c138 0 250-112 250-250v-157h94v-500h-719z m336 257l-23-163h93l-23 163c23 9 39 32 39 58 0 34-28 62-63 62-34 0-62-28-62-62 0-26 16-49 39-58z m195 384c0 95-77 172-172 172-95 0-171-77-171-172v-141h343v141z" horiz-adv-x="1000" />
<glyph glyph-name="glyph-152" unicode="&#xe898;" d="m906 381v141c0 95-77 172-172 172-95 0-171-77-171-172v-143h156v-498h-719v500h469v157c0 138 112 250 250 250h31c138 0 250-112 250-250v-157h-94z m-547-123c-34 0-62-28-62-62 0-26 16-49 39-58l-23-163h93l-23 163c23 9 39 32 39 58 0 34-28 62-63 62z" horiz-adv-x="1000" />
<glyph glyph-name="glyph-153" unicode="&#xe899;" d="m500-119c-164 0-297 133-297 297 0 107 56 200 141 252v186c0 95 77 172 172 172s172-77 172-172v-208c66-54 109-137 109-230 0-164-133-297-297-297z m125 735c0 60-49 109-109 109-61 0-110-49-110-109v-156c30 10 61 15 94 15 45 0 87-10 125-28v169z m-125-188c-138 0-250-112-250-250s112-250 250-250 250 112 250 250-112 250-250 250z m0-484c-129 0-234 105-234 234s105 235 234 235c130 0 234-105 234-235s-104-234-234-234z m47 297c0 26-21 47-47 47s-47-21-47-47c0-23 16-40 37-45l-37-143h96l-41 142c22 4 39 23 39 46z" horiz-adv-x="1000" />
<glyph glyph-name="glyph-154" unicode="&#xe89a;" d="m875 413v203c0 60-49 109-109 109s-110-49-110-109v-186c85-52 141-145 141-252 0-164-133-297-297-297s-297 133-297 297c0 164 133 297 297 297 33 0 64-6 94-15v156c0 95 77 172 172 172s172-77 172-172v-203h-63z m-375 15c-138 0-250-112-250-250s112-250 250-250 250 112 250 250c0 138-112 250-250 250z m0-484c-129 0-234 105-234 234 0 130 105 235 234 235s234-105 234-235c0-129-104-234-234-234z m47 297c0 26-21 47-47 47s-47-21-47-47c0-23 16-40 37-45l-37-143h96l-41 142c22 4 39 23 39 46z" horiz-adv-x="1000" />
<glyph glyph-name="glyph-155" unicode="&#xe89b;" d="m911-86l-22-22c-25-25-64-25-89 0l-177 177c-21 20-23 51-9 75l-97 97c-52-38-116-62-186-62-173 0-314 141-314 314 0 173 141 313 314 313 173 0 313-140 313-313 0-81-30-154-80-210l94-94c24 14 55 11 76-9l177-178c25-24 25-64 0-88z m-346 580c0 130-105 235-235 235s-235-105-235-235 105-235 235-235 235 105 235 235z" horiz-adv-x="1000" />
<glyph glyph-name="glyph-156" unicode="&#xe89c;" d="m911-86l-22-22c-25-25-64-25-89 0l-177 177c-21 20-23 51-9 75l-97 97c-52-38-116-62-186-62-173 0-314 141-314 314 0 173 141 313 314 313 173 0 313-140 313-313 0-81-30-154-80-210l94-94c24 14 55 11 76-9l177-178c25-24 25-64 0-88z m-346 580c0 130-105 235-235 235s-235-105-235-235 105-235 235-235 235 105 235 235z m-221-80h-31v61h-63v31h63v63h31v-63h63v-31h-63v-61z" horiz-adv-x="1000" />
<glyph glyph-name="glyph-157" unicode="&#xe89d;" d="m250 506h157v-31h-157z m661-504l-177 178c-21 20-52 23-76 9l-94 94c50 56 80 129 80 210 0 173-140 313-313 313-173 0-314-140-314-313 0-173 141-314 314-314 70 0 134 24 186 62l97-97c-14-24-12-55 9-75l177-178c25-24 65-24 89 0l22 23c25 24 25 64 0 88z m-581 257c-130 0-235 105-235 235s105 235 235 235 235-105 235-235-105-235-235-235z" horiz-adv-x="1000" />
<glyph glyph-name="glyph-158" unicode="&#xe89e;" d="m281 567v95h594v-436h-95l2-95h-96v-92h-592v436h93v94l94-2z m561 64h-531v-64l471 2-2-313h62v375z m-92-94h-533v-62h469v-312h64v374z m-625-92v-376h531v376h-531z" horiz-adv-x="1000" />
<glyph glyph-name="glyph-159" unicode="&#xe89f;" d="m94 38h594v437h-594v-437z m92 468h533v-375h62v438h-593l-2-63z m95 157l-2-63h534v-375h62v438h-594z" horiz-adv-x="1000" />
<glyph glyph-name="glyph-160" unicode="&#xe8a0;" d="m894 499l-394 269-394-269 394-270 394 270z m-394-330l-348 229-46-48 394-270 394 270-47 49-347-230z m0-149l-348 229-46-48 394-269 394 269-47 49-347-230z" horiz-adv-x="1000" />
<glyph glyph-name="glyph-161" unicode="&#xe8a1;" d="m500 633l59-95h-117l58 95z m275-447h-116l58 94 58-94z m-550 0l59 94 58-94h-117z m150-55l125-203 125 203h250l-125 203 125 204h-250l-125 203-125-203h-250l125-204-125-203h250z m400 352l-58-95-58 95h116z m-275-447l-58 95h117l-59-95z m-183 298l91 149h184l91-149-92-148h-183l-91 148z m-92 149h117l-58-95-59 95z" horiz-adv-x="1000" />
<glyph glyph-name="glyph-162" unicode="&#xe8a2;" d="m187 507v-157h220v-375h157v375h218v157h-218v218h-157v-218h-220z" horiz-adv-x="1000" />
<glyph glyph-name="glyph-163" unicode="&#xe8a3;" d="m599 27c-176 0-320 146-320 323 0 179 142 323 324 323 63 0 125-25 125-25-71 50-145 75-222 75-104 0-193-37-266-109s-110-160-110-264c0-103 37-191 109-264s161-109 264-109c133 0 215 69 225 76 0 0-66-26-129-26z m75 302l-34-103 88 64 87-64-33 103 88 64h-109l-33 103-34-103h-108l88-64z" horiz-adv-x="1000" />
<glyph glyph-name="glyph-164" unicode="&#xe8a4;" d="m785 686l1 45c-84 42-177 67-280 67s-208-25-292-67l1-45 285-187 285 187z m-285 22c59 0 108-19 108-19l-108-73-108 73c0 0 49 19 108 19z m65-607v219l14 189-79-52-77 52 16-189v-219h126z m-178 428l-212 141-1 55h-125l18-267 152-108h185l-17 179z m-241-12l201-94 3-31-198 90-6 35z m-8 96l199-96 5-33-201 92-3 37z m-3-593l148-75v294l-88 54v34l-86 59 26-366z m273 49v219l-96-49v-318l43-27 59 144h172l59-144 45 27v318l-96 49v-219h-186z m35-65l-44-123h202l-44 123h-114z m153 346h185l152 108 18 267h-125l-1-55-212-141-17-179z m253 132l-201-94 5 35 201 94-5-35z m10 94l-201-94 5 35 199 96-3-37z m32-190l-86-59v-34l-86-54v-294l146 75 26 366z" horiz-adv-x="1000" />
<glyph glyph-name="glyph-165" unicode="&#xe8a5;" d="m609 717c-336 0-609-164-609-367s273-367 609-367 610 164 610 367-273 367-610 367z m346-602c0-2 61 73 12 124-58 67-160-33-160-33-80 158-201-98-201-98s-104 241-194 95c2 0-74 87-151 46-54-54 0-127 0-127-285 99-303 390 93 508-112-140 206-332 182 11l68-59c0 0 67 56 67 60-7-343 293-142 192-15 357-103 418-350 92-512z" horiz-adv-x="1218.8" />
<glyph glyph-name="glyph-166" unicode="&#xe8a6;" d="m936 69v186h-91v-186h-94v-93h-221v93h221v93h-469v-93l189 0v-93h-190v92h-94v188h-91v-186h-96v281h94v91h93v95h95v94h94v-94l280-1v95h94v-95h95v-93h93v-93h94v-281h-96z m-560 375h-94v-94h94v94z m374 0h-94v-94h94v94z m-563 280h95v-93h-95v93z m658 0v-93h-95v93h95z" horiz-adv-x="1031.3" />
<glyph glyph-name="glyph-167" unicode="&#xe8a7;" d="m624 394c18 2 52 14 64 24 13 7 20 17 20 27 2 16 1 32-2 47-3 15-6 33-9 52-37-58-87-97-150-117l-7-15c30-20 58-25 84-18v0z m-205 33c-63 20-113 59-150 117-3-19-6-37-9-52-3-15-3-31-2-47 1-11 8-20 21-27 9-8 47-23 63-24 26-7 54-2 84 17l-7 16z m19-109c-5-12-4-32 3-49h29v93c-12-16-27-31-32-44z m64-49h28c2 5 3 14 4 17s1 8 1 12c0 11-2 22-7 31-5 9-18 20-26 33v-93z m328 311c7-25 9-51 7-76-5-52-27-104-66-144l35-67-52-58c-72 34-95-2-95-52v-208h-33v186h-30v-186h-34v186h-29v-186h-32v186h-30v-186h-32v186l-29 0v-186h-34v186h-30v-186h-32v208c0 51-27 89-100 52l-53 58 37 67c-40 40-61 92-66 144-2 26 0 51 6 76 31 127 141 147 162 150 122 17 244 17 367 0 21-3 131-25 163-150z" horiz-adv-x="1000" />
<glyph glyph-name="glyph-168" unicode="&#xe8a8;" d="m534 381v-125c17 0 31-14 31-31v-31c0 0 96-40 96-124s-69-158-69-158h-180c0 0-66 74-68 158 0 86 96 124 96 124v31c0 17 14 31 31 31v125h-196v-209c14-3 24-15 24-29 0-18-14-32-31-32s-32 14-32 32c0 14 10 26 24 29v209h-102l239 376h214l231-376h-308z" horiz-adv-x="1000" />
<glyph glyph-name="glyph-169" unicode="&#xe8a9;" d="m549 284c-50 41-82 103-82 172 0 35 9 68 23 97l-34 35-208-209c38-30 34-60-11-89l279-279h136c18 0 32-14 32-32v-31h-149l0-1-1 1h-232v31c0 18 15 32 32 32h137l-263 263c-52-22-78-1-76 65 1 70 31 89 88 58l214 213-21 21c-13 12-13 33 0 45l67 67c12 13 33 13 45 0l81-81c26 11 54 17 84 17 73 0 138-32 179-86 1-1-319-310-320-309z m246 199c0 0 54-68 0-121s-120 0-120 0l120 121z" horiz-adv-x="1000" />
<glyph glyph-name="glyph-170" unicode="&#xe8aa;" d="m839 324c0 0-35 58-74 58-39 0-80-60-80-60s-42 60-77 60c-30 0-65-41-75-54v-226c0-23-2-42-7-58-4-15-11-28-20-38-9-10-21-17-34-22-14-4-30-6-47-6-17 0-31 2-44 7-13 5-24 12-32 21s-16 20-21 33c-4 13-7 27-7 43v22h62c0-21 0-48 7-58 8-10 19-16 35-16 10 0 25 5 25 5s11 9 14 15c4 6 7 22 7 22s2 18 2 28v232c-14 16-48 51-75 51-35 0-84-59-84-59s-46 59-77 59c-31 0-76-59-76-59s-14 305 295 336l45 62 43-62c318-19 295-336 295-336z" horiz-adv-x="1000" />
<glyph glyph-name="glyph-171" unicode="&#xe8ab;" d="m657 226v125l92 91h-92v127l92 92h-92v53c0 0-103 44-175 44-69 0-168-44-168-44v-53h-94l94-94v-127l-94 2 94-93v-125h-96l96-96v-154h123l2-63 93 2v61h125v158l94 94h-94z m-170-189c-52 0-94 42-94 94 0 51 42 93 94 93 51 0 93-42 93-93 0-52-42-94-93-94z m0 217c-52 0-94 42-94 93 0 52 42 94 94 94 51 0 93-42 93-94 0-51-42-93-93-93z m0 220c-52 0-94 42-94 94 0 52 42 94 94 94 51 0 93-42 93-94 0-52-42-94-93-94z" horiz-adv-x="1000" />
<glyph glyph-name="glyph-172" unicode="&#xe8ac;" d="m1038 602l103-14-91-49 66-60-96 12 59-123-118 89-98-118 45 147-143-77 100 109-7 26c-27-13-65-27-105-25-54 0-120 37-199 103 0 0-89 95-164 95-78 0-70-117-70-118h88v-79c111-43 186-150 186-277 0-164-133-297-297-297s-297 133-297 297c0 127 77 234 189 277v79h78c0 1-9 86 36 133 24 26 53 38 88 38 104 0 197-110 197-110 69-58 125-88 168-88 18 0 54 11 72 17l-56 45 98-7-76 116 124-87 13 82 23-75 91 109-20-121 105 24-92-73z" horiz-adv-x="1140.6" />
<glyph glyph-name="glyph-173" unicode="&#xe8ad;" d="m408 687l-181 49c-16 4-33-5-38-22l-186-694c-4-17 6-34 22-39l181-48c17-5 34 5 39 22l186 694c4 17-6 34-23 38z m-165-616c-13-50-65-80-115-67s-79 65-66 115 65 80 115 66c50-13 80-64 66-114z m36 134l-181 48 97 362 181-48-97-362z m313-74c-26 0-47-21-47-47s21-46 47-46c26 0 47 21 47 46s-21 47-47 47z m-254 414l-121 32-8-30 121-33 8 31z m-24-91l8 30-121 33-8-31 121-32z m-150-316c-25 7-50-8-57-33-7-25 8-51 33-57 25-7 51 8 57 33 7 25-8 51-33 57z m772 431h-125v-31h125v31z m0-125h-125v-31h125v31z m0 62h-125v-31h125v31z m-63-375c-26 0-47-21-47-47s21-46 47-46c26 0 47 21 47 46s-21 47-47 47z m94 594h-188c-17 0-31-14-31-31v-719c0-17 14-31 31-31h188c17 0 31 14 31 31v719c0 17-14 31-31 31z m-94-734c-52 0-94 42-94 93 0 52 42 94 94 94 52 0 94-42 94-94 0-51-42-93-94-93z m94 234h-188v375h188v-375z m-313 344h-125v-31h125v31z m0-125h-125v-31h125v31z m32 281h-188c-17 0-31-14-31-31v-719c0-17 14-31 31-31h188c17 0 31 14 31 31v719c0 17-14 31-31 31z m-94-732c-52 0-94 42-94 93 0 52 42 94 94 94 52 0 94-42 94-94 0-51-42-93-94-93z m94 232h-188v375h188v-375z m-32 281h-125v-31h125v31z m-477-80l120-32 9 30-121 32-8-30z" horiz-adv-x="1000" />
<glyph glyph-name="glyph-174" unicode="&#xe8ae;" d="m875 413c-17 0-31 0-31 0v31c0 34-28 62-63 62h-625c-34 0-62-28-62-62v-219c0-34 28-62 62-62h625c35 0 63 28 63 62v31c0 0 14 0 31 0 17 0 31 14 31 32v93c0 18-14 32-31 32z m-62-188c0-17-14-31-32-31h-625c-17 0-31 14-31 31v219c0 17 14 31 31 31h625c18 0 32-14 32-31v-219z m-657 0h188v219h-188v-219z m219 0h188v219h-188v-219z m219 0h187v219h-187v-219z" horiz-adv-x="1000" />
<glyph glyph-name="glyph-175" unicode="&#xe8af;" d="m875 413c-17 0-31 0-31 0v31c0 34-28 62-63 62h-625c-34 0-62-28-62-62v-219c0-34 28-62 62-62h625c35 0 63 28 63 62v31c0 0 14 0 31 0 17 0 31 14 31 32v93c0 18-14 32-31 32z m-62-188c0-17-14-31-32-31h-625c-17 0-31 14-31 31v219c0 17 14 31 31 31h625c18 0 32-14 32-31v-219z m-657 0h188v219h-188v-219z m219 0h188v219h-188v-219z" horiz-adv-x="1000" />
<glyph glyph-name="glyph-176" unicode="&#xe8b0;" d="m875 413c-17 0-31 0-31 0v31c0 34-28 62-63 62h-625c-34 0-62-28-62-62v-219c0-34 28-62 62-62h625c35 0 63 28 63 62v31c0 0 14 0 31 0 17 0 31 14 31 32v93c0 18-14 32-31 32z m-62-188c0-17-14-31-32-31h-625c-17 0-31 14-31 31v219c0 17 14 31 31 31h625c18 0 32-14 32-31v-219z m-657 0h188v219h-188v-219z" horiz-adv-x="1000" />
<glyph glyph-name="glyph-177" unicode="&#xe8b1;" d="m875 256c-17 0-31 0-31 0v-31c0-34-28-62-63-62h-625c-34 0-62 28-62 62v219c0 34 28 62 62 62h625c35 0 63-28 63-62v-31c0 0 14 0 31 0s31-14 31-32v-93c0-18-14-32-31-32z m-62 188c0 17-14 31-32 31h-625c-17 0-31-14-31-31v-219c0-17 14-31 31-31h625c18 0 32 14 32 31v219z" horiz-adv-x="1000" />
<glyph glyph-name="glyph-178" unicode="&#xe8b2;" d="m594-56h-219c-35 0-62 28-62 62v594c0 35 27 63 62 63h33c0 0 0-2 0 15s12 47 29 47h93c17 0 31-30 31-47s0-15 0-15h33c35 0 62-28 62-63v-594c0-34-28-62-62-62z m-64 623h-31v31h-29v-31h-31v-31h31v-31h29v31h31v31z m95-122h-281v-439c0-17 14-31 31-31h219c17 0 31 14 31 31v439z m-188-375h95v-33h-95v33z" horiz-adv-x="1000" />
<glyph glyph-name="glyph-179" unicode="&#xe8b3;" d="m877 284v-247c0-17-9-31-31-31-5 0-18 11-34 28v662c16 16 29 28 34 28 24 0 31-14 31-32v-253c43-1 82-35 82-77 0-43-39-77-82-78z m-501-60c1 0 0 282 0 282 214 0 341 94 408 158v-599c-67 65-194 159-408 159z m-125-248l-63 248h-62c0 0-19 42-27 94-16 0-30 0-36 0-17 0-31 14-31 31v31c0 18 14 32 31 32 6 0 20 0 36 0 8 51 27 93 27 93h218v-281h-62l8-31h31l16-62h-32l39-155h-93z" horiz-adv-x="1000" />
<glyph glyph-name="glyph-180" unicode="&#xe8b4;" d="m891 6c-26 0-47 21-47 47v563c0 26 21 47 47 47s47-21 47-47v-563c0-26-21-47-47-47z m-235 63c0-35-28-63-62-63h-281c-35 0-63 28-63 63v124l-125 27v226l689 152v-531l-158 35v-33z m-31 40l-344 77v-117c0-17 14-31 32-31h281c17 0 31 14 31 31v40z m-562 85c-18 0-32 14-32 31v219c0 17 14 31 32 31s31-14 31-31v-219c0-17-14-31-31-31z" horiz-adv-x="1000" />
<glyph glyph-name="glyph-181" unicode="&#xe8b5;" d="m87 180c-37-37-37-96 0-133l110-110c37-37 96-37 133 0l154 154-243 243-154-154z m176 177l244-244 198 199-243 243-199-198z m112-38h-31v31h31v-31z m63-63h-32v32h32v-32z m0 63h-32v31h32v-31z m0 62h-32v32h32v-32z m156-31h31v-31h-31v31z m-63 63h32v-32h-32v32z m0-63h32v-31h-32v31z m0-62h32v-32h-32v32z m-62 187h31v-31h-31v31z m0-62h31v-32h-31v32z m0-63h31v-31h-31v31z m0-62h31v-32h-31v32z m0-63h31v-31h-31v31z m413 397l-110 110c-37 37-96 37-133 0l-155-155 243-243 155 155c37 37 37 96 0 133z" horiz-adv-x="1000" />
<glyph glyph-name="glyph-182" unicode="&#xe8b6;" d="m175 268c-61-61-61-160 0-221l22-22c61-61 160-61 221 0l177 177-243 243-177-177z m221-221c-49-49-128-49-177 0l-22 22c-49 49-49 128 0 177l155 155 199-199-155-155z m398 575l-22 22c-61 61-160 61-221 0l-177-177 243-243 177 177c61 61 61 160 0 221z" horiz-adv-x="1000" />
<glyph glyph-name="glyph-183" unicode="&#xe8b7;" d="m755 562c12-11 12-31 0-42-12-12-21-22-21-22l21-21c24-24 24-62 0-86l-320-320c-24-24-62-24-86 0l-21 21-86-85 43-43c12-12 12-31 0-43-12-11-31-11-43 0l-171 171c-11 12-11 31 0 43 12 12 31 12 43 0l43-43 85 86-21 21c-24 24-24 62 0 86l320 320c24 24 62 24 86 0l21-21c0 0 10 9 22 21 11 12 31 12 42 0l11-11 171 171v-42l-150-150 11-11z m-150 22c-11 12-30 12-42 0l-64-64 42-43-21-21-43 42-64-64 43-43-21-21-43 43-22-22 86-85-21-21-86 85-64-64 85-85-21-22-85 86-22-22c-12-12-12-31 0-42l128-129c12-12 31-12 43 0l321 321c11 12 11 31 0 42l-129 129z m-85-43l21 21 86-85-22-21-85 85z m0-171l-85 86 21 21 85-86-21-21z m-214-43l22 22 42-43-21-21-43 42z m630 230c0-23-19-41-41-41-23 0-41 18-41 41 0 22 41 84 41 84s41-62 41-84z" horiz-adv-x="1000" />
<glyph glyph-name="glyph-184" unicode="&#xe8b8;" d="m593 290v29h95v-29h-95z m0 92h95v-31h-95v31z m0 61h95v-30h-95v30z m0 64h95v-31l-95 2v29z m0 65h95v-33h-95v33z m0 61h95v-31h-95v31z m55-538c0-101-82-184-184-184s-183 83-183 184c0 70 36 130 93 161v409c0 51 43 92 94 92s92-41 92-92v-413c53-32 88-90 88-157z m-119 138v432c0 34-27 62-61 62s-61-28-61-62v-428c-56-23-96-78-96-142 0-84 69-153 153-153 85 0 153 69 153 153 0 61-36 114-88 138z m-65-260c-67 0-122 55-122 122 0 59 41 107 95 120v292h62v-295c50-15 88-61 88-117 0-67-55-122-123-122z" horiz-adv-x="1000" />
<glyph glyph-name="glyph-185" unicode="&#xe8b9;" d="m504 794c-168 0-256-132-256-252 0-136 126-221 126-441h127c0 0 120-1 123-1 4 223 128 310 128 443 0 113-80 251-248 251z m105-726h-219c-9 0-16-7-16-16s7-15 16-15h219c8 0 15 7 15 15s-7 16-15 16z m0-63h-219c-9 0-16-7-16-15s7-16 16-16h219c8 0 15 7 15 16s-7 15-15 15z m-204-62c0 0 0-14 0-32 0-17 14-31 32-31h125c17 0 31 14 31 31 0 18 0 32 0 32h-188z" horiz-adv-x="1000" />
<glyph glyph-name="glyph-186" unicode="&#xe8ba;" d="m666 556c16 5 26 22 22 38s-22 27-38 23l-316-98c-16-4-26-21-22-38 5-16 22-26 38-22l26 8 30-54h-31c-34 0-62-28-62-63v-130l62-88h250l63 88v130c0 35-28 63-63 63h-31l63 140 9 3z m-135-143h-62l-39 71 154 47-53-118z m119 297l-316-97c-16-4-26-21-22-38 5-17 22-27 38-22l316 97c16 4 26 21 22 38s-22 27-38 22z m-300-63l316 97c16 4 26 21 22 38-5 17-22 26-38 22l-316-97c-16-5-26-22-22-38 5-17 22-27 38-22z m259-547h-218c-9 0-16-7-16-15s7-16 16-16h218c9 0 16 7 16 16s-7 15-16 15z m0-62h-218c-9 0-16-7-16-16s7-15 16-15h218c9 0 16 7 16 15s-7 16-16 16z m0-63h-218c-9 0-16-7-16-15s7-16 16-16h218c9 0 16 7 16 16s-7 15-16 15z m-156-62c-3-26 21-47 47-47s47 21 47 47c0-2-94-4-94 0z m-101 826l209 65c16 5 26 23 20 39-5 17-22 26-39 21l-208-65c-17-6-26-23-21-40 5-16 23-25 39-20z" horiz-adv-x="1000" />
<glyph glyph-name="glyph-187" unicode="&#xe8bb;" d="m555 412c-39-18-126 25-126 25-102 61 38-189 38-189s3-79 21-88c146 205 106 270 67 252z m-53-194c-12 0-62 149-56 180 39-4 75-19 97-7 60 28-27-173-41-173z m122-116c3 228 126 316 126 452 0 116-79 264-246 264-166 0-254-142-254-265 0-139 125-226 125-453h126c0 0 119 2 123 2z m-224 29c0 211-121 293-121 422 0 115 79 236 225 236s217-127 217-235c0-127-119-211-123-424-3 0-97 1-97 1h-101z m210-63h-219c-9 0-16-7-16-15s7-16 16-16h219c8 0 15 7 15 16s-7 15-15 15z m0-62h-219c-9 0-16-7-16-16s7-15 16-15h219c8 0 15 7 15 15s-7 16-15 16z m-204-64c0 0 0-10 0-28s14-32 31-32h126c17 0 31 15 31 32s-2 28-2 28h-186z" horiz-adv-x="1000" />
<glyph glyph-name="glyph-188" unicode="&#xe8bc;" d="m483 756l-418-180 418-178 423 179-423 179z m17-381v-431l406 193v411l-406-173z m-437-238l407-193v431l-407 173v-411z" horiz-adv-x="1000" />
<glyph glyph-name="glyph-189" unicode="&#xe8bd;" d="m54 293l377-190 67 190-376 180-68-180z m453 0l64-189 390 190-76 179-378-180z m-515 332l130-152 376 192-122 156-384-196z m1016-4l-375 200-128-156 380-192 123 148z m-909-376l-1-182 397-184v343l-56-148-340 171z m410-23v-343l396 184v181l-343-171-53 149z" horiz-adv-x="1000" />
<glyph glyph-name="glyph-190" unicode="&#xe8be;" d="m63 137l407-193v431l-407 173v-411z m125 251l157-73-1-58-157 73 1 58z m312-13v-431l406 193v411l-406-173z m-17 381l-418-180 418-178 423 179-423 179z" horiz-adv-x="1000" />
<glyph glyph-name="glyph-191" unicode="&#xe8bf;" d="m66 473l418-519-167 519h-251z m296 0l148-520 128 520h-276z m171-519l403 519h-249l-154-519z m404 553l-121 207-121-207h242z m-159 219h-242l121-214 121 214z m-158-219l-121 207-121-207h242z m-156 219h-242l121-214 121 214z m-280-12l-121-207h242l-121 207z" horiz-adv-x="1000" />
<glyph glyph-name="glyph-192" unicode="&#xe8c0;" d="m559 544h-118c0 0-193-151-193-379s203-229 203-229 52-4 97 0c0-2 204 27 204 229 0 203-193 379-193 379z m-118 14h118v45h-118v-45z m117 60l60 148c0 0-38-31-60-31-23 0-58 30-58 30s-38-30-60-30-59 29-59 29l62-146h115z" horiz-adv-x="1000" />
<glyph glyph-name="glyph-193" unicode="&#xe8c1;" d="m438 559h123v46h-123v-46z m122-15h-122c0 0-201-198-201-392 0-206 211-222 211-222s62-10 101 0c0 0 214 25 214 221 0 196-203 393-203 393z m9-417c-5-10-11-18-20-25-8-6-18-11-30-15-1 0-3 0-4-1v-34h-31v30c0 0-1 0-1 0-9 0-17 1-24 2-8 2-14 3-20 5-6 2-11 5-14 7-4 2-7 4-9 6-1 1-3 4-3 7-1 3-1 8-1 14 0 4 0 7 0 10s1 5 1 6c1 2 2 3 3 4 1 1 2 1 3 1 2 0 4-1 8-3 3-2 7-5 13-7 5-3 11-5 18-7 7-3 16-4 25-4 7 0 12 1 17 3s9 3 13 6c3 3 6 6 8 10 1 4 2 9 2 14 0 5-1 10-4 14-4 5-8 8-13 11-5 4-10 7-17 9s-13 6-19 9c-7 3-14 7-20 11-6 4-12 9-17 14s-9 12-12 20c-4 7-5 16-5 27 0 12 2 23 7 32 4 9 10 17 18 23 7 6 16 10 27 13 5 2 11 3 16 3v33h31v-32c1-1 2-1 4-1 6-1 11-2 16-3 6-2 10-4 14-6s7-3 8-5c2-1 2-2 3-3 0-1 1-2 1-3 0-2 1-4 1-6 0-2 0-5 0-9 0-3 0-7 0-9-1-3-1-5-1-7-1-1-1-3-2-3s-2-2-4-2c-1 0-3 1-7 3-3 2-7 4-11 6-5 2-10 4-16 6-6 2-12 3-20 3-5 0-10-1-14-3-4-1-8-3-11-5-2-3-5-5-6-9-1-3-2-7-2-10 0-6 2-11 5-15s7-8 12-11c5-3 11-6 17-9 7-3 14-6 20-9 7-3 14-7 20-10s13-9 18-15 9-12 12-19c3-8 5-17 5-27 0-13-3-25-8-35z m-10 494l63 154c0 0-40-33-63-33s-59 32-59 32-40-32-63-32c-23 0-60 31-60 31l63-152h119z" horiz-adv-x="1000" />
<glyph glyph-name="glyph-194" unicode="&#xe8c2;" d="m250 475h125v125h-125v-125z m188 0h125v125h-125v-125z m187 125v-125h125v125h-125z m-375-312h125v125h-125v-125z m188 0h125v125h-125v-125z m187 0h125v125h-125v-125z m-375-188h125v125h-125v-125z m188 0h125v125h-125v-125z m187 0h125v125h-125v-125z" horiz-adv-x="1000" />
<glyph glyph-name="glyph-195" unicode="&#xe8c3;" d="m250 381h219v219h-219v-219z m281 219v-219h219v219h-219z m0-500h219v219h-219v-219z m-281 0h219v219h-219v-219z" horiz-adv-x="1000" />
<glyph glyph-name="glyph-196" unicode="&#xe8c4;" d="m250 600v-125h500v125h-500z m0-312h500v125h-500v-125z m0-188h500v125h-500v-125z" horiz-adv-x="1000" />
<glyph glyph-name="glyph-197" unicode="&#xe8c5;" d="m250 475h125v125h-125v-125z m0-187h125v125h-125v-125z m0-188h125v125h-125v-125z m188 500v-125h312v125h-312z m0-312h312v125h-312v-125z m0-188h312v125h-312v-125z" horiz-adv-x="1000" />
<glyph glyph-name="glyph-198" unicode="&#xe8c6;" d="m0 132v405h62v-186h62v186h65v-62h60v62h63v-124h62v124h64v-61h61v61h65v-124h61v124h63v-186h60v186h65v-61h62v61h64v-124h59v124h65v-61h60v61h65v-124h61v124h64v-405h-1313z" horiz-adv-x="1000" />
<glyph glyph-name="glyph-199" unicode="&#xe8c7;" d="m720-56v63h-32v-63h-32v63h-32v-63h-29v95h-32v-95h-32v63h-31v-63h-30v63h-32v-63h-31v95h-32v-95h-32v63h-30v-63h-31v63h-32v-63h-32v95h-29v-95h-95v781l781-781h-155z m-502 482v-356h356l-356 356z" horiz-adv-x="1000" />
<glyph glyph-name="glyph-200" unicode="&#xe8c8;" d="m94 725v-781h781v781h-781z m250-750h-219v719h219v-719z m500 0h-469v719h469v-719z" horiz-adv-x="1000" />
<glyph glyph-name="glyph-201" unicode="&#xe8c9;" d="m94 725v-781h781v781h-781z m500-750h-469v719h469v-719z m250 0h-219v719h219v-719z" horiz-adv-x="1000" />
<glyph glyph-name="glyph-202" unicode="&#xe8ca;" d="m94 725v-781h781v781h-781z m375-750h-344v719h344v-719z m375 0h-344v719h344v-719z" horiz-adv-x="1000" />
<glyph glyph-name="glyph-203" unicode="&#xe8cb;" d="m94 725v-781h781v781h-781z m250-750h-219v719h219v-719z m250 0h-219v719h219v-719z m250 0h-219v719h219v-719z" horiz-adv-x="1000" />
<glyph glyph-name="glyph-204" unicode="&#xe8cc;" d="m94 725v-781h781v781h-781z m750-750h-719v219h719v-219z m0 250h-719v219h719v-219z m0 250h-719v219h719v-219z" horiz-adv-x="1000" />
<glyph glyph-name="glyph-205" unicode="&#xe8cd;" d="m94 725v-781h781v781h-781z m375-750h-344v344h344v-344z m0 375h-344v344h344v-344z m375-375h-344v344h344v-344z m0 375h-344v344h344v-344z" horiz-adv-x="1000" />
<glyph glyph-name="glyph-206" unicode="&#xe8ce;" d="m94 725v-781h781v781h-781z m250-750h-219v219h219v-219z m0 250h-219v219h219v-219z m0 250h-219v219h219v-219z m250-500h-219v219h219v-219z m0 250h-219v219h219v-219z m0 250h-219v219h219v-219z m250-500h-219v219h219v-219z m0 250h-219v219h219v-219z m0 250h-219v219h219v-219z" horiz-adv-x="1000" />
<glyph glyph-name="glyph-207" unicode="&#xe8cf;" d="m94 725v-781h781v781h-781z m750-750h-719v531h719v-531z m0 563h-719v156h719v-156z" horiz-adv-x="1000" />
<glyph glyph-name="glyph-208" unicode="&#xe8d0;" d="m94 725v-781h781v781h-781z m250-750h-219v531h219v-531z m500 0h-469v531h469v-531z m0 563h-719v156h719v-156z" horiz-adv-x="1000" />
<glyph glyph-name="glyph-209" unicode="&#xe8d1;" d="m94 725v-781h781v781h-781z m500-750h-469v531h469v-531z m250 0h-219v531h219v-531z m0 563h-719v156h719v-156z" horiz-adv-x="1000" />
<glyph glyph-name="glyph-210" unicode="&#xe8d2;" d="m94 725v-781h781v781h-781z m250-750h-219v719h219v-719z m500 0h-469v344h469v-344z m0 375h-469v344h469v-344z" horiz-adv-x="1000" />
<glyph glyph-name="glyph-211" unicode="&#xe8d3;" d="m94 725v-781h781v781h-781z m250-750h-219v531h219v-531z m500 0h-469v250h469v-250z m0 281h-469v250h469v-250z m0 282h-719v156h719v-156z" horiz-adv-x="1000" />
<glyph glyph-name="glyph-212" unicode="&#xe8d4;" d="m94 725v-781h781v781h-781z m375-750h-344v531h344v-531z m375 0h-344v531h344v-531z m0 563h-719v156h719v-156z" horiz-adv-x="1000" />
<glyph glyph-name="glyph-213" unicode="&#xe8d5;" d="m94 725v-781h781v781h-781z m154-750h-123v531h123v-531z m440 0h-407v531h407v-531z m156 0h-125v531h125v-531z m0 563h-719v156h719v-156z" horiz-adv-x="1000" />
<glyph glyph-name="glyph-214" unicode="&#xe8d6;" d="m868 602c30-72 16-159-43-217-65-65-162-75-238-32l-55-60 39-40 23 24c12 12 32 12 44 0l190-192c12-12 12-32 0-44l-87-86c-12-12-31-12-43 0l-190 192c-12 12-12 31 0 43l21 21-37 38-263-287c-24-24-63-24-87 0l-22 21c-24 24-24 63 0 87l300 251-199 199-63 0-73 117 59 59 119-73 1-62 201-202 59 49c-57 78-51 188 19 259 59 58 144 73 217 43l-129-127 108-108 129 127z m-676-562c-12 12-31 12-43 0-12-12-12-32 0-44 12-12 31-12 43 0 12 12 12 32 0 44z" horiz-adv-x="1000" />
<glyph glyph-name="glyph-215" unicode="&#xe8d7;" d="m856 767l-114-70-1-62-251-251-35 34c-12 13-32 13-44 0-12-12-23-20-23-20l12-13c0 0 0 0 0 0-62-62-102-80-102-80l-195-197c-12-13-12-32 0-44l110-111c13-12 32-12 45 0l195 198c0 0 17 40 80 102l11-11c0 0 10 10 22 22 12 12 12 32 0 44l-34 33 251 252 64 0 69 114-60 60z m-732-680l199 199 22-22-199-199-22 22z m45-45l198 198 22-22-198-198-22 22z m66-66l-22 22 198 198 22-22-198-198z" horiz-adv-x="1000" />
<glyph glyph-name="glyph-216" unicode="&#xe8d8;" d="m813 444h-313v-63h-62v94h375v188h-32v-94c0-17-14-31-31-31h-562c-18 0-32 14-32 31v125c0 17 14 31 32 31h562c17 0 31-14 31-31h63v-250h-31z m-94 250h-500v-31h500v31z m-188-656c0-35-28-63-62-63s-63 28-63 63v312h125v-312z m-62 44c-17 0-31-14-31-31 0-18 14-32 31-32 17 0 31 14 31 32 0 17-14 31-31 31z" horiz-adv-x="1000" />
<glyph glyph-name="glyph-217" unicode="&#xe8d9;" d="m385 537l-106 79 106 75h333v-154h-333z m116 219h92v-31h-92v31z m91-253l35-550c0-22-19-40-41-40h-79c-22 0-40 18-40 40l33 550h92z m-44-547c17 0 31 14 31 31s-14 31-31 31c-17 0-31-13-31-31s14-31 31-31z" horiz-adv-x="1000" />
<glyph glyph-name="glyph-218" unicode="&#xe8da;" d="m861 587c-42-52-158-194-251-307l-117 119c106 94 237 211 285 253 84 74 158 118 174 100 10-10-17-75-91-165z m-271-332c-36-43-66-81-85-104l-139 135c23 20 60 53 103 92l121-123z m-106-129v0c-80-309-438-131-438-131s150-19 150 121c0 135 138 148 146 148l142-138c0 0 0 0 0 0z" horiz-adv-x="1000" />
<glyph glyph-name="glyph-219" unicode="&#xe8db;" d="m207 286l-102-310 136 136c-9 24-7 65 12 84 26 25 68 25 94-1 26-26 27-69 1-94-19-20-62-21-86-11l-135-135 303 106 111 199-135 133-199-107z m511 459c0 0-188-187-217-216-29-29-44-139-44-139l84-84c0 0 107 15 137 46 31 30 217 217 217 217l-177 176z" horiz-adv-x="1000" />
<glyph glyph-name="glyph-220" unicode="&#xe8dc;" d="m783 267v390c0 38-32 70-70 70h-612c-38 0-70-32-70-70v-390c0-39 32-70 70-70h117v-161l178 161h317c38 0 70 31 70 70z m116 306h-87c0 0 0-311 0-341s-38-67-68-67-342-1-342-1c0-39 31-62 70-62h135l175-160 0 160h117c39 0 70 23 70 62v341c0 39-31 68-70 68z" horiz-adv-x="1000" />
</font>
</defs>
</svg>
