<svg width="174" height="172" viewBox="0 0 174 172" version="1.1" xmlns="http://www.w3.org/2000/svg" xmlns:xlink="http://www.w3.org/1999/xlink">
<title>Group</title>
<desc>Created using Figma</desc>
<g id="Canvas" transform="translate(-10375 -5056)">
<g id="Group">
<g id="Ellipse 3">
<use xlink:href="#path0_fill" transform="translate(10375 5056)" fill="#979797" fill-opacity="0.2"/>
</g>
<g id="Rectangle 35">
<use xlink:href="#path1_fill" transform="translate(10376 5174)" fill="#FFFFFF" fill-opacity="0.6"/>
</g>
<g id="Agregar Foto">
<use xlink:href="#path2_fill" transform="translate(10411 5181)" fill="#333333"/>
</g>
<g id="Group">
<g id="Group">
<g id="Vector">
<use xlink:href="#path3_fill" transform="translate(10511.9 5089.64)" fill="#33E1BE"/>
</g>
<g id="Vector">
<use xlink:href="#path4_fill" transform="translate(10494 5079.11)" fill="#33E1BE"/>
</g>
<g id="Vector">
<use xlink:href="#path5_fill" transform="translate(10508.3 5069.13)" fill="#33E1BE"/>
</g>
<g id="Vector">
<use xlink:href="#path6_fill" transform="translate(10527.3 5069.13)" fill="#33E1BE"/>
</g>
<g id="Vector">
<use xlink:href="#path7_fill" transform="translate(10519.6 5067)" fill="#33E1BE"/>
</g>
</g>
</g>
</g>
</g>
<defs>
<path id="path0_fill" d="M 169 84.5C 169 131.168 131.168 169 84.5 169C 37.8319 169 0 131.168 0 84.5C 0 37.8319 37.8319 0 84.5 0C 131.168 0 169 37.8319 169 84.5Z"/>
<path id="path1_fill" d="M 0 0L 168 0L 168 54L 0 54L 0 0Z"/>
<path id="path2_fill" d="M 8.325 13.086L 6.741 8.757C 6.663 8.565 6.582 8.337 6.498 8.073C 6.414 7.809 6.33 7.524 6.246 7.218C 6.168 7.524 6.087 7.812 6.003 8.082C 5.919 8.346 5.838 8.577 5.76 8.775L 4.185 13.086L 8.325 13.086ZM 12.6 18L 10.728 18C 10.518 18 10.347 17.949 10.215 17.847C 10.083 17.739 9.984 17.607 9.918 17.451L 8.946 14.796L 3.555 14.796L 2.583 17.451C 2.535 17.589 2.442 17.715 2.304 17.829C 2.166 17.943 1.995 18 1.791 18L -0.099 18L 5.022 4.986L 7.488 4.986L 12.6 18ZM 16.971 13.158C 17.247 13.158 17.487 13.122 17.691 13.05C 17.895 12.972 18.063 12.867 18.195 12.735C 18.333 12.603 18.435 12.444 18.501 12.258C 18.573 12.072 18.609 11.868 18.609 11.646C 18.609 11.19 18.471 10.83 18.195 10.566C 17.925 10.296 17.517 10.161 16.971 10.161C 16.425 10.161 16.014 10.296 15.738 10.566C 15.468 10.83 15.333 11.19 15.333 11.646C 15.333 11.862 15.366 12.063 15.432 12.249C 15.504 12.435 15.606 12.597 15.738 12.735C 15.876 12.867 16.047 12.972 16.251 13.05C 16.461 13.122 16.701 13.158 16.971 13.158ZM 19.482 18.414C 19.482 18.234 19.428 18.087 19.32 17.973C 19.212 17.859 19.065 17.772 18.879 17.712C 18.693 17.646 18.474 17.598 18.222 17.568C 17.976 17.538 17.712 17.517 17.43 17.505C 17.154 17.487 16.866 17.472 16.566 17.46C 16.272 17.448 15.984 17.424 15.702 17.388C 15.456 17.526 15.255 17.688 15.099 17.874C 14.949 18.06 14.874 18.276 14.874 18.522C 14.874 18.684 14.913 18.834 14.991 18.972C 15.075 19.116 15.204 19.239 15.378 19.341C 15.558 19.443 15.789 19.521 16.071 19.575C 16.353 19.635 16.698 19.665 17.106 19.665C 17.52 19.665 17.877 19.632 18.177 19.566C 18.477 19.506 18.723 19.419 18.915 19.305C 19.113 19.197 19.257 19.065 19.347 18.909C 19.437 18.759 19.482 18.594 19.482 18.414ZM 21.696 9.081L 21.696 9.909C 21.696 10.173 21.537 10.335 21.219 10.395L 20.391 10.548C 20.517 10.866 20.58 11.214 20.58 11.592C 20.58 12.048 20.487 12.462 20.301 12.834C 20.121 13.2 19.869 13.512 19.545 13.77C 19.221 14.028 18.837 14.229 18.393 14.373C 17.955 14.511 17.481 14.58 16.971 14.58C 16.791 14.58 16.617 14.571 16.449 14.553C 16.281 14.535 16.116 14.511 15.954 14.481C 15.666 14.655 15.522 14.85 15.522 15.066C 15.522 15.252 15.606 15.39 15.774 15.48C 15.948 15.564 16.176 15.624 16.458 15.66C 16.74 15.696 17.061 15.72 17.421 15.732C 17.781 15.738 18.15 15.756 18.528 15.786C 18.906 15.816 19.275 15.87 19.635 15.948C 19.995 16.02 20.316 16.137 20.598 16.299C 20.88 16.461 21.105 16.683 21.273 16.965C 21.447 17.241 21.534 17.598 21.534 18.036C 21.534 18.444 21.432 18.84 21.228 19.224C 21.03 19.608 20.739 19.95 20.355 20.25C 19.977 20.55 19.509 20.79 18.951 20.97C 18.399 21.156 17.769 21.249 17.061 21.249C 16.365 21.249 15.759 21.18 15.243 21.042C 14.727 20.91 14.298 20.73 13.956 20.502C 13.614 20.28 13.359 20.022 13.191 19.728C 13.023 19.434 12.939 19.128 12.939 18.81C 12.939 18.378 13.068 18.018 13.326 17.73C 13.59 17.436 13.95 17.202 14.406 17.028C 14.16 16.902 13.965 16.734 13.821 16.524C 13.677 16.314 13.605 16.038 13.605 15.696C 13.605 15.558 13.629 15.417 13.677 15.273C 13.731 15.123 13.806 14.976 13.902 14.832C 14.004 14.688 14.13 14.553 14.28 14.427C 14.43 14.295 14.607 14.178 14.811 14.076C 14.343 13.824 13.974 13.488 13.704 13.068C 13.44 12.648 13.308 12.156 13.308 11.592C 13.308 11.136 13.398 10.725 13.578 10.359C 13.764 9.987 14.019 9.672 14.343 9.414C 14.673 9.15 15.06 8.949 15.504 8.811C 15.954 8.673 16.443 8.604 16.971 8.604C 17.367 8.604 17.739 8.646 18.087 8.73C 18.435 8.808 18.753 8.925 19.041 9.081L 21.696 9.081ZM 25.2028 10.368C 25.4908 9.816 25.8328 9.384 26.2288 9.072C 26.6248 8.754 27.0928 8.595 27.6328 8.595C 28.0588 8.595 28.4008 8.688 28.6588 8.874L 28.5148 10.539C 28.4848 10.647 28.4398 10.725 28.3798 10.773C 28.3258 10.815 28.2508 10.836 28.1548 10.836C 28.0648 10.836 27.9298 10.821 27.7498 10.791C 27.5758 10.761 27.4048 10.746 27.2368 10.746C 26.9908 10.746 26.7718 10.782 26.5798 10.854C 26.3878 10.926 26.2138 11.031 26.0578 11.169C 25.9078 11.301 25.7728 11.463 25.6528 11.655C 25.5388 11.847 25.4308 12.066 25.3288 12.312L 25.3288 18L 23.1058 18L 23.1058 8.766L 24.4108 8.766C 24.6388 8.766 24.7978 8.808 24.8878 8.892C 24.9778 8.97 25.0378 9.114 25.0678 9.324L 25.2028 10.368ZM 35.506 12.321C 35.506 12.033 35.464 11.763 35.38 11.511C 35.302 11.253 35.182 11.028 35.02 10.836C 34.858 10.644 34.651 10.494 34.399 10.386C 34.153 10.272 33.865 10.215 33.535 10.215C 32.893 10.215 32.386 10.398 32.014 10.764C 31.648 11.13 31.414 11.649 31.312 12.321L 35.506 12.321ZM 31.267 13.662C 31.303 14.136 31.387 14.547 31.519 14.895C 31.651 15.237 31.825 15.522 32.041 15.75C 32.257 15.972 32.512 16.14 32.806 16.254C 33.106 16.362 33.436 16.416 33.796 16.416C 34.156 16.416 34.465 16.374 34.723 16.29C 34.987 16.206 35.215 16.113 35.407 16.011C 35.605 15.909 35.776 15.816 35.92 15.732C 36.07 15.648 36.214 15.606 36.352 15.606C 36.538 15.606 36.676 15.675 36.766 15.813L 37.405 16.623C 37.159 16.911 36.883 17.154 36.577 17.352C 36.271 17.544 35.95 17.7 35.614 17.82C 35.284 17.934 34.945 18.015 34.597 18.063C 34.255 18.111 33.922 18.135 33.598 18.135C 32.956 18.135 32.359 18.03 31.807 17.82C 31.255 17.604 30.775 17.289 30.367 16.875C 29.959 16.455 29.638 15.939 29.404 15.327C 29.17 14.709 29.053 13.995 29.053 13.185C 29.053 12.555 29.155 11.964 29.359 11.412C 29.563 10.854 29.854 10.371 30.232 9.963C 30.616 9.549 31.081 9.222 31.627 8.982C 32.179 8.742 32.8 8.622 33.49 8.622C 34.072 8.622 34.609 8.715 35.101 8.901C 35.593 9.087 36.016 9.36 36.37 9.72C 36.724 10.074 37 10.512 37.198 11.034C 37.402 11.55 37.504 12.141 37.504 12.807C 37.504 13.143 37.468 13.371 37.396 13.491C 37.324 13.605 37.186 13.662 36.982 13.662L 31.267 13.662ZM 42.5472 13.158C 42.8232 13.158 43.0632 13.122 43.2672 13.05C 43.4712 12.972 43.6392 12.867 43.7712 12.735C 43.9092 12.603 44.0112 12.444 44.0772 12.258C 44.1492 12.072 44.1852 11.868 44.1852 11.646C 44.1852 11.19 44.0472 10.83 43.7712 10.566C 43.5012 10.296 43.0932 10.161 42.5472 10.161C 42.0012 10.161 41.5902 10.296 41.3142 10.566C 41.0442 10.83 40.9092 11.19 40.9092 11.646C 40.9092 11.862 40.9422 12.063 41.0082 12.249C 41.0802 12.435 41.1822 12.597 41.3142 12.735C 41.4522 12.867 41.6232 12.972 41.8272 13.05C 42.0372 13.122 42.2772 13.158 42.5472 13.158ZM 45.0582 18.414C 45.0582 18.234 45.0042 18.087 44.8962 17.973C 44.7882 17.859 44.6412 17.772 44.4552 17.712C 44.2692 17.646 44.0502 17.598 43.7982 17.568C 43.5522 17.538 43.2882 17.517 43.0062 17.505C 42.7302 17.487 42.4422 17.472 42.1422 17.46C 41.8482 17.448 41.5602 17.424 41.2782 17.388C 41.0322 17.526 40.8312 17.688 40.6752 17.874C 40.5252 18.06 40.4502 18.276 40.4502 18.522C 40.4502 18.684 40.4892 18.834 40.5672 18.972C 40.6512 19.116 40.7802 19.239 40.9542 19.341C 41.1342 19.443 41.3652 19.521 41.6472 19.575C 41.9292 19.635 42.2742 19.665 42.6822 19.665C 43.0962 19.665 43.4532 19.632 43.7532 19.566C 44.0532 19.506 44.2992 19.419 44.4912 19.305C 44.6892 19.197 44.8332 19.065 44.9232 18.909C 45.0132 18.759 45.0582 18.594 45.0582 18.414ZM 47.2722 9.081L 47.2722 9.909C 47.2722 10.173 47.1132 10.335 46.7952 10.395L 45.9672 10.548C 46.0932 10.866 46.1562 11.214 46.1562 11.592C 46.1562 12.048 46.0632 12.462 45.8772 12.834C 45.6972 13.2 45.4452 13.512 45.1212 13.77C 44.7972 14.028 44.4132 14.229 43.9692 14.373C 43.5312 14.511 43.0572 14.58 42.5472 14.58C 42.3672 14.58 42.1932 14.571 42.0252 14.553C 41.8572 14.535 41.6922 14.511 41.5302 14.481C 41.2422 14.655 41.0982 14.85 41.0982 15.066C 41.0982 15.252 41.1822 15.39 41.3502 15.48C 41.5242 15.564 41.7522 15.624 42.0342 15.66C 42.3162 15.696 42.6372 15.72 42.9972 15.732C 43.3572 15.738 43.7262 15.756 44.1042 15.786C 44.4822 15.816 44.8512 15.87 45.2112 15.948C 45.5712 16.02 45.8922 16.137 46.1742 16.299C 46.4562 16.461 46.6812 16.683 46.8492 16.965C 47.0232 17.241 47.1102 17.598 47.1102 18.036C 47.1102 18.444 47.0082 18.84 46.8042 19.224C 46.6062 19.608 46.3152 19.95 45.9312 20.25C 45.5532 20.55 45.0852 20.79 44.5272 20.97C 43.9752 21.156 43.3452 21.249 42.6372 21.249C 41.9412 21.249 41.3352 21.18 40.8192 21.042C 40.3032 20.91 39.8742 20.73 39.5322 20.502C 39.1902 20.28 38.9352 20.022 38.7672 19.728C 38.5992 19.434 38.5152 19.128 38.5152 18.81C 38.5152 18.378 38.6442 18.018 38.9022 17.73C 39.1662 17.436 39.5262 17.202 39.9822 17.028C 39.7362 16.902 39.5412 16.734 39.3972 16.524C 39.2532 16.314 39.1812 16.038 39.1812 15.696C 39.1812 15.558 39.2052 15.417 39.2532 15.273C 39.3072 15.123 39.3822 14.976 39.4782 14.832C 39.5802 14.688 39.7062 14.553 39.8562 14.427C 40.0062 14.295 40.1832 14.178 40.3872 14.076C 39.9192 13.824 39.5502 13.488 39.2802 13.068C 39.0162 12.648 38.8842 12.156 38.8842 11.592C 38.8842 11.136 38.9742 10.725 39.1542 10.359C 39.3402 9.987 39.5952 9.672 39.9192 9.414C 40.2492 9.15 40.6362 8.949 41.0802 8.811C 41.5302 8.673 42.0192 8.604 42.5472 8.604C 42.9432 8.604 43.3152 8.646 43.6632 8.73C 44.0112 8.808 44.3292 8.925 44.6172 9.081L 47.2722 9.081ZM 53.56 14.058C 52.918 14.088 52.378 14.145 51.94 14.229C 51.502 14.307 51.151 14.409 50.887 14.535C 50.623 14.661 50.434 14.808 50.32 14.976C 50.206 15.144 50.149 15.327 50.149 15.525C 50.149 15.915 50.263 16.194 50.491 16.362C 50.725 16.53 51.028 16.614 51.4 16.614C 51.856 16.614 52.249 16.533 52.579 16.371C 52.915 16.203 53.242 15.951 53.56 15.615L 53.56 14.058ZM 48.466 10.053C 49.528 9.081 50.806 8.595 52.3 8.595C 52.84 8.595 53.323 8.685 53.749 8.865C 54.175 9.039 54.535 9.285 54.829 9.603C 55.123 9.915 55.345 10.29 55.495 10.728C 55.651 11.166 55.729 11.646 55.729 12.168L 55.729 18L 54.721 18C 54.511 18 54.349 17.97 54.235 17.91C 54.121 17.844 54.031 17.715 53.965 17.523L 53.767 16.857C 53.533 17.067 53.305 17.253 53.083 17.415C 52.861 17.571 52.63 17.703 52.39 17.811C 52.15 17.919 51.892 18 51.616 18.054C 51.346 18.114 51.046 18.144 50.716 18.144C 50.326 18.144 49.966 18.093 49.636 17.991C 49.306 17.883 49.021 17.724 48.781 17.514C 48.541 17.304 48.355 17.043 48.223 16.731C 48.091 16.419 48.025 16.056 48.025 15.642C 48.025 15.408 48.064 15.177 48.142 14.949C 48.22 14.715 48.346 14.493 48.52 14.283C 48.7 14.073 48.931 13.875 49.213 13.689C 49.495 13.503 49.84 13.341 50.248 13.203C 50.662 13.065 51.142 12.954 51.688 12.87C 52.234 12.78 52.858 12.726 53.56 12.708L 53.56 12.168C 53.56 11.55 53.428 11.094 53.164 10.8C 52.9 10.5 52.519 10.35 52.021 10.35C 51.661 10.35 51.361 10.392 51.121 10.476C 50.887 10.56 50.68 10.656 50.5 10.764C 50.32 10.866 50.155 10.959 50.005 11.043C 49.861 11.127 49.699 11.169 49.519 11.169C 49.363 11.169 49.231 11.13 49.123 11.052C 49.015 10.968 48.928 10.872 48.862 10.764L 48.466 10.053ZM 59.9196 10.368C 60.2076 9.816 60.5496 9.384 60.9456 9.072C 61.3416 8.754 61.8096 8.595 62.3496 8.595C 62.7756 8.595 63.1176 8.688 63.3756 8.874L 63.2316 10.539C 63.2016 10.647 63.1566 10.725 63.0966 10.773C 63.0426 10.815 62.9676 10.836 62.8716 10.836C 62.7816 10.836 62.6466 10.821 62.4666 10.791C 62.2926 10.761 62.1216 10.746 61.9536 10.746C 61.7076 10.746 61.4886 10.782 61.2966 10.854C 61.1046 10.926 60.9306 11.031 60.7746 11.169C 60.6246 11.301 60.4896 11.463 60.3696 11.655C 60.2556 11.847 60.1476 12.066 60.0456 12.312L 60.0456 18L 57.8226 18L 57.8226 8.766L 59.1276 8.766C 59.3556 8.766 59.5146 8.808 59.6046 8.892C 59.6946 8.97 59.7546 9.114 59.7846 9.324L 59.9196 10.368ZM 71.3087 6.912L 71.3087 10.764L 76.1867 10.764L 76.1867 12.699L 71.3087 12.699L 71.3087 18L 68.8787 18L 68.8787 4.986L 77.0867 4.986L 77.0867 6.912L 71.3087 6.912ZM 82.0004 8.622C 82.6844 8.622 83.3054 8.733 83.8634 8.955C 84.4274 9.177 84.9074 9.492 85.3034 9.9C 85.7054 10.308 86.0144 10.806 86.2304 11.394C 86.4464 11.982 86.5544 12.639 86.5544 13.365C 86.5544 14.097 86.4464 14.757 86.2304 15.345C 86.0144 15.933 85.7054 16.434 85.3034 16.848C 84.9074 17.262 84.4274 17.58 83.8634 17.802C 83.3054 18.024 82.6844 18.135 82.0004 18.135C 81.3104 18.135 80.6834 18.024 80.1194 17.802C 79.5554 17.58 79.0724 17.262 78.6704 16.848C 78.2744 16.434 77.9654 15.933 77.7434 15.345C 77.5274 14.757 77.4194 14.097 77.4194 13.365C 77.4194 12.639 77.5274 11.982 77.7434 11.394C 77.9654 10.806 78.2744 10.308 78.6704 9.9C 79.0724 9.492 79.5554 9.177 80.1194 8.955C 80.6834 8.733 81.3104 8.622 82.0004 8.622ZM 82.0004 16.425C 82.7684 16.425 83.3354 16.167 83.7014 15.651C 84.0734 15.135 84.2594 14.379 84.2594 13.383C 84.2594 12.387 84.0734 11.628 83.7014 11.106C 83.3354 10.584 82.7684 10.323 82.0004 10.323C 81.2204 10.323 80.6414 10.587 80.2634 11.115C 79.8914 11.637 79.7054 12.393 79.7054 13.383C 79.7054 14.373 79.8914 15.129 80.2634 15.651C 80.6414 16.167 81.2204 16.425 82.0004 16.425ZM 91.1526 18.144C 90.3486 18.144 89.7306 17.919 89.2986 17.469C 88.8726 17.013 88.6596 16.386 88.6596 15.588L 88.6596 10.431L 87.7146 10.431C 87.5946 10.431 87.4926 10.392 87.4086 10.314C 87.3246 10.236 87.2826 10.119 87.2826 9.963L 87.2826 9.081L 88.7676 8.838L 89.2356 6.318C 89.2656 6.198 89.3226 6.105 89.4066 6.039C 89.4906 5.973 89.5986 5.94 89.7306 5.94L 90.8826 5.94L 90.8826 8.847L 93.3486 8.847L 93.3486 10.431L 90.8826 10.431L 90.8826 15.435C 90.8826 15.723 90.9516 15.948 91.0896 16.11C 91.2336 16.272 91.4286 16.353 91.6746 16.353C 91.8126 16.353 91.9266 16.338 92.0166 16.308C 92.1126 16.272 92.1936 16.236 92.2596 16.2C 92.3316 16.164 92.3946 16.131 92.4486 16.101C 92.5026 16.065 92.5566 16.047 92.6106 16.047C 92.6766 16.047 92.7306 16.065 92.7726 16.101C 92.8146 16.131 92.8596 16.179 92.9076 16.245L 93.5736 17.325C 93.2496 17.595 92.8776 17.799 92.4576 17.937C 92.0376 18.075 91.6026 18.144 91.1526 18.144ZM 98.7875 8.622C 99.4715 8.622 100.093 8.733 100.651 8.955C 101.215 9.177 101.695 9.492 102.091 9.9C 102.493 10.308 102.802 10.806 103.018 11.394C 103.234 11.982 103.342 12.639 103.342 13.365C 103.342 14.097 103.234 14.757 103.018 15.345C 102.802 15.933 102.493 16.434 102.091 16.848C 101.695 17.262 101.215 17.58 100.651 17.802C 100.093 18.024 99.4715 18.135 98.7875 18.135C 98.0975 18.135 97.4705 18.024 96.9065 17.802C 96.3425 17.58 95.8595 17.262 95.4575 16.848C 95.0615 16.434 94.7525 15.933 94.5305 15.345C 94.3145 14.757 94.2065 14.097 94.2065 13.365C 94.2065 12.639 94.3145 11.982 94.5305 11.394C 94.7525 10.806 95.0615 10.308 95.4575 9.9C 95.8595 9.492 96.3425 9.177 96.9065 8.955C 97.4705 8.733 98.0975 8.622 98.7875 8.622ZM 98.7875 16.425C 99.5555 16.425 100.123 16.167 100.489 15.651C 100.861 15.135 101.047 14.379 101.047 13.383C 101.047 12.387 100.861 11.628 100.489 11.106C 100.123 10.584 99.5555 10.323 98.7875 10.323C 98.0075 10.323 97.4285 10.587 97.0505 11.115C 96.6785 11.637 96.4925 12.393 96.4925 13.383C 96.4925 14.373 96.6785 15.129 97.0505 15.651C 97.4285 16.167 98.0075 16.425 98.7875 16.425Z"/>
<path id="path3_fill" d="M 9.59444 4.64398e-07C 4.27778 4.64398e-07 -4.66241e-07 4.32174 -4.66241e-07 9.55652C -4.66241e-07 14.8522 4.27778 19.113 9.59444 19.113C 14.9111 19.113 19.1889 14.7913 19.1889 9.55652C 19.1889 4.32174 14.9111 4.64398e-07 9.59444 4.64398e-07ZM 9.59444 16.0087C 6.05 16.0087 3.17778 13.1478 3.17778 9.61739C 3.17778 6.08696 6.05 3.22609 9.59444 3.22609C 13.1389 3.22609 16.0111 6.08696 16.0111 9.61739C 16.0111 13.1478 13.1389 16.0087 9.59444 16.0087Z"/>
<path id="path4_fill" d="M 51.9444 4.13913L 36.1778 4.13913L 36.1778 3.04348C 36.1778 1.33913 34.8333 -2.32199e-07 33.1222 -2.32199e-07L 21.7556 -2.32199e-07C 20.1056 -2.32199e-07 18.7 1.33913 18.7 3.04348L 18.7 4.13913L 3.05556 4.13913C 1.40556 4.13913 0 5.47826 0 7.18261L 0 33.8435C 0 35.487 1.34444 36.887 3.05556 36.887L 51.9444 36.887C 53.5944 36.887 55 35.5478 55 33.8435L 55 7.18261C 55 5.47826 53.6556 4.13913 51.9444 4.13913ZM 51.2111 33.113L 3.78889 33.113L 3.78889 7.91304L 19.4333 7.91304C 21.0833 7.91304 22.4889 6.57391 22.4889 4.86956L 22.4889 3.77391L 32.3889 3.77391L 32.3889 4.86956C 32.3889 6.51304 33.7333 7.91304 35.4444 7.91304L 51.2111 7.91304L 51.2111 33.113Z"/>
<path id="path5_fill" d="M 7.39444 7.12174L 3.23889 0L -2.3312e-07 1.88696L 4.09444 9.0087L 7.39444 7.12174Z"/>
<path id="path6_fill" d="M 3.3 9.0087L 7.39444 1.88696L 4.15555 0L 0 7.12174L 3.3 9.0087Z"/>
<path id="path7_fill" d="M 3.78889 8.15652L 3.78889 0L 9.32482e-07 0L 9.32482e-07 8.15652L 3.78889 8.15652Z"/>
</defs>
</svg>
