<svg width="33" height="42" viewBox="0 0 33 42" version="1.1" xmlns="http://www.w3.org/2000/svg" xmlns:xlink="http://www.w3.org/1999/xlink">
<title>Group</title>
<desc>Created using Figma</desc>
<g id="Canvas" transform="translate(955 4676)">
<g id="Group">
<g id="Vector 8">
<use xlink:href="#path0_stroke" transform="translate(-953.721 -4675)" fill="#7DD1C4"/>
</g>
<g id="Group">
<g id="Group">
<g id="Fill 1">
<use xlink:href="#path1_fill" transform="translate(-937.323 -4653.9)" fill="#6A2499"/>
</g>
<g id="Fill 2">
<use xlink:href="#path2_fill" transform="translate(-938.19 -4655.51)" fill="#6A2499"/>
</g>
<g id="Fill 3">
<use xlink:href="#path3_fill" transform="translate(-935.922 -4656.13)" fill="#6A2499"/>
</g>
<g id="Fill 4">
<use xlink:href="#path4_fill" transform="translate(-933.655 -4655.51)" fill="#6A2499"/>
</g>
<g id="Fill 5">
<use xlink:href="#path5_fill" transform="translate(-940.867 -4668)" fill="#6A2499"/>
</g>
<g id="Fill 6">
<use xlink:href="#path6_fill" transform="translate(-945.537 -4664.15)" fill="#6A2499"/>
</g>
<g id="Fill 7">
<use xlink:href="#path7_fill" transform="translate(-946.135 -4659.13)" fill="#6A2499"/>
</g>
<g id="Fill 8">
<use xlink:href="#path8_fill" transform="translate(-947 -4653.61)" fill="#6A2499"/>
</g>
</g>
</g>
</g>
</g>
<defs>
<path id="path0_stroke" d="M 15.0469 40L 14.7488 40.4014L 15.0409 40.6184L 15.3372 40.4071L 15.0469 40ZM 0 28.8235L -0.5 28.8235L -0.5 29.075L -0.298141 29.2249L 0 28.8235ZM 0 0L 0 -0.5L -0.5 -0.5L -0.5 0L 0 0ZM 30.7208 0L 31.2208 0L 31.2208 -0.5L 30.7208 -0.5L 30.7208 0ZM 30.7208 28.8235L 31.0111 29.2306L 31.2208 29.0811L 31.2208 28.8235L 30.7208 28.8235ZM 15.3451 39.5986L 0.298141 28.4221L -0.298141 29.2249L 14.7488 40.4014L 15.3451 39.5986ZM 0.5 28.8235L 0.5 0L -0.5 0L -0.5 28.8235L 0.5 28.8235ZM 0 0.5L 30.7208 0.5L 30.7208 -0.5L 0 -0.5L 0 0.5ZM 30.2208 0L 30.2208 28.8235L 31.2208 28.8235L 31.2208 0L 30.2208 0ZM 30.4305 28.4164L 14.7566 39.5929L 15.3372 40.4071L 31.0111 29.2306L 30.4305 28.4164Z"/>
<path id="path1_fill" fill-rule="evenodd" d="M 2.35773 0C 1.05761 0 0 0.822564 0 1.83365C 0 2.3138 0.338615 2.60045 0.906007 2.60045C 1.16656 2.60045 1.45236 2.54504 1.72895 2.49164C 1.95768 2.44735 2.19419 2.40151 2.35773 2.40151C 2.50013 2.40151 2.72496 2.44528 2.94238 2.48769C 3.22718 2.54315 3.5214 2.60045 3.79283 2.60045C 4.37069 2.60028 4.71567 2.3138 4.71567 1.83348C 4.71589 0.822564 3.65806 0 2.35773 0ZM 3.93958 1.95184C 3.93921 1.95201 3.90734 1.97122 3.79266 1.97122C 3.60796 1.97122 3.35646 1.92231 3.11332 1.87494C 2.84273 1.82207 2.58691 1.77228 2.35756 1.77228C 2.10789 1.77228 1.82867 1.82633 1.55865 1.87854C 1.32335 1.92402 1.08027 1.97122 0.90583 1.97122C 0.807354 1.97122 0.77737 1.95562 0.776581 1.9568C 0.774897 1.95456 0.75354 1.92503 0.75354 1.83389C 0.75354 1.1701 1.47317 0.629883 2.35777 0.629883C 3.24242 0.629883 3.96199 1.1701 3.96199 1.83389C 3.96199 1.91115 3.94474 1.94635 3.93958 1.95184Z"/>
<path id="path2_fill" fill-rule="evenodd" d="M 2.05173 1.00507C 2.05173 0.450965 1.59144 0 1.02594 0C 0.460289 0 0 0.450965 0 1.00507C 0 1.55917 0.460289 2.01014 1.02594 2.01014C 1.59144 2.01014 2.05173 1.55917 2.05173 1.00507ZM 0.753845 1.00482C 0.753845 0.789882 0.897455 0.629395 1.02607 0.629395C 1.15453 0.629395 1.29814 0.789882 1.29814 1.00482C 1.29814 1.21975 1.15453 1.38024 1.02607 1.38024C 0.897666 1.38024 0.753845 1.21975 0.753845 1.00482Z"/>
<path id="path3_fill" fill-rule="evenodd" d="M 1.02579 2.01C 1.5915 2.01 2.05178 1.55922 2.05178 1.00489C 2.05178 0.450789 1.5915 0 1.02579 0C 0.460289 0 0 0.450789 0 1.00489C 0 1.55922 0.460289 2.01 1.02579 2.01ZM 1.02585 0.630371C 1.15426 0.630371 1.29814 0.790903 1.29814 1.00562C 1.29814 1.22055 1.15426 1.38104 1.02585 1.38104C 0.897447 1.38104 0.753784 1.22055 0.753784 1.00562C 0.753784 0.790903 0.897447 0.630371 1.02585 0.630371Z"/>
<path id="path4_fill" fill-rule="evenodd" d="M 1.026 0C 0.460289 0 0 0.450965 0 1.00507C 0 1.55917 0.460289 2.01014 1.026 2.01014C 1.59165 2.01014 2.05178 1.55917 2.05178 1.00507C 2.05178 0.450965 1.59165 0 1.026 0ZM 1.026 1.38024C 0.897544 1.38024 0.753723 1.21975 0.753723 1.00482C 0.753723 0.789882 0.897544 0.629395 1.026 0.629395C 1.15441 0.629395 1.29802 0.789882 1.29802 1.00482C 1.29802 1.21975 1.15441 1.38024 1.026 1.38024Z"/>
<path id="path5_fill" fill-rule="evenodd" d="M 9.14045 4.88889L 8.74139 4.88889L 8.74139 3.98151C 8.74139 3.5628 8.3337 3.22223 7.83249 3.22223L 6.34726 3.22223L 6.34726 2.3334L 6.96804 2.3334C 7.4692 2.3334 7.87689 1.99282 7.87689 1.57411L 7.87689 0.759239C 7.87689 0.340575 7.4692 0 6.96804 0L 3.161 0C 2.62896 0 1.82532 1.48326e-13 1.14741 0.419017C 0.375438 0.896568 0 1.76295 0 3.0679C 0 3.24183 0.168703 3.38276 0.376858 3.38276L 1.69218 3.38276C 1.90013 3.38276 2.06904 3.24183 2.06904 3.0679C 2.06904 2.75756 2.19892 2.55756 2.47793 2.43843C 2.72123 2.33458 2.98878 2.3334 2.99909 2.33322C 3.00172 2.3334 3.00461 2.3334 3.0075 2.3334L 5.59354 2.3334L 5.59354 3.22223L 4.1083 3.22223C 3.6073 3.22223 3.1994 3.5628 3.1994 3.98151L 3.1994 4.88889L 2.80056 4.88889C 1.29702 4.88889 0.0739619 5.91062 0.0739619 7.16665L 0.0739619 17.6851C 0.0739619 17.8589 0.242664 18 0.45082 18L 11.4902 18C 11.6983 18 11.867 17.8589 11.867 17.6851L 11.867 7.16665C 11.867 5.91062 10.6438 4.88889 9.14045 4.88889ZM 2.99994 1.70497C 2.47842 1.70497 1.54143 1.93326 1.3499 2.75429L 0.76178 2.75429C 0.878088 0.630859 2.19073 0.630859 3.16086 0.630859L 6.9679 0.630859C 7.05338 0.630859 7.12303 0.689043 7.12303 0.760453L 7.12303 1.57533C 7.12303 1.64674 7.05338 1.70497 6.9679 1.70497L 2.99994 1.70497ZM 3.953 3.98218C 3.953 3.91077 4.0227 3.85254 4.10819 3.85254L 7.83237 3.85254C 7.91785 3.85254 7.98756 3.91077 7.98756 3.98218L 7.98756 4.88956L 3.953 4.88956L 3.953 3.98218ZM 2.80058 5.51953L 9.14047 5.51953C 10.2283 5.51953 11.1133 6.25886 11.1133 7.16765L 11.1133 8.03077C 10.3436 7.98542 8.37397 8.01513 6.65448 9.26313C 5.61102 10.0203 4.4007 10.3758 3.2465 10.2644C 2.27827 10.171 1.4195 9.74411 0.827698 9.06243L 0.827698 7.16765C 0.827698 6.25886 1.71277 5.51953 2.80058 5.51953ZM 0.827698 17.3706L 0.827698 10.0021C 1.47705 10.4954 2.28069 10.8043 3.15997 10.8892C 3.32809 10.9053 3.49695 10.9134 3.66629 10.9134C 4.87251 10.9134 6.09188 10.5045 7.14865 9.73771C 8.69207 8.61781 10.5125 8.62467 11.1133 8.66277L 11.1133 17.3706L 0.827698 17.3706Z"/>
<path id="path6_fill" fill-rule="evenodd" d="M 1.30796 2.18508C 2.02901 2.18508 2.61586 1.69501 2.61586 1.09265C 2.61586 0.49012 2.02901 0 1.30796 0C 0.586698 0 0 0.49012 0 1.09265C 0 1.69501 0.586698 2.18508 1.30796 2.18508ZM 1.30797 0.628906C 1.6135 0.628906 1.86216 0.836459 1.86216 1.09191C 1.86216 1.34715 1.6135 1.55487 1.30797 1.55487C 1.00239 1.55487 0.753784 1.34715 0.753784 1.09191C 0.753784 0.836459 1.00239 0.628906 1.30797 0.628906Z"/>
<path id="path7_fill" fill-rule="evenodd" d="M 2.23895 0C 1.00438 0 0 0.838868 0 1.87022C 0 2.90156 1.00438 3.74065 2.23895 3.74065C 3.47353 3.74065 4.47796 2.90156 4.47796 1.87022C 4.47796 0.838868 3.47353 0 2.23895 0ZM 2.23902 3.11075C 1.41997 3.11075 0.753784 2.55419 0.753784 1.86996C 0.753784 1.18592 1.41997 0.629395 2.23902 0.629395C 3.05786 0.629395 3.72425 1.18592 3.72425 1.86996C 3.72425 2.55419 3.05786 3.11075 2.23902 3.11075Z"/>
<path id="path8_fill" fill-rule="evenodd" d="M 1.26356 0C 0.566708 0 0 0.473596 0 1.05552C 0 1.63761 0.566708 2.11108 1.26356 2.11108C 1.96036 2.11108 2.52707 1.63761 2.52707 1.05552C 2.52707 0.473596 1.96015 0 1.26356 0ZM 1.26369 1.48331C 0.982569 1.48331 0.753845 1.29224 0.753845 1.05722C 0.753845 0.822421 0.982569 0.631348 1.26369 0.631348C 1.54475 0.631348 1.77348 0.822421 1.77348 1.05722C 1.77348 1.29224 1.54475 1.48331 1.26369 1.48331Z"/>
</defs>
</svg>
