<svg width="33" height="42" viewBox="0 0 33 42" version="1.1" xmlns="http://www.w3.org/2000/svg" xmlns:xlink="http://www.w3.org/1999/xlink">
<title>Group</title>
<desc>Created using Figma</desc>
<g id="Canvas" transform="translate(1063 4676)">
<g id="Group">
<g id="Vector 8">
<use xlink:href="#path0_stroke" transform="translate(-1062 -4675)" fill="#7DD1C4"/>
</g>
<g id="028-pet copy">
<g id="Fill 1">
<use xlink:href="#path1_fill" transform="translate(-1049.97 -4661.56)" fill="#6A2499"/>
</g>
<g id="Fill 2">
<use xlink:href="#path2_fill" transform="translate(-1050.83 -4664.17)" fill="#6A2499"/>
</g>
<g id="Fill 3">
<use xlink:href="#path3_fill" transform="translate(-1046.52 -4664.17)" fill="#6A2499"/>
</g>
<g id="Fill 4">
<use xlink:href="#path4_fill" transform="translate(-1043.08 -4656.33)" fill="#6A2499"/>
</g>
<g id="Fill 5">
<use xlink:href="#path5_fill" transform="translate(-1039.63 -4656.33)" fill="#6A2499"/>
</g>
<g id="Fill 6">
<use xlink:href="#path6_fill" transform="translate(-1042.65 -4647.63)" fill="#6A2499"/>
</g>
<g id="Fill 7">
<use xlink:href="#path7_fill" transform="translate(-1040.06 -4647.63)" fill="#6A2499"/>
</g>
<g id="Fill 8">
<use xlink:href="#path8_fill" transform="translate(-1056 -4672)" fill="#6A2499"/>
</g>
</g>
</g>
</g>
<defs>
<path id="path0_stroke" d="M 15.0469 40L 14.7488 40.4014L 15.0409 40.6184L 15.3372 40.4071L 15.0469 40ZM 0 28.8235L -0.5 28.8235L -0.5 29.075L -0.29814 29.2249L 0 28.8235ZM 0 0L 0 -0.5L -0.5 -0.5L -0.5 0L 0 0ZM 30.7208 0L 31.2208 0L 31.2208 -0.5L 30.7208 -0.5L 30.7208 0ZM 30.7208 28.8235L 31.0111 29.2306L 31.2208 29.0811L 31.2208 28.8235L 30.7208 28.8235ZM 15.3451 39.5986L 0.29814 28.4221L -0.29814 29.2249L 14.7488 40.4014L 15.3451 39.5986ZM 0.5 28.8235L 0.5 0L -0.5 0L -0.5 28.8235L 0.5 28.8235ZM 0 0.5L 30.7208 0.5L 30.7208 -0.5L 0 -0.5L 0 0.5ZM 30.2208 0L 30.2208 28.8235L 31.2208 28.8235L 31.2208 0L 30.2208 0ZM 30.4305 28.4164L 14.7566 39.5929L 15.3372 40.4071L 31.0111 29.2306L 30.4305 28.4164Z"/>
<path id="path1_fill" fill-rule="evenodd" d="M 3.25285 0.13914C 3.12058 -0.0235496 2.88299 -0.0468454 2.72218 0.0865817C 2.45537 0.308241 2.07169 0.435193 1.6694 0.435193C 1.26686 0.435193 0.883168 0.308241 0.616358 0.0865817C 0.455367 -0.0468454 0.217965 -0.0232957 0.0856909 0.13914C -0.0463945 0.301512 -0.0232702 0.541579 0.137721 0.675197C 0.542963 1.01168 1.08695 1.19691 1.6694 1.19691C 2.25191 1.19691 2.79583 1.01168 3.20107 0.675197C 3.36188 0.541579 3.38519 0.301512 3.25285 0.13914Z"/>
<path id="path2_fill" fill-rule="evenodd" d="M 0.377028 0C 0.168846 0 0 0.170561 0 0.380858L 0 0.815987C 0 1.02647 0.168846 1.19684 0.377028 1.19684C 0.585148 1.19684 0.754056 1.02647 0.754056 0.815987L 0.754056 0.380858C 0.754056 0.170561 0.585148 0 0.377028 0Z"/>
<path id="path3_fill" fill-rule="evenodd" d="M 0.377028 0C 0.168909 0 0 0.170307 0 0.380858L 0 0.815987C 0 1.02622 0.168909 1.19684 0.377028 1.19684C 0.58521 1.19684 0.754056 1.02622 0.754056 0.815987L 0.754056 0.380858C 0.754056 0.170307 0.58521 0 0.377028 0Z"/>
<path id="path4_fill" fill-rule="evenodd" d="M 0.377028 0C 0.168657 0 0 0.170624 0 0.380858L 0 0.816051C 0 1.02628 0.168657 1.19691 0.377028 1.19691C 0.58521 1.19691 0.754056 1.02628 0.754056 0.816051L 0.754056 0.380858C 0.754056 0.170624 0.58521 0 0.377028 0Z"/>
<path id="path5_fill" fill-rule="evenodd" d="M 0.377028 0C 0.168909 0 0 0.170624 0 0.380858L 0 0.816051C 0 1.02628 0.168909 1.19691 0.377028 1.19691C 0.58521 1.19691 0.754056 1.02628 0.754056 0.816051L 0.754056 0.380858C 0.754056 0.170624 0.58521 0 0.377028 0Z"/>
<path id="path6_fill" fill-rule="evenodd" d="M 0.377028 0C 0.168594 0 0 0.170307 0 0.380858L 0 1.25093C 0 1.46141 0.168594 1.63178 0.377028 1.63178C 0.585148 1.63178 0.754056 1.46141 0.754056 1.25093L 0.754056 0.380858C 0.754056 0.170307 0.585148 0 0.377028 0Z"/>
<path id="path7_fill" fill-rule="evenodd" d="M 0.377028 0C 0.168846 0 0 0.170307 0 0.380858L 0 1.25093C 0 1.46141 0.168846 1.63178 0.377028 1.63178C 0.585148 1.63178 0.754056 1.46141 0.754056 1.25093L 0.754056 0.380858C 0.754056 0.170307 0.585148 0 0.377028 0Z"/>
<path id="path8_fill" fill-rule="evenodd" d="M 20.9366 14.0942C 20.0495 12.7498 18.3371 11.4448 18.2645 11.3898C 18.1145 11.2762 17.9044 11.2911 17.7718 11.4252L 16.9361 12.2693C 16.373 11.939 15.7198 11.7488 15.0229 11.7488C 14.6472 11.7488 14.2843 11.8049 13.9409 11.9073C 13.8125 10.5299 13.6771 8.49414 13.6771 6.03767C 13.6771 2.7084 10.9956 0 7.70011 0C 4.40432 0 1.72314 2.7084 1.72314 6.03767C 1.72314 10.3082 1.30043 13.3508 1.29603 13.3811C 1.27322 13.5435 1.35567 13.7024 1.50076 13.7756C 1.5702 13.8108 3.17206 14.6152 4.85499 15.066C 4.79756 15.1163 4.73346 15.1602 4.66327 15.1959L 0.922713 17.085C 0.353715 17.3724 0 17.9504 0 18.5933L 0 20.3972C 0 20.7096 0.174753 20.9814 0.430755 21.1185L 0.430755 25.6189C 0.430755 25.8294 0.599663 25.9997 0.807783 25.9997C 1.01596 25.9997 1.18481 25.8294 1.18481 25.6189L 1.18481 21.2132L 2.58472 21.2132L 2.58472 25.6189C 2.58472 25.8294 2.75331 25.9997 2.96174 25.9997C 3.16986 25.9997 3.33877 25.8294 3.33877 25.6189L 3.33877 19.9623C 3.33877 19.7518 3.16986 19.5814 2.96174 19.5814C 2.75331 19.5814 2.58472 19.7518 2.58472 19.9623L 2.58472 20.4515L 0.807783 20.4515C 0.778123 20.4515 0.754056 20.4272 0.754056 20.3972L 0.754056 18.5933C 0.754056 18.2407 0.947974 17.9239 1.25996 17.7664L 3.28008 16.7461C 3.93303 18.6248 5.70129 19.908 7.70011 19.908C 9.16329 19.908 10.5067 19.2333 11.3842 18.1009C 11.5335 18.5693 11.7718 19.0069 12.088 19.3898C 12.1353 19.6563 12.2443 19.9013 12.4002 20.1088L 11.6343 25.5656C 11.6052 25.7738 11.7485 25.9665 11.9547 25.996C 11.9726 25.9987 11.9905 26 12.0082 26C 12.1928 26 12.3543 25.8626 12.381 25.6724L 13.0863 20.6474C 13.1503 20.6744 13.2166 20.6974 13.2846 20.7166C 13.6732 21.2948 14.3256 21.6484 15.0232 21.6484C 15.7176 21.6484 16.373 21.2941 16.7615 20.7166C 16.829 20.6974 16.8951 20.6747 16.9592 20.6476L 17.6651 25.6724C 17.6919 25.8626 17.8531 26 18.038 26C 18.0556 26 18.0735 25.9987 18.0914 25.996C 18.2977 25.9665 18.441 25.7736 18.4118 25.5656L 17.6452 20.1098C 17.8013 19.902 17.9108 19.6568 17.9582 19.3898C 18.4766 18.7624 18.7832 17.9881 18.8367 17.1743C 20.1334 16.5351 20.9376 14.5368 20.9732 14.4468C 21.0191 14.3303 21.0056 14.1984 20.9366 14.0942ZM 2.47686 6.03767C 2.47711 3.12843 4.82002 0.761719 7.70001 0.761719C 10.5798 0.761719 12.9227 3.12843 12.9227 6.03767C 12.9227 8.66451 13.0761 10.8167 13.2124 12.2102C 13.1777 12.2291 13.1439 12.2492 13.1097 12.2693L 12.2742 11.4252C 12.2707 11.4217 12.2673 11.4191 12.2641 11.4158C 12.57 10.8076 12.7599 10.1307 12.8048 9.41429C 12.8118 9.38579 12.8154 9.08358 12.8154 9.08358C 12.8154 6.819 11.1188 6.41929 9.1544 5.95662C 8.09816 5.70792 6.90078 5.42576 5.71471 4.82667C 5.5289 4.73292 5.30287 4.80909 5.20905 4.99628C 5.2012 5.01215 4.41158 6.5604 2.90962 6.96329C 2.75347 6.96976 2.60498 7.00594 2.46875 7.06567C 2.4739 6.73172 2.47686 6.38876 2.47686 6.03767ZM 12.0614 9.08318C 12.0614 11.5126 10.1049 13.4888 7.70008 13.4888C 5.29508 13.4888 3.33849 11.5126 3.33849 9.08318C 3.33849 8.87288 3.16984 8.70232 2.96147 8.70232C 2.6944 8.70232 2.47717 8.48289 2.47717 8.21286C 2.47717 7.94308 2.6944 7.72365 2.96147 7.72365C 2.99238 7.72365 3.02305 7.71965 3.05302 7.71222C 4.46612 7.35517 5.338 6.22573 5.69611 5.66162C 6.85126 6.19596 7.9787 6.46155 8.98336 6.69806C 11.0622 7.18778 12.0614 7.49374 12.0614 9.08318ZM 2.07849 13.2104C 2.14749 12.6443 2.30037 11.2478 2.39563 9.3252C 2.45923 9.35846 2.52552 9.38645 2.59471 9.40829C 2.70467 11.1915 3.71423 12.7326 5.16937 13.5726L 5.16937 14.3611C 3.88973 14.0331 2.59961 13.4561 2.07849 13.2104ZM 7.70005 19.1454C 5.99067 19.1454 4.4823 18.0272 3.96094 16.4014L 5.00047 15.8764C 5.56972 15.5891 5.92318 15.011 5.92318 14.3681L 5.92318 13.9287C 6.47691 14.1365 7.07538 14.2506 7.70005 14.2506C 8.20175 14.2506 8.6868 14.177 9.14558 14.0403C 9.13357 14.0579 9.12101 14.0758 9.10925 14.0936C 9.04051 14.1978 9.02675 14.3297 9.07294 14.4462C 9.10775 14.534 9.87682 16.4455 11.1223 17.1286C 10.4242 18.3773 9.13037 19.1454 7.70005 19.1454ZM 11.2 15.6105L 11.2 16.2696C 10.5866 15.7774 10.0861 14.8691 9.85217 14.3492C 10.4887 13.4623 11.5054 12.5875 11.9776 12.2026L 12.4909 12.7209C 11.6998 13.4288 11.2 14.4615 11.2 15.6105ZM 15.0227 20.8865C 14.7648 20.8865 14.5166 20.8104 14.3046 20.6752C 14.5878 20.5701 14.8352 20.3896 15.0227 20.1577C 15.2113 20.3903 15.4594 20.5713 15.7439 20.6762C 15.5326 20.8116 15.2846 20.8865 15.0227 20.8865ZM 14.5383 18.2218C 14.5383 17.952 14.7558 17.7324 15.0229 17.7324C 15.2902 17.7324 15.5074 17.952 15.5074 18.2218C 15.5074 18.4916 15.2902 18.7113 15.0229 18.7113C 14.7558 18.7113 14.5383 18.4916 14.5383 18.2218ZM 18.0925 16.9164C 18.0925 17.3942 17.9833 17.8601 17.7783 18.2814C 17.6887 18.1162 17.5721 17.9654 17.4307 17.837C 17.2758 17.6967 17.0373 17.7096 16.8983 17.866C 16.7591 18.0225 16.7719 18.2633 16.9268 18.4039C 17.1199 18.5791 17.2309 18.8301 17.2309 19.092C 17.2309 19.6017 16.8203 20.0166 16.3156 20.0166C 15.9162 20.0166 15.5768 19.7564 15.452 19.3957C 15.9243 19.2189 16.2618 18.7594 16.2618 18.2218C 16.2618 17.5318 15.7061 16.9707 15.0232 16.9707C 14.3404 16.9707 13.7846 17.5318 13.7846 18.2218C 13.7846 18.7594 14.1224 19.2189 14.5944 19.3957C 14.4698 19.7564 14.1302 20.0166 13.7309 20.0166C 13.2263 20.0166 12.8155 19.602 12.8155 19.092C 12.8155 18.8294 12.927 18.5782 13.1209 18.4029C 13.2761 18.2625 13.2893 18.0218 13.1504 17.865C 13.0115 17.7084 12.7731 17.695 12.618 17.8353C 12.4756 17.964 12.358 18.1155 12.268 18.2814C 12.0635 17.8596 11.9542 17.3932 11.9542 16.9164L 11.9542 15.6109C 11.9542 13.9015 13.3311 12.5107 15.0232 12.5107C 16.7155 12.5107 18.0925 13.9015 18.0925 15.6109L 18.0925 16.9164ZM 18.8463 16.2703L 18.8463 15.6108C 18.8463 14.4618 18.3463 13.4291 17.5554 12.7211L 18.0687 12.2026C 18.5407 12.5872 19.5569 13.4615 20.1941 14.3497C 19.9609 14.8699 19.4609 15.7781 18.8463 16.2703Z"/>
</defs>
</svg>
