<?xml version="1.0" encoding="utf-8"?>
<!-- Generator: Adobe Illustrator 19.0.0, SVG Export Plug-In . SVG Version: 6.00 Build 0)  -->
<svg version="1.1" id="Capa_1" xmlns="http://www.w3.org/2000/svg" xmlns:xlink="http://www.w3.org/1999/xlink" x="0px" y="0px"
	 viewBox="-4 2 20 20" style="enable-background:new -4 2 20 20;" xml:space="preserve">
<style type="text/css">
	.st0{fill:#5FC3AF;}
	.st1{fill:none;stroke:#5FC3AF;stroke-width:0.6419;stroke-miterlimit:10;}
</style>
<path id="XMLID_20_" class="st0" d="M11.9,4.1c-0.3,0-0.5-0.4-0.5-0.7c0-0.3,0.3-0.6,0.7-0.5c0.3,0,0.5,0.4,0.5,0.7
	C12.5,4,12.2,4.2,11.9,4.1z M0.4,9.3c-0.2,0.2-0.6,0.2-0.8,0c-0.2-0.2-0.2-0.6,0-0.9c0.2-0.2,0.6-0.2,0.8,0C0.6,8.7,0.6,9.1,0.4,9.3
	z M2.7,4.3C2.4,4.4,2,4.2,2,3.9C1.9,3.6,2,3.2,2.4,3.1C2.7,3.1,3,3.2,3.1,3.6C3.2,3.9,3,4.2,2.7,4.3z M7,3.4c0-0.3,0.3-0.6,0.6-0.6
	s0.6,0.3,0.6,0.6S7.9,4,7.6,4C7.3,4,7,3.7,7,3.4z M12.1,2.7c-0.5-0.1-0.9,0.3-1,0.7c-0.1,0.4,0.1,0.8,0.4,0.9l-1,6l0,0.6l-1.1,6.2
	l-0.1,1.1l-1.6-1.6V11l0.1-0.6V4.3c0.3-0.1,0.6-0.5,0.6-0.9c0-0.5-0.4-0.9-0.9-0.9c-0.5,0-0.9,0.4-0.9,0.9c0,0.4,0.3,0.7,0.6,0.9
	v6.1L7.5,11v5.3l-2-2.1l-0.9-3.3v-0.6L3.1,4.4c0.3-0.2,0.5-0.6,0.3-1C3.3,3,2.9,2.7,2.4,2.8S1.7,3.4,1.8,3.9
	c0.1,0.4,0.4,0.6,0.8,0.6L4,10.5l0.3,0.6L5,13.6L0.8,9.3c0.2-0.3,0.1-0.7-0.2-1c-0.3-0.3-0.9-0.3-1.2,0C-1,8.6-1,9.1-0.6,9.5
	c0.3,0.3,0.7,0.3,1,0.2L4.6,14l0.5,0.3l0.1,0.1l0.7,2.7l1.2,3.9L6.2,17l-0.6-2.2l1.8,1.9v0.5l0.1,4l0.1-4V17l1.5,1.5l-0.3,2.6
	l0.5-2.4l0,0l2.9,2.7l-2.7-3l-0.2-0.2l0.3-1.2l1.1-6.2l0.3-0.6l1-6c0.3,0,0.6-0.3,0.7-0.7C12.9,3.2,12.6,2.8,12.1,2.7z"/>
<path id="XMLID_1_" class="st1" d="M11.9,4.1c-0.3,0-0.5-0.4-0.5-0.7c0-0.3,0.3-0.6,0.7-0.5c0.3,0,0.5,0.4,0.5,0.7
	C12.5,4,12.2,4.2,11.9,4.1z M0.4,9.3c-0.2,0.2-0.6,0.2-0.8,0c-0.2-0.2-0.2-0.6,0-0.9c0.2-0.2,0.6-0.2,0.8,0C0.6,8.7,0.6,9.1,0.4,9.3
	z M2.7,4.3C2.4,4.4,2,4.2,2,3.9C1.9,3.6,2,3.2,2.4,3.1C2.7,3.1,3,3.2,3.1,3.6C3.2,3.9,3,4.2,2.7,4.3z M7,3.4c0-0.3,0.3-0.6,0.6-0.6
	s0.6,0.3,0.6,0.6S7.9,4,7.6,4C7.3,4,7,3.7,7,3.4z M12.1,2.7c-0.5-0.1-0.9,0.3-1,0.7c-0.1,0.4,0.1,0.8,0.4,0.9l-1,6l0,0.6l-1.1,6.2
	l-0.1,1.1l-1.6-1.6V11l0.1-0.6V4.3c0.3-0.1,0.6-0.5,0.6-0.9c0-0.5-0.4-0.9-0.9-0.9c-0.5,0-0.9,0.4-0.9,0.9c0,0.4,0.3,0.7,0.6,0.9
	v6.1L7.5,11v5.3l-2-2.1l-0.9-3.3v-0.6L3.1,4.4c0.3-0.2,0.5-0.6,0.3-1C3.3,3,2.9,2.7,2.4,2.8S1.7,3.4,1.8,3.9
	c0.1,0.4,0.4,0.6,0.8,0.6L4,10.5l0.3,0.6L5,13.6L0.8,9.3c0.2-0.3,0.1-0.7-0.2-1c-0.3-0.3-0.9-0.3-1.2,0C-1,8.6-1,9.1-0.6,9.5
	c0.3,0.3,0.7,0.3,1,0.2L4.6,14l0.5,0.3l0.1,0.1l0.7,2.7l1.2,3.9L6.2,17l-0.6-2.2l1.8,1.9v0.5l0.1,4l0.1-4V17l1.5,1.5l-0.3,2.6
	l0.5-2.4l0,0l2.9,2.7l-2.7-3l-0.2-0.2l0.3-1.2l1.1-6.2l0.3-0.6l1-6c0.3,0,0.6-0.3,0.7-0.7C12.9,3.2,12.6,2.8,12.1,2.7z"/>
</svg>
