<?xml version="1.0" encoding="utf-8"?>
<!-- Generator: Adobe Illustrator 19.0.0, SVG Export Plug-In . SVG Version: 6.00 Build 0)  -->
<svg version="1.1" id="Capa_1" xmlns="http://www.w3.org/2000/svg" xmlns:xlink="http://www.w3.org/1999/xlink" x="0px" y="0px"
	 viewBox="0 0 20 20" style="enable-background:new 0 0 20 20;" xml:space="preserve">
<style type="text/css">
	.st0{fill:#7DD1C4;}
</style>
<path id="path1_fill" class="st0" d="M5.4,9.6C5,9.2,4.4,9.1,3.9,9.4V5.3c0-0.2-0.1-0.4-0.1-0.6c0.1,0,0.1,0,0.2,0
	c0.3,0,0.6,0.3,0.6,0.6v3.1c0,0.2,0.1,0.3,0.3,0.3c0.2,0,0.3-0.1,0.3-0.3V5.3C5.2,4.6,4.6,4,4,4C3.7,4,3.5,4.1,3.3,4.2
	C3.2,4.1,2.9,4,2.7,4C2,4,1.5,4.6,1.5,5.3l0,5.9c0,0.3,0.1,0.6,0.2,0.9c0,0,0,0,0,0l3.6,6c0.1,0.1,0.1,0.4,0.1,0.6v1.2
	c0,0.2,0.1,0.3,0.3,0.3c0.2,0,0.3-0.1,0.3-0.3v-1.2c0-0.3-0.1-0.6-0.2-0.9c0,0,0,0,0,0l-3.6-6c-0.1-0.1-0.1-0.4-0.1-0.6l0-5.9
	c0-0.3,0.3-0.6,0.6-0.6c0.3,0,0.6,0.3,0.6,0.6v5.2c0,0,0,0,0,0c0,0.3,0.1,0.6,0.4,0.9l2.8,2.9c0.1,0.1,0.3,0.1,0.4,0
	c0.1-0.1,0.1-0.3,0-0.5l-2.8-2.9c-0.2-0.2-0.2-0.6,0-0.9c0.2-0.2,0.6-0.2,0.8,0l3.4,3.5c0.4,0.4,0.7,1.2,0.7,1.7v4.3
	c0,0.2,0.1,0.3,0.3,0.3c0.2,0,0.3-0.1,0.3-0.3v-4.3c0-0.7-0.4-1.7-0.9-2.2L5.4,9.6z"/>
<path id="path2_fill" class="st0" d="M17.3,4c-0.2,0-0.4,0.1-0.6,0.2C16.5,4.1,16.3,4,16,4c-0.7,0-1.2,0.6-1.2,1.2v3.1
	c0,0.2,0.1,0.3,0.3,0.3c0.2,0,0.3-0.1,0.3-0.3V5.3c0-0.3,0.3-0.6,0.6-0.6c0.1,0,0.1,0,0.2,0c-0.1,0.2-0.1,0.4-0.1,0.6v4.2
	c-0.2-0.1-0.4-0.2-0.6-0.2c-0.3,0-0.6,0.1-0.9,0.4l-3.4,3.5c-0.5,0.5-0.9,1.5-0.9,2.2v4.3c0,0.2,0.1,0.3,0.3,0.3
	c0.2,0,0.3-0.1,0.3-0.3v-4.3c0-0.6,0.3-1.4,0.7-1.7l3.4-3.5c0.1-0.1,0.3-0.2,0.4-0.2c0.2,0,0.3,0.1,0.4,0.2c0.1,0.1,0.2,0.3,0.2,0.4
	c0,0.2-0.1,0.3-0.2,0.4l-2.8,2.9c-0.1,0.1-0.1,0.3,0,0.5c0.1,0.1,0.3,0.1,0.4,0l2.8-2.9c0.2-0.2,0.4-0.5,0.4-0.9V5.3
	c0-0.3,0.3-0.6,0.6-0.6c0.3,0,0.6,0.3,0.6,0.6l0,5.9c0,0.2-0.1,0.4-0.1,0.6l-3.6,6c0,0,0,0,0,0c-0.1,0.2-0.2,0.6-0.2,0.9v1.2
	c0,0.2,0.1,0.3,0.3,0.3c0.2,0,0.3-0.1,0.3-0.3v-1.2c0-0.2,0.1-0.4,0.1-0.6l3.6-6c0,0,0,0,0,0c0.1-0.2,0.2-0.6,0.2-0.9l0-5.9
	C18.5,4.6,18,4,17.3,4z"/>
<path id="path3_fill" class="st0" d="M9.8,2.5c-0.2,0-0.3,0.1-0.3,0.3v3.4c0,0.5-0.4,0.9-0.9,0.9c-0.5,0-0.9-0.4-0.9-0.9V2.9
	c0-1.3,0.9-2.2,2.1-2.2c1.2,0,2.1,1,2.1,2.2c0,0.2,0.1,0.3,0.3,0.3h1.5c0,0.2,0,0.5,0,0.9c0,0.5-0.4,0.9-0.9,0.9h-0.6
	C12.1,5,12,5.1,12,5.3v5.3c0,0.2,0.1,0.3,0.3,0.3c0.2,0,0.3-0.1,0.3-0.3v-5h0.3c0.8,0,1.5-0.7,1.5-1.5c0-0.7,0-1.2,0-1.2
	c0-0.2-0.1-0.3-0.3-0.3h-1.5c-0.1-0.6-0.3-1.2-0.8-1.7C11.3,0.3,10.6,0,9.8,0c-0.7,0-1.4,0.3-2,0.8c-0.5,0.5-0.8,1.3-0.8,2v3.2
	L5.9,7.3c-0.1,0.1-0.1,0.3,0,0.5C6,7.8,6,7.8,6.1,7.8c0.1,0,0.2,0,0.2-0.1l0.9-0.9C7.4,7.4,8,7.8,8.6,7.8c0.8,0,1.5-0.7,1.5-1.6V2.8
	C10.1,2.7,10,2.5,9.8,2.5z"/>
</svg>
