<?xml version="1.0" encoding="utf-8"?>
<!-- Generator: Adobe Illustrator 21.1.0, SVG Export Plug-In . SVG Version: 6.00 Build 0)  -->
<svg version="1.1" id="Capa_1" xmlns="http://www.w3.org/2000/svg" xmlns:xlink="http://www.w3.org/1999/xlink" x="0px" y="0px"
	 viewBox="0 0 20 20" style="enable-background:new 0 0 20 20;" xml:space="preserve">
<style type="text/css">
	.st0{fill:#61C3AE;stroke:#61C3AE;stroke-width:0.25;stroke-miterlimit:10;}
</style>
<path class="st0" d="M18.3,15.4h-0.9c-0.1,0-0.2-0.1-0.2-0.2c0-0.1,0.1-0.2,0.2-0.2h0.9c0.4,0,0.6-0.3,0.6-0.7v-3
	c0-0.4-0.2-1.1-0.4-1.5l-2.2-4c-0.2-0.4-0.7-0.6-1.1-0.6h-1.4c-0.4,0-0.6,0.3-0.6,0.7v3.8c0,0.4,0.3,0.7,0.6,0.7h3.1
	c0.1,0,0.2,0.1,0.2,0.2c0,0.1-0.1,0.2-0.2,0.2h-3.1c-0.6,0-1.1-0.5-1.1-1.1V5.8c0-0.6,0.5-1.1,1.1-1.1h1.4c0.6,0,1.2,0.4,1.5,0.9
	l2.2,4c0.3,0.5,0.5,1.2,0.5,1.7v3C19.4,14.9,18.9,15.4,18.3,15.4z"/>
<path class="st0" d="M10.5,2.4H2c-0.6,0-1.1,0.5-1.1,1.1v10.9c0,0.6,0.5,1.1,1.1,1.1h1.8C4,16.3,4.7,17,5.6,17c1,0,1.8-0.8,1.8-1.8
	c0-1-0.8-1.8-1.8-1.8c-0.3,0-0.7,0.1-0.9,0.3c-0.1,0.1-0.1,0.2-0.1,0.3c0.1,0.1,0.2,0.1,0.3,0.1c0.2-0.1,0.5-0.2,0.7-0.2
	c0.7,0,1.3,0.6,1.3,1.4c0,0.7-0.6,1.4-1.3,1.4S4.3,16,4.3,15.2c0-0.1-0.1-0.2-0.2-0.2H2c-0.4,0-0.6-0.3-0.6-0.7V3.5
	c0-0.4,0.3-0.7,0.6-0.7h8.5c0.4,0,0.6,0.3,0.6,0.7V5c0,0.1,0.1,0.2,0.2,0.2c0.1,0,0.2-0.1,0.2-0.2V3.5C11.6,2.9,11.1,2.4,10.5,2.4z"
	/>
<path class="st0" d="M14.5,13.4c-0.3,0-0.7,0.1-0.9,0.3c-0.1,0.1-0.1,0.2-0.1,0.3c0.1,0.1,0.2,0.1,0.3,0.1c0.2-0.1,0.5-0.2,0.7-0.2
	c0.7,0,1.3,0.6,1.3,1.4c0,0.7-0.6,1.4-1.3,1.4c-0.7,0-1.3-0.6-1.3-1.3c0,0,0,0,0,0c0-0.1-0.1-0.2-0.2-0.2H8.4
	c-0.1,0-0.2,0.1-0.2,0.2s0.1,0.2,0.2,0.2h4.3c0.1,0.9,0.9,1.6,1.8,1.6c1,0,1.8-0.8,1.8-1.8S15.5,13.4,14.5,13.4z"/>
</svg>
