<?xml version="1.0" encoding="utf-8"?>
<!-- Generator: Adobe Illustrator 19.0.0, SVG Export Plug-In . SVG Version: 6.00 Build 0)  -->
<svg version="1.1" id="Capa_1" xmlns="http://www.w3.org/2000/svg" xmlns:xlink="http://www.w3.org/1999/xlink" x="0px" y="0px"
	 viewBox="-4 2 20 20" style="enable-background:new -4 2 20 20;" xml:space="preserve">
<style type="text/css">
	.st0{fill:#7DD1C4;}
</style>
<path id="path0_fill" class="st0" d="M15.5,12c-0.1-0.2-0.2-0.3-0.4-0.4l-1.4-0.5l-0.7-0.6c-0.2-0.2-0.5-0.3-0.8-0.3l-1.1,0.1
	c-0.4,0-0.8,0.2-0.9,0.6L9,13.2c-0.2,0.2-0.4,0.4-0.7,0.4c-2.8,0-7.6-0.1-8.1,0c-0.1,0-0.2,0-0.3,0.1l-0.2-0.3
	c-0.5-0.6-0.5-1.4,0-2.1l1.7-2.3c0.2-0.2,0.2-0.5,0.1-0.7C1.4,8.2,1.1,8.1,0.9,8.1c-0.2,0-0.2,0-0.4,0.1C0.5,8.2,0.4,8.3,0.3,8.4
	l-1.7,2.4c-0.7,1-0.7,2.2,0,3.2l0.4,0.5c-0.1,0-0.1,0.1-0.2,0.1c-0.4,0.4-0.6,0.7-0.7,1.1l-0.3,1.2c-0.1,0.2-0.2,0.2-0.3,0.3
	l-0.8,0.5c-0.1,0.1-0.2,0.2-0.2,0.2l0.2,2.3c0,0.5,0.4,0.8,0.8,0.8h0.5c0.2,0,0.4-0.1,0.5-0.2c0.2-0.2,0.2-0.3,0.2-0.5
	C-1.5,20-1.7,19.8-2,19.7l0.4-0.8l0.6-0.1c0.5-0.1,1-0.3,1.4-0.6c1.1-0.2,2.9,0.2,4.4,0.6c1.1,0.3,2.1,0.5,3,0.6
	c0,0.2,0.1,0.3,0.1,0.5L8,20.4C8.1,20.8,8.4,21,8.8,21h0.8c0.2,0,0.4-0.1,0.5-0.2c0.1-0.2,0.2-0.3,0.1-0.5c-0.1-0.3-0.3-0.5-0.6-0.6
	c0-0.1,0.1-0.2,0.1-0.2c0.7-0.2,1.3-0.5,1.7-1c0.5-0.5,0.8-1.1,0.8-1.8c0.2,0,0.2-0.1,0.3-0.2c0.4-0.4,0.6-0.9,0.5-1.4l-0.2-1.6
	l0.6,0.2c0.6,0.2,1.3,0,1.7-0.5l0.4-0.7C15.5,12.3,15.5,12.2,15.5,12z M-1,13.7c-0.5-0.8-0.5-1.8,0-2.6l1.7-2.4l0,0c0,0,0,0,0.1,0
	s0.1,0,0.1,0.1v0.1L-0.7,11c-0.6,0.8-0.6,1.9,0,2.7l0.2,0.2c-0.1,0-0.1,0.1-0.2,0.1L-1,13.7z M14.9,12.3l-0.4,0.7
	c-0.2,0.3-0.6,0.5-0.9,0.3l-0.9-0.3l-0.1-0.4c-0.1-0.5-0.2-1.1-0.5-1.4C12,11,11.8,11,11.7,11c-0.2,0.1-0.2,0.2-0.1,0.4
	c0.2,0.4,0.4,0.8,0.5,1.2l0.3,2.6c0,0.3-0.1,0.6-0.3,0.8l-0.8-0.8c-0.1-0.1-0.2-0.2-0.2-0.4l0.2-3.4c0-0.2-0.2-0.3-0.3-0.3
	c-0.2,0-0.3,0.1-0.3,0.2l-0.2,3.5c0,0.3,0.1,0.6,0.3,0.8l0.6,0.6v0.3c0,0.5-0.2,1.1-0.6,1.5c-0.2,0.3-0.6,0.5-1,0.6
	c0.1-0.2,0.2-0.4,0.4-0.5l0.2-0.2c0.1-0.2,0.1-0.3-0.1-0.4s-0.3-0.1-0.5,0.1l-0.1,0.2c-0.5,0.5-0.8,1.2-0.9,1.9
	C8.9,19.9,9,20,9,20.1l0.2,0.1c0.2,0.1,0.2,0.2,0.2,0.2H8.7c-0.2,0-0.2-0.1-0.2-0.2l-0.2-0.5c-0.2-0.7-0.2-1.4-0.2-2.1
	c0-0.2-0.1-0.3-0.3-0.3c-0.2,0-0.3,0.1-0.3,0.2c0,0.5,0,0.9,0,1.3c-0.8-0.1-1.7-0.3-2.7-0.5c-1.4-0.4-2.8-0.7-4-0.7
	c0,0,0.1-0.1,0.1-0.2L1.1,17c0.1-0.2,0-0.3-0.1-0.4c-0.2-0.1-0.3,0-0.4,0.1l-0.3,0.5c-0.3,0.5-0.9,0.9-1.6,1.1L-2,18.4
	c-0.1,0-0.2,0.1-0.2,0.2l-0.5,1.1c-0.1,0.1,0,0.2,0,0.2c0.1,0.1,0.2,0.2,0.2,0.2c0.2,0,0.3,0.2,0.4,0.3l0,0l0,0h-0.4
	c-0.2,0-0.2-0.1-0.2-0.2l-0.2-2.1l0.7-0.5c0.2-0.2,0.5-0.4,0.5-0.7l0.3-1.2c0.1-0.3,0.2-0.6,0.5-0.8c0.8-0.8,1.1-0.8,1.1-0.8
	c0.3,0.1,3.3,0.1,8,0.1c0.5,0,1-0.3,1.3-0.7l1.2-2.4c0.1-0.2,0.2-0.2,0.5-0.3l1.1-0.1c0.2,0,0.3,0.1,0.4,0.2l0.5,0.4l-0.1,0.1
	c-0.2,0.1-0.2,0.2-0.1,0.4c0.1,0.1,0.2,0.2,0.2,0.2c0.1,0,0.2,0,0.2-0.1l0.2-0.1L14.9,12.3C14.9,12.2,14.9,12.2,14.9,12.3
	C14.9,12.2,14.9,12.3,14.9,12.3z"/>
</svg>
