<svg width="26" height="29" viewBox="0 0 26 29" version="1.1" xmlns="http://www.w3.org/2000/svg" xmlns:xlink="http://www.w3.org/1999/xlink">
<title>Group 4 Copy</title>
<desc>Created using Figma</desc>
<g id="Canvas" transform="translate(-1450 4762)">
<g id="Group 4 Copy">
<g id="010-dog-14">
<g id="Group 3">
<mask id="mask0_outline" mask-type="alpha">
<g id="Clip 2">
<use xlink:href="#path0_fill" transform="translate(1450 -4756.19)" fill="#FFFFFF"/>
</g>
</mask>
<g id="Fill 1" mask="url(#mask0_outline)">
<use xlink:href="#path1_fill" transform="translate(1450 -4756.19)" fill="#6A2499"/>
</g>
</g>
<g id="Fill 4">
<use xlink:href="#path2_fill" transform="translate(1463.47 -4756.19)" fill="#6A2499"/>
</g>
<g id="Fill 5">
<use xlink:href="#path3_fill" transform="translate(1456.58 -4762)" fill="#6A2499"/>
</g>
</g>
</g>
</g>
<defs>
<path id="path0_fill" fill-rule="evenodd" d="M 0 0L 0 23.192L 12.5233 23.192L 12.5233 0L 0 0Z"/>
<path id="path1_fill" fill-rule="evenodd" d="M 5.9368 8.13583C 5.33589 7.55065 4.42293 7.45131 3.71527 7.8369L 3.71527 1.81012C 3.71527 1.50397 3.63664 1.21552 3.49842 0.962479C 3.58155 0.938406 3.66868 0.925662 3.75756 0.925662C 4.25804 0.925662 4.66536 1.32229 4.66536 1.81012L 4.66536 6.2593C 4.66536 6.51489 4.87799 6.72199 5.14026 6.72199C 5.4026 6.72199 5.61523 6.51489 5.61523 6.2593L 5.61523 1.81012C 5.61523 0.812025 4.78207 0 3.75756 0C 3.41892 0 3.09219 0.0893518 2.80718 0.255028C 2.529 0.0934583 2.20423 0 1.8576 0C 0.833455 0 0 0.812025 0 1.8104L 0.00763038 10.3033C 0.00792106 10.6911 0.155296 11.2381 0.350271 11.5761C 0.353395 11.5816 0.356811 11.5871 0.360226 11.5924L 5.83179 20.2247C 5.9453 20.4266 6.04784 20.8105 6.04784 21.037L 6.04784 22.729C 6.04784 22.9846 6.2604 23.192 6.52274 23.192C 6.785 23.192 6.99764 22.9846 6.99764 22.729L 6.99764 21.037C 6.99764 20.6492 6.85062 20.1019 6.65558 19.7639C 6.65245 19.7584 6.64904 19.7528 6.64562 19.7476L 1.17435 11.1153C 1.06084 10.9134 0.958085 10.5293 0.957794 10.3028L 0.950091 1.81012C 0.950091 1.32258 1.35748 0.925662 1.85789 0.925662C 2.35837 0.925662 2.76547 1.32229 2.76547 1.81012L 2.76547 9.41578C 2.76547 9.42661 2.76656 9.43737 2.76714 9.44785C 2.77535 9.90063 2.95594 10.3509 3.30962 10.6955L 7.56396 14.8405C 7.74963 15.0213 8.05019 15.0213 8.23586 14.8405C 8.42125 14.6599 8.42125 14.3667 8.23586 14.186L 3.98124 10.0411C 3.62755 9.69622 3.62755 9.13505 3.98124 8.79046C 4.33522 8.44558 4.9112 8.44558 5.26518 8.79046L 10.4997 13.8904C 11.0842 14.4599 11.5778 15.6209 11.5778 16.426L 11.5778 22.729C 11.5778 22.9846 11.7905 23.192 12.0527 23.192C 12.3151 23.192 12.5277 22.9846 12.5277 22.729L 12.5277 16.426C 12.5277 15.3781 11.9321 13.977 11.1714 13.236L 5.9368 8.13583Z"/>
<path id="path2_fill" fill-rule="evenodd" d="M 10.6697 0C 10.3232 0 9.99841 0.0931751 9.72052 0.255028C 9.43521 0.0890686 9.10878 0 8.76984 0C 7.74563 0 6.91217 0.811742 6.91217 1.80983L 6.91217 6.25901C 6.91217 6.51461 7.12481 6.72199 7.38707 6.72199C 7.64941 6.72199 7.86197 6.51461 7.86197 6.25901L 7.86197 1.80983C 7.86197 1.32229 8.26936 0.925379 8.76984 0.925379C 8.85865 0.925379 8.94578 0.938123 9.02899 0.962195C 8.89077 1.21524 8.81214 1.50369 8.81214 1.80983L 8.81214 7.83605C 8.53788 7.68588 8.22765 7.60566 7.90427 7.60566C 7.40808 7.60566 6.94168 7.79371 6.59083 8.13554L 1.35632 13.2357C 0.595533 13.9767 0 15.3778 0 16.4257L 0 22.7287C 0 22.9843 0.212633 23.1917 0.4749 23.1917C 0.737458 23.1917 0.9498 22.9843 0.9498 22.7287L 0.9498 16.4257C 0.9498 15.6206 1.44374 14.4596 2.02794 13.8902L 7.26274 8.79018C 7.43395 8.62315 7.66191 8.53104 7.90427 8.53104C 8.1467 8.53104 8.37495 8.62315 8.54609 8.79018C 8.71788 8.95698 8.81214 9.17902 8.81214 9.4155C 8.81214 9.65169 8.71788 9.8738 8.54609 10.0408L 4.29183 14.1858C 4.10645 14.3664 4.10645 14.6596 4.29183 14.8402C 4.47743 15.0207 4.77807 15.021 4.96374 14.8402L 9.21807 10.6952C 9.56892 10.3533 9.76194 9.89893 9.76194 9.4155L 9.76194 1.80983C 9.76194 1.32201 10.1693 0.925379 10.6697 0.925379C 11.1702 0.925379 11.5775 1.32201 11.5775 1.80934L 11.5699 10.3022C 11.5696 10.529 11.4669 10.9132 11.3533 11.1147L 5.88171 19.747C 5.87837 19.7525 5.87524 19.7581 5.87183 19.7637C 5.67678 20.1016 5.52977 20.6489 5.52977 21.0367L 5.52977 22.7287C 5.52977 22.9843 5.74233 23.1917 6.00496 23.1917C 6.26723 23.1917 6.47986 22.9843 6.47986 22.7287L 6.47986 21.0367C 6.47986 20.8102 6.58232 20.4263 6.69591 20.2244L 12.1672 11.5922C 12.1706 11.5868 12.1739 11.5813 12.1771 11.5758C 12.3721 11.2381 12.5194 10.6908 12.5197 10.303L 12.5274 1.80983C 12.5274 0.811742 11.6942 0 10.6697 0Z"/>
<path id="path3_fill" fill-rule="evenodd" d="M 6.14937 3.64077C 5.88703 3.64077 5.67447 3.84793 5.67447 4.10346L 5.67447 9.02998C 5.67447 9.7809 5.0474 10.3918 4.27637 10.3918C 3.5057 10.3918 2.87863 9.78112 2.87863 9.02998L 2.87863 4.16017C 2.87863 2.34644 4.31532 0.925662 6.14937 0.925662C 7.95305 0.925662 9.42041 2.3771 9.42041 4.16102C 9.42041 4.41654 9.63297 4.62371 9.89531 4.62371L 12.1861 4.62371C 12.1886 4.94642 12.191 5.41109 12.191 5.92384C 12.191 6.64156 11.5928 7.22539 10.8576 7.22539L 9.94697 7.22539C 9.68434 7.22539 9.47178 7.43255 9.47178 7.68808L 9.47178 15.4381C 9.47178 15.6936 9.68434 15.9008 9.94697 15.9008C 10.2092 15.9008 10.4219 15.6936 10.4219 15.4381L 10.4219 8.15105L 10.8576 8.15105C 12.1165 8.15105 13.141 7.15182 13.141 5.92384C 13.141 4.95973 13.1323 4.16399 13.1323 4.15599C 13.1294 3.90238 12.9177 3.69826 12.6573 3.69826L 10.3449 3.69826C 10.2416 2.76155 9.82518 1.89557 9.14673 1.22246C 8.35244 0.434227 7.28797 0 6.14937 0C 5.01078 0 3.94623 0.433944 3.15202 1.2219C 2.36311 2.00454 1.92854 3.04808 1.92854 4.16017L 1.92854 8.83832L 0.139036 10.5815C -0.0463454 10.7624 -0.0463454 11.0553 0.139036 11.2362C 0.231836 11.3264 0.353341 11.3717 0.474845 11.3717C 0.596641 11.3717 0.718145 11.3264 0.810945 11.2362L 2.12867 9.95203C 2.49341 10.7552 3.31865 11.3175 4.27637 11.3175C 5.57114 11.3175 6.62427 10.2912 6.62427 9.02998L 6.62427 4.10346C 6.62427 3.84793 6.41164 3.64077 6.14937 3.64077Z"/>
</defs>
</svg>
