<?xml version="1.0" encoding="utf-8"?>
<!-- Generator: Adobe Illustrator 21.1.0, SVG Export Plug-In . SVG Version: 6.00 Build 0)  -->
<svg version="1.1" id="Capa_1" xmlns="http://www.w3.org/2000/svg" xmlns:xlink="http://www.w3.org/1999/xlink" x="0px" y="0px"
	 viewBox="0 0 20 20" style="enable-background:new 0 0 20 20;" xml:space="preserve">
<style type="text/css">
	.st0{fill:#63C3AF;}
</style>
<g>
	<path class="st0" d="M13.6,14.2H7.2c-0.2,0-0.3-0.1-0.3-0.3s0.1-0.3,0.3-0.3h6.3c0.2,0,0.3,0.1,0.3,0.3S13.8,14.2,13.6,14.2z"/>
	<path class="st0" d="M5.7,15.7c-1,0-1.8-0.8-1.8-1.8c0-1,0.8-1.8,1.8-1.8s1.8,0.8,1.8,1.8C7.5,14.9,6.7,15.7,5.7,15.7z M5.7,12.7
		c-0.7,0-1.2,0.6-1.2,1.2s0.6,1.2,1.2,1.2c0.7,0,1.2-0.6,1.2-1.2S6.4,12.7,5.7,12.7z"/>
	<path class="st0" d="M15.1,15.7c-1,0-1.8-0.8-1.8-1.8c0-1,0.8-1.8,1.8-1.8s1.8,0.8,1.8,1.8C16.9,14.9,16.1,15.7,15.1,15.7z
		 M15.1,12.7c-0.7,0-1.2,0.6-1.2,1.2s0.6,1.2,1.2,1.2c0.7,0,1.2-0.6,1.2-1.2S15.8,12.7,15.1,12.7z"/>
</g>
<path class="st0" d="M13.6,14.2H7.2c-0.2,0-0.3-0.1-0.3-0.3s0.1-0.3,0.3-0.3h6.4c0.2,0,0.3,0.1,0.3,0.3S13.8,14.2,13.6,14.2z"/>
<path class="st0" d="M18,14.2h-1.3c-0.2,0-0.3-0.1-0.3-0.3s0.1-0.3,0.3-0.3H18c0.3,0,0.6-0.2,0.7-0.6l0.3-1.7c0-0.2,0-0.4-0.1-0.5
	c-0.1-0.2-0.3-0.2-0.5-0.3l-3.5-0.4c-0.1,0-0.1,0-0.2-0.1l-3.2-3.2c-0.3-0.3-0.7-0.5-1.1-0.5H3.4c-0.5,0-0.9,0.4-0.9,0.9l-0.2,3.6
	c0,0.1,0,0.1-0.1,0.2l-0.3,0.3c-0.2,0.2-0.2,0.4-0.2,0.6v1.3c0,0.2,0.2,0.4,0.4,0.4h2.2c0.2,0,0.3,0.1,0.3,0.3s-0.1,0.3-0.3,0.3H2.1
	c-0.5,0-1-0.4-1-1V12c0-0.4,0.1-0.7,0.4-1l0.2-0.2l0.2-3.5C2,6.5,2.6,5.9,3.4,5.9h6.9c0.6,0,1.1,0.2,1.5,0.6L15,9.6l3.4,0.4
	c0.3,0,0.6,0.2,0.9,0.5c0.2,0.3,0.3,0.6,0.2,1l-0.3,1.7C19.1,13.8,18.6,14.2,18,14.2z"/>
<path class="st0" d="M11.8,10.4h-8c-0.2,0-0.3-0.1-0.3-0.3c0-0.2,0.1-0.3,0.3-0.3h8c0.2,0,0.3,0.1,0.3,0.3
	C12.1,10.3,12,10.4,11.8,10.4z"/>
</svg>
