<?xml version="1.0" encoding="utf-8"?>
<!-- Generator: Adobe Illustrator 19.0.0, SVG Export Plug-In . SVG Version: 6.00 Build 0)  -->
<svg version="1.1" id="Capa_1" xmlns="http://www.w3.org/2000/svg" xmlns:xlink="http://www.w3.org/1999/xlink" x="0px" y="0px"
	 viewBox="-4 2 20 20" style="enable-background:new -4 2 20 20;" xml:space="preserve">
<style type="text/css">
	.st0{fill:#7DD1C4;}
</style>
<path id="path1_fill_1_" class="st0" d="M16,8c0-0.1-0.1-0.1-0.2-0.2l-1.5-0.5l-0.3-0.4c-0.1-0.1-0.2-0.3-0.4-0.3l-1.4-0.3
	c-0.4-0.1-0.7,0.1-0.9,0.4L9.2,9.7C9.1,9.9,8.8,10,8.5,10.1c-1,0.1-2.9,0.4-4.8,0.3c-0.9,0-1.7,0.1-2.5,0.3C1,10.9,0.8,10.9,0.6,11
	c-0.4,0-2.8-0.1-3.1,1.3c-0.3,1.3,0.7,2.7,0.9,2.9c0,0,0,0,0,0.1c0,0.9,0,0.9-0.7,1.3c-1.2,0.7-1.5,1-1.5,1.1
	c-0.1,0.1-0.1,0.1-0.1,0.1L-4,20.7c0,0.1,0,0.1,0.1,0.2C-3.9,21-3.8,21-3.7,21h1.3c0.1,0,0.2-0.1,0.3-0.1c0.1-0.1,0.1-0.2,0.1-0.3
	v-0.1c-0.1-0.3-0.3-0.5-0.5-0.5c0-0.6,0.2-1.7,0.9-2c0.3-0.1,0.7-0.3,1.1-0.6c0.1,0.3,0.1,0.5,0.1,0.8c0,0.1,0.1,0.3,0.3,0.3h0.1
	c0.1,0,0.3-0.1,0.3-0.3c0.1-0.4,0.1-0.8-0.1-1.3c0.1,0,0.1-0.1,0.2-0.1c0.8-0.6,1.3-1.2,1.5-1.9c0.1-0.2,0.2-0.6,0.3-0.7
	c0.1-0.2,0.3-0.4,0.6-0.5s0.6-0.1,0.9,0l3,1.3c0.7,0.3,1.6,0.5,2.4,0.5c0.4,1.7,0.2,2.9,0.1,3.4c-0.1,0.2,0,0.5,0.1,0.7l0.6,1.1
	c0.1,0.1,0.1,0.1,0.3,0.1h1.2c0.1,0,0.2-0.1,0.3-0.1c0.1-0.1,0.1-0.2,0-0.3l-0.1-0.2c-0.1-0.2-0.3-0.3-0.5-0.4l-0.2-0.5l0.3-3.9
	c0-0.3,0.1-0.5,0.3-0.7c0.3-0.5,0.7-1.2,0.7-2.4c0-1.4,0.9-2.9,1.3-3.4l1.7,0.1c0.5,0,0.9-0.2,1.2-0.6L16,8.2C16,8.1,16,8.1,16,8z
	 M-1.9,12.5c0.1-0.6,0.9-0.8,1.5-0.9c-0.6,0.5-0.9,1.1-1.1,1.7c-0.1,0.3-0.1,0.7-0.1,0.9C-1.9,13.9-2.1,13.1-1.9,12.5z M14.6,8.5
	l-1.8-0.1c-0.1,0-0.3-0.1-0.4-0.2l-0.3-0.3c-0.1-0.1-0.3-0.1-0.4-0.1c-0.1,0.1-0.1,0.3-0.1,0.4l0.3,0.3c0.1,0.1,0.3,0.2,0.4,0.3
	c-0.4,0.7-1.3,2.1-1.3,3.5c0,1.1-0.3,1.8-0.5,2.1c-0.2,0.3-0.3,0.6-0.3,1l-0.3,3.9c0,0.1,0,0.1,0,0.1l0.3,0.7c0,0.1,0.1,0.1,0.1,0.1
	h-0.2l-0.5-0.9c-0.1-0.1-0.1-0.2-0.1-0.3c0.2-0.8,0.5-3.1-0.9-5.7c-0.1-0.1-0.3-0.2-0.4-0.1s-0.2,0.2-0.1,0.4c0.3,0.5,0.4,1,0.5,1.5
	c-0.7,0-1.4-0.2-2-0.5l-3-1.3c-0.4-0.2-0.9-0.2-1.3-0.1c0.1-0.3,0.2-0.4,0.2-0.4c0.1-0.1,0-0.3-0.1-0.4s-0.3,0-0.4,0.1
	c0,0-0.4,0.7-0.9,2.1C1,15.3,0.4,16.4-2,17.5c-1.3,0.6-1.3,2.6-1.3,2.7c0,0.1,0.1,0.2,0.1,0.3h-0.3l0.1-2.3c0.1-0.1,0.5-0.4,1.3-0.9
	c0.9-0.5,0.9-0.9,0.9-1.8c0-0.5,0-1.1,0.2-1.9c0.1-1,0.9-1.7,2.3-2.2C2.2,11,3,10.9,3.7,10.9c1.9,0.1,3.9-0.2,4.9-0.3
	c0.5-0.1,0.8-0.3,1.1-0.7L11.8,7c0.1-0.1,0.2-0.1,0.3-0.1L12,6.9c-0.1,0.1-0.1,0.3,0,0.4c0.1,0.1,0.1,0.1,0.2,0.1
	c0.1,0,0.1,0,0.2-0.1L12.7,7l0.7,0.1l0.1,0.1c-0.1,0.1-0.2,0.2-0.2,0.3c0,0.1,0.1,0.3,0.3,0.3c0,0,0,0,0.1,0L14,7.7l1.1,0.4
	C15.1,8.4,14.9,8.5,14.6,8.5z"/>
</svg>
