<?xml version="1.0" encoding="utf-8"?>
<!-- Generator: Adobe Illustrator 21.1.0, SVG Export Plug-In . SVG Version: 6.00 Build 0)  -->
<svg version="1.1" id="Layer_1" xmlns="http://www.w3.org/2000/svg" xmlns:xlink="http://www.w3.org/1999/xlink" x="0px" y="0px"
	 viewBox="0 0 100 100" style="enable-background:new 0 0 100 100;" xml:space="preserve">
<style type="text/css">
	.st0{fill:#979797;fill-opacity:0.5;}
	.st1{fill:#FFFFFF;}
</style>
<path id="path0_fill" class="st0" d="M100,50c0,27.6-22.4,50-50,50S0,77.6,0,50S22.4,0,50,0S100,22.4,100,50z"/>
<path id="path1_stroke" class="st1" d="M28.5,74.1h44.8v-4.2H28.5V74.1z"/>
<path id="path2_fill" class="st1" d="M65.4,30.9c0-8-6.5-14.5-14.6-14.5c-8.1,0-14.6,6.5-14.6,14.5c0,8,6.5,14.5,14.6,14.5
	C58.9,45.4,65.4,38.9,65.4,30.9z M39.9,30.9c0-6,4.9-10.9,10.9-10.9c6,0,10.9,4.9,10.9,10.9s-4.9,10.9-10.9,10.9
	C44.8,41.7,39.9,36.8,39.9,30.9z"/>
<path id="path3_fill" class="st1" d="M26.8,72.2c0,1,0.8,1.8,1.9,1.8c1,0,1.9-0.8,1.9-1.8c0-12.4,8.7-21.8,20.4-21.8
	s20.4,9.4,20.4,21.8c0,1,0.8,1.8,1.9,1.8s1.9-0.8,1.9-1.8c0-14.3-10.6-25.5-24.1-25.5S26.8,57.9,26.8,72.2z"/>
</svg>
