<svg width="33" height="42" viewBox="0 0 33 42" version="1.1" xmlns="http://www.w3.org/2000/svg" xmlns:xlink="http://www.w3.org/1999/xlink">
<title>Group</title>
<desc>Created using Figma</desc>
<g id="Canvas" transform="translate(991 4676)">
<g id="Group">
<g id="Vector 8">
<use xlink:href="#path0_stroke" transform="translate(-989.977 -4675)" fill="#7DD1C4"/>
</g>
<g id="005-tooth-brush">
<mask id="mask0_outline" mask-type="alpha">
<g id="Clip 2">
<use xlink:href="#path1_fill" transform="translate(-986 -4665)" fill="#FFFFFF"/>
</g>
</mask>
<g id="Fill 1" mask="url(#mask0_outline)">
<use xlink:href="#path2_fill" transform="translate(-975.083 -4665)" fill="#6A2499"/>
</g>
<g id="Fill 3" mask="url(#mask0_outline)">
<use xlink:href="#path3_fill" transform="translate(-986.003 -4660.69)" fill="#6A2499"/>
</g>
</g>
</g>
</g>
<defs>
<path id="path0_stroke" d="M 15.0469 40L 14.7488 40.4014L 15.0409 40.6184L 15.3372 40.4071L 15.0469 40ZM 0 28.8235L -0.5 28.8235L -0.5 29.075L -0.29814 29.2249L 0 28.8235ZM 0 0L 0 -0.5L -0.5 -0.5L -0.5 0L 0 0ZM 30.7208 0L 31.2208 0L 31.2208 -0.5L 30.7208 -0.5L 30.7208 0ZM 30.7208 28.8235L 31.0111 29.2306L 31.2208 29.0811L 31.2208 28.8235L 30.7208 28.8235ZM 15.3451 39.5986L 0.29814 28.4221L -0.29814 29.2249L 14.7488 40.4014L 15.3451 39.5986ZM 0.5 28.8235L 0.5 0L -0.5 0L -0.5 28.8235L 0.5 28.8235ZM 0 0.5L 30.7208 0.5L 30.7208 -0.5L 0 -0.5L 0 0.5ZM 30.2208 0L 30.2208 28.8235L 31.2208 28.8235L 31.2208 0L 30.2208 0ZM 30.4305 28.4164L 14.7566 39.5929L 15.3372 40.4071L 31.0111 29.2306L 30.4305 28.4164Z"/>
<path id="path1_fill" fill-rule="evenodd" d="M 7.11608e-19 0L 7.11608e-19 10L 21 10L 21 1.31485e-15L 0 1.31485e-15L 7.11608e-19 0Z"/>
<path id="path2_fill" fill-rule="evenodd" d="M 7.97973 0.697895L 2.49993 0.697895C 1.30272 0.697895 0.684578 0.131508 0.66094 0.109117C 0.551977 0.00414813 0.381738 -0.0289293 0.233701 0.026724C 0.0864858 0.0825624 -0.00683794 0.215566 0.000392086 0.35958L 0.0773073 1.91459C 0.128943 2.95336 1.10782 3.79852 2.25975 3.79852L 9.70088 3.79852C 9.91184 3.79852 10.0829 3.64419 10.0829 3.45391L 10.0829 2.59682C 10.0827 1.54958 9.13925 0.697895 7.97973 0.697895ZM 9.31897 3.10985L 2.25979 3.10985C 1.51069 3.10985 0.873937 2.55993 0.840299 1.88404L 0.797791 1.02588C 1.1976 1.21273 1.76728 1.38728 2.49997 1.38728L 7.97957 1.38728C 8.71826 1.38728 9.31897 1.93016 9.31897 2.59731L 9.31897 3.10985Z"/>
<path id="path3_fill" fill-rule="evenodd" d="M 20.2393 0.344421L 20.2391 0.344421C 20.2391 0.154145 20.068 0 19.8573 0C 19.6464 0 19.4754 0.154145 19.4754 0.344421L 19.4754 2.58383L 18.3299 2.58383L 18.3299 0.344421C 18.3299 0.154145 18.1588 0 17.9481 0C 17.7372 0 17.5661 0.154145 17.5661 0.344421L 17.5661 2.58383L 16.4206 2.58383L 16.4206 0.344421C 16.4206 0.154145 16.2495 0 16.0388 0C 15.8279 0 15.6569 0.154145 15.6569 0.344421L 15.6569 2.58383L 14.5113 2.58383L 14.5113 0.344421C 14.5113 0.154145 14.3403 0 14.1296 0C 13.9186 0 13.7476 0.154145 13.7476 0.344421L 13.7476 2.58383L 12.6021 2.58383L 12.6021 0.344421C 12.6021 0.154145 12.431 0 12.2203 0C 12.0094 0 11.8383 0.154145 11.8383 0.344421L 11.8383 2.58383L 11.0746 2.58383L 11.0746 3.61747L 0 3.61747L 0 5.68464L 19.2837 5.68464C 20.2315 5.68464 21.0031 4.98909 21.0031 4.13412L 21.0031 2.58383L 20.2393 2.58383L 20.2393 0.344421ZM 0.76355 4.99616L 11.074 4.99616L 11.074 4.30713L 0.76355 4.30713L 0.76355 4.99616ZM 20.2388 4.13488C 20.2388 4.60963 19.8102 4.99615 19.2832 4.99615L 11.8376 4.99615L 11.8376 3.27344L 20.2388 3.27344L 20.2388 4.13488Z"/>
</defs>
</svg>
