<svg width="22" height="11" viewBox="0 0 22 11" version="1.1" xmlns="http://www.w3.org/2000/svg" xmlns:xlink="http://www.w3.org/1999/xlink">
<title>Group</title>
<desc>Created using Figma</desc>
<g id="Canvas" transform="translate(1062 4724)">
<g id="Group">
<g id="XMLID 16">
<use xlink:href="#path0_fill" transform="translate(-1061 -4723)" fill="#7DD1C4"/>
<use xlink:href="#path1_stroke" transform="translate(-1061 -4723)" fill="#7DD1C4"/>
</g>
</g>
</g>
<defs>
<path id="path0_fill" d="M 0.00481309 6.59747C -0.0272742 6.0807 0.133162 5.59433 0.38986 5.16876C 0.51821 4.95597 0.614471 4.71279 0.614471 4.4696C 0.614471 4.22642 0.550297 3.98323 0.38986 3.77045C 0.101075 3.34487 -0.0272742 2.85851 0.00481309 2.34174C 0.0689876 1.06502 1.15995 0.0314882 2.53971 0.0010902C 3.59859 -0.0293078 4.52912 0.578653 4.94625 1.49059C 5.29921 2.31134 6.13348 2.82811 7.06401 2.82811L 12.9681 2.82811C 13.8986 2.82811 14.7329 2.31134 15.0858 1.49059C 15.503 0.578653 16.4656 -0.0293078 17.4924 0.0010902C 18.84 0.0314882 19.9631 1.06502 19.9952 2.37214C 20.0273 2.8889 19.8668 3.37527 19.6101 3.80085C 19.3214 4.22642 19.3214 4.77358 19.6101 5.19915C 19.8989 5.62473 20.0273 6.1111 19.9952 6.62786C 19.931 7.93498 18.84 8.96851 17.4924 8.99891C 16.4335 9.02931 15.503 8.42135 15.0858 7.50941C 14.7329 6.68866 13.8986 6.17189 12.9681 6.17189L 7.06401 6.17189C 6.13348 6.17189 5.29921 6.68866 4.94625 7.50941C 4.52912 8.42135 3.5665 9.02931 2.53971 8.99891C 1.15995 8.93811 0.0689876 7.90458 0.00481309 6.59747Z"/>
<path id="path1_stroke" d="M 0.00481309 6.59747L 0.504254 6.57294L 0.503852 6.56648L 0.00481309 6.59747ZM 0.38986 5.16876L 0.818004 5.42701L 0.38986 5.16876ZM 0.38986 3.77045L -0.0238756 4.0512L -0.0168782 4.06151L -0.00937578 4.07146L 0.38986 3.77045ZM 0.00481309 2.34174L 0.503887 2.37273L 0.504183 2.36684L 0.00481309 2.34174ZM 2.53971 0.0010902L 2.55072 0.50098L 2.55406 0.500884L 2.53971 0.0010902ZM 4.94625 1.49059L 5.4057 1.29301L 5.40094 1.28261L 4.94625 1.49059ZM 15.0858 1.49059L 14.631 1.28256L 14.6265 1.29306L 15.0858 1.49059ZM 17.4924 0.0010902L 17.4776 0.500884L 17.4811 0.500963L 17.4924 0.0010902ZM 19.9952 2.37214L 19.4953 2.38441L 19.4956 2.39377L 19.4961 2.40312L 19.9952 2.37214ZM 19.6101 3.80085L 20.0239 4.0816L 20.0314 4.07054L 20.0383 4.05909L 19.6101 3.80085ZM 19.9952 6.62786L 19.4961 6.59687L 19.4958 6.60334L 19.9952 6.62786ZM 17.4924 8.99891L 17.4811 8.49903L 17.478 8.49912L 17.4924 8.99891ZM 15.0858 7.50941L 14.6264 7.70699L 14.6311 7.71739L 15.0858 7.50941ZM 4.94625 7.50941L 5.40106 7.71744L 5.40558 7.70694L 4.94625 7.50941ZM 2.53971 8.99891L 2.5177 9.49848L 2.52491 9.49869L 2.53971 8.99891ZM 0.503852 6.56648C 0.468616 6.14468 0.587501 5.80308 0.818004 5.42701L -0.0382836 4.91051C -0.321176 5.38558 -0.523164 6.01672 -0.494226 6.62845L 0.503852 6.56648ZM 0.818004 5.42701C 0.970997 5.17336 1.11447 4.83909 1.11447 4.4696L 0.114471 4.4696C 0.114471 4.58649 0.0654223 4.73858 -0.0382836 4.91051L 0.818004 5.42701ZM 1.11447 4.4696C 1.11032 4.16209 1.00008 3.76484 0.789097 3.46943L -0.00937578 4.07146C 0.100515 4.20163 0.118626 4.29074 0.114471 4.4696L 1.11447 4.4696ZM 0.803596 3.48969C 0.556159 3.13775 0.470327 2.80958 0.503852 2.37273L -0.494226 2.31075C -0.524875 2.90743 -0.354009 3.55199 -0.0238756 4.0512L 0.803596 3.48969ZM 0.504183 2.36684C 0.554211 1.37156 1.41293 0.526036 2.55072 0.500969L 2.52869 -0.498789C 0.906981 -0.46306 -0.416236 0.758487 -0.494556 2.31664L 0.504183 2.36684ZM 2.55406 0.500884C 3.40851 0.476355 4.15644 0.965933 4.49156 1.69858L 5.40094 1.28261C 4.9018 0.191373 3.78866 -0.53497 2.52536 -0.498704L 2.55406 0.500884ZM 4.48693 1.68813C 4.92548 2.7079 5.95112 3.32811 7.06401 3.32811L 7.06401 2.32811C 6.31585 2.32811 5.67295 1.91478 5.40558 1.29306L 4.48693 1.68813ZM 7.06401 3.32811L 12.9681 3.32811L 12.9681 2.32811L 7.06401 2.32811L 7.06401 3.32811ZM 12.9681 3.32811C 14.081 3.32811 15.1066 2.7079 15.5452 1.68813L 14.6265 1.29306C 14.3591 1.91478 13.7162 2.32811 12.9681 2.32811L 12.9681 3.32811ZM 15.5405 1.69858C 15.8743 0.968896 16.6523 0.476439 17.4776 0.500871L 17.5072 -0.498691C 16.2789 -0.535055 15.1316 0.18841 14.6311 1.28261L 15.5405 1.69858ZM 17.4811 0.500963C 18.5904 0.525983 19.4705 1.37181 19.4953 2.38441L 20.495 2.35987C 20.4557 0.758229 19.0897 -0.463007 17.5037 -0.498783L 17.4811 0.500963ZM 19.4961 2.40312C 19.5314 2.82493 19.4125 3.16652 19.182 3.5426L 20.0383 4.05909C 20.3212 3.58402 20.5232 2.95288 20.4942 2.34115L 19.4961 2.40312ZM 19.1964 3.52009C 18.7926 4.11516 18.7926 4.88484 19.1964 5.47991L 20.0239 4.9184C 19.8501 4.66233 19.8501 4.33767 20.0239 4.0816L 19.1964 3.52009ZM 19.1964 5.47991C 19.4438 5.83185 19.5297 6.16002 19.4961 6.59688L 20.4942 6.65885C 20.5249 6.06217 20.354 5.41761 20.0239 4.9184L 19.1964 5.47991ZM 19.4958 6.60334C 19.4451 7.63608 18.5792 8.47427 17.4811 8.49904L 17.5037 9.49878C 19.1009 9.46276 20.4169 8.23388 20.4946 6.65238L 19.4958 6.60334ZM 17.478 8.49912C 16.6236 8.52365 15.8756 8.03407 15.5405 7.30142L 14.6311 7.71739C 15.1303 8.80863 16.2434 9.53497 17.5067 9.4987L 17.478 8.49912ZM 15.5452 7.31187C 15.1066 6.2921 14.081 5.67189 12.9681 5.67189L 12.9681 6.67189C 13.7162 6.67189 14.3591 7.08522 14.6265 7.70694L 15.5452 7.31187ZM 12.9681 5.67189L 7.06401 5.67189L 7.06401 6.67189L 12.9681 6.67189L 12.9681 5.67189ZM 7.06401 5.67189C 5.95112 5.67189 4.92548 6.2921 4.48693 7.31187L 5.40558 7.70694C 5.67295 7.08522 6.31585 6.67189 7.06401 6.67189L 7.06401 5.67189ZM 4.49156 7.30142C 4.1578 8.03111 3.37979 8.52356 2.5545 8.49913L 2.52491 9.49869C 3.75321 9.53506 4.90044 8.81159 5.40094 7.71739L 4.49156 7.30142ZM 2.56172 8.49939C 1.41747 8.44898 0.554658 7.60045 0.504212 6.57295L -0.494585 6.62198C -0.416683 8.20871 0.902442 9.42725 2.5177 9.49843L 2.56172 8.49939Z"/>
</defs>
</svg>
