<?xml version="1.0" encoding="utf-8"?>
<!-- Generator: Adobe Illustrator 19.0.0, SVG Export Plug-In . SVG Version: 6.00 Build 0)  -->
<svg version="1.1" id="Capa_1" xmlns="http://www.w3.org/2000/svg" xmlns:xlink="http://www.w3.org/1999/xlink" x="0px" y="0px"
	 viewBox="-4 2 20 20" style="enable-background:new -4 2 20 20;" xml:space="preserve">
<style type="text/css">
	.st0{fill:#FFFFFF;}
</style>
<path id="path1_fill" class="st0" d="M1.4,11.6c-0.4-0.4-1-0.5-1.5-0.2V7.3c0-0.2-0.1-0.4-0.1-0.6c0.1,0,0.1,0,0.2,0
	c0.3,0,0.6,0.3,0.6,0.6v3.1c0,0.2,0.1,0.3,0.3,0.3c0.2,0,0.3-0.1,0.3-0.3V7.3C1.2,6.6,0.6,6,0,6c-0.3,0-0.5,0.1-0.7,0.2
	C-0.8,6.1-1.1,6-1.3,6C-2,6-2.5,6.6-2.5,7.3v5.9c0,0.3,0.1,0.6,0.2,0.9l0,0l3.6,6c0.1,0.1,0.1,0.4,0.1,0.6v1.2
	c0,0.2,0.1,0.3,0.3,0.3c0.2,0,0.3-0.1,0.3-0.3v-1.2c0-0.3-0.1-0.6-0.2-0.9l0,0l-3.6-6c-0.1-0.1-0.1-0.4-0.1-0.6V7.3
	c0-0.3,0.3-0.6,0.6-0.6S-0.7,7-0.7,7.3v5.2l0,0c0,0.3,0.1,0.6,0.4,0.9l2.8,2.9c0.1,0.1,0.3,0.1,0.4,0s0.1-0.3,0-0.5l-2.8-2.9
	c-0.2-0.2-0.2-0.6,0-0.9c0.2-0.2,0.6-0.2,0.8,0l3.4,3.5C4.7,15.9,5,16.7,5,17.2v4.3c0,0.2,0.1,0.3,0.3,0.3s0.3-0.1,0.3-0.3v-4.3
	c0-0.7-0.4-1.7-0.9-2.2L1.4,11.6z"/>
<path id="path2_fill" class="st0" d="M13.3,6c-0.2,0-0.4,0.1-0.6,0.2C12.5,6.1,12.3,6,12,6c-0.7,0-1.2,0.6-1.2,1.2v3.1
	c0,0.2,0.1,0.3,0.3,0.3s0.3-0.1,0.3-0.3v-3c0-0.3,0.3-0.6,0.6-0.6c0.1,0,0.1,0,0.2,0c-0.1,0.2-0.1,0.4-0.1,0.6v4.2
	c-0.2-0.1-0.4-0.2-0.6-0.2c-0.3,0-0.6,0.1-0.9,0.4l-3.4,3.5c-0.5,0.5-0.9,1.5-0.9,2.2v4.3c0,0.2,0.1,0.3,0.3,0.3s0.3-0.1,0.3-0.3
	v-4.3c0-0.6,0.3-1.4,0.7-1.7l3.4-3.5c0.1-0.1,0.3-0.2,0.4-0.2c0.2,0,0.3,0.1,0.4,0.2c0.1,0.1,0.2,0.3,0.2,0.4c0,0.2-0.1,0.3-0.2,0.4
	L9,15.9c-0.1,0.1-0.1,0.3,0,0.5c0.1,0.1,0.3,0.1,0.4,0l2.8-2.9c0.2-0.2,0.4-0.5,0.4-0.9V7.3c0-0.3,0.3-0.6,0.6-0.6
	c0.3,0,0.6,0.3,0.6,0.6v5.9c0,0.2-0.1,0.4-0.1,0.6l-3.6,6l0,0C10,20,9.9,20.4,9.9,20.7v1.2c0,0.2,0.1,0.3,0.3,0.3s0.3-0.1,0.3-0.3
	v-1.2c0-0.2,0.1-0.4,0.1-0.6l3.6-6l0,0c0.1-0.2,0.2-0.6,0.2-0.9V7.3C14.5,6.6,14,6,13.3,6z"/>
<path id="path3_fill" class="st0" d="M5.8,4.5c-0.2,0-0.3,0.1-0.3,0.3v3.4c0,0.5-0.4,0.9-0.9,0.9S3.7,8.7,3.7,8.2V4.9
	c0-1.3,0.9-2.2,2.1-2.2s2.1,1,2.1,2.2c0,0.2,0.1,0.3,0.3,0.3h1.5c0,0.2,0,0.5,0,0.9C9.7,6.6,9.3,7,8.8,7H8.2C8.1,7,8,7.1,8,7.3v5.3
	c0,0.2,0.1,0.3,0.3,0.3s0.3-0.1,0.3-0.3v-5h0.3c0.8,0,1.5-0.7,1.5-1.5c0-0.7,0-1.2,0-1.2c0-0.2-0.1-0.3-0.3-0.3H8.6
	C8.5,4,8.3,3.4,7.8,2.9C7.3,2.3,6.6,2,5.8,2c-0.7,0-1.4,0.3-2,0.8C3.3,3.3,3,4.1,3,4.8V8L1.9,9.3c-0.1,0.1-0.1,0.3,0,0.5
	c0.1,0,0.1,0,0.2,0s0.2,0,0.2-0.1l0.9-0.9c0.2,0.6,0.8,1,1.4,1c0.8,0,1.5-0.7,1.5-1.6V4.8C6.1,4.7,6,4.5,5.8,4.5z"/>
</svg>
