<?xml version="1.0" encoding="utf-8"?>
<!-- Generator: Adobe Illustrator 19.0.0, SVG Export Plug-In . SVG Version: 6.00 Build 0)  -->
<svg version="1.1" id="Capa_1" xmlns="http://www.w3.org/2000/svg" xmlns:xlink="http://www.w3.org/1999/xlink" x="0px" y="0px"
	 viewBox="-4 2 20 20" style="enable-background:new -4 2 20 20;" xml:space="preserve">
<style type="text/css">
	.st0{fill:#FFFFFF;}
</style>
<path id="path1_fill" class="st0" d="M8.7,5.4v1.5c-0.5-0.3-1-0.5-1.6-0.6c0,0,0,0,0,0c0,0-0.1,0-0.1,0c0,0,0,0,0,0c0,0-0.1,0-0.1,0
	c0,0,0,0-0.1,0c0,0-0.1,0-0.1,0c0,0-0.1,0-0.1,0c0,0,0,0-0.1,0c0,0-0.1,0-0.1,0c0,0,0,0-0.1,0c0,0-0.1,0-0.1,0c0,0,0,0-0.1,0
	c-0.1,0-0.1,0-0.2,0c-0.1,0-0.1,0-0.2,0c0,0,0,0-0.1,0c0,0-0.1,0-0.1,0c0,0,0,0-0.1,0c0,0-0.1,0-0.1,0c0,0,0,0-0.1,0
	c0,0-0.1,0-0.1,0c0,0-0.1,0-0.1,0c0,0,0,0-0.1,0c0,0-0.1,0-0.1,0c0,0,0,0,0,0c0,0-0.1,0-0.1,0c0,0,0,0,0,0C4.3,6.4,3.8,6.6,3.3,6.9
	V3.8c0-0.6,0.5-1.2,1.1-1.2h3.2c0.6,0,1.1,0.5,1.1,1.2v0.6L8.7,5.4z M9.3,4.3V3.8c0-1-0.8-1.8-1.7-1.8H4.4c-1,0-1.7,0.8-1.7,1.8v3.5
	C2.2,7.6,1.8,8.1,1.4,8.6h-3.3c-1,0-1.7,0.8-1.7,1.8v1v1v1.3c0,1,0.8,1.8,1.7,1.8h3.3c0.4,0.5,0.8,0.9,1.3,1.3v3.5
	c0,1,0.8,1.8,1.7,1.8h3.2c1,0,1.7-0.8,1.7-1.8v-3.5c0.5-0.4,0.9-0.8,1.3-1.3h3.3c1,0,1.7-0.8,1.7-1.8v-3.3c0-1-0.8-1.8-1.7-1.8h-3.3
	c-0.4-0.5-0.8-0.9-1.3-1.3V5.4V4.3z M-3.1,11.4v-1c0-0.6,0.5-1.2,1.1-1.2h3c-0.3,0.5-0.5,1.1-0.6,1.6c0,0,0,0,0,0c0,0,0,0.1,0,0.1
	c0,0,0,0,0,0c0,0,0,0.1,0,0.1c0,0,0,0,0,0.1c0,0,0,0.1,0,0.1c0,0,0,0.1,0,0.1c0,0,0,0,0,0.1c0,0,0,0.1,0,0.1c0,0,0,0,0,0.1
	c0,0,0,0.1,0,0.1c0,0,0,0,0,0.1c0,0.1,0,0.1,0,0.2c0,0.1,0,0.1,0,0.2c0,0,0,0,0,0.1c0,0,0,0.1,0,0.1c0,0,0,0,0,0.1c0,0,0,0.1,0,0.1
	c0,0,0,0,0,0.1c0,0,0,0.1,0,0.1c0,0,0,0.1,0,0.1c0,0,0,0,0,0.1c0,0,0,0.1,0,0.1c0,0,0,0,0,0c0,0,0,0.1,0,0.1c0,0,0,0,0,0
	c0.1,0.6,0.3,1.1,0.6,1.6h-3c-0.6,0-1.1-0.5-1.1-1.2v-1.3V11.4z M8.7,20.2c0,0.6-0.5,1.2-1.1,1.2H4.4c-0.6,0-1.1-0.5-1.1-1.2v-3.1
	c0.5,0.3,1,0.5,1.6,0.6c0,0,0,0,0,0c0,0,0.1,0,0.1,0c0,0,0,0,0,0c0,0,0.1,0,0.1,0c0,0,0,0,0.1,0c0,0,0.1,0,0.1,0c0,0,0.1,0,0.1,0
	c0,0,0,0,0.1,0c0,0,0.1,0,0.1,0c0,0,0,0,0.1,0c0,0,0.1,0,0.1,0c0,0,0,0,0.1,0c0.1,0,0.1,0,0.2,0c0.1,0,0.1,0,0.2,0c0,0,0,0,0.1,0
	c0,0,0.1,0,0.1,0c0,0,0,0,0.1,0c0,0,0.1,0,0.1,0c0,0,0,0,0.1,0c0,0,0.1,0,0.1,0c0,0,0.1,0,0.1,0c0,0,0,0,0.1,0c0,0,0.1,0,0.1,0
	c0,0,0,0,0,0c0,0,0.1,0,0.1,0c0,0,0,0,0,0c0.6-0.1,1.1-0.3,1.6-0.6L8.7,20.2L8.7,20.2z M11,13.1c0,0.1-0.1,0.2-0.1,0.3c0,0,0,0,0,0
	c-0.5,1.7-1.8,3.1-3.5,3.6c0,0,0,0,0,0c-0.1,0-0.2,0.1-0.3,0.1c0,0,0,0-0.1,0c0,0-0.1,0-0.1,0c0,0-0.1,0-0.1,0c0,0-0.1,0-0.1,0
	c0,0-0.1,0-0.1,0c0,0,0,0-0.1,0c-0.1,0-0.1,0-0.2,0c0,0,0,0,0,0c0,0-0.1,0-0.1,0c0,0,0,0,0,0c-0.1,0-0.1,0-0.2,0c-0.1,0-0.1,0-0.2,0
	c0,0,0,0,0,0c0,0-0.1,0-0.1,0c0,0,0,0,0,0c-0.1,0-0.1,0-0.2,0c0,0,0,0-0.1,0c0,0-0.1,0-0.1,0c0,0-0.1,0-0.1,0c0,0-0.1,0-0.1,0
	c0,0-0.1,0-0.1,0c0,0,0,0-0.1,0c-0.1,0-0.2-0.1-0.3-0.1c0,0,0,0,0,0c-1.7-0.5-3-1.9-3.5-3.6c0,0,0,0,0,0c0-0.1-0.1-0.2-0.1-0.3
	c0,0,0,0,0-0.1c0,0,0-0.1,0-0.1c0,0,0-0.1,0-0.1c0,0,0-0.1,0-0.1c0,0,0-0.1,0-0.1c0,0,0,0,0-0.1c0-0.1,0-0.1,0-0.2c0,0,0,0,0,0
	c0-0.1,0-0.1,0-0.2c0,0,0,0,0,0c0-0.1,0-0.1,0-0.2c0-0.1,0-0.1,0-0.2c0,0,0,0,0,0c0-0.1,0-0.1,0-0.2c0,0,0,0,0,0c0-0.1,0-0.1,0-0.2
	c0,0,0,0,0-0.1c0,0,0-0.1,0-0.1c0,0,0-0.1,0-0.1c0,0,0-0.1,0-0.1C1,11,1,11,1,11c0,0,0,0,0-0.1c0-0.1,0.1-0.2,0.1-0.3c0,0,0,0,0,0
	C1.6,8.8,2.9,7.4,4.6,7c0,0,0,0,0,0c0.1,0,0.2-0.1,0.3-0.1c0,0,0,0,0.1,0c0,0,0.1,0,0.1,0c0,0,0.1,0,0.1,0c0,0,0.1,0,0.1,0
	c0,0,0.1,0,0.1,0c0,0,0,0,0.1,0c0.1,0,0.1,0,0.2,0c0,0,0,0,0,0c0,0,0.1,0,0.1,0c0,0,0,0,0,0c0.1,0,0.1,0,0.2,0c0.1,0,0.1,0,0.2,0
	c0,0,0,0,0,0c0,0,0.1,0,0.1,0c0,0,0,0,0,0c0.1,0,0.1,0,0.2,0c0,0,0,0,0.1,0c0,0,0.1,0,0.1,0c0,0,0.1,0,0.1,0c0,0,0.1,0,0.1,0
	c0,0,0.1,0,0.1,0c0,0,0,0,0.1,0c0.1,0,0.2,0.1,0.3,0.1c0,0,0,0,0,0c1.7,0.5,3,1.9,3.5,3.6c0,0,0,0,0,0c0,0.1,0.1,0.2,0.1,0.3
	c0,0,0,0,0,0.1c0,0,0,0.1,0,0.1c0,0,0,0.1,0,0.1c0,0,0,0.1,0,0.1c0,0,0,0.1,0,0.1c0,0,0,0,0,0.1c0,0.1,0,0.1,0,0.2c0,0,0,0,0,0
	c0,0.1,0,0.1,0,0.2c0,0,0,0,0,0c0,0.1,0,0.1,0,0.2c0,0.1,0,0.1,0,0.2c0,0,0,0,0,0c0,0.1,0,0.1,0,0.2c0,0,0,0,0,0c0,0.1,0,0.1,0,0.2
	c0,0,0,0,0,0.1c0,0,0,0.1,0,0.1c0,0,0,0.1,0,0.1c0,0,0,0.1,0,0.1C11,13,11,13,11,13.1C11,13.1,11,13.1,11,13.1z M15.1,13.7
	c0,0.6-0.5,1.2-1.1,1.2h-3c0.3-0.5,0.5-1.1,0.6-1.6c0,0,0,0,0,0c0,0,0-0.1,0-0.1c0,0,0,0,0,0c0,0,0-0.1,0-0.1c0,0,0,0,0-0.1
	c0,0,0-0.1,0-0.1c0,0,0-0.1,0-0.1c0,0,0,0,0-0.1c0,0,0-0.1,0-0.1c0,0,0,0,0-0.1c0,0,0-0.1,0-0.1c0,0,0,0,0-0.1c0-0.1,0-0.1,0-0.2
	c0-0.1,0-0.1,0-0.2c0,0,0,0,0-0.1c0,0,0-0.1,0-0.1c0,0,0,0,0-0.1c0,0,0-0.1,0-0.1c0,0,0,0,0-0.1c0,0,0-0.1,0-0.1c0,0,0-0.1,0-0.1
	c0,0,0,0,0-0.1c0,0,0-0.1,0-0.1c0,0,0,0,0,0c0,0,0-0.1,0-0.1c0,0,0,0,0,0c-0.1-0.6-0.3-1.1-0.6-1.6h3c0.6,0,1.1,0.5,1.1,1.2V13.7z"
	/>
<path id="path2_fill" class="st0" d="M6.5,11.7L6.5,11.7c-0.3-0.3-0.8-0.5-1.4-0.5c-1,0-2.2,0.5-2.6,1.1c-0.2,0.3-0.2,0.6-0.1,0.8
	c0.1,0.4,0.4,0.8,0.9,1c0.2,0.1,0.4,0.3,0.5,0.4C4,14.7,4.1,14.8,4.2,15c0.3,0.4,0.6,0.7,1,0.9c0.1,0,0.2,0,0.2,0
	c0.5,0,0.9-0.4,1.2-1.2C7,13.8,7.2,12.4,6.5,11.7z M6.1,14.5c-0.2,0.5-0.5,0.8-0.7,0.8c0,0,0,0,0,0c-0.3-0.1-0.5-0.3-0.7-0.6
	c-0.1-0.2-0.3-0.5-0.5-0.7c-0.2-0.2-0.4-0.4-0.6-0.5c-0.3-0.2-0.5-0.4-0.6-0.7c0,0,0-0.1,0.1-0.2c0.3-0.4,1.2-0.8,2.1-0.8
	c0.4,0,0.8,0.1,0.9,0.3l0,0C6.5,12.6,6.4,13.7,6.1,14.5z"/>
<path id="path3_fill" class="st0" d="M7.1,8.1C6.9,8.1,6.7,8,6.6,8C6,8,5.5,8.4,5.3,8.9c-0.1,0.3-0.1,0.8-0.1,1.2
	c0.1,0.5,0.4,0.9,0.7,1c0.1,0,0.2,0.1,0.3,0.1c0.6,0,1.3-0.7,1.5-1.3C8.1,9.2,7.7,8.4,7.1,8.1z M7.3,9.7c-0.1,0.4-0.6,0.9-1,0.9
	c0,0-0.1,0-0.1,0c-0.1-0.1-0.3-0.3-0.3-0.5c-0.1-0.3-0.1-0.6,0-0.8C6,8.9,6.3,8.7,6.6,8.7c0.1,0,0.2,0,0.3,0
	C7.2,8.9,7.4,9.3,7.3,9.7z"/>
<path id="path4_fill" class="st0" d="M4.9,9.4c-0.1-0.6-0.6-1-1.2-1c-0.1,0-0.2,0-0.2,0c-0.6,0.1-1,0.8-0.9,1.4
	c0.1,0.5,0.7,1.3,1.3,1.3h0c0.1,0,0.1,0,0.2,0C4.7,11.1,5,10,4.9,9.4z M3.9,10.6C3.9,10.6,3.9,10.6,3.9,10.6c-0.3,0-0.7-0.5-0.7-0.8
	C3.1,9.4,3.3,9.1,3.6,9.1c0,0,0.1,0,0.1,0c0.3,0,0.5,0.2,0.6,0.5C4.4,9.9,4.1,10.6,3.9,10.6z"/>
<path id="path5_fill" class="st0" d="M10,11.1c-0.2-0.5-0.7-0.9-1.2-0.9c-0.2,0-0.3,0-0.5,0.1c-0.7,0.3-1.5,1.1-1.2,1.9
	C7.3,12.8,8,13,8.5,13c0.2,0,0.5,0,0.7-0.1C9.9,12.6,10.2,11.8,10,11.1z M9,12.3c-0.1,0-0.3,0.1-0.4,0.1c-0.4,0-0.8-0.2-0.9-0.4
	c-0.1-0.3,0.4-0.9,0.8-1.1c0.1,0,0.2,0,0.3,0c0.3,0,0.6,0.2,0.7,0.5C9.5,11.7,9.4,12.2,9,12.3z"/>
<path id="path6_fill" class="st0" d="M8.7,13.4c-0.1,0-0.2,0-0.3,0c-0.6,0-1.3,0.3-1.5,0.9c-0.1,0.7,0.7,1.4,1.3,1.5
	c0.1,0,0.2,0,0.2,0c0.6,0,1-0.4,1.2-1C9.8,14.2,9.4,13.5,8.7,13.4z M9.1,14.7C9,15,8.8,15.2,8.5,15.2c0,0-0.1,0-0.1,0
	c-0.4-0.1-0.9-0.5-0.8-0.8C7.6,14.2,8,14,8.4,14c0.1,0,0.1,0,0.2,0C8.9,14.1,9.1,14.4,9.1,14.7z"/>
</svg>
