<svg width="28" height="24" viewBox="0 0 28 24" version="1.1" xmlns="http://www.w3.org/2000/svg" xmlns:xlink="http://www.w3.org/1999/xlink">
<title>005-dog-19</title>
<desc>Created using Figma</desc>
<g id="Canvas" transform="translate(-1449 4437)">
<g id="005-dog-19">
<mask id="mask0_outline" mask-type="alpha">
<g id="Clip 2">
<use xlink:href="#path0_fill" transform="translate(1449.89 -4436.42)" fill="#FFFFFF"/>
</g>
</mask>
<g id="Fill 1" mask="url(#mask0_outline)">
<use xlink:href="#path1_fill" transform="translate(1468.86 -4435.38)" fill="#6A2499"/>
</g>
<g id="Fill 3" mask="url(#mask0_outline)">
<use xlink:href="#path2_fill" transform="translate(1449.88 -4436.42)" fill="#6A2499"/>
</g>
</g>
</g>
<defs>
<path id="path0_fill" fill-rule="evenodd" d="M 9.16363e-19 0L 9.16363e-19 22.5514L 27.0423 22.5514L 27.0423 0L 0 0L 9.16363e-19 0Z"/>
<path id="path1_fill" fill-rule="evenodd" d="M 3.21517 0.452518C 3.20124 0.254686 3.05762 0.0913765 2.8654 0.0542454C 2.84401 0.0500974 2.33386 -0.0461088 1.75965 0.0278857C 0.917295 0.13687 0.346986 0.549259 0.110464 1.22036C -0.120644 1.87608 0.0124079 2.54798 0.495292 3.16395C 0.831917 3.5936 1.23094 3.84864 1.24765 3.85934C 1.31731 3.9033 1.39648 3.92578 1.47644 3.92578C 1.52986 3.92578 1.58348 3.91554 1.63485 3.89514C 1.76203 3.84422 1.85797 3.73524 1.8933 3.60116L 2.24227 2.27542C 2.30368 2.04226 2.16667 1.80262 1.93635 1.7404C 1.7063 1.67824 1.46978 1.817 1.40837 2.05009L 1.23609 2.7048C 0.983062 2.41417 0.754529 1.99342 0.923172 1.5144C 1.13883 0.903108 1.92783 0.853466 2.38001 0.878287L 2.44168 1.75217C 2.45865 1.99289 2.665 2.17453 2.90284 2.157C 3.14042 2.13974 3.31943 1.93067 3.3024 1.68975L 3.21517 0.452518Z"/>
<path id="path2_fill" fill-rule="evenodd" d="M 26.9396 4.60088C 26.8236 4.37742 26.6285 4.21384 26.3899 4.14038L 25.1263 3.75074L 25.1106 3.60724C 24.96 2.23392 24.1418 1.04533 22.9221 0.427279C 22.1609 0.0417853 21.28 -0.0888758 20.4418 0.0598491C 18.8382 0.344186 17.5023 1.42065 16.8681 2.93955L 16.3164 4.26114L 15.151 4.26349C 14.1381 4.26556 13.165 4.56455 12.3248 5.13008L 11.5998 5.02163C 11.6372 4.2115 11.3607 3.35635 10.7641 2.57941C 10.1206 1.74105 9.07236 1.22121 7.73286 1.07644C 6.56754 0.950191 5.27221 1.11959 4.08438 1.55258C 3.03231 1.93654 2.38079 2.83317 2.20046 4.14641C 2.10425 4.84628 2.16876 5.48286 2.2103 5.77348L 0.746788 8.44257C -0.261504 10.2813 -0.247836 12.5581 0.782114 14.3843L 1.91573 16.3946L 0.733317 19.0897C 0.606472 19.379 0.602312 19.7128 0.721762 20.0058L 1.4349 21.7517C 1.63325 22.2376 2.09679 22.5514 2.61573 22.5514L 4.15537 22.5514C 4.37149 22.5514 4.57116 22.4519 4.7027 22.2783C 4.8345 22.1046 4.87808 21.8835 4.82235 21.6721C 4.66552 21.0765 4.33722 20.5543 3.88042 20.1639L 5.8902 17.4486C 6.14607 17.1031 6.32428 16.7132 6.42003 16.2903C 6.51749 15.8581 6.61964 15.4655 6.7241 15.1104C 7.19715 15.011 8.35526 14.8409 9.38726 15.2716C 9.7886 15.4391 10.1551 15.6327 10.5095 15.8199C 11.3723 16.2759 12.2627 16.7458 13.6509 16.8391L 14.1866 19.7206C 14.207 19.8302 14.2679 19.9279 14.3569 19.9932L 15.2313 20.6377L 15.7396 21.6676C 16.0086 22.213 16.5493 22.5514 17.151 22.5514L 19.0966 22.5514C 19.352 22.5514 19.5849 22.42 19.719 22.2C 19.8534 21.9797 19.8653 21.7099 19.751 21.4786C 19.4387 20.8457 18.9086 20.3442 18.2702 20.0682L 19.2566 16.3015C 20.8405 15.3226 21.9078 13.7072 22.1955 11.8415C 22.2066 11.7696 22.2174 11.6993 22.228 11.6312C 23.8759 11.339 24.5968 10.3145 24.9122 9.47903C 25.1029 8.97384 25.1655 8.48492 25.1826 8.13495C 25.2233 8.13809 25.2643 8.14124 25.3066 8.14465C 25.3175 8.14539 25.3286 8.14565 25.3397 8.14565C 25.4204 8.14565 25.4996 8.12291 25.5685 8.07929C 26.0392 7.7811 26.5217 6.85309 27.0023 5.32108C 27.0779 5.08044 27.0554 4.8246 26.9396 4.60088ZM 26.1792 5.05669C 25.7982 6.27171 25.4311 7.00523 25.1988 7.26006C 24.1722 7.18426 23.6186 7.18346 23.5944 7.18346C 23.3561 7.18346 23.1629 7.37895 23.1629 7.62047C 23.1629 7.86192 23.3561 8.05768 23.5941 8.05768C 23.598 8.05768 23.8498 8.05848 24.3205 8.08143C 24.3076 8.36503 24.257 8.77688 24.0953 9.19322C 23.7527 10.0755 23.059 10.6075 22.0316 10.7779C 21.5725 10.2164 20.1742 8.57617 18.6253 7.4516C 18.4458 7.32121 18.1933 7.33533 18.0439 7.50024C 17.8652 7.69781 17.9016 8.00228 18.1099 8.15308C 19.5972 9.22955 20.9898 10.8746 21.394 11.3696C 21.3778 11.4765 21.3605 11.5891 21.3424 11.707C 21.086 13.3696 20.1121 14.8023 18.6702 15.637C 18.5699 15.695 18.4966 15.7915 18.4672 15.9044L 17.3331 20.2351C 17.2737 20.4619 17.402 20.6957 17.6232 20.765L 17.7303 20.7982C 18.201 20.9451 18.6068 21.2603 18.8709 21.6776L 17.1505 21.6776C 16.8797 21.6776 16.632 21.5224 16.5108 21.277L 15.9555 20.1516C 15.9245 20.0889 15.8791 20.0348 15.8234 19.9935L 15.0024 19.3885L 13.9 13.4609C 13.8559 13.2236 13.63 13.0678 13.3963 13.1122C 13.1621 13.1572 13.0078 13.3856 13.0522 13.6229L 13.4845 15.9485C 12.4094 15.838 11.7055 15.4666 10.908 15.0451C 10.5365 14.8488 10.1525 14.646 9.71505 14.4634C 8.74624 14.0591 7.71629 14.0844 7.03584 14.1722C 7.42615 13.1446 7.81738 12.6149 8.10165 12.5477C 8.23787 12.5156 8.35263 12.422 8.39132 12.2859C 8.50014 11.9017 8.1793 11.6215 7.86955 11.7054C 7.28168 11.8643 6.76994 12.5064 6.30488 13.6683C 5.96674 14.513 5.72302 15.4543 5.57828 16.0954C 5.50967 16.3983 5.3823 16.6772 5.19939 16.9244L 2.92522 19.9964C 2.82254 20.1352 2.80782 20.3268 2.90092 20.4849C 2.93935 20.5504 2.99713 20.602 3.06138 20.6417C 3.45499 20.8847 3.75292 21.247 3.9172 21.6776L 2.61514 21.6776C 2.4465 21.6776 2.29608 21.5757 2.23163 21.4178L 1.51843 19.6719C 1.48879 19.5995 1.48978 19.5169 1.52127 19.4453L 2.79237 16.5475C 2.84836 16.4205 2.84083 16.2741 2.77276 16.1532L 1.53078 13.9509C 0.649468 12.3886 0.637846 10.4406 1.50061 8.86754L 3.03714 6.06524C 3.08667 5.97452 3.10291 5.86895 3.08304 5.76733C 3.07762 5.7401 2.56615 3.03575 4.37605 2.37562C 5.42792 1.992 6.61774 1.83545 7.64049 1.94597C 8.40836 2.02913 9.45554 2.29955 10.0826 3.1165C 10.9782 4.28342 10.9565 5.60709 10.0274 6.48887C 9.78081 6.72277 9.44835 6.77421 9.138 6.62683C 9.0591 6.58923 8.97966 6.5351 8.90874 6.46559C 8.91931 6.46639 8.92961 6.46713 8.94017 6.46713C 9.11483 6.46713 9.27937 6.35868 9.34415 6.18333C 9.42768 5.95726 9.3147 5.70511 9.09158 5.62041C 9.09158 5.62041 8.05655 5.22294 7.64564 5.11288C 6.576 4.82594 4.64585 4.54321 3.63836 5.83577C 3.50042 6.01293 3.50629 6.27298 3.66622 6.4306C 3.85401 6.61532 4.15247 6.58996 4.30877 6.38638C 5.06112 5.40639 6.89817 5.76626 7.81507 6.0728C 7.87826 6.65245 8.23345 7.16232 8.77153 7.41842C 9.40371 7.71895 10.111 7.60715 10.617 7.12706C 11.0019 6.76197 11.2737 6.33754 11.4336 5.88099L 12.0134 5.96777C 12.3728 6.02129 12.6565 6.31111 12.6962 6.677C 12.6967 6.68195 12.6973 6.68697 12.6978 6.69192C 12.72 6.91745 12.9074 7.08551 13.1265 7.08551C 13.1409 7.08551 13.1553 7.08498 13.17 7.08337C 13.4071 7.05935 13.5802 6.84506 13.5564 6.60488C 13.5139 6.17497 13.3658 5.85718 13.1863 5.62877C 13.7906 5.30837 14.4602 5.13958 15.152 5.13824L 16.6029 5.1351C 16.7757 5.13483 16.932 5.02979 16.9993 4.86829L 17.6622 3.28068C 18.1817 2.03616 19.2764 1.15438 20.5897 0.921557C 21.2475 0.804745 21.9385 0.907173 22.5356 1.20977C 23.4925 1.69435 24.1343 2.62704 24.2524 3.70431L 24.2681 3.84829L 23.3053 4.40572C 23.1111 4.51839 23.0213 4.76218 23.1123 4.96918C 23.1856 5.13536 23.344 5.2297 23.5075 5.2297C 23.5802 5.2297 23.6537 5.21116 23.7213 5.17196L 24.7807 4.55859L 26.1381 4.97727C 26.1588 4.98356 26.1696 4.99741 26.175 5.00785C 26.1804 5.01855 26.1859 5.03581 26.1792 5.05669Z"/>
</defs>
</svg>
