<?xml version="1.0" encoding="utf-8"?>
<!-- Generator: Adobe Illustrator 21.0.0, SVG Export Plug-In . SVG Version: 6.00 Build 0)  -->
<svg version="1.1" id="Layer_1" xmlns="http://www.w3.org/2000/svg" xmlns:xlink="http://www.w3.org/1999/xlink" x="0px" y="0px"
	 viewBox="0 0 9 9" style="enable-background:new 0 0 9 9;" xml:space="preserve">
<path id="path0_fill" d="M0,1c0-0.6,0.4-1,1-1h7c0.6,0,1,0.4,1,1v2c0,0.6-0.4,1-1,1H1C0.4,4,0,3.6,0,3V1z"/>
<path id="path0_fill_1_" d="M0,6c0-0.6,0.4-1,1-1h7c0.6,0,1,0.4,1,1v2c0,0.6-0.4,1-1,1H1C0.4,9,0,8.6,0,8V6z"/>
</svg>
