<?xml version="1.0" encoding="utf-8"?>
<!-- Generator: Adobe Illustrator 19.0.0, SVG Export Plug-In . SVG Version: 6.00 Build 0)  -->
<svg version="1.1" id="Capa_1" xmlns="http://www.w3.org/2000/svg" xmlns:xlink="http://www.w3.org/1999/xlink" x="0px" y="0px"
	 viewBox="-4 2 20 20" style="enable-background:new -4 2 20 20;" xml:space="preserve">
<style type="text/css">
	.st0{fill:#FFFFFF;}
</style>
<path id="XMLID_24_" class="st0" d="M0.6,10.6c0.2,0,0.3-0.1,0.3-0.3V8.2c0-0.2-0.1-0.3-0.3-0.3S0.3,8,0.3,8.2v2.2
	C0.2,10.5,0.4,10.6,0.6,10.6z"/>
<path id="XMLID_19_" class="st0" d="M3.3,10.6c0.2,0,0.3-0.1,0.3-0.3V8.2c0-0.2-0.1-0.3-0.3-0.3C3.1,7.9,3,8,3,8.2v2.2
	C2.9,10.5,3.1,10.6,3.3,10.6z"/>
<path id="XMLID_14_" class="st0" d="M6,10.6c0.2,0,0.3-0.1,0.3-0.3V8.2C6.3,8,6.2,7.9,6,7.9C5.8,7.9,5.7,8,5.7,8.2v2.2
	C5.7,10.5,5.8,10.6,6,10.6z"/>
<path id="XMLID_9_" class="st0" d="M8.7,10.6c0.2,0,0.3-0.1,0.3-0.3V8.2C9,8,8.9,7.9,8.7,7.9C8.5,7.9,8.4,8,8.4,8.2v2.2
	C8.4,10.5,8.5,10.6,8.7,10.6z"/>
<path id="XMLID_4_" class="st0" d="M11.4,10.6c0.2,0,0.3-0.1,0.3-0.3V8.2c0-0.2-0.1-0.3-0.3-0.3c-0.2,0-0.3,0.1-0.3,0.3v2.2
	C11.1,10.5,11.3,10.6,11.4,10.6z"/>
<path id="XMLID_39_" class="st0" d="M15.5,11.7V8.8c0-0.4-0.4-0.8-0.8-0.8h-0.5c-0.2-1.1-1.1-1.9-2.3-1.9H8.5V4.7
	c0-0.4-0.4-0.8-0.8-0.8H4.3c-0.5,0-0.8,0.3-0.8,0.8v1.4H0.1C-1.1,6.1-2,6.9-2.2,8h-0.5c-0.5,0-0.8,0.3-0.8,0.8v2.8
	C-3.8,11.8-4,12.1-4,12.4v1.4c0,0.3,0.2,0.6,0.5,0.7v2.8c0,0.4,0.4,0.8,0.8,0.8h0.5c0.2,1.1,1.1,1.9,2.3,1.9h11.9
	c1.2,0,2.1-0.8,2.3-1.9h0.5c0.5,0,0.8-0.3,0.8-0.8v-2.8c0.3-0.1,0.5-0.4,0.5-0.7v-1.4C16,12.1,15.8,11.8,15.5,11.7z M14.2,8.7h0.4
	c0.1,0,0.2,0.1,0.2,0.2v2.8h-0.6L14.2,8.7L14.2,8.7z M4.1,4.8c0-0.1,0.1-0.2,0.2-0.2h3.3c0.1,0,0.2,0.1,0.2,0.2v1.4H4.1L4.1,4.8
	L4.1,4.8z M-1.6,8.4c0-0.9,0.8-1.7,1.7-1.7h11.9c0.9,0,1.7,0.7,1.7,1.7v3.3h-1.3h-0.9H9.9h-1H3.1h-1H0.6h-0.9h-1.3L-1.6,8.4
	L-1.6,8.4z M0.4,12.2h0.1h1.6h0.1V14H0.4C0.4,14,0.4,12.2,0.4,12.2z M2.9,12.2h0.3h5.7h0.3V14H2.9V12.2z M9.7,12.2L9.7,12.2h1.7h0.1
	V14H9.7L9.7,12.2L9.7,12.2z M-2.9,8.8c0-0.1,0.1-0.2,0.2-0.2h0.4v3h-0.6V8.8z M-2.3,17.6h-0.4c-0.1,0-0.2-0.1-0.2-0.2v-2.8h0.6
	L-2.3,17.6L-2.3,17.6z M-3.2,14c-0.1,0-0.2-0.1-0.2-0.2v-1.4c0-0.1,0.1-0.2,0.2-0.2h2.8h0.2V14L-3.2,14L-3.2,14z M13.6,17.9
	c0,0.9-0.8,1.7-1.7,1.7H0.1c-0.9,0-1.7-0.7-1.7-1.7v-3.3h15.3V17.9z M14.9,17.4c0,0.1-0.1,0.2-0.2,0.2h-0.4v-3h0.6L14.9,17.4
	L14.9,17.4z M15.4,13.8c0,0.1-0.1,0.2-0.2,0.2h-3v-1.7h0.1h2.9c0.1,0,0.2,0.1,0.2,0.2V13.8z"/>
</svg>
