<?xml version="1.0" encoding="utf-8"?>
<!-- Generator: Adobe Illustrator 19.0.0, SVG Export Plug-In . SVG Version: 6.00 Build 0)  -->
<svg version="1.1" id="Capa_1" xmlns="http://www.w3.org/2000/svg" xmlns:xlink="http://www.w3.org/1999/xlink" x="0px" y="0px"
	 viewBox="-4 2 20 20" style="enable-background:new -4 2 20 20;" xml:space="preserve">
<style type="text/css">
	.st0{fill:#FFFFFF;}
</style>
<path id="XMLID_12_" class="st0" d="M15.8,18.4c-0.1-0.4-0.3-1.7-0.4-2.2l0,0c-0.2-1.3-0.3-2.5-0.3-3.7V4.5c0-1.2-0.9-2.1-2.1-2.1
	H8.7c-0.2,0-0.3,0.2-0.3,0.3v10.5c0,0.2,0.2,0.3,0.3,0.3h4.1c-0.1,1.6-0.3,3.2-0.7,4.9c-0.1,0.2-0.1,0.5-0.1,0.7
	c0,0.8,0.3,1.6,0.8,2.1c0.1,0.1,0.1,0.1,0.2,0.1c0.3,0.2,0.6,0.3,1,0.3c0.3,0,0.7-0.1,1-0.3c0.1,0,0.1-0.1,0.2-0.1
	c0.5-0.5,0.8-1.3,0.8-2.1C15.9,18.9,15.9,18.7,15.8,18.4z M14.6,20.8L14.6,20.8L14.6,20.8c-0.2,0.2-0.4,0.3-0.7,0.3
	c-0.2,0-0.4-0.1-0.7-0.2l0,0l0,0c-0.4-0.3-0.7-1-0.7-1.6c0-0.2,0-0.4,0.1-0.6c0.4-1.9,0.7-3.7,0.7-5.4c0-0.1-0.1-0.2-0.1-0.2
	c-0.1-0.1-0.2-0.1-0.2-0.1H8.9V12h3.7c0.2,0,0.3-0.2,0.3-0.3c0-0.2-0.2-0.3-0.3-0.3H8.9v-0.9h3.7c0.2,0,0.3-0.2,0.3-0.3
	c0-0.2-0.2-0.3-0.3-0.3H8.9V8.8h3.7c0.2,0,0.3-0.2,0.3-0.3c0-0.2-0.2-0.3-0.3-0.3H8.9V7.2h3.7c0.2,0,0.3-0.2,0.3-0.3
	c0-0.2-0.2-0.3-0.3-0.3H8.9V5.7h3.7c0.2,0,0.3-0.2,0.3-0.3C13,5.2,12.8,5,12.7,5H8.9V4.1h1.7c0.2,0,0.3-0.2,0.3-0.3
	s-0.2-0.3-0.3-0.3H8.9V2.8H13c0.8,0,1.4,0.7,1.4,1.5v8.1c0,1.2,0.1,2.4,0.3,3.6V16c0.1,0.4,0.3,1.9,0.4,2.3c0.1,0.2,0.1,0.4,0.1,0.6
	C15.3,19.8,15.1,20.5,14.6,20.8z"/>
<path id="XMLID_170_" class="st0" d="M12.7,3.6h-1c-0.2,0-0.3,0.2-0.3,0.3c0,0.2,0.2,0.3,0.3,0.3h1C12.9,4.3,13,4.1,13,4
	C13,3.7,12.9,3.6,12.7,3.6z"/>
<path id="XMLID_163_" class="st0" d="M6.6,20.1c-0.7,0-1.2-0.5-1.2-1.3c0-0.7,0.5-1.3,1.2-1.3s1.2,0.5,1.2,1.3
	C7.8,19.5,7.3,20.1,6.6,20.1z M6.6,16.9c-1,0-1.8,0.8-1.8,1.9c0,1,0.8,1.9,1.8,1.9s1.8-0.8,1.8-1.9C8.5,17.8,7.7,16.9,6.6,16.9z"/>
<path id="XMLID_9_" class="st0" d="M0.5,9.2l0.9,5.1l-0.3,0.8c-0.3,0.3-0.8,0.6-1.3,0.7l-0.4,0.1c-0.3-0.1-0.5-0.1-0.8-0.1
	c-1.5,0.1-2.7,1.4-2.7,3c-0.1,0.8,0.3,1.6,0.8,2.2s1.3,0.9,2.1,0.9c1.3,0,2.5-0.9,2.8-2.2v-0.1l1-4.2l1,4.2v0.1
	c0.4,1.3,1.5,2.2,2.8,2.2c0.8,0,1.6-0.3,2.1-0.9c0.5-0.6,0.9-1.4,0.8-2.2c-0.1-1.5-1.3-2.8-2.7-3c-0.3,0-0.5,0-0.8,0.1l-0.4-0.1
	c-0.5-0.1-0.9-0.3-1.3-0.7l-0.3-0.8L6,3.9c0.1-0.6-0.1-1.3-0.5-1.7C5.4,2.2,5.3,2.1,5.2,2.2C5.1,2.2,5,2.3,5,2.4L2.8,9.6L0.6,2.4
	C0.6,2.3,0.5,2.2,0.4,2.2c-0.1-0.1-0.2,0-0.3,0.1c-0.4,0.4-0.7,1-0.5,1.7L0.5,9.2C0.4,9.2,0.5,9.2,0.5,9.2L0.4,8.8 M1,8.7L0.1,3.8
	c-0.1-0.2,0-0.4,0.1-0.6l2.3,7.6l0,0l1.1,3.6l0,0l0.3,1c0,0.1,0.1,0.1,0.1,0.1c0.4,0.5,1,0.8,1.7,0.9L6,16.5c0.1,0,0.1,0,0.1,0
	c0.2-0.1,0.4-0.1,0.7-0.1c1.2,0.1,2.1,1.2,2.2,2.3c0,0.7-0.2,1.3-0.7,1.8c-0.4,0.5-1,0.7-1.7,0.7c-1.1,0-2-0.8-2.3-1.8l0,0l-1.1-4.7
	c0-0.1-0.1-0.2-0.2-0.2l-0.2-0.1l0,0l-0.8-0.3L2,14L1,8.7C1,8.7,1,8.7,1,8.7L1,9.1 M3.8,12.9l-0.7-2.2l2.2-7.5
	c0.1,0.2,0.1,0.4,0.1,0.6L3.8,12.9z M1.2,19.4C1.2,19.5,1.2,19.5,1.2,19.4c-0.3,1.1-1.2,1.8-2.3,1.8c-0.7,0-1.3-0.3-1.7-0.7
	c-0.4-0.5-0.7-1.1-0.7-1.8c0.1-1.2,1-2.2,2.2-2.3c0.1,0,0.1,0,0.2,0c0.2,0,0.3,0,0.5,0.1c0.1,0,0.1,0,0.1,0l0.4-0.1
	c0.7-0.1,1.2-0.4,1.7-0.9c0.1-0.1,0.1-0.1,0.1-0.1l0.2-0.7l0.2,0.1l0.2,0.1L1.2,19.4z"/>
<path id="XMLID_141_" class="st0" d="M-1,20.1c-0.7,0-1.2-0.5-1.2-1.3c0-0.7,0.5-1.3,1.2-1.3s1.2,0.5,1.2,1.3
	C0.2,19.5-0.4,20.1-1,20.1z M-1,16.9c-1,0-1.8,0.8-1.8,1.9c0,1,0.8,1.9,1.8,1.9s1.8-0.8,1.8-1.9C0.8,17.8-0.1,16.9-1,16.9z"/>
</svg>
