<?xml version="1.0" encoding="utf-8"?>
<!-- Generator: Adobe Illustrator 19.0.0, SVG Export Plug-In . SVG Version: 6.00 Build 0)  -->
<svg version="1.1" id="Capa_1" xmlns="http://www.w3.org/2000/svg" xmlns:xlink="http://www.w3.org/1999/xlink" x="0px" y="0px"
	 viewBox="-4 2 20 20" style="enable-background:new -4 2 20 20;" xml:space="preserve">
<style type="text/css">
	.st0{fill:#FFFFFF;}
</style>
<path id="XMLID_42_" class="st0" d="M11.1,17.4c0,0.2-0.1,0.3-0.3,0.3c-0.2,0-0.3-0.1-0.3-0.3v-2.7c0-0.2,0.1-0.3,0.3-0.3
	c0.2,0,0.3,0.1,0.3,0.3V17.4z M10.8,13.9c-0.5,0-0.9,0.4-0.9,0.8v2.7c0,0.5,0.4,0.8,0.9,0.8s0.9-0.4,0.9-0.8v-2.7
	C11.7,14.3,11.3,13.9,10.8,13.9z"/>
<path id="XMLID_35_" class="st0" d="M7.7,17.4c0,0.2-0.1,0.3-0.3,0.3c-0.2,0-0.3-0.1-0.3-0.3v-2.7c0-0.2,0.1-0.3,0.3-0.3
	c0.2,0,0.3,0.1,0.3,0.3V17.4z M7.3,13.9c-0.5,0-0.9,0.4-0.9,0.8v2.7c0,0.5,0.4,0.8,0.9,0.8s0.9-0.4,0.9-0.8v-2.7
	C8.3,14.3,7.9,13.9,7.3,13.9z"/>
<path id="XMLID_28_" class="st0" d="M4.9,17.4c0,0.2-0.1,0.3-0.3,0.3c-0.2,0-0.3-0.1-0.3-0.3v-2.7c0-0.2,0.1-0.3,0.3-0.3
	c0.2,0,0.3,0.1,0.3,0.3V17.4z M4.6,13.9c-0.5,0-0.9,0.4-0.9,0.8v2.7c0,0.5,0.4,0.8,0.9,0.8s0.9-0.4,0.9-0.8v-2.7
	C5.5,14.3,5.1,13.9,4.6,13.9z"/>
<path id="XMLID_21_" class="st0" d="M1.5,17.2c0,0.2-0.1,0.3-0.3,0.3c-0.2,0-0.3-0.1-0.3-0.3v-2.7c0-0.2,0.1-0.3,0.3-0.3
	c0.2,0,0.3,0.1,0.3,0.3V17.2z M1.1,13.7c-0.5,0-0.9,0.4-0.9,0.8v2.7c0,0.5,0.4,0.8,0.9,0.8s0.9-0.4,0.9-0.8v-2.7
	C2.1,14.1,1.7,13.7,1.1,13.7z"/>
<path id="XMLID_11_" class="st0" d="M15.1,12.5H-3.1c-0.2,0-0.3-0.1-0.3-0.3s0.1-0.3,0.3-0.3h18.2c0.2,0,0.3,0.1,0.3,0.3
	C15.4,12.3,15.3,12.5,15.1,12.5z M12.6,17.7c-0.3,0.7-1,1.2-1.9,1.2H1.1c-0.9,0-1.7-0.5-1.9-1.3L-2,13h16L12.6,17.7z M-0.9,8.7
	L-0.9,8.7c0.3-0.8,1-1.3,1.9-1.3h9.6c0.9,0,1.6,0.5,1.9,1.2l0,0l1.4,2.7H-1.9L-0.9,8.7z M3.6,6.9h4.7V5.2H3.6V6.9z M15.1,11.3h-0.5
	l-1.5-3c-0.4-0.9-1.4-1.5-2.5-1.5H8.9V4.7h-6v2.2H1.1c-1.2,0-2.2,0.7-2.5,1.7l-1.1,2.8h-0.5c-0.5,0-0.9,0.4-0.9,0.8
	c0,0.5,0.4,0.8,0.9,0.8h0.4l1.1,4.7l0,0c0.3,1,1.4,1.7,2.5,1.7h9.6c1.1,0,2.1-0.6,2.5-1.5l1.5-4.8h0.4c0.5,0,0.9-0.4,0.9-0.8
	C16,11.7,15.6,11.3,15.1,11.3z"/>
</svg>
