<svg width="33" height="42" viewBox="0 0 33 42" version="1.1" xmlns="http://www.w3.org/2000/svg" xmlns:xlink="http://www.w3.org/1999/xlink">
<title>Group</title>
<desc>Created using Figma</desc>
<g id="Canvas" transform="translate(1100 4676)">
<g id="Group">
<g id="Vector 8">
<use xlink:href="#path0_stroke" transform="translate(-1099 -4675)" fill="#7DD1C4"/>
</g>
<g id="Group 4 Copy">
<g id="010-dog-14">
<g id="Group 3">
<mask id="mask0_outline" mask-type="alpha">
<g id="Clip 2">
<use xlink:href="#path1_fill" transform="translate(-1095.27 -4666.22)" fill="#FFFFFF"/>
</g>
</mask>
<g id="Fill 1" mask="url(#mask0_outline)">
<use xlink:href="#path2_fill" transform="translate(-1095.27 -4666.22)" fill="#6A2499"/>
</g>
</g>
<g id="Fill 4">
<use xlink:href="#path3_fill" transform="translate(-1084.25 -4666.22)" fill="#6A2499"/>
</g>
<g id="Fill 5">
<use xlink:href="#path4_fill" transform="translate(-1089.88 -4671.04)" fill="#6A2499"/>
</g>
</g>
</g>
</g>
</g>
<defs>
<path id="path0_stroke" d="M 15.0469 40L 14.7488 40.4014L 15.0409 40.6184L 15.3372 40.4071L 15.0469 40ZM 0 28.8235L -0.5 28.8235L -0.5 29.075L -0.29814 29.2249L 0 28.8235ZM 0 0L 0 -0.5L -0.5 -0.5L -0.5 0L 0 0ZM 30.7208 0L 31.2208 0L 31.2208 -0.5L 30.7208 -0.5L 30.7208 0ZM 30.7208 28.8235L 31.0111 29.2306L 31.2208 29.0811L 31.2208 28.8235L 30.7208 28.8235ZM 15.3451 39.5986L 0.29814 28.4221L -0.29814 29.2249L 14.7488 40.4014L 15.3451 39.5986ZM 0.5 28.8235L 0.5 0L -0.5 0L -0.5 28.8235L 0.5 28.8235ZM 0 0.5L 30.7208 0.5L 30.7208 -0.5L 0 -0.5L 0 0.5ZM 30.2208 0L 30.2208 28.8235L 31.2208 28.8235L 31.2208 0L 30.2208 0ZM 30.4305 28.4164L 14.7566 39.5929L 15.3372 40.4071L 31.0111 29.2306L 30.4305 28.4164Z"/>
<path id="path1_fill" fill-rule="evenodd" d="M 0 0L 0 19.2241L 10.2435 19.2241L 10.2435 0L 0 0Z"/>
<path id="path2_fill" fill-rule="evenodd" d="M 4.856 6.74386C 4.36448 6.25881 3.61773 6.17647 3.0389 6.49608L 3.0389 1.50042C 3.0389 1.24666 2.97459 1.00756 2.86153 0.797808C 2.92953 0.777854 3.0008 0.76729 3.07349 0.76729C 3.48286 0.76729 3.81603 1.09606 3.81603 1.50042L 3.81603 5.18839C 3.81603 5.40026 3.98995 5.57192 4.20447 5.57192C 4.41905 5.57192 4.59297 5.40026 4.59297 5.18839L 4.59297 1.50042C 4.59297 0.673095 3.91149 0 3.07349 0C 2.7965 0 2.52926 0.0740645 2.29613 0.211395C 2.06859 0.0774684 1.80295 0 1.51942 0C 0.681724 0 0 0.673095 0 1.50066L 0.00624126 8.54049C 0.00647902 8.86192 0.127025 9.3154 0.286504 9.59552C 0.28906 9.6001 0.291853 9.60468 0.294647 9.60908L 4.77011 16.7644C 4.86295 16.9318 4.94682 17.25 4.94682 17.4377L 4.94682 18.8403C 4.94682 19.0521 5.12069 19.2241 5.33527 19.2241C 5.54979 19.2241 5.72371 19.0521 5.72371 18.8403L 5.72371 17.4377C 5.72371 17.1163 5.60346 16.6626 5.44393 16.3825C 5.44137 16.3779 5.43858 16.3733 5.43578 16.369L 0.96056 9.21358C 0.867714 9.04626 0.783665 8.72782 0.783427 8.54008L 0.777126 1.50042C 0.777126 1.0963 1.11035 0.76729 1.51966 0.76729C 1.92903 0.76729 2.26201 1.09606 2.26201 1.50042L 2.26201 7.80483C 2.26201 7.81381 2.2629 7.82273 2.26338 7.83142C 2.2701 8.20673 2.41781 8.57992 2.7071 8.86562L 6.18693 12.3014C 6.3388 12.4513 6.58465 12.4513 6.73652 12.3014C 6.88815 12.1517 6.88815 11.9087 6.73652 11.7589L 3.25645 8.32316C 2.96716 8.03729 2.96716 7.57213 3.25645 7.28649C 3.54599 7.00062 4.01711 7.00062 4.30665 7.28649L 8.58821 11.5139C 9.0663 11.986 9.47007 12.9483 9.47007 13.6157L 9.47007 18.8403C 9.47007 19.0521 9.644 19.2241 9.85852 19.2241C 10.0731 19.2241 10.247 19.0521 10.247 18.8403L 10.247 13.6157C 10.247 12.747 9.75985 11.5856 9.13762 10.9715L 4.856 6.74386Z"/>
<path id="path3_fill" fill-rule="evenodd" d="M 8.7273 0C 8.44383 0 8.17819 0.0772337 7.95089 0.211395C 7.71753 0.0738298 7.45052 0 7.17329 0C 6.33553 0 5.65381 0.672861 5.65381 1.50019L 5.65381 5.18816C 5.65381 5.40002 5.82773 5.57192 6.04225 5.57192C 6.25683 5.57192 6.4307 5.40002 6.4307 5.18816L 6.4307 1.50019C 6.4307 1.09606 6.76392 0.767055 7.17329 0.767055C 7.24592 0.767055 7.31719 0.777619 7.38525 0.797573C 7.2722 1.00732 7.20788 1.24642 7.20788 1.50019L 7.20788 6.49538C 6.98355 6.3709 6.7298 6.30441 6.46529 6.30441C 6.05943 6.30441 5.67794 6.46028 5.39096 6.74363L 1.1094 10.9712C 0.487116 11.5854 0 12.7468 0 13.6154L 0 18.84C 0 19.0519 0.173923 19.2239 0.388444 19.2239C 0.603203 19.2239 0.776888 19.0519 0.776888 18.84L 0.776888 13.6154C 0.776888 12.9481 1.18091 11.9857 1.65875 11.5137L 5.94055 7.28626C 6.08059 7.14782 6.26706 7.07146 6.46529 7.07146C 6.66359 7.07146 6.85029 7.14782 6.99027 7.28626C 7.13079 7.42453 7.20788 7.60858 7.20788 7.8046C 7.20788 8.00038 7.13079 8.18448 6.99027 8.32293L 3.5105 11.7587C 3.35887 11.9084 3.35887 12.1515 3.5105 12.3012C 3.66231 12.4508 3.90822 12.4511 4.06009 12.3012L 7.53992 8.86539C 7.8269 8.58198 7.98477 8.20532 7.98477 7.8046L 7.98477 1.50019C 7.98477 1.09583 8.31794 0.767055 8.7273 0.767055C 9.13667 0.767055 9.46983 1.09583 9.46983 1.49978L 9.46359 8.53961C 9.46336 8.72758 9.37931 9.04603 9.2864 9.21311L 4.81094 16.3685C 4.80821 16.3731 4.80565 16.3777 4.80286 16.3823C 4.64332 16.6624 4.52307 17.1161 4.52307 17.4375L 4.52307 18.84C 4.52307 19.0519 4.69693 19.2239 4.91175 19.2239C 5.12627 19.2239 5.3002 19.0519 5.3002 18.84L 5.3002 17.4375C 5.3002 17.2498 5.38401 16.9316 5.47691 16.7642L 9.95214 9.60885C 9.95493 9.60445 9.95766 9.59987 9.96022 9.59529C 10.1198 9.31541 10.2402 8.86169 10.2405 8.54025L 10.2468 1.50019C 10.2468 0.672861 9.5653 0 8.7273 0Z"/>
<path id="path4_fill" fill-rule="evenodd" d="M 5.02988 3.01787C 4.8153 3.01787 4.64143 3.18959 4.64143 3.40139L 4.64143 7.48504C 4.64143 8.10749 4.12852 8.61385 3.49785 8.61385C 2.86749 8.61385 2.35457 8.10766 2.35457 7.48504L 2.35457 3.4484C 2.35457 1.94499 3.52972 0.76729 5.02988 0.76729C 6.50519 0.76729 7.70542 1.9704 7.70542 3.44911C 7.70542 3.66091 7.87928 3.83263 8.09386 3.83263L 9.96761 3.83263C 9.96969 4.10014 9.97159 4.48531 9.97159 4.91033C 9.97159 5.50525 9.48233 5.98919 8.88097 5.98919L 8.13612 5.98919C 7.9213 5.98919 7.74744 6.16091 7.74744 6.37272L 7.74744 12.7968C 7.74744 13.0086 7.9213 13.1803 8.13612 13.1803C 8.35064 13.1803 8.52457 13.0086 8.52457 12.7968L 8.52457 6.75648L 8.88097 6.75648C 9.91072 6.75648 10.7487 5.92822 10.7487 4.91033C 10.7487 4.11117 10.7415 3.45157 10.7415 3.44494C 10.7392 3.23472 10.566 3.06552 10.353 3.06552L 8.46162 3.06552C 8.37709 2.28908 8.0365 1.57126 7.48156 1.01331C 6.83188 0.359935 5.96119 0 5.02988 0C 4.09856 0 3.22782 0.3597 2.57819 1.01284C 1.9329 1.66158 1.57745 2.52659 1.57745 3.4484L 1.57745 7.32617L 0.113725 8.77113C -0.0379082 8.92108 -0.0379082 9.16387 0.113725 9.31376C 0.18963 9.38853 0.289015 9.42609 0.3884 9.42609C 0.488022 9.42609 0.587407 9.38853 0.663312 9.31376L 1.74115 8.24934C 2.03948 8.91509 2.71449 9.3812 3.49785 9.3812C 4.55691 9.3812 5.41832 8.53045 5.41832 7.48504L 5.41832 3.40139C 5.41832 3.18959 5.2444 3.01787 5.02988 3.01787Z"/>
</defs>
</svg>
