<?xml version="1.0" encoding="utf-8"?>
<!-- Generator: Adobe Illustrator 19.0.0, SVG Export Plug-In . SVG Version: 6.00 Build 0)  -->
<svg version="1.1" id="Capa_1" xmlns="http://www.w3.org/2000/svg" xmlns:xlink="http://www.w3.org/1999/xlink" x="0px" y="0px"
	 viewBox="-4 2 20 20" style="enable-background:new -4 2 20 20;" xml:space="preserve">
<style type="text/css">
	.st0{fill:#5FC3AF;}
</style>
<path id="XMLID_56_" class="st0" d="M10.4,19.9c0,0,0,0-0.1,0c-0.2,0-0.4,0-0.6-0.1s-0.5-0.1-0.7-0.1c-0.2,0-0.5,0-0.7,0.1
	c-0.2,0-0.4,0.1-0.6,0.1c-0.1,0-0.1,0-0.1,0s0,0,0-0.1c0-0.7,0.7-1.3,1.5-1.3c0.8,0,1.5,0.6,1.5,1.3C10.4,19.8,10.4,19.8,10.4,19.9z
	 M8.9,17.7c-1.2,0-2.2,0.9-2.2,2c0,0.5,0.3,0.8,0.8,0.8c0.2,0,0.5,0,0.8-0.1c0.2,0,0.4-0.1,0.6-0.1c0.1,0,0.3,0,0.5,0.1
	c0.2,0,0.5,0.1,0.8,0.1c0.5,0,0.9-0.3,0.9-0.8C11.1,18.6,10.1,17.7,8.9,17.7z"/>
<path id="XMLID_49_" class="st0" d="M6.5,17c0-0.2,0.1-0.4,0.2-0.4S7,16.8,7,17s-0.1,0.4-0.2,0.4C6.7,17.4,6.5,17.2,6.5,17z M7.8,17
	c0-0.6-0.4-1.1-1-1.1s-1,0.5-1,1.1s0.4,1.1,1,1.1S7.8,17.6,7.8,17z"/>
<path id="XMLID_42_" class="st0" d="M8.9,15.9c0.1,0,0.2,0.2,0.2,0.4c0,0.2-0.1,0.4-0.2,0.4s-0.2-0.2-0.2-0.4S8.8,15.9,8.9,15.9z
	 M8.9,17.4c0.5,0,1-0.5,1-1.1s-0.4-1.1-1-1.1s-1,0.5-1,1.1C8,16.9,8.4,17.4,8.9,17.4z"/>
<path id="XMLID_35_" class="st0" d="M11,17.4c-0.1,0-0.2-0.2-0.2-0.4s0.1-0.4,0.2-0.4c0.1,0,0.2,0.2,0.2,0.4S11.2,17.4,11,17.4z
	 M11,15.9c-0.5,0-1,0.5-1,1.1c0,0.6,0.4,1.1,1,1.1c0.5,0,1-0.5,1-1.1C12,16.4,11.6,15.9,11,15.9z"/>
<path id="XMLID_25_" class="st0" d="M4,21.3v-8.2c0.6,0.5,1.4,0.9,2.2,1c0.1,0,0.3,0,0.5,0c1.1,0,2.3-0.4,3.3-1.3
	c1.4-1.2,3.2-1.2,3.7-1.2v9.7L4,21.3L4,21.3z M5.9,8.1h6c1,0,1.9,0.8,1.9,1.8v0.9c-0.7,0-2.6,0-4.2,1.4c-1,0.8-2.1,1.2-3.2,1.1
	c-0.9-0.1-1.7-0.6-2.3-1.3V10C4,9,4.9,8.1,5.9,8.1z M7,6.4c0-0.1,0-0.1,0.1-0.1h3.5c0.1,0,0.1,0,0.1,0.1v1H7C7,7.4,7,6.4,7,6.4z
	 M6.1,3.9C5.6,3.9,4.7,4.1,4.6,5H4c0.1-2.3,1.3-2.3,2.3-2.3h3.6c0.1,0,0.1,0,0.1,0.1v0.9c0,0.1,0,0.1-0.1,0.1H6.1z M11.9,7.4h-0.4
	v-1c0-0.4-0.4-0.8-0.8-0.8H9.3v-1h0.6c0.5,0,0.8-0.4,0.8-0.8V2.8c0-0.4-0.4-0.8-0.8-0.8H6.3C5.8,2,5.1,2,4.4,2.4
	C3.7,3,3.3,3.9,3.3,5.4c0,0.2,0.1,0.3,0.3,0.3h1.2c0.2,0,0.3-0.1,0.3-0.3c0-0.3,0.1-0.5,0.4-0.7c0.2-0.1,0.5-0.1,0.5-0.1l0,0h2.4v1
	H7.2C6.7,5.6,6.4,6,6.4,6.4v1H6c-1.4,0-2.6,1.1-2.6,2.5v11.7c0,0.2,0.1,0.3,0.3,0.3h10.4c0.2,0,0.3-0.1,0.3-0.3V10
	C14.5,8.6,13.3,7.4,11.9,7.4z"/>
<path id="XMLID_18_" class="st0" d="M0.1,7c0.3,0,0.5,0.2,0.5,0.5C0.7,7.8,0.4,8,0.1,8s-0.5-0.2-0.5-0.5S-0.2,7,0.1,7z M0.1,8.7
	c0.7,0,1.2-0.5,1.2-1.2S0.8,6.3,0.1,6.3s-1.2,0.5-1.2,1.2S-0.6,8.7,0.1,8.7z"/>
<path id="XMLID_11_" class="st0" d="M0.4,15.3c-0.8,0-1.4-0.6-1.4-1.4c0-0.7,0.6-1.4,1.4-1.4c0.8,0,1.4,0.6,1.4,1.4
	C1.8,14.7,1.2,15.3,0.4,15.3z M0.4,11.9c-1.1,0-2.1,0.9-2.1,2.1c0,1.1,0.9,2.1,2.1,2.1c1.1,0,2.1-0.9,2.1-2.1S1.5,11.9,0.4,11.9z"/>
<path id="XMLID_4_" class="st0" d="M-1.3,19.7c-0.2,0-0.5-0.2-0.5-0.5c0-0.2,0.2-0.5,0.5-0.5c0.2,0,0.5,0.2,0.5,0.5
	C-0.8,19.4-1.1,19.7-1.3,19.7z M-1.3,18c-0.6,0-1.2,0.5-1.2,1.2c0,0.6,0.5,1.2,1.2,1.2s1.2-0.5,1.2-1.2S-0.7,18-1.3,18z"/>
</svg>
