<?xml version="1.0" encoding="utf-8"?>
<!-- Generator: Adobe Illustrator 21.0.0, SVG Export Plug-In . SVG Version: 6.00 Build 0)  -->
<svg version="1.1" id="Capa_1" xmlns="http://www.w3.org/2000/svg" xmlns:xlink="http://www.w3.org/1999/xlink" x="0px" y="0px"
	 viewBox="0 0 20 14.7" style="enable-background:new 0 0 20 14.7;" xml:space="preserve">
<path id="path1_fill_1_" d="M20,1.7c0-0.1-0.1-0.1-0.2-0.2L18.3,1L18,0.6c-0.1-0.1-0.2-0.3-0.4-0.3L16.2,0c-0.4-0.1-0.7,0.1-0.9,0.4
	l-2.1,3c-0.1,0.2-0.4,0.3-0.7,0.4c-1,0.1-2.9,0.4-4.8,0.3C6.8,4.1,6,4.2,5.2,4.4C5,4.6,4.8,4.6,4.6,4.7C4.2,4.7,1.8,4.6,1.5,6
	C1.2,7.3,2.2,8.7,2.4,8.9c0,0,0,0,0,0.1c0,0.9,0,0.9-0.7,1.3c-1.2,0.7-1.5,1-1.5,1.1c-0.1,0.1-0.1,0.1-0.1,0.1L0,14.4
	c0,0.1,0,0.1,0.1,0.2c0,0.1,0.1,0.1,0.2,0.1h1.3c0.1,0,0.2-0.1,0.3-0.1C2,14.5,2,14.4,2,14.3v-0.1c-0.1-0.3-0.3-0.5-0.5-0.5
	c0-0.6,0.2-1.7,0.9-2c0.3-0.1,0.7-0.3,1.1-0.6c0.1,0.3,0.1,0.5,0.1,0.8c0,0.1,0.1,0.3,0.3,0.3H4c0.1,0,0.3-0.1,0.3-0.3
	c0.1-0.4,0.1-0.8-0.1-1.3c0.1,0,0.1-0.1,0.2-0.1c0.8-0.6,1.3-1.2,1.5-1.9C6,8.4,6.1,8,6.2,7.9c0.1-0.2,0.3-0.4,0.6-0.5
	s0.6-0.1,0.9,0l3,1.3c0.7,0.3,1.6,0.5,2.4,0.5c0.4,1.7,0.2,2.9,0.1,3.4c-0.1,0.2,0,0.5,0.1,0.7l0.6,1.1c0.1,0.1,0.1,0.1,0.3,0.1h1.2
	c0.1,0,0.2-0.1,0.3-0.1c0.1-0.1,0.1-0.2,0-0.3l-0.1-0.2c-0.1-0.2-0.3-0.3-0.5-0.4L14.9,13l0.3-3.9c0-0.3,0.1-0.5,0.3-0.7
	c0.3-0.5,0.7-1.2,0.7-2.4c0-1.4,0.9-2.9,1.3-3.4l1.7,0.1c0.5,0,0.9-0.2,1.2-0.6L20,1.9C20,1.8,20,1.8,20,1.7z M2.1,6.2
	C2.2,5.6,3,5.4,3.6,5.3C3,5.8,2.7,6.4,2.5,7C2.4,7.3,2.4,7.7,2.4,7.9C2.1,7.6,1.9,6.8,2.1,6.2z M18.6,2.2l-1.8-0.1
	c-0.1,0-0.3-0.1-0.4-0.2l-0.3-0.3c-0.1-0.1-0.3-0.1-0.4-0.1c-0.1,0.1-0.1,0.3-0.1,0.4l0.3,0.3c0.1,0.1,0.3,0.2,0.4,0.3
	C15.9,3.2,15,4.6,15,6c0,1.1-0.3,1.8-0.5,2.1c-0.2,0.3-0.3,0.6-0.3,1L13.9,13c0,0.1,0,0.1,0,0.1l0.3,0.7c0,0.1,0.1,0.1,0.1,0.1h-0.2
	L13.6,13c-0.1-0.1-0.1-0.2-0.1-0.3c0.2-0.8,0.5-3.1-0.9-5.7c-0.1-0.1-0.3-0.2-0.4-0.1S12,7.1,12.1,7.3c0.3,0.5,0.4,1,0.5,1.5
	c-0.7,0-1.4-0.2-2-0.5L7.6,7C7.2,6.8,6.7,6.8,6.3,6.9c0.1-0.3,0.2-0.4,0.2-0.4c0.1-0.1,0-0.3-0.1-0.4S6.1,6.1,6,6.2
	c0,0-0.4,0.7-0.9,2.1C5,9,4.4,10.1,2,11.2c-1.3,0.6-1.3,2.6-1.3,2.7s0.1,0.2,0.1,0.3H0.5l0.1-2.3c0.1-0.1,0.5-0.4,1.3-0.9
	c0.9-0.5,0.9-0.9,0.9-1.8c0-0.5,0-1.1,0.2-1.9c0.1-1,0.9-1.7,2.3-2.2C6.2,4.7,7,4.6,7.7,4.6c1.9,0.1,3.9-0.2,4.9-0.3
	c0.5-0.1,0.8-0.3,1.1-0.7l2.1-2.9c0.1-0.1,0.2-0.1,0.3-0.1H16c-0.1,0.1-0.1,0.3,0,0.4s0.1,0.1,0.2,0.1c0.1,0,0.1,0,0.2-0.1l0.3-0.3
	l0.7,0.1l0.1,0.1c-0.1,0.1-0.2,0.2-0.2,0.3c0,0.1,0.1,0.3,0.3,0.3c0,0,0,0,0.1,0L18,1.4l1.1,0.4C19.1,2.1,18.9,2.2,18.6,2.2z"/>
</svg>
