<?xml version="1.0" encoding="utf-8"?>
<!-- Generator: Adobe Illustrator 19.0.0, SVG Export Plug-In . SVG Version: 6.00 Build 0)  -->
<svg version="1.1" id="Capa_1" xmlns="http://www.w3.org/2000/svg" xmlns:xlink="http://www.w3.org/1999/xlink" x="0px" y="0px"
	 viewBox="0 0 20 20" style="enable-background:new 0 0 20 20;" xml:space="preserve">
<style type="text/css">
	.st0{fill:#7DD1C4;}
</style>
<path id="path0_fill" class="st0" d="M9.9,13.1c-1.2,0-2.2,0.9-2.2,2C7.7,15.7,8,16,8.5,16c0.2,0,0.5-0.1,0.8-0.1
	c0.2,0,0.4-0.1,0.6-0.1c0.1,0,0.3,0,0.5,0.1c0.3,0.1,0.5,0.1,0.8,0.1c0.5,0,0.8-0.3,0.8-0.8C12,14,11.1,13.1,9.9,13.1z M11.3,15.3
	c0,0,0,0-0.1,0c-0.2,0-0.4-0.1-0.6-0.1c-0.2-0.1-0.5-0.1-0.7-0.1c-0.2,0-0.5,0.1-0.7,0.1c-0.2,0-0.4,0.1-0.6,0.1c-0.1,0-0.1,0-0.1,0
	c0,0,0,0,0-0.1c0-0.7,0.7-1.3,1.5-1.3c0.8,0,1.5,0.6,1.5,1.3C11.3,15.2,11.3,15.3,11.3,15.3z"/>
<path id="path1_fill_1_" class="st0" d="M8.8,12.5c0-0.6-0.4-1.1-0.9-1.1c-0.5,0-0.9,0.5-0.9,1.1c0,0.6,0.4,1.1,0.9,1.1
	C8.4,13.6,8.8,13.1,8.8,12.5z M7.6,12.5c0-0.2,0.1-0.4,0.2-0.4c0.1,0,0.2,0.2,0.2,0.4c0,0.2-0.1,0.4-0.2,0.4
	C7.7,12.9,7.6,12.7,7.6,12.5z"/>
<path id="path2_fill_1_" class="st0" d="M9.9,12.9c0.5,0,0.9-0.5,0.9-1.1c0-0.6-0.4-1.1-0.9-1.1c-0.5,0-0.9,0.5-0.9,1.1
	C9,12.4,9.4,12.9,9.9,12.9z M9.9,11.4c0.1,0,0.2,0.2,0.2,0.4c0,0.2-0.1,0.4-0.2,0.4c-0.1,0-0.2-0.2-0.2-0.4
	C9.7,11.6,9.8,11.4,9.9,11.4z"/>
<path id="path3_fill_1_" class="st0" d="M12,11.4c-0.5,0-0.9,0.5-0.9,1.1c0,0.6,0.4,1.1,0.9,1.1c0.5,0,0.9-0.5,0.9-1.1
	C13,11.9,12.5,11.4,12,11.4z M12,12.9c-0.1,0-0.2-0.2-0.2-0.4c0-0.2,0.1-0.4,0.2-0.4c0.1,0,0.2,0.2,0.2,0.4
	C12.3,12.7,12.1,12.9,12,12.9z"/>
<path id="path4_fill" class="st0" d="M19.6,6.8l-8.9-6.6C10.5,0.1,10.3,0,10,0h0c0,0,0,0,0,0l0,0c0,0,0,0,0,0h0c0,0,0,0,0,0h0
	C9.7,0,9.5,0.1,9.3,0.2L0.4,6.8C0,7.2-0.1,7.8,0.2,8.3l0.7,1c0.2,0.3,0.5,0.4,0.9,0.4c0.2,0,0.3,0,0.5-0.1v9.3
	c0,0.6,0.5,1.1,1.1,1.1h13.2c0.6,0,1.1-0.5,1.1-1.1V9.6c0.2,0.1,0.3,0.1,0.5,0.1c0.3,0,0.7-0.2,0.9-0.4l0.7-1
	C20.1,7.8,20,7.2,19.6,6.8z M16.6,19.3H3.4c-0.2,0-0.4-0.2-0.4-0.4V9.1L10,4l7,5.2v9.8C17,19.1,16.8,19.3,16.6,19.3z M19.2,7.9
	l-0.7,1c-0.1,0.1-0.2,0.2-0.3,0.2c-0.1,0-0.2,0-0.2-0.1l-7.7-5.7c-0.1,0-0.1-0.1-0.2-0.1c-0.1,0-0.1,0-0.2,0.1L2.1,9
	C2,9,1.9,9.1,1.8,9.1C1.7,9.1,1.6,9,1.5,8.9l-0.7-1C0.6,7.7,0.7,7.5,0.8,7.4l8.9-6.6C9.8,0.7,9.9,0.7,10,0.7c0.1,0,0.2,0,0.3,0.1
	l8.9,6.6C19.3,7.5,19.4,7.7,19.2,7.9z"/>
<path id="path5_fill" class="st0" d="M12.6,8.4c-1,0-1.9,0.4-2.6,1.1C9.3,8.8,8.4,8.4,7.4,8.4c-2,0-3.5,1.6-3.5,3.5
	c0,0.9,0.3,1.8,1,2.7c0.5,0.7,1.2,1.4,2.1,2c1.5,1.1,2.9,1.8,2.9,1.8c0,0,0.1,0,0.1,0c0,0,0.1,0,0.1,0c0.1,0,1.5-0.6,3-1.7
	c0.9-0.6,1.6-1.3,2.1-2c0.6-0.9,1-1.9,1-2.8C16.1,10,14.5,8.4,12.6,8.4z M10,17.8c-0.8-0.4-5.4-2.8-5.4-5.8c0-1.6,1.3-2.8,2.9-2.8
	c0.9,0,1.7,0.4,2.3,1.1c0.1,0.1,0.2,0.1,0.3,0.1c0.1,0,0.2-0.1,0.3-0.1c0.5-0.7,1.4-1.1,2.3-1.1c1.6,0,2.9,1.3,2.9,2.8
	C15.4,15.3,10.9,17.4,10,17.8z"/>
</svg>
