<svg width="29" height="35" viewBox="0 0 29 35" version="1.1" xmlns="http://www.w3.org/2000/svg" xmlns:xlink="http://www.w3.org/1999/xlink">
<title>Group</title>
<desc>Created using Figma</desc>
<g id="Canvas" transform="translate(-1448 4561)">
<g id="Group">
<g id="003-dog-21">
<mask id="mask0_outline" mask-type="alpha">
<g id="Clip 2">
<use xlink:href="#path0_fill" transform="translate(1455.52 -4540.76)" fill="#FFFFFF"/>
</g>
</mask>
<g id="Fill 1" mask="url(#mask0_outline)">
<use xlink:href="#path1_fill" transform="translate(1455.52 -4540.76)" fill="#6A2499"/>
</g>
</g>
<g id="007-dog-17">
<mask id="mask1_outline" mask-type="alpha">
<g id="Clip 2">
<use xlink:href="#path2_fill" transform="translate(1448.2 -4560.49)" fill="#FFFFFF"/>
</g>
</mask>
<g id="Fill 1" mask="url(#mask1_outline)">
<use xlink:href="#path3_fill" transform="translate(1448.19 -4560.49)" fill="#6A2499"/>
</g>
</g>
</g>
</g>
<defs>
<path id="path0_fill" fill-rule="evenodd" d="M 0 0L 0 13.9211L 20.5123 13.9211L 20.5123 0L 0 0Z"/>
<path id="path1_fill" fill-rule="evenodd" d="M 20.4731 4.22903C 20.4027 4.04436 20.2507 3.89785 20.0558 3.82709L 18.6332 3.31087L 17.9254 2.64593C 17.6771 2.41271 17.3337 2.29104 16.9833 2.31198L 15.8585 2.37945C 15.4283 2.40518 15.0401 2.64574 14.8456 3.00708L 13.4958 5.51407C 13.3475 5.78954 13.0515 5.95774 12.7227 5.95624C 9.69985 5.93125 4.55502 5.89926 4.05986 5.96565C 4.00858 5.97261 3.91762 5.98494 3.76656 6.05034L 3.55625 5.75849C 3.06299 5.07539 3.06635 4.19487 3.56446 3.51525L 5.33547 1.09977C 5.49319 0.884376 5.51057 0.606647 5.38109 0.375073C 5.25157 0.143687 4.99818 0 4.71995 0C 4.60005 0 4.48009 0.0277588 4.37306 0.0801241C 4.26607 0.132678 4.17291 0.210073 4.10424 0.303794L 2.19825 2.90395C 1.42852 3.95337 1.42326 5.31285 2.18453 6.36721L 2.57135 6.90309C 2.52772 6.94191 2.48349 6.98176 2.43752 7.02387C 2.09277 7.34013 1.84665 7.73896 1.72574 8.17727L 1.36907 9.46947C 1.32605 9.62553 1.22332 9.75985 1.07987 9.84826L 0.146061 10.423C 0.0493939 10.4823 -0.00595161 10.5856 0.000509541 10.6939L 0.142755 13.1011C 0.169952 13.5609 0.575302 13.9211 1.0656 13.9211L 1.57002 13.9211C 1.76661 13.9211 1.95173 13.8397 2.07789 13.6978C 2.20391 13.5559 2.25595 13.3703 2.22074 13.1885C 2.16224 12.8855 1.95974 12.6335 1.68487 12.4929L 2.06557 11.7267L 2.73628 11.6238C 3.28763 11.5392 3.7914 11.3182 4.20562 10.9908C 5.42392 10.7745 7.31879 11.2415 8.99493 11.655C 10.1751 11.9462 11.2954 12.222 12.1703 12.2731C 12.2026 12.4358 12.24 12.5976 12.2828 12.7586L 12.4186 13.2692C 12.5207 13.653 12.8862 13.9211 13.3074 13.9211L 14.181 13.9211C 14.378 13.9211 14.5635 13.8308 14.6774 13.6798C 14.7912 13.5287 14.82 13.3343 14.7545 13.1597C 14.6461 12.8713 14.4154 12.6319 14.1212 12.5014C 14.1409 12.4155 14.1644 12.3308 14.1908 12.2468C 14.9034 12.1013 15.5496 11.742 16.0278 11.2198C 16.5368 10.6639 16.8233 9.95816 16.8399 9.22632C 16.9651 9.21771 17.0817 9.16807 17.1713 9.0839C 17.5934 8.68747 17.7964 8.14071 17.7288 7.58366L 17.52 5.86713L 18.2073 6.10769C 18.8876 6.3459 19.6405 6.08783 19.9977 5.49422L 20.4225 4.78849C 20.525 4.61775 20.5436 4.41374 20.4731 4.22903ZM 2.71991 6.02669C 2.10926 5.1809 2.11357 4.09049 2.73088 3.24879L 4.63687 0.648401C 4.64589 0.635886 4.65821 0.62563 4.67228 0.618808C 4.68756 0.61128 4.70379 0.607422 4.72022 0.607422C 4.77286 0.607422 4.7985 0.639227 4.80907 0.657952C 4.81964 0.676866 4.83291 0.71474 4.80301 0.75572L 3.03215 3.17102C 2.38183 4.05836 2.37752 5.2079 3.02118 6.09943L 3.22038 6.37584C 3.16929 6.41263 3.1155 6.45248 3.05875 6.49624L 2.71991 6.02669ZM 19.8597 4.49026L 19.4352 5.19599C 19.2352 5.52811 18.814 5.67255 18.4332 5.53912L 17.4378 5.19068L 17.3893 4.79241C 17.3229 4.24711 17.1242 3.71269 16.8144 3.247C 16.7197 3.10491 16.5204 3.06153 16.369 3.1505C 16.2175 3.23942 16.1715 3.42672 16.2662 3.56895C 16.5253 3.95823 16.6916 4.4052 16.7469 4.86152L 17.0868 7.65321C 17.1273 7.98679 17.0224 8.31467 16.797 8.56991L 15.9686 7.79158C 15.8518 7.68186 15.7904 7.5299 15.8004 7.37496L 16.0369 3.67114C 16.0477 3.50374 15.9119 3.36001 15.7337 3.34989C 15.5554 3.33997 15.4022 3.46733 15.3915 3.63477L 15.1549 7.33855C 15.134 7.66681 15.2639 7.98843 15.5114 8.2209L 16.1952 8.86326L 16.1952 9.15915C 16.1952 9.76984 15.9618 10.3613 15.5378 10.8244C 15.257 11.131 14.9045 11.3677 14.5118 11.5197C 14.6237 11.3271 14.754 11.1435 14.9018 10.9718L 15.0962 10.7457C 15.2084 10.6153 15.1866 10.4241 15.0477 10.3186C 14.909 10.2133 14.7053 10.2336 14.5932 10.364L 14.399 10.5901C 13.8928 11.1786 13.5608 11.8848 13.4383 12.6323C 13.4164 12.7663 13.4915 12.8975 13.6224 12.9543L 13.8413 13.0493C 13.9658 13.1032 14.0665 13.1981 14.124 13.3141L 13.3076 13.3141C 13.1838 13.3141 13.0761 13.2353 13.0462 13.1224L 12.9102 12.6117C 12.7081 11.8521 12.6336 11.0707 12.6892 10.2892C 12.7009 10.1218 12.5661 9.97714 12.388 9.96594C 12.21 9.95512 12.0558 10.0815 12.0441 10.2488C 12.0106 10.7199 12.021 11.191 12.0744 11.6581C 11.2814 11.5913 10.2466 11.3364 9.15962 11.0681C 7.64315 10.6941 6.08496 10.3098 4.82108 10.3285C 4.84808 10.2881 4.87467 10.2473 4.89992 10.2054L 5.21356 9.68308C 5.30141 9.537 5.24642 9.35172 5.0909 9.26939C 4.93533 9.18705 4.73834 9.23871 4.65049 9.38465L 4.33685 9.90713C 3.97687 10.5066 3.35545 10.9141 2.63235 11.0249L 1.79321 11.1535C 1.68772 11.1697 1.59757 11.2339 1.55234 11.3249L 0.94369 12.5501C 0.898712 12.6404 0.903971 12.7457 0.957363 12.8317C 1.01101 12.9177 1.10587 12.9736 1.21175 12.9813C 1.39817 12.9947 1.55159 13.1248 1.58505 13.2976C 1.5856 13.2998 1.5864 13.304 1.58189 13.3092C 1.57738 13.3141 1.57288 13.3141 1.57037 13.3141L 1.06595 13.3141C 0.918647 13.3141 0.796736 13.2059 0.788522 13.0677L 0.656494 10.8355L 1.43459 10.3567C 1.71262 10.1854 1.91176 9.92478 1.9953 9.62244L 2.35197 8.33029C 2.44333 7.99907 2.6292 7.69767 2.88965 7.45876C 3.76671 6.6538 4.09483 6.57495 4.15178 6.56742C 4.47263 6.52423 7.75484 6.52291 12.7173 6.56394C 13.2917 6.56944 13.8131 6.27172 14.0732 5.78853L 15.423 3.28172C 15.5145 3.11136 15.6975 2.99816 15.9 2.98602L 17.0247 2.91855C 17.1899 2.90881 17.3517 2.96597 17.4687 3.07588L 17.9459 3.52411L 17.8326 3.59506C 17.6839 3.68808 17.6438 3.8766 17.7428 4.0161C 17.8052 4.10394 17.9077 4.15137 18.0122 4.15137C 18.0739 4.15137 18.1361 4.13504 18.1911 4.10046L 18.4931 3.91137L 19.8231 4.39395C 19.8484 4.40317 19.8599 4.42101 19.8648 4.43423C 19.8699 4.44745 19.8732 4.46805 19.8597 4.49026Z"/>
<path id="path2_fill" fill-rule="evenodd" d="M 0 0L 0 20.8601L 27.6321 20.8601L 27.6321 3.67847e-15L 0 3.67847e-15L 0 0Z"/>
<path id="path3_fill" fill-rule="evenodd" d="M 27.6129 2.344C 27.5713 2.22751 27.4764 2.13575 27.3557 2.09401L 25.3023 1.38696L 24.9573 0.798729C 24.8429 0.603621 24.6463 0.46559 24.4178 0.419838L 22.4474 0.0262575C 21.9311 -0.076894 21.4098 0.12915 21.1194 0.551528L 18.2421 4.73382C 18.0391 5.0291 17.7134 5.23004 17.3486 5.28543C 15.9599 5.49549 13.2566 5.8395 10.7604 5.78287C 9.55972 5.75557 8.39213 5.92796 7.28858 6.29553C 6.94522 6.41 6.62392 6.53742 6.32422 6.67772C 5.76785 6.64665 2.49342 6.55438 2.00081 8.62135C 1.5412 10.5498 2.98758 12.5056 3.23324 12.8201C 3.2327 12.8408 3.23189 12.8618 3.23142 12.882C 3.1966 14.0731 3.19134 14.2564 2.32629 14.7428C 0.660367 15.6796 0.235772 16.2061 0.193063 16.2632C 0.14327 16.3292 0.115337 16.4083 0.112975 16.49L 0.000163804 20.4427C -0.00300733 20.5524 0.0399717 20.6586 0.11979 20.7373C 0.199675 20.8159 0.309046 20.8601 0.423409 20.8601L 2.20167 20.8601C 2.3379 20.8601 2.46576 20.7974 2.54537 20.6915C 2.62465 20.5856 2.64658 20.4493 2.60333 20.3255L 2.55961 20.1996C 2.43836 19.851 2.17529 19.5681 1.83929 19.4099C 1.87667 18.5784 2.13522 17.0246 3.06294 16.5962C 3.49624 16.3962 4.05503 16.1131 4.63906 15.7521C 4.72995 16.1573 4.74681 16.535 4.6873 16.8783C 4.64878 17.0994 4.80457 17.3087 5.03518 17.3457C 5.05887 17.3492 5.08235 17.3512 5.10529 17.3512C 5.30851 17.3512 5.48798 17.2104 5.52253 17.0118C 5.61631 16.4726 5.56888 15.8821 5.38226 15.2554C 5.50458 15.1667 5.62637 15.0749 5.74626 14.9796C 6.80947 14.1353 7.50078 13.2298 7.80068 12.2878C 7.8803 12.0382 8.09459 11.4427 8.13251 11.3734C 8.30935 11.0496 8.60352 10.7976 8.96645 10.6661C 9.35731 10.5245 9.79897 10.5395 10.178 10.7074L 14.3535 12.5557C 15.3996 13.0188 16.5509 13.2691 17.7034 13.2872C 18.2313 15.6649 17.9688 17.467 17.8425 18.0906C 17.779 18.4048 17.8257 18.7345 17.974 19.0188L 18.7603 20.5272C 18.8322 20.665 18.9787 20.7517 19.139 20.7517L 20.8329 20.7517C 20.9844 20.7517 21.1244 20.674 21.2 20.5479C 21.2754 20.4218 21.2748 20.2665 21.1985 20.1409L 21.0326 19.8682C 20.8716 19.6038 20.6154 19.4035 20.3182 19.3025L 20.0743 18.5621L 20.4183 13.0008C 20.4407 12.6413 20.5561 12.2973 20.7525 12.0061C 21.1834 11.3666 21.6889 10.2544 21.6512 8.58621C 21.6067 6.61501 22.9709 4.38878 23.401 3.73764L 25.6829 3.86448C 26.3465 3.90169 26.9804 3.58925 27.3356 3.05007L 27.5705 2.69312C 27.6392 2.589 27.6548 2.46054 27.6129 2.344ZM 2.8263 8.80291C 3.02291 7.97861 4.04523 7.66339 4.93578 7.54736C 4.12458 8.22911 3.62907 9.07237 3.47672 10.0517C 3.39872 10.5522 3.34758 10.9923 3.31256 11.3825C 2.952 10.6874 2.60803 9.71853 2.8263 8.80291ZM 25.7322 3.05395L 23.2052 2.91339C 22.9785 2.90103 22.7653 2.79736 22.6207 2.6293L 22.1971 2.13736C 22.0479 1.96445 21.7812 1.94018 21.6009 2.083C 21.4206 2.22582 21.3951 2.48189 21.544 2.6548L 21.9678 3.14649C 22.1191 3.32244 22.3073 3.46299 22.517 3.56207C 21.9346 4.48726 20.7594 6.60885 20.8047 8.60432C 20.8395 10.1435 20.3414 11.1203 20.0414 11.5656C 19.766 11.9742 19.604 12.4539 19.5731 12.9529L 19.2247 18.5892C 19.2215 18.6385 19.2278 18.6883 19.2434 18.7356L 19.5823 19.7644C 19.6047 19.8329 19.6453 19.8928 19.6983 19.9399L 19.401 19.9399L 18.7316 18.656C 18.6662 18.5308 18.6459 18.3852 18.6741 18.2457C 18.9121 17.07 19.2734 13.9183 17.4939 10.0558C 17.3996 9.85075 17.1494 9.75802 16.9354 9.84848C 16.7217 9.93928 16.6249 10.1792 16.7193 10.3842C 17.0524 11.1073 17.3052 11.8058 17.4952 12.4689C 16.5348 12.4258 15.581 12.2047 14.7083 11.8187L 10.533 9.97034C 9.94901 9.71175 9.26903 9.68852 8.66706 9.90666C 8.81543 9.55378 8.90557 9.36922 8.90766 9.36495C 9.00785 9.16221 8.91744 8.92031 8.70633 8.82422C 8.49494 8.72818 8.24246 8.81464 8.14234 9.01738C 8.12122 9.06061 7.6139 10.0955 6.99081 12.0508C 6.78522 12.6961 5.95533 14.3594 2.69561 15.8647C 0.946355 16.6726 0.985353 19.5809 0.988052 19.7042C 0.990953 19.8498 1.07421 19.9787 1.19991 20.0483L 0.858643 20.0483L 0.955328 16.6628C 1.13035 16.4957 1.62424 16.0796 2.75464 15.4441C 4.02472 14.73 4.04132 14.1582 4.07795 12.9054C 4.09644 12.2745 4.12147 11.4102 4.31437 10.1718C 4.535 8.75446 5.62904 7.70871 7.5662 7.06359C 8.57401 6.72818 9.64167 6.57042 10.7405 6.59546C 13.3041 6.65383 16.0638 6.3027 17.4807 6.08837C 18.0801 5.99765 18.6153 5.66723 18.949 5.18188L 21.8263 0.99933C 21.918 0.86641 22.0777 0.79788 22.2403 0.817876L 22.1597 0.90129C 22.0007 1.06585 22.011 1.32289 22.1824 1.47535C 22.2638 1.54764 22.3671 1.58355 22.4701 1.58355C 22.584 1.58355 22.6973 1.53981 22.7809 1.45335L 23.21 1.00897L 24.2281 1.21243L 24.3448 1.41161C 24.1788 1.48344 24.0739 1.65331 24.0992 1.83528C 24.1277 2.03952 24.3095 2.1879 24.5186 2.1879C 24.537 2.1879 24.5559 2.18667 24.5749 2.18441L 24.9647 2.13458L 26.569 2.6869C 26.3721 2.93287 26.0588 3.07213 25.7322 3.05395Z"/>
</defs>
</svg>
