<?xml version="1.0" encoding="utf-8"?>
<!-- Generator: Adobe Illustrator 19.0.0, SVG Export Plug-In . SVG Version: 6.00 Build 0)  -->
<svg version="1.1" id="Capa_1" xmlns="http://www.w3.org/2000/svg" xmlns:xlink="http://www.w3.org/1999/xlink" x="0px" y="0px"
	 viewBox="-4 2 20 20" style="enable-background:new -4 2 20 20;" xml:space="preserve">
<style type="text/css">
	.st0{fill:#7DD1C4;}
</style>
<path id="path0_fill_1_" class="st0" d="M11.2,8.8c0-0.1-0.1-0.2-0.2-0.2c0,0-0.3-0.1-0.7,0C9.8,8.6,9.5,8.9,9.3,9.3
	c-0.1,0.4-0.1,0.8,0.2,1.2c0.2,0.2,0.4,0.4,0.4,0.4c0.1,0,0.1,0.1,0.1,0.1h0.1c0.1,0,0.1-0.1,0.1-0.1l0.2-0.8c0-0.1-0.1-0.3-0.1-0.3
	c-0.1,0-0.3,0.1-0.3,0.1l-0.2,0.2C9.8,9.9,9.6,9.7,9.7,9.4C9.9,9,10.3,9,10.6,9l0.1,0.5c0,0.1,0.1,0.2,0.3,0.2s0.2-0.1,0.2-0.3V8.8z
	"/>
<path id="path1_fill_2_" class="st0" d="M13.9,10.6c-0.1-0.1-0.2-0.2-0.3-0.3l-0.7-0.2V10c-0.1-0.8-0.6-1.5-1.3-1.8
	c-0.5-0.3-1-0.4-1.5-0.3C9.1,8.1,8.3,8.7,8,9.6l-0.3,0.8H7c-0.6,0-1.2,0.1-1.7,0.5l-0.5-0.1c0-0.4-0.1-0.9-0.5-1.4
	C4,8.9,3.3,8.6,2.5,8.6c-0.7-0.1-1.5,0-2.2,0.3c-0.7,0.2-1,0.7-1.1,1.5c-0.1,0.4,0,0.8,0,0.9l-0.8,1.5c-0.6,1.1-0.6,2.4,0,3.4
	l0.7,1.2L-1.6,19c-0.1,0.1-0.1,0.4,0,0.5l0.4,1c0.1,0.3,0.4,0.4,0.7,0.4h0.9c0.1,0,0.2-0.1,0.3-0.1s0.1-0.2,0.1-0.4
	c-0.1-0.4-0.3-0.7-0.6-0.9l1.2-1.6c0.2-0.1,0.3-0.4,0.4-0.6c0.1-0.2,0.1-0.5,0.1-0.7c0.3-0.1,0.9-0.1,1.6,0.1
	C3.7,16.9,4,17,4.2,17.1c0.5,0.3,1,0.5,1.9,0.6l0.3,1.7c0,0.1,0.1,0.1,0.1,0.1l0.5,0.4l0.3,0.6C7.5,20.8,7.8,21,8.2,21h1.2
	c0.1,0,0.3-0.1,0.4-0.2s0.1-0.3,0-0.4c-0.2-0.4-0.5-0.7-0.9-0.8l0.6-2.2c0.9-0.6,1.6-1.5,1.7-2.6c0-0.1,0-0.1,0-0.1
	c0.9-0.1,1.4-0.8,1.6-1.2c0.1-0.3,0.1-0.6,0.1-0.8H13l0,0c0.1,0,0.1,0,0.1-0.1c0.3-0.1,0.6-0.7,0.9-1.6C14,10.9,14,10.7,13.9,10.6z
	 M13.5,10.8c-0.2,0.7-0.4,1.2-0.6,1.3c-0.6-0.1-0.9-0.1-0.9-0.1c-0.1,0-0.3,0.1-0.3,0.2c0,0.1,0.1,0.2,0.3,0.2c0,0,0.1,0,0.4,0
	c0,0.1-0.1,0.4-0.1,0.7c-0.2,0.5-0.6,0.8-1.2,0.9c-0.3-0.3-1.1-1.3-2-2c-0.1-0.1-0.3-0.1-0.4,0c-0.1,0.1-0.1,0.3,0.1,0.4
	c0.9,0.7,1.7,1.6,2,1.9c0,0.1,0,0.1,0,0.2c-0.1,0.9-0.7,1.8-1.6,2.3C9,16.9,9,16.9,8.9,17l-0.7,2.5c0,0.1,0.1,0.3,0.1,0.3h0.1
	c0.3,0.1,0.5,0.3,0.7,0.5H8.2c-0.1,0-0.3-0.1-0.4-0.2l-0.4-0.5c0-0.1-0.1-0.1-0.1-0.1l-0.5-0.4l-0.7-3.4c0-0.1-0.1-0.2-0.3-0.2
	s-0.2,0.1-0.2,0.3L6,17.2c-0.7-0.1-1-0.3-1.5-0.5c-0.2-0.1-0.4-0.2-0.7-0.4c-0.6-0.2-1.2-0.2-1.6-0.1c0.2-0.6,0.4-0.9,0.7-0.9
	c0.1,0,0.1-0.1,0.1-0.1c0.1-0.2-0.1-0.4-0.3-0.4c-0.4,0.1-0.7,0.4-0.9,1.2c-0.2,0.5-0.4,1-0.4,1.4c-0.1,0.1-0.1,0.4-0.2,0.5
	l-1.3,1.7c-0.1,0.1-0.1,0.2,0,0.3c0,0.1,0.1,0.1,0.1,0.1c0.2,0.1,0.4,0.4,0.5,0.6h-0.8c-0.1,0-0.2-0.1-0.2-0.1l-0.4-1
	c0-0.1,0-0.1,0-0.1l0.7-1.7c0-0.1,0-0.1,0-0.2L-1.1,16c-0.5-0.9-0.5-2,0-3l0.9-1.6c0-0.1,0.1-0.1,0-0.1c0,0-0.3-1.6,0.8-2
	c0.7-0.2,1.3-0.3,2-0.2C3,9.1,3.7,9.3,4,9.7c0.5,0.7,0.5,1.5,0,2c-0.1,0.1-0.4,0.1-0.5,0.1c-0.1,0-0.1-0.1-0.1-0.1l0,0
	c0.1,0,0.2-0.1,0.2-0.1c0.1-0.1,0-0.3-0.1-0.3c0,0-0.6-0.2-0.9-0.3c-0.7-0.2-1.8-0.4-2.4,0.4c-0.1,0.1-0.1,0.2,0,0.3
	c0.1,0.1,0.3,0.1,0.4,0C1,11,2.1,11.3,2.7,11.4c0.1,0.4,0.2,0.7,0.6,0.8s0.8,0.1,1.1-0.1c0.2-0.2,0.4-0.4,0.5-0.7l0.4,0.1
	c0.2,0,0.4,0.2,0.4,0.4l0,0c0,0.1,0.1,0.2,0.2,0.2l0,0c0.1,0,0.2-0.1,0.2-0.3c0-0.2-0.1-0.4-0.2-0.6C6.2,11,6.6,10.9,7,10.9h0.9
	c0.1,0,0.2-0.1,0.2-0.1l0.4-0.9c0.3-0.7,0.9-1.2,1.7-1.4c0.4-0.1,0.8,0,1.2,0.1c0.6,0.3,0.9,0.8,1,1.5v0.1l-0.6,0.4
	c-0.1,0.1-0.1,0.2-0.1,0.3c0.1,0.1,0.1,0.1,0.2,0.1c0.1,0,0.1,0,0.1,0l0.7-0.4L13.5,10.8L13.5,10.8L13.5,10.8z"/>
</svg>
