<?xml version="1.0" encoding="utf-8"?>
<!-- Generator: Adobe Illustrator 21.0.0, SVG Export Plug-In . SVG Version: 6.00 Build 0)  -->
<svg version="1.1" id="Capa_1" xmlns="http://www.w3.org/2000/svg" xmlns:xlink="http://www.w3.org/1999/xlink" x="0px" y="0px"
	 viewBox="0 0 19 12.9" style="enable-background:new 0 0 19 12.9;" xml:space="preserve">
<path id="path0_fill" d="M19,3.9c-0.1-0.2-0.2-0.3-0.4-0.4L17.2,3l-0.7-0.6c-0.2-0.2-0.5-0.3-0.8-0.3l-1.1,0.1
	c-0.4,0-0.8,0.2-0.9,0.6l-1.2,2.3c-0.2,0.2-0.4,0.4-0.7,0.4c-2.8,0-7.6-0.1-8.1,0c-0.1,0-0.2,0-0.3,0.1L3.2,5.3
	c-0.5-0.6-0.5-1.4,0-2.1l1.7-2.3C5.1,0.7,5.1,0.4,5,0.2C4.9,0.1,4.6,0,4.4,0C4.2,0,4.2,0,4,0.1c0,0-0.1,0.1-0.2,0.2L2.1,2.7
	c-0.7,1-0.7,2.2,0,3.2l0.4,0.5c-0.1,0-0.1,0.1-0.2,0.1C1.9,6.9,1.7,7.2,1.6,7.6L1.3,8.8C1.2,9,1.1,9,1,9.1L0.2,9.6
	C0.1,9.7,0,9.8,0,9.8l0.2,2.3c0,0.5,0.4,0.8,0.8,0.8h0.5c0.2,0,0.4-0.1,0.5-0.2c0.2-0.2,0.2-0.3,0.2-0.5c-0.2-0.3-0.4-0.5-0.7-0.6
	l0.4-0.8l0.6-0.1c0.5-0.1,1-0.3,1.4-0.6c1.1-0.2,2.9,0.2,4.4,0.6c1.1,0.3,2.1,0.5,3,0.6c0,0.2,0.1,0.3,0.1,0.5l0.1,0.5
	c0.1,0.4,0.4,0.6,0.8,0.6h0.8c0.2,0,0.4-0.1,0.5-0.2c0.1-0.2,0.2-0.3,0.1-0.5c-0.1-0.3-0.3-0.5-0.6-0.6c0-0.1,0.1-0.2,0.1-0.2
	c0.7-0.2,1.3-0.5,1.7-1c0.5-0.5,0.8-1.1,0.8-1.8c0.2,0,0.2-0.1,0.3-0.2C16.4,8,16.6,7.5,16.5,7l-0.2-1.6l0.6,0.2
	c0.6,0.2,1.3,0,1.7-0.5L19,4.4C19,4.2,19,4.1,19,3.9z M2.5,5.6C2,4.8,2,3.8,2.5,3l1.7-2.4l0,0c0,0,0,0,0.1,0c0.1,0,0.1,0,0.1,0.1
	v0.1L2.8,2.9c-0.6,0.8-0.6,1.9,0,2.7L3,5.8c-0.1,0-0.1,0.1-0.2,0.1L2.5,5.6z M18.4,4.2L18,4.9c-0.2,0.3-0.6,0.5-0.9,0.3l-0.9-0.3
	l-0.1-0.4C16,4,15.9,3.4,15.6,3.1c-0.1-0.2-0.3-0.2-0.4-0.2C15,3,15,3.1,15.1,3.3c0.2,0.4,0.4,0.8,0.5,1.2l0.3,2.6
	c0,0.3-0.1,0.6-0.3,0.8l-0.8-0.8c-0.1-0.1-0.2-0.2-0.2-0.4l0.2-3.4c0-0.2-0.2-0.3-0.3-0.3c-0.2,0-0.3,0.1-0.3,0.2L14,6.7
	c0,0.3,0.1,0.6,0.3,0.8l0.6,0.6v0.3c0,0.5-0.2,1.1-0.6,1.5c-0.2,0.3-0.6,0.5-1,0.6c0.1-0.2,0.2-0.4,0.4-0.5l0.2-0.2
	C14,9.6,14,9.5,13.8,9.4s-0.3-0.1-0.5,0.1l-0.1,0.2c-0.5,0.5-0.8,1.2-0.9,1.9c0.1,0.2,0.2,0.3,0.2,0.4l0.2,0.1
	c0.2,0.1,0.2,0.2,0.2,0.2h-0.7c-0.2,0-0.2-0.1-0.2-0.2l-0.2-0.5c-0.2-0.7-0.2-1.4-0.2-2.1c0-0.2-0.1-0.3-0.3-0.3S11,9.3,11,9.4
	c0,0.5,0,0.9,0,1.3c-0.8-0.1-1.7-0.3-2.7-0.5c-1.4-0.4-2.8-0.7-4-0.7c0,0,0.1-0.1,0.1-0.2l0.2-0.4c0.1-0.2,0-0.3-0.1-0.4
	c-0.2-0.1-0.3,0-0.4,0.1L3.8,9.1C3.5,9.6,2.9,10,2.2,10.2l-0.7,0.1c-0.1,0-0.2,0.1-0.2,0.2l-0.5,1.1c-0.1,0.1,0,0.2,0,0.2
	C0.9,11.9,1,12,1,12c0.2,0,0.3,0.2,0.4,0.3l0,0l0,0H1c-0.2,0-0.2-0.1-0.2-0.2L0.6,10l0.7-0.5c0.2-0.2,0.5-0.4,0.5-0.7l0.3-1.2
	C2.2,7.3,2.3,7,2.6,6.8C3.4,6,3.7,6,3.7,6C4,6.1,7,6.1,11.7,6.1c0.5,0,1-0.3,1.3-0.7L14.2,3c0.1-0.2,0.2-0.2,0.5-0.3l1.1-0.1
	c0.2,0,0.3,0.1,0.4,0.2l0.5,0.4l-0.1,0.1c-0.2,0.1-0.2,0.2-0.1,0.4c0.1,0.1,0.2,0.2,0.2,0.2c0.1,0,0.2,0,0.2-0.1l0.2-0.1L18.4,4.2
	C18.4,4.1,18.4,4.1,18.4,4.2C18.4,4.1,18.4,4.2,18.4,4.2z"/>
</svg>
