<svg width="15" height="20" viewBox="0 0 15 20" version="1.1" xmlns="http://www.w3.org/2000/svg" xmlns:xlink="http://www.w3.org/1999/xlink">
<title>Group</title>
<desc>Created using Figma</desc>
<g id="Canvas" transform="translate(4140 4816)">
<g id="Group">
<g id="Group">
<g id="Vector">
<use xlink:href="#path0_fill" transform="translate(-4140 -4816)" fill="#33E1BE"/>
</g>
<g id="Vector">
<use xlink:href="#path1_fill" transform="translate(-4135.6 -4811.5)" fill="#33E1BE"/>
</g>
</g>
</g>
</g>
<defs>
<path id="path0_fill" d="M 7.35536 0C 3.48799 0 0.273892 3.09493 0.0125832 7.02211C -0.0919402 8.76463 0.456808 10.5592 1.58044 12.0416L 7.06792 19.844C 7.14631 19.948 7.25083 20 7.38149 20C 7.51214 20 7.6428 19.948 7.69506 19.844L 13.1564 12.0416C 14.28 10.5332 14.8288 8.76463 14.7243 6.9961C 14.4368 3.09493 11.2227 0 7.35536 0ZM 12.5031 11.5995L 7.35536 18.9597L 2.18144 11.5995C 1.16234 10.2471 0.665855 8.63459 0.770378 7.07412C 1.00556 3.97919 3.51412 0.780234 7.35536 0.780234C 11.1966 0.780234 13.7052 3.97919 13.9142 7.07412C 14.0187 8.63459 13.5222 10.2471 12.5031 11.5995Z"/>
<path id="path1_fill" d="M 2.95279 0C 1.33267 0 0 1.3264 0 2.96489C 0 4.60338 1.33267 5.92978 2.95279 5.92978C 4.5729 5.92978 5.90558 4.60338 5.90558 2.96489C 5.90558 1.3264 4.5729 0 2.95279 0ZM 2.95279 5.14954C 1.75077 5.14954 0.783926 4.16125 0.783926 2.96489C 0.783926 1.76853 1.75077 0.780234 2.95279 0.780234C 4.15481 0.780234 5.12165 1.76853 5.12165 2.96489C 5.12165 4.16125 4.15481 5.14954 2.95279 5.14954Z"/>
</defs>
</svg>
