<?xml version="1.0" encoding="utf-8"?>
<!-- Generator: Adobe Illustrator 19.0.0, SVG Export Plug-In . SVG Version: 6.00 Build 0)  -->
<svg version="1.1" id="Capa_1" xmlns="http://www.w3.org/2000/svg" xmlns:xlink="http://www.w3.org/1999/xlink" x="0px" y="0px"
	 viewBox="-4 2 20 20" style="enable-background:new -4 2 20 20;" xml:space="preserve">
<style type="text/css">
	.st0{fill:#FFFFFF;}
</style>
<path id="path0_fill" class="st0" d="M5.9,15.1c-1.2,0-2.2,0.9-2.2,2C3.7,17.7,4,18,4.5,18c0.2,0,0.5-0.1,0.8-0.1
	c0.2,0,0.4-0.1,0.6-0.1c0.1,0,0.3,0,0.5,0.1C6.7,18,6.9,18,7.2,18C7.7,18,8,17.7,8,17.2C8,16,7.1,15.1,5.9,15.1z M7.3,17.3
	c0,0,0,0-0.1,0c-0.2,0-0.4-0.1-0.6-0.1c-0.2-0.1-0.5-0.1-0.7-0.1s-0.5,0.1-0.7,0.1s-0.4,0.1-0.6,0.1c-0.1,0-0.1,0-0.1,0s0,0,0-0.1
	c0-0.7,0.7-1.3,1.5-1.3s1.5,0.6,1.5,1.3C7.3,17.2,7.3,17.3,7.3,17.3z"/>
<path id="path1_fill_1_" class="st0" d="M4.8,14.5c0-0.6-0.4-1.1-0.9-1.1S3,13.9,3,14.5s0.4,1.1,0.9,1.1S4.8,15.1,4.8,14.5z
	 M3.6,14.5c0-0.2,0.1-0.4,0.2-0.4S4,14.3,4,14.5s-0.1,0.4-0.2,0.4S3.6,14.7,3.6,14.5z"/>
<path id="path2_fill_1_" class="st0" d="M5.9,14.9c0.5,0,0.9-0.5,0.9-1.1s-0.4-1.1-0.9-1.1S5,13.2,5,13.8S5.4,14.9,5.9,14.9z
	 M5.9,13.4c0.1,0,0.2,0.2,0.2,0.4S6,14.2,5.9,14.2c-0.1,0-0.2-0.2-0.2-0.4C5.7,13.6,5.8,13.4,5.9,13.4z"/>
<path id="path3_fill_1_" class="st0" d="M8,13.4c-0.5,0-0.9,0.5-0.9,1.1s0.4,1.1,0.9,1.1s0.9-0.5,0.9-1.1C9,13.9,8.5,13.4,8,13.4z
	 M8,14.9c-0.1,0-0.2-0.2-0.2-0.4s0.1-0.4,0.2-0.4c0.1,0,0.2,0.2,0.2,0.4C8.3,14.7,8.1,14.9,8,14.9z"/>
<path id="path4_fill" class="st0" d="M15.6,8.8L6.7,2.2C6.5,2.1,6.3,2,6,2l0,0l0,0l0,0l0,0l0,0l0,0l0,0C5.7,2,5.5,2.1,5.3,2.2
	l-8.9,6.6c-0.4,0.4-0.5,1-0.2,1.5l0.7,1c0.2,0.3,0.5,0.4,0.9,0.4c0.2,0,0.3,0,0.5-0.1v9.3c0,0.6,0.5,1.1,1.1,1.1h13.2
	c0.6,0,1.1-0.5,1.1-1.1v-9.3c0.2,0.1,0.3,0.1,0.5,0.1c0.3,0,0.7-0.2,0.9-0.4l0.7-1C16.1,9.8,16,9.2,15.6,8.8z M12.6,21.3H-0.6
	c-0.2,0-0.4-0.2-0.4-0.4v-9.8L6,6l7,5.2V21C13,21.1,12.8,21.3,12.6,21.3z M15.2,9.9l-0.7,1c-0.1,0.1-0.2,0.2-0.3,0.2
	c-0.1,0-0.2,0-0.2-0.1L6.3,5.3c-0.1,0-0.1-0.1-0.2-0.1C6,5.2,6,5.2,5.9,5.3L-1.9,11c-0.1,0-0.2,0.1-0.3,0.1c-0.1,0-0.2-0.1-0.3-0.2
	l-0.7-1c-0.2-0.2-0.1-0.4,0-0.5l8.9-6.6C5.8,2.7,5.9,2.7,6,2.7s0.2,0,0.3,0.1l8.9,6.6C15.3,9.5,15.4,9.7,15.2,9.9z"/>
<path id="path5_fill" class="st0" d="M8.6,10.4c-1,0-1.9,0.4-2.6,1.1c-0.7-0.7-1.6-1.1-2.6-1.1c-2,0-3.5,1.6-3.5,3.5
	c0,0.9,0.3,1.8,1,2.7c0.5,0.7,1.2,1.4,2.1,2c1.5,1.1,2.9,1.8,2.9,1.8H6h0.1c0.1,0,1.5-0.6,3-1.7c0.9-0.6,1.6-1.3,2.1-2
	c0.6-0.9,1-1.9,1-2.8C12.1,12,10.5,10.4,8.6,10.4z M6,19.8C5.2,19.4,0.6,17,0.6,14c0-1.6,1.3-2.8,2.9-2.8c0.9,0,1.7,0.4,2.3,1.1
	c0.1,0.1,0.2,0.1,0.3,0.1s0.2-0.1,0.3-0.1c0.5-0.7,1.4-1.1,2.3-1.1c1.6,0,2.9,1.3,2.9,2.8C11.4,17.3,6.9,19.4,6,19.8z"/>
</svg>
