<?xml version="1.0" encoding="UTF-8" standalone="no"?>
<svg
   xmlns:dc="http://purl.org/dc/elements/1.1/"
   xmlns:cc="http://creativecommons.org/ns#"
   xmlns:rdf="http://www.w3.org/1999/02/22-rdf-syntax-ns#"
   xmlns:svg="http://www.w3.org/2000/svg"
   xmlns="http://www.w3.org/2000/svg"
   xmlns:xlink="http://www.w3.org/1999/xlink"
   xmlns:sodipodi="http://sodipodi.sourceforge.net/DTD/sodipodi-0.dtd"
   xmlns:inkscape="http://www.inkscape.org/namespaces/inkscape"
   width="33"
   height="42"
   viewBox="0 0 33 42"
   version="1.1"
   id="svg3798"
   sodipodi:docname="icon-sello-1.svg"
   inkscape:version="0.92.2 (5c3e80d, 2017-08-06)">
  <metadata
     id="metadata3802">
    <rdf:RDF>
      <cc:Work
         rdf:about="">
        <dc:format>image/svg+xml</dc:format>
        <dc:type
           rdf:resource="http://purl.org/dc/dcmitype/StillImage" />
        <dc:title>Group</dc:title>
      </cc:Work>
    </rdf:RDF>
  </metadata>
  <sodipodi:namedview
     pagecolor="#ffffff"
     bordercolor="#666666"
     borderopacity="1"
     objecttolerance="10"
     gridtolerance="10"
     guidetolerance="10"
     inkscape:pageopacity="0"
     inkscape:pageshadow="2"
     inkscape:window-width="1920"
     inkscape:window-height="1028"
     id="namedview3800"
     showgrid="false"
     inkscape:zoom="20.452381"
     inkscape:cx="16.5"
     inkscape:cy="22.955763"
     inkscape:window-x="-8"
     inkscape:window-y="-8"
     inkscape:window-maximized="1"
     inkscape:current-layer="svg3798" />
  <title
     id="title3760">Group</title>
  <desc
     id="desc3762">Created using Figma</desc>
  <g
     id="Canvas"
     transform="translate(1136 4676)">
    <g
       id="g3786">
      <g
         id="Vector 8">
        <use
           xlink:href="#path0_stroke"
           transform="translate(-1135 -4675)"
           id="use3764"
           fill="#7DD1C4" />
      </g>
      <g
         id="Group">
        <g
           id="Fill 1">
          <use
             xlink:href="#path1_fill"
             transform="translate(-1122.51 -4656.55)"
             id="use3767"
             fill="#6A2499" />
        </g>
        <g
           id="Fill 2">
          <use
             xlink:href="#path2_fill"
             transform="translate(-1123.39 -4658.47)"
             id="use3770"
             fill="#6A2499" />
        </g>
        <g
           id="Fill 3">
          <use
             xlink:href="#path3_fill"
             transform="translate(-1121.1 -4659.22)"
             id="use3773"
             fill="#6A2499" />
        </g>
        <g
           id="Fill 4">
          <use
             xlink:href="#path4_fill"
             transform="translate(-1118.82 -4658.47)"
             id="use3776"
             fill="#6A2499" />
        </g>
        <g
           id="Fill 6">
          <use
             xlink:href="#path5_fill"
             transform="translate(-1131 -4671)"
             id="use3779"
             fill="#6A2499" />
        </g>
        <g
           id="Fill 8">
          <use
             xlink:href="#path6_fill"
             transform="translate(-1126.71 -4661.77)"
             id="use3782"
             fill="#6A2499" />
        </g>
      </g>
    </g>
  </g>
  <defs
     id="defs3796">
    <path
       id="path0_stroke"
       d="M 15.0469 40L 14.8233 40.301L 15.0424 40.4638L 15.2647 40.3053L 15.0469 40ZM 0 28.8235L -0.375 28.8235L -0.375 29.0121L -0.223605 29.1246L 0 28.8235ZM 0 0L 0 -0.375L -0.375 -0.375L -0.375 0L 0 0ZM 30.7208 0L 31.0958 0L 31.0958 -0.375L 30.7208 -0.375L 30.7208 0ZM 30.7208 28.8235L 30.9385 29.1289L 31.0958 29.0167L 31.0958 28.8235L 30.7208 28.8235ZM 15.2705 39.699L 0.223605 28.5225L -0.223605 29.1246L 14.8233 40.301L 15.2705 39.699ZM 0.375 28.8235L 0.375 0L -0.375 0L -0.375 28.8235L 0.375 28.8235ZM 0 0.375L 30.7208 0.375L 30.7208 -0.375L 0 -0.375L 0 0.375ZM 30.3458 0L 30.3458 28.8235L 31.0958 28.8235L 31.0958 0L 30.3458 0ZM 30.5031 28.5182L 14.8292 39.6947L 15.2647 40.3053L 30.9385 29.1289L 30.5031 28.5182Z" />
    <path
       id="path1_fill"
       fill-rule="evenodd"
       d="M 2.37563 0C 1.06574 0 0 0.98398 0 2.19376C 0 2.76819 0.341333 3.11124 0.912838 3.11124C 1.17534 3.11124 1.46339 3.04491 1.74191 2.98094C 1.97246 2.92804 2.21087 2.87309 2.37563 2.87309C 2.51922 2.87309 2.74572 2.92557 2.96463 2.97611C 3.25143 3.0426 3.5482 3.11124 3.82169 3.11124C 4.40392 3.11103 4.75142 2.76819 4.75142 2.19376C 4.75142 0.98398 3.68568 0 2.37563 0ZM 3.96892 2.33324C 3.96849 2.33341 3.93633 2.35629 3.82111 2.35629C 3.63474 2.35629 3.38155 2.29774 3.13644 2.24113C 2.86382 2.17797 2.60597 2.1184 2.37504 2.1184C 2.12354 2.1184 1.84204 2.18302 1.57001 2.24553C 1.33312 2.30005 1.08801 2.35629 0.912251 2.35629C 0.814735 2.35629 0.782573 2.33722 0.782194 2.3391C 0.780461 2.33636 0.758911 2.30091 0.758911 2.19204C 0.758911 1.39771 1.48397 0.751465 2.37504 0.751465C 3.26649 0.751465 3.99156 1.39771 3.99156 2.19204C 3.99156 2.28453 3.97423 2.32653 3.96892 2.33324Z" />
    <path
       id="path2_fill"
       fill-rule="evenodd"
       d="M 2.067 1.20237C 2.067 0.539363 1.60341 0 1.03364 0C 0.463593 0 0 0.539363 0 1.20237C 0 1.86537 0.463593 2.40479 1.03364 2.40479C 1.60341 2.40479 2.067 1.86537 2.067 1.20237ZM 0.758911 1.20211C 0.758911 0.945107 0.903804 0.75293 1.03327 0.75293C 1.16267 0.75293 1.30735 0.945107 1.30735 1.20211C 1.30735 1.45912 1.16267 1.65135 1.03327 1.65135C 0.903804 1.65135 0.758911 1.45912 0.758911 1.20211Z" />
    <path
       id="path3_fill"
       fill-rule="evenodd"
       d="M 1.03364 2.40479C 1.60341 2.40479 2.06727 1.86537 2.06727 1.20237C 2.06727 0.539416 1.60341 0 1.03364 0C 0.463647 0 0 0.539416 0 1.20237C 0 1.86537 0.463647 2.40479 1.03364 2.40479ZM 1.03378 0.754883C 1.16324 0.754883 1.30787 0.94706 1.30787 1.20407C 1.30787 1.46112 1.16324 1.6533 1.03378 1.6533C 0.90432 1.6533 0.759644 1.46112 0.759644 1.20407C 0.759644 0.94706 0.90432 0.754883 1.03378 0.754883Z" />
    <path
       id="path4_fill"
       fill-rule="evenodd"
       d="M 1.03342 0C 0.463647 0 0 0.539363 0 1.20237C 0 1.86537 0.463647 2.40479 1.03342 2.40479C 1.60346 2.40479 2.06706 1.86537 2.06706 1.20237C 2.06706 0.539363 1.60346 0 1.03342 0ZM 1.03336 1.65135C 0.904171 1.65135 0.759277 1.45912 0.759277 1.20211C 0.759277 0.945107 0.903954 0.75293 1.03336 0.75293C 1.16282 0.75293 1.30772 0.945107 1.30772 1.20211C 1.30772 1.45912 1.16282 1.65135 1.03336 1.65135Z" />
    <path
       id="path5_fill"
       fill-rule="evenodd"
       d="M 21.5205 7.4914L 11.7394 0.235629C 11.5316 0.0816402 11.2841 0 11.0235 0L 11.0186 0C 11.0163 0 11.0123 0 11.0123 0L 11.0045 0.000214843C 11.0018 -1.91473e-13 10.999 0 10.9962 0L 10.9876 0C 10.9876 0 10.9837 0 10.9814 0L 10.9764 0C 10.716 0 10.4683 0.0816402 10.2606 0.235629L 0.479508 7.4914C -0.0487891 7.88328 -0.157297 8.62851 0.237803 9.15284L 1.05735 10.2398C 1.28221 10.5382 1.64071 10.7161 2.01632 10.7161C 2.20713 10.7161 2.39111 10.6716 2.55799 10.5871L 2.55799 20.8129C 2.55799 21.4673 3.095 22 3.75493 22L 18.2452 22C 18.905 22 19.4421 21.4673 19.4421 20.8129L 19.4421 10.5871C 19.6089 10.6716 19.793 10.7161 19.9837 10.7161C 20.3594 10.7161 20.7179 10.538 20.9427 10.2398L 21.7623 9.15284C 22.1572 8.62851 22.0489 7.88328 21.5205 7.4914ZM 18.2454 21.2461L 3.75514 21.2461C 3.51381 21.2461 3.31775 21.0517 3.31775 20.8125L 3.31775 10.0452L 11.0002 4.34619L 18.6828 10.0452L 18.6828 20.8125C 18.6828 21.0517 18.4865 21.2461 18.2454 21.2461ZM 21.154 8.7013L 20.3344 9.7883C 20.251 9.89889 20.1233 9.96243 19.9837 9.96243C 19.8889 9.96243 19.7986 9.93246 19.7225 9.87601L 11.2273 3.57424C 11.1599 3.52429 11.0799 3.49932 11 3.49932C 10.9201 3.49932 10.8401 3.52429 10.7726 3.57424L 2.27746 9.87601C 2.20133 9.93246 2.1108 9.96243 2.01627 9.96243C 1.87668 9.96243 1.74873 9.89889 1.6654 9.7883L 0.84602 8.7013C 0.70156 8.50972 0.74114 8.2374 0.934223 8.0941L 10.7153 0.838544C 10.7908 0.782524 10.8811 0.75293 10.9803 0.75293C 11.1189 0.75293 11.2092 0.782524 11.2844 0.838544L 21.0656 8.0941C 21.2586 8.2374 21.2982 8.50972 21.154 8.7013Z" />
    <path
       id="path6_fill"
       fill-rule="evenodd"
       d="M 9.52537 0C 8.4488 0 7.44711 0.426946 6.71425 1.18518C 5.98118 0.426946 4.9797 0 3.90313 0C 1.75085 0 0 1.73679 0 3.87179C 0 4.86732 0.356602 5.8702 1.0599 6.85273C 1.60725 7.61725 2.36616 8.37237 3.3156 9.09682C 4.91603 10.3179 6.4922 11.027 6.55858 11.0566C 6.60807 11.0786 6.66119 11.0896 6.71425 11.0896C 6.76103 11.0896 6.80798 11.0812 6.85238 11.064C 6.91903 11.0382 8.50148 10.4186 10.1072 9.24055C 11.0601 8.54145 11.8217 7.78971 12.3708 7.00672C 13.0726 6.0055 13.4285 4.95084 13.4285 3.87179C 13.4285 1.73679 11.6777 0 9.52537 0ZM 6.72443 10.3016C 5.79551 9.85411 0.759766 7.27014 0.759766 3.87251C 0.759766 2.15291 2.17009 0.753906 3.90356 0.753906C 4.89702 0.753906 5.81137 1.2054 6.41179 1.99285C 6.48375 2.08684 6.59583 2.14201 6.71468 2.14201C 6.83358 2.14201 6.94566 2.08684 7.01735 1.99285C 7.61804 1.2054 8.5324 0.753906 9.5258 0.753906C 11.2593 0.753906 12.6694 2.15291 12.6694 3.87251C 12.6694 7.58859 7.65779 9.90299 6.72443 10.3016Z" />
  </defs>
  <path
     style="stroke-width:0.04889406"
     d="M 15.204307,24.933668 C 12.996398,23.78163 11.201812,22.319398 10.259555,20.904675 9.1156493,19.187191 9.0118213,17.420495 9.9701471,15.98022 c 0.9751399,-1.465545 2.8076689,-2.084895 4.4829019,-1.515112 0.449934,0.153033 0.813596,0.357642 1.230069,0.69208 l 0.332127,0.266707 0.198126,-0.178994 c 0.527669,-0.476718 1.250454,-0.81551 2.003557,-0.939131 1.844441,-0.302763 3.666207,0.794495 4.270907,2.572388 0.457997,1.346568 0.123558,2.977364 -0.908342,4.429272 -0.604981,0.851223 -1.719715,1.859674 -2.904097,2.627211 -0.899311,0.582797 -2.429927,1.359483 -2.674682,1.357225 -0.06154,-5.67e-4 -0.419922,-0.161757 -0.796407,-0.358198 z m 1.593611,-0.755122 c 1.430379,-0.723336 2.472137,-1.452934 3.395825,-2.378276 1.145057,-1.147108 1.690881,-2.221822 1.766496,-3.478189 0.110837,-1.841609 -1.31148,-3.348284 -3.157816,-3.345107 -0.88994,0.0015 -1.535928,0.273155 -2.231818,0.93843 -0.322373,0.308191 -0.484586,0.429881 -0.573033,0.429881 -0.08895,0 -0.237268,-0.112577 -0.531658,-0.403555 -0.646788,-0.639289 -1.239385,-0.907148 -2.106279,-0.952053 -1.01709,-0.05269 -1.826744,0.280646 -2.520389,1.037637 -0.831325,0.907245 -1.0236056,2.204469 -0.517272,3.489777 0.501962,1.274208 1.748324,2.602955 3.595259,3.832907 0.504003,0.335637 2.018366,1.20949 2.096013,1.20949 0.01725,0 0.370355,-0.171424 0.784672,-0.380942 z"
     id="path3804"
     inkscape:connector-curvature="0" />
  <path
     style="stroke-width:0.04889406"
     d="m 13.245921,19.792296 c -0.385545,-0.194897 -0.610524,-0.592139 -0.606406,-1.070721 0.0056,-0.651631 0.440985,-1.153938 1.000182,-1.153938 0.567101,0 1.001483,0.499555 0.999109,1.14901 -0.0019,0.510679 -0.223348,0.913931 -0.602872,1.097656 -0.274053,0.132666 -0.496283,0.126476 -0.790013,-0.02201 z m 0.596374,-0.737245 c 0.12445,-0.189934 0.108471,-0.531704 -0.03184,-0.68106 -0.14536,-0.154728 -0.212214,-0.153346 -0.338336,0.007 -0.123792,0.157376 -0.137431,0.531291 -0.02522,0.691491 0.104195,0.148759 0.291935,0.140486 0.395401,-0.01742 z"
     id="path3806"
     inkscape:connector-curvature="0" />
  <path
     style="stroke-width:0.04889406"
     d="m 15.644354,19.109419 c -0.244308,-0.08706 -0.573265,-0.440133 -0.650621,-0.698326 -0.216454,-0.72246 0.154316,-1.458266 0.805435,-1.598412 0.353139,-0.07601 0.795497,0.178055 1.008454,0.579197 0.142409,0.268252 0.151226,0.898115 0.01615,1.15364 -0.263925,0.499266 -0.732326,0.723217 -1.179416,0.563901 z m 0.396056,-0.699108 c 0.25088,-0.167517 0.204939,-0.806551 -0.06282,-0.873753 -0.149647,-0.03756 -0.247822,0.04912 -0.307762,0.271718 -0.101627,0.377413 0.133909,0.760062 0.370577,0.602035 z"
     id="path3808"
     inkscape:connector-curvature="0" />
  <path
     style="stroke-width:0.04889406"
     d="m 17.842564,19.822647 c -0.377737,-0.171582 -0.617231,-0.57531 -0.627081,-1.057106 -0.008,-0.393164 0.116476,-0.701035 0.382815,-0.946537 0.577029,-0.531888 1.405514,-0.194208 1.594408,0.64986 0.11824,0.528354 -0.13694,1.106928 -0.589101,1.335676 -0.262372,0.132734 -0.496431,0.138303 -0.761041,0.01811 z m 0.495867,-0.678925 c 0.16749,-0.111836 0.215061,-0.459728 0.09469,-0.692495 -0.131789,-0.254852 -0.350559,-0.234032 -0.465863,0.04434 -0.147771,0.356752 0.116487,0.818215 0.37117,0.648159 z"
     id="path3810"
     inkscape:connector-curvature="0" />
  <path
     style="stroke-width:0.04889406"
     d="m 14.110039,22.500546 c -0.0909,-0.02728 -0.216337,-0.08306 -0.278739,-0.123944 -0.16833,-0.110294 -0.313838,-0.449436 -0.313838,-0.731475 0,-1.365563 1.382358,-2.397378 2.841194,-2.120715 0.802228,0.152139 1.530171,0.774348 1.754087,1.499303 0.240432,0.778429 0.03367,1.345303 -0.54097,1.483157 -0.252242,0.06051 -0.483656,0.03882 -1.110337,-0.104093 -0.508336,-0.115922 -0.687779,-0.115698 -1.220976,0.0015 -0.571588,0.125662 -0.930561,0.156225 -1.130421,0.09624 z m 1.099104,-0.810344 0.651687,-0.131219 0.649991,0.131219 c 0.357495,0.07217 0.721331,0.131218 0.808525,0.131218 h 0.158535 v -0.259317 c 0,-0.748323 -0.728734,-1.364674 -1.613504,-1.364674 -0.88477,0 -1.613504,0.616351 -1.613504,1.364674 0,0.258019 7.68e-4,0.259317 0.153292,0.259317 0.08431,0 0.44655,-0.05905 0.804978,-0.131218 z"
     id="path3812"
     inkscape:connector-curvature="0" />
  <path
     style="stroke-width:0.04889406"
     d="M 8.2613504,26.862652 C 8.1537835,26.812607 7.9953817,26.697467 7.9093465,26.606785 7.5822006,26.261971 7.6012806,26.618313 7.6012806,20.853259 c 0,-2.873798 -0.011974,-5.237061 -0.026608,-5.251695 -0.014634,-0.01463 -0.1392187,0.0064 -0.2768539,0.04675 -0.3134492,0.09189 -0.6737329,0.02456 -0.9519493,-0.177879 -0.2685572,-0.195414 -1.1842148,-1.424837 -1.2715081,-1.707212 -0.12606,-0.407776 0.00162,-0.852241 0.3346254,-1.164844 0.089755,-0.08426 2.39074,-1.80434 5.1133013,-3.8224087 4.515196,-3.3468394 4.97311,-3.6739898 5.211891,-3.7235604 0.2699,-0.056031 0.609547,-0.013042 0.833134,0.1054502 0.24668,0.1307299 9.948357,7.3500979 10.106036,7.5202649 0.19762,0.213273 0.28998,0.468676 0.28998,0.801877 0,0.329001 -0.07456,0.470177 -0.651441,1.233545 -0.414702,0.548759 -0.564025,0.709617 -0.751982,0.810075 -0.369939,0.197721 -0.683822,0.216971 -1.052649,0.06456 -0.08,-0.03306 -0.08544,0.259868 -0.09779,5.266533 l -0.01308,5.301539 -0.147839,0.239105 c -0.08131,0.131508 -0.242721,0.305792 -0.358687,0.387299 l -0.210849,0.148195 -7.611045,0.0114 c -7.3319923,0.01098 -7.6182149,0.0081 -7.8066206,-0.07959 z M 23.544717,26.127648 23.68785,25.984516 23.675415,20.493582 23.66298,15.002647 19.922584,12.22353 C 17.865367,10.695016 16.134542,9.4212579 16.076307,9.3929572 15.98175,9.3470048 15.559465,9.6463613 12.128111,12.191821 l -3.8423136,2.85032 0.00173,5.430966 c 0.00186,5.830493 -0.00868,5.587108 0.2481196,5.729441 0.095506,0.05294 1.4640449,0.06508 7.491394,0.0665 l 7.374541,0.0017 z M 7.2255659,14.919523 c 0.058739,-0.0312 2.0207558,-1.47641 4.3600381,-3.211575 2.339283,-1.7351649 4.300525,-3.1638841 4.358316,-3.1749316 0.05779,-0.011048 0.153813,0.006 0.213382,0.037877 0.05957,0.03188 2.033173,1.4861276 4.385788,3.2316606 4.451456,3.302778 4.396404,3.265904 4.66292,3.123269 0.114252,-0.06115 0.957437,-1.168218 1.024899,-1.345656 0.06457,-0.169831 0.01814,-0.328135 -0.139405,-0.475266 -0.150562,-0.140614 -9.590605,-7.1446159 -9.811527,-7.2796235 -0.184054,-0.1124768 -0.40677,-0.1149324 -0.563626,-0.00621 -0.54759,0.3795366 -9.8215496,7.2798965 -9.8874802,7.3568535 -0.1741326,0.203257 -0.11495,0.3848 0.3107677,0.953281 0.6206851,0.828831 0.7863938,0.949432 1.0859274,0.790325 z"
     id="path3814"
     inkscape:connector-curvature="0" />
  <path
     style="stroke-width:0.04889406"
     d="M 8.3417601,35.724125 0.65832363,30.016875 V 15.333583 0.65029104 H 16.377765 32.097206 l -0.0023,14.68044196 -0.0023,14.680443 -7.994921,5.696158 c -4.397206,3.132887 -8.012361,5.702432 -8.033677,5.7101 -0.02132,0.0077 -3.496301,-2.554321 -7.7221919,-5.693309 z M 23.71316,35.092044 31.363962,29.636241 31.351655,15.497748 31.339348,1.3592549 H 16.353318 1.3672875 l -0.012307,14.1351291 -0.012307,14.135128 7.3464164,5.457921 c 4.0405291,3.001856 7.3524581,5.458482 7.3598421,5.459167 0.0074,6.85e-4 3.456287,-2.453865 7.664228,-5.454556 z"
     id="path3816"
     inkscape:connector-curvature="0" />
</svg>
