<svg width="61" height="72" viewBox="0 0 61 72" version="1.1" xmlns="http://www.w3.org/2000/svg" xmlns:xlink="http://www.w3.org/1999/xlink">
<title>Group</title>
<desc>Created using Figma</desc>
<g id="Canvas" transform="translate(-38404 2041)">
<g id="Group">
<g id="XMLID 19">
<use xlink:href="#path0_fill" transform="translate(38427.5 -1979.24)" fill="#3CF4CF"/>
</g>
<g id="XMLID 18">
<use xlink:href="#path1_fill" transform="translate(38418.6 -2020.92)" fill="#3CF4CF"/>
</g>
<g id="XMLID 17">
<use xlink:href="#path2_fill" transform="translate(38452.2 -2025.19)" fill="#3CF4CF"/>
</g>
<g id="XMLID 16">
<use xlink:href="#path3_fill" transform="translate(38404.6 -2025.25)" fill="#3CF4CF"/>
</g>
<g id="XMLID 15">
<use xlink:href="#path4_fill" transform="translate(38431.7 -2041)" fill="#3CF4CF"/>
</g>
</g>
</g>
<defs>
<path id="path0_fill" d="M 12.5259 -1.99027e-06C 13.456 0.0652151 14.2001 0.847822 14.2621 1.8913L 14.2621 3.84781C 14.2621 5.3478 13.208 6.65215 11.7818 6.8478L 11.3477 8.60866C 11.0997 9.5217 10.2935 10.1739 9.3634 10.2391L 4.89874 10.2391C 3.9686 10.2391 3.16247 9.58692 2.91444 8.60866L 2.48037 6.8478C 1.05416 6.65215 8.81205e-15 5.3478 8.81205e-15 3.84781L 8.81205e-15 1.8913C 8.81205e-15 0.847822 0.806122 -1.99027e-06 1.79827 -1.99027e-06L 12.5259 -1.99027e-06Z"/>
<path id="path1_fill" d="M 15.8607 0.001814L 15.9847 0.001814C 24.8521 -0.0634031 32.1072 7.43657 32.1692 16.6974C 32.2312 21.1322 30.5569 25.3713 27.6425 28.5669C 25.9682 30.3278 24.9141 32.6104 24.604 35.0886C 24.232 37.1756 22.4957 38.7408 20.5114 38.7408L 11.6441 38.7408C 9.59778 38.7408 7.86152 37.1756 7.55147 35.0234C 7.17942 32.5452 6.12526 30.2626 4.51302 28.5017C -1.6259 21.7843 -1.50188 11.1539 4.88507 4.63223C 7.79951 1.63224 11.7681 -0.0634031 15.8607 0.001814Z"/>
<path id="path2_fill" d="M 1.35505 4.59915L 7.99004 0.425251C 9.35425 -0.422572 11.1525 0.0339481 11.9586 1.46872C 12.7648 2.9035 12.3307 4.7948 10.9665 5.64262L 4.3315 9.81652C 2.96729 10.6643 1.16902 10.2078 0.362903 8.77304C -0.381208 7.33827 0.0528559 5.44697 1.35505 4.59915Z"/>
<path id="path3_fill" d="M 11.0079 4.66436L 4.37293 0.42525C 3.00872 -0.422572 1.21045 0.0339478 0.404334 1.46872C -0.401787 2.9035 0.0322783 4.7948 1.39648 5.64262L 8.03148 9.81652C 9.39568 10.6643 11.194 10.2078 12.0001 8.77304C 12.7442 7.40348 12.3101 5.51219 11.0079 4.66436Z"/>
<path id="path4_fill" d="M 0.0620102 11.2173L -4.73093e-07 3.0652C -4.73093e-07 1.36956 1.24019 0 2.85243 0C 4.46467 0 5.76686 1.30434 5.76686 2.99999L 5.82887 11.0869C 5.82887 12.7826 4.58869 14.1521 2.97645 14.1521C 1.42621 14.2173 0.12402 12.913 0.0620102 11.2173Z"/>
</defs>
</svg>
