<svg id="Layer_2" data-name="Layer 2" xmlns="http://www.w3.org/2000/svg" viewBox="0 0 25 25"><defs><style>.cls-1{fill:#131313;}</style></defs><title>icon-instagram</title><circle class="cls-1" cx="12.5" cy="12.53" r="2.4"/><path class="cls-1" d="M18.15,8.26a2.62,2.62,0,0,0-.55-.83,1.88,1.88,0,0,0-.83-.55,4.37,4.37,0,0,0-1.35-.25c-.77,0-1,0-2.92,0s-2.15,0-2.92,0a4.17,4.17,0,0,0-1.35.25,2.62,2.62,0,0,0-.83.55,1.88,1.88,0,0,0-.55.83A4.37,4.37,0,0,0,6.6,9.61c0,.77,0,1,0,2.92s0,2.15,0,2.92a4.17,4.17,0,0,0,.25,1.35,2.62,2.62,0,0,0,.55.83,1.88,1.88,0,0,0,.83.55,4.38,4.38,0,0,0,1.35.25c.77,0,1,0,2.92,0s2.15,0,2.92,0a4.18,4.18,0,0,0,1.35-.25,2.62,2.62,0,0,0,.83-.55,1.89,1.89,0,0,0,.55-.83,4.38,4.38,0,0,0,.25-1.35c0-.77,0-1,0-2.92s0-2.15,0-2.92A4.18,4.18,0,0,0,18.15,8.26Zm-5.66,8a3.72,3.72,0,1,1,3.72-3.72A3.71,3.71,0,0,1,12.5,16.25Zm3.87-6.73a.86.86,0,1,1,.86-.86A.86.86,0,0,1,16.37,9.52Z"/><path class="cls-1" d="M12.5,0A12.5,12.5,0,1,0,25,12.5,12.5,12.5,0,0,0,12.5,0Zm7.19,15.48a5,5,0,0,1-.34,1.75,3.44,3.44,0,0,1-.83,1.29,3.7,3.7,0,0,1-1.29.83,5,5,0,0,1-1.75.34c-.77,0-1,0-3,0s-2.21,0-3,0a5,5,0,0,1-1.75-.34,3.44,3.44,0,0,1-1.29-.83,3.7,3.7,0,0,1-.83-1.29,5,5,0,0,1-.34-1.75c0-.77,0-1,0-3s0-2.21,0-3a5,5,0,0,1,.34-1.75,3.44,3.44,0,0,1,.83-1.29,3.7,3.7,0,0,1,1.29-.83,5,5,0,0,1,1.75-.34c.77,0,1,0,3,0s2.21,0,3,0a5,5,0,0,1,1.75.34,3.44,3.44,0,0,1,1.29.83,3.7,3.7,0,0,1,.83,1.29,5,5,0,0,1,.34,1.75c0,.77,0,1,0,3S19.72,14.71,19.69,15.48Z"/></svg>