<?xml version="1.0" encoding="utf-8"?>
<!-- Generator: Adobe Illustrator 18.0.0, SVG Export Plug-In . SVG Version: 6.00 Build 0)  -->
<!DOCTYPE svg PUBLIC "-//W3C//DTD SVG 1.1//EN" "http://www.w3.org/Graphics/SVG/1.1/DTD/svg11.dtd">
<svg version="1.1" id="rounded" xmlns="http://www.w3.org/2000/svg" xmlns:xlink="http://www.w3.org/1999/xlink" x="0px" y="0px"
	 viewBox="0 0 811 471" enable-background="new 0 0 811 471" xml:space="preserve">
<path fill="#FFFFFF" d="M257.3,201.5c-9.4,0-17,7.6-17,17c0,9.4,7.6,17,17,17c9.4,0,17-7.6,17-17
	C274.3,209.1,266.7,201.5,257.3,201.5z M264.1,215.8c0,0.1,0,0.3,0,0.5c0,4.6-3.5,9.9-9.9,9.9c-2,0-3.8-0.6-5.4-1.6
	c0.3,0,0.6,0,0.8,0c1.6,0,3.1-0.6,4.3-1.5c-1.5,0-2.8-1-3.3-2.4c0.2,0,0.4,0.1,0.7,0.1c0.3,0,0.6,0,0.9-0.1
	c-1.6-0.3-2.8-1.7-2.8-3.4v0c0.5,0.3,1,0.4,1.6,0.4c-0.9-0.6-1.6-1.7-1.6-2.9c0-0.6,0.2-1.2,0.5-1.8c1.7,2.1,4.3,3.5,7.2,3.7
	c-0.1-0.3-0.1-0.5-0.1-0.8c0-1.9,1.6-3.5,3.5-3.5c1,0,1.9,0.4,2.6,1.1c0.8-0.2,1.5-0.4,2.2-0.8c-0.3,0.8-0.8,1.5-1.5,1.9
	c0.7-0.1,1.4-0.3,2-0.6C265.4,214.7,264.8,215.4,264.1,215.8z"/>
<path fill="#FFFFFF" d="M333.1,201.5c-9.4,0-17,7.6-17,17c0,9.4,7.6,17,17,17c9.4,0,17-7.6,17-17
	C350.1,209.1,342.5,201.5,333.1,201.5z M336.9,215.6l-0.2,2.5h-2.6v8.8h-3.3v-8.8H329v-2.5h1.8v-1.7c0-0.8,0-1.9,0.6-2.6
	c0.6-0.8,1.4-1.3,2.7-1.3c2.2,0,3.2,0.3,3.2,0.3l-0.4,2.6c0,0-0.7-0.2-1.4-0.2c-0.7,0-1.3,0.2-1.3,0.9v2H336.9z"/>
<g>
	<path fill="#FFFFFF" d="M408.9,221.5c1.7,0,3-1.3,3-3c0-0.7-0.2-1.3-0.6-1.7c-0.5-0.8-1.4-1.2-2.4-1.2c-1,0-1.9,0.5-2.4,1.2
		c-0.4,0.5-0.6,1.1-0.6,1.7C405.9,220.1,407.3,221.5,408.9,221.5z"/>
	<polygon fill="#FFFFFF" points="415.5,214.8 415.5,212.3 415.5,211.9 415.1,211.9 412.6,212 412.6,214.8 	"/>
	<path fill="#FFFFFF" d="M408.9,201.5c-9.4,0-17,7.6-17,17c0,9.4,7.6,17,17,17c9.4,0,17-7.6,17-17
		C425.9,209.1,418.3,201.5,408.9,201.5z M417.4,216.7v7c0,1.8-1.5,3.3-3.3,3.3h-10.4c-1.8,0-3.3-1.5-3.3-3.3v-7v-3.5
		c0-1.8,1.5-3.3,3.3-3.3h10.4c1.8,0,3.3,1.5,3.3,3.3V216.7z"/>
	<path fill="#FFFFFF" d="M413.6,218.5c0,2.6-2.1,4.7-4.7,4.7c-2.6,0-4.7-2.1-4.7-4.7c0-0.6,0.1-1.2,0.3-1.7h-2.5v7
		c0,0.9,0.7,1.6,1.6,1.6h10.4c0.9,0,1.6-0.7,1.6-1.6v-7h-2.5C413.5,217.3,413.6,217.9,413.6,218.5z"/>
</g>
<path fill="#FFFFFF" d="M484.8,201.5c-9.4,0-17,7.6-17,17c0,9.4,7.6,17,17,17c9.4,0,17-7.6,17-17
	C501.8,209.1,494.1,201.5,484.8,201.5z M495.2,225.2c0,0.5-0.4,0.9-0.9,0.9h-19.2c-0.5,0-0.9-0.4-0.9-0.9v-9.9
	c0.2,0.2,0.3,0.4,0.5,0.5c1,0.9,2.3,1.9,4,3.1c2.8,1.9,5.7,3.4,5.7,3.4l0.4,0.2l0.3-0.2c0,0,2.9-1.7,5.7-3.7c1.7-1.2,3-2.2,3.9-3.1
	c0.2-0.2,0.4-0.3,0.5-0.5V225.2z M495.2,212.7c0,0.1-0.1,0.3-0.3,0.5c-0.3,0.3-0.7,0.8-1.2,1.2c-0.9,0.8-2.2,1.8-3.8,3
	c-2.2,1.6-4.4,2.9-5.2,3.5c-0.8-0.5-3-1.7-5.2-3.2c-1.6-1.1-2.9-2.1-3.8-2.9c-0.5-0.5-0.9-0.9-1.2-1.3c-0.2-0.3-0.3-0.5-0.3-0.6
	v-1.1c0-0.5,0.4-0.9,0.9-0.9h19.2c0.5,0,0.9,0.4,0.9,0.9V212.7z"/>
</svg>
