<?xml version="1.0" encoding="utf-8"?>
<!-- Generator: Adobe Illustrator 18.0.0, SVG Export Plug-In . SVG Version: 6.00 Build 0)  -->
<!DOCTYPE svg PUBLIC "-//W3C//DTD SVG 1.1//EN" "http://www.w3.org/Graphics/SVG/1.1/DTD/svg11.dtd">
<svg version="1.1" id="Capa_1" xmlns="http://www.w3.org/2000/svg" xmlns:xlink="http://www.w3.org/1999/xlink" x="0px" y="0px"
	 viewBox="0 0 1280 1426.3" enable-background="new 0 0 1280 1426.3" xml:space="preserve">
<path fill="#FFFFFF" d="M1153.6,382.6c-36-35.7-94.6-41.8-146.2-51.8c-11.8-35.5-43.8-91.2-130.1-118.6
	c-87.6-27.8-150.1-2.2-182.2,18.2c0.5-4.7,0.7-9.5,0.7-14.4c0-81.3-65.9-147.2-147.2-147.2c-60.6,0-112.7,36.7-135.2,89
	c-26.3-19.6-58.9-31.3-94.3-31.3c-87.1,0-157.6,70.6-157.6,157.6c0,20.3,3.8,39.7,10.8,57.5c-62,21.2-106.6,80-106.6,149.2
	c0,1.1,0,2.1,0,3.2c0,0.4,0,0.8,0,1.2c-0.1,10.3,0.9,20.8,3,31c-0.3,3.5-0.5,7-0.5,10.6v700.6c0,65.9,55.4,119.7,123.1,119.7h896.9
	c67.7,0,123.1-53.9,123.1-119.7V652.4C1212.4,556.3,1228,456.4,1153.6,382.6z"/>
<g>
	<g>
		<g>
			<path fill="#0F7384" d="M261.7,1033.8c18.1,0,34.3-9.1,44.2-24.5c2.7-3.5,0.9-8.2-2.7-10c-2.6-2.7-8.2-1.8-10,1.8
				c-7.1,10.9-19,17.2-31.6,17.2c-20.7,0-37.9-16.3-37.9-37.1c0-20.7,17.2-37.7,37.9-37.7c13.4,0,25.4,7.1,32.5,18.9
				c1.8,3.6,6.5,4.5,10,2.7c3.6-1.7,5.4-6.3,2.7-10.9c-9.1-16.3-26.1-26.1-45.2-26.1c-29,0-53.3,23.4-53.3,53.2
				C208.4,1010.2,232.7,1033.8,261.7,1033.8z"/>
		</g>
		<g>
			<path fill="#0F7384" d="M339.9,1034c4.1,0,7.4-3.3,7.4-7.5v-98.3c0-4.1-3.3-7.4-7.4-7.4c-4.2,0-7.5,3.3-7.5,7.4v98.3
				C332.3,1030.6,335.6,1034,339.9,1034z"/>
		</g>
		<g>
			<path fill="#0F7384" d="M411.3,1034c16.9,0,30.5-13.6,30.7-30.3v-0.2v-37.9c0-4.1-3.3-7.4-7.4-7.4c-4.2,0-7.5,3.3-7.5,7.4v37.7
				c0,8.6-6.9,15.7-15.7,15.7c-8.6,0-15.6-7.1-15.6-15.7v-37.7c0-4.1-3.3-7.4-7.6-7.4c-4.1,0-7.4,3.3-7.4,7.4v37.9v0.2
				C381,1020.4,394.5,1034,411.3,1034z"/>
		</g>
		<g>
			<path fill="#0F7384" d="M513.4,1033.5c21,0,37.9-17.1,37.9-37.9c0-21-16.9-37.9-37.9-37.9c-8.6,0-16.6,2.9-22.9,7.7v-37.6
				c0-4.1-3.3-7.4-7.4-7.4c-4.2,0-7.5,3.3-7.5,7.4v67.8C475.5,1016.3,492.6,1033.5,513.4,1033.5z M513.4,972.6c12.7,0,23,10.3,23,23
				c0,12.5-10.3,23-23,23c-12.7,0-22.9-10.3-22.9-23C490.5,983,500.7,972.6,513.4,972.6z"/>
		</g>
		<g>
			<path fill="#0F7384" d="M721.5,995.6v-0.1v-67.7c0-4.1-3.3-7.4-7.5-7.4c-4.1,0-7.4,3.3-7.4,7.4v37.6c-6.3-4.8-14.3-7.7-23-7.7
				c-21,0-37.9,16.9-37.9,37.9c0,20.8,16.9,37.9,37.9,37.9C704.4,1033.5,721.5,1016.4,721.5,995.6z M706.5,995.6
				c0,12.7-10.3,23-23,23c-12.7,0-23-10.4-23-23c0-12.7,10.3-23,23-23c12.7,0,23,10.3,23,22.8V995.6z"/>
		</g>
		<g>
			<path fill="#0F7384" d="M783.3,1033.8c5.6,0,13.3,0.1,23.3-6.5c3.5-2.3,5.4-6.2,3.6-10c-1.8-3.6-6.5-5.7-10-3.5
				c-7.3,4.7-13.4,5-16.9,5c-10.1,0-18.6-6.5-21.7-15.6h52.1c4.2,0,7.6-3.3,7.6-7.4c0-24.6-19.6-37.9-37.9-37.9
				c-21,0-37.9,16.9-37.9,37.9C745.4,1016.7,762.3,1033.8,783.3,1033.8z M783.3,973c9.1,0,18.7,4.8,21.9,15.4h-43.6
				C764.7,979.4,773.2,973,783.3,973z"/>
		</g>
		<g>
			<path fill="#0F7384" d="M911.3,1034c4.1,0,7.4-3.3,7.4-7.5v-98.3c0-4.1-3.3-7.4-7.4-7.4c-4.2,0-7.5,3.3-7.5,7.4v98.3
				C903.7,1030.6,907,1034,911.3,1034z"/>
		</g>
		<g>
			<path fill="#0F7384" d="M981.2,1033.7c8.6,0,15.9-2.1,22.4-7.5c0,4.4,4.2,7.5,7.2,7.5c4.4,0,7.5-3.2,7.5-7.5v-29.6
				c0-21.3-15.8-38.2-37.1-38.2c-21.3,0-38.2,16.9-38.2,38.2C943,1017.8,959.9,1033.7,981.2,1033.7z M981.2,973.1
				c12.7,0,22.4,10.7,22.4,23.4c0,12.7-9.7,22.3-22.4,22.3c-12.7,0-23.4-9.7-23.4-22.3C957.8,983.8,968.5,973.1,981.2,973.1z"/>
		</g>
		<g>
			<path fill="#0F7384" d="M1065.4,1003.4c4.2,0,7.7,3.5,7.7,7.7c0,4.4-3.5,7.8-7.7,7.8c-3.6,0-5.4-0.6-7.5-4.5
				c-2-3.8-4.8-6.6-8.9-5.9c-3.9,0.9-7.1,5-5.7,8.9c2.9,8.8,11.5,16.5,22.2,16.5c12.5,0,22.6-10.3,22.6-22.8c0-6-2.3-11.6-6.7-16
				c-4.2-4.2-10-6.6-16-6.6c-4.2,0-7.7-3.5-7.7-7.7s3.5-7.7,7.7-7.7c3.6,0,6.2,1.7,7.1,4.1c1.4,3.8,4.8,6.5,8.9,5.6
				c4.1-0.7,6.5-4.8,5.7-8.9c-1.5-8.4-11.2-15.7-21.7-15.7c-12.5,0-22.7,10.1-22.7,22.6c0,6,2.3,11.8,6.7,16
				C1053.6,1001,1059.3,1003.4,1065.4,1003.4z"/>
		</g>
		<g>
			<g>
				<path fill="#0F7384" d="M218.6,1064.7l-2,0c-2.1,0-6.9,0-8.2,3.6l-1,0.5c-0.4,16.8-2.4,93.2-2.4,109v53.8l1.7,0.5
					c1.9,1.2,3.1,1.5,5.3,1.5c2.8,0,6.5-0.9,8-3.5l0.4-0.4l0-0.5c-0.2-6.6-0.2-38.1,0-45c0-3,0.7-16.7,1-21.3
					c19.9-9.8,35.3-34.7,35.3-57.2C256.8,1083,239.7,1064.7,218.6,1064.7z M240.7,1107c0,14.8-5.8,26.9-18.3,38.3
					c-0.3,0.3-0.7,0.5-1.3,0.7l1.4-67C234.3,1080.6,240.7,1097.9,240.7,1107z"/>
			</g>
			<g>
				<path fill="#0F7384" d="M299.6,1061.3l-1.8-4.6c-1.6-2.7-5.1-3.9-7.8-3.9c-6.4,0-8.1,6.7-9.2,10.9l0,0
					c-0.4,2.3-2.9,18.5-21.5,148.7c0,2.6,2.2,9.1,6.2,9.1c6.7,0,7.4-8,7.7-11.8c0-0.6,0.1-1.1,0.1-1.4l3.4-21.6l0.3,0.6h28l4.9,36.7
					c0.4,2.9,3.9,2.3,5.2,2.3h0.6c4.9,0,6.2-2.8,7.7-6.9l0.4-0.7l-1.3-14.2C317.1,1157.5,311.6,1108.6,299.6,1061.3z M302.9,1169.9
					l-21.6-0.5l10-80L302.9,1169.9z"/>
			</g>
			<g>
				<path fill="#0F7384" d="M358.8,1064.3h-17c-3.5,0-6.4-0.7-8.9-0.7c-12.7,0-14.1,2.7-14.6,9.8l0,0.2l0,0.1
					c0.6,4.7,7.2,4.7,10.9,4.7c2,0.1,4.6-0.1,8-0.3l4,127.3c0,3.4,5.5,4.6,7,4.6s7-1.3,7-4.7l-3.8-127.9h15.3c2.8,0,5.8-2.3,5.8-5.1
					C372.5,1064.4,362.6,1064.3,358.8,1064.3z"/>
			</g>
			<g>
				<path fill="#0F7384" d="M397.2,1066.9c-4.8,0-6.6,0.4-8.4,5.4l-5.6,151.9c0,3.2,2.5,5.5,6.1,5.5c4.2,0,8.9-3.3,9.2-9.3
					l6.1-139.6c0-0.2,0-0.8,0.1-1.4c0.1-0.9,0.1-1.9,0.1-2.2C404.8,1071.5,404.8,1066.9,397.2,1066.9z"/>
			</g>
			<g>
				<path fill="#0F7384" d="M452.7,1064.3h-17c-3.5,0-6.4-0.7-8.9-0.7c-12.7,0-14.1,2.7-14.6,9.8l0,0.2l0,0.1
					c0.6,4.7,7.2,4.7,10.8,4.7c2,0.1,4.6-0.1,8-0.3l4,127.3c0,3.4,5.5,4.6,7,4.6c1.5,0,7-1.3,7-4.7l-3.8-127.9h15.3
					c2.8,0,5.8-2.3,5.8-5.1C466.4,1064.4,456.5,1064.3,452.7,1064.3z"/>
			</g>
			<g>
				<path fill="#0F7384" d="M507.7,1061.3l-1.8-4.6c-1.6-2.7-5.1-3.9-7.8-3.9c-6.4,0-8.1,6.7-9.2,10.9l0,0
					c-0.4,2.2-2.9,18.5-21.5,148.7c0,2.6,2.2,9.1,6.2,9.1c6.7,0,7.4-8,7.7-11.8c0.1-0.6,0.1-1.1,0.1-1.4l3.4-21.6l0.3,0.6h28
					l4.9,36.7c0.4,2.9,3.9,2.3,5.2,2.3h0.6c4.9,0,6.2-2.8,7.7-6.9l0.4-0.7l-1.3-14.2C525.3,1157.5,519.7,1108.6,507.7,1061.3z
					 M511.1,1169.9l-21.6-0.5l10-80L511.1,1169.9z"/>
			</g>
			<g>
				<path fill="#0F7384" d="M570.4,1130c-8.1-11.3-15.8-21.9-15.8-35.4c0-13.2,3.2-19.9,9.5-19.9c5.1,0,6.7,2.8,8.5,6
					c1.7,2.9,3.5,6.2,8.2,6.2c7,0,7-5.9,7-7.9c0-11.3-15.3-19.5-25.6-19.5c-14.6,0-22.7,19-22.7,32.1c0,17,9,31,17.8,44.5
					c4.6,7,9.3,14.3,12.5,21.8c4.7,10.7,5.3,21.1,5.3,31.5c0,6.2-2.3,20.7-13,20.7h-0.7c-4.2,0-4.5-6.6-4.9-12
					c-0.3-5.4-0.7-10.2-5.7-11.7c-4-1.3-10.2,3.1-10.2,8c0,12.2,4.5,32.9,21.5,32.9c12.7,0,22.6-13.5,26.5-26.2
					c5.3-16.7,0.1-40.5-7.9-55.3C578,1140.4,574.1,1135.1,570.4,1130z"/>
			</g>
			<g>
				<path fill="#0F7384" d="M702.8,1064.2c-1.9,0-3.8,0.1-5.3,0.2c-1.1,0.1-1.8,0.1-2.7,0.1c-16.9,1-24.8,7.4-24.8,19.5v0.5
					c3,40.2,7.3,107,9.6,125.7c0.8,3.7,1.8,6.6,5.4,6.6c2.9,0,4-2,4-7.7v-0.8c0-10.9,1-21.4,0-31.5c-1.3-12.6-1.4-24.6-0.7-36.5
					c1.4-0.2,4.1-0.4,6.3-0.5c8.5-0.5,20.5-1.2,20.5-9.6c0-1.8-0.5-5.8-6.6-5.8c-2.5,0-5.1,0.6-7.3,1.1c-1.2,0.3-2.2,0.5-2.8,0.5
					c-3,0.2-5.4,0.2-8.1,0c-1.4-11.7-1.4-27.9-1.4-39.6v-1.6c0-1.7-1.7-7,13.8-7c2.6,0,4.1,0.1,6,0.2c0.9,0.1,1.3,0.1,2.2,0.1
					c4.5-0.4,6.9-2.4,6.9-5.7C717.4,1064.2,706.4,1064.2,702.8,1064.2z"/>
			</g>
			<g>
				<path fill="#0F7384" d="M776.6,1211.8c-2,0-4.2,0.2-6.8,0.5c-3.1,0.3-6.6,0.7-10.3,0.7c-4.7,0-7.3,0-8.9-0.1l0.6-50.1l18.9-2.8
					c6-0.9,9.7-5.4,9.4-9c-0.1-1.2-0.9-5-7.4-5l-21.4,3.7l-1-63.3h22.7c4.2,0,10.5-3.1,10.5-8.3c0-0.5,0-1.4-0.3-2.1
					c-0.9-2-5.3-5.5-7.1-5.5h-32.2c-4.6,0-8.9,4.3-8.9,9l2.2,142.4c0,1.2,0,4.7,22.2,4.7c6.4,0,21.7-0.4,25.5-4.4c0.9-1,1.1-2,1-2.6
					C785.2,1212.6,780.3,1211.8,776.6,1211.8z"/>
			</g>
			<g>
				<path fill="#0F7384" d="M848.4,1208.9c-4.6,0-9,0.7-13.2,1.5c-4.1,0.7-8.1,1.4-12.1,1.4c-1.8-31.7-2.5-63.9-3.1-95.1
					c-0.2-9.7-0.4-19.4-0.6-29c-0.1-2.2,0-4.2,0-6c0.1-4.9,0.1-9.4-1.3-15.4c-1.4-5.2-3.8-5.8-7.3-5.8h-0.9c-0.7,0-3.5,0.4-4.4,0.8
					l-0.4,0.3l-0.2,0.4c-1.8,1.8-1.8,3-1.8,5v1.5c0,1.4,0.3,6.3,0.8,12.1c0.8,10.3,1.7,24.3,1.7,26.7c0,7.2,0.6,38.2,1.2,64.8
					c0.3,14,0.6,26.8,0.9,36.9c0.5,18.3,0.5,17.6,2.2,17.6h0.1l41.5-5.3c3.5-0.5,5.6-2.4,5.6-5.8
					C857,1212.7,855.9,1208.9,848.4,1208.9z"/>
			</g>
			<g>
				<path fill="#0F7384" d="M881.4,1066.9c-4.8,0-6.6,0.4-8.4,5.4l-5.6,151.9c0,3.2,2.5,5.5,6.1,5.5c4.2,0,8.9-3.3,9.2-9.3
					l6.1-139.6c0-0.2,0-0.8,0.1-1.4c0.1-0.9,0.1-1.9,0.1-2.2C889.1,1071.5,889.1,1066.9,881.4,1066.9z"/>
			</g>
			<g>
				<path fill="#0F7384" d="M951.6,1203.9c-1.2,0-2.4,0.1-3.8,0.2c-1.4,0.1-2.9,0.2-4.4,0.2c-4.6,0-7.8-0.9-10.3-3.1
					c-17.6-14.6-18.9-33.5-18.9-58.4c0-21,8.1-62.5,26.8-62.5h1.2c0.3,0,0.7,0.2,1.2,0.2c0.8,0,1.8,0.2,2.9,0.2
					c10.1,0,12.3-4.1,12.3-7.5c0-5.5-5.8-9.2-11.3-9.2c-30.7,0-42.2,35.6-45.7,50.9c-6.3,26.7-5.4,66,11.6,87.9
					c8.5,11,20,17.6,34.1,17.6h0c2.8,0,9.6-1.1,12.1-5.2c0.8-1.5,1.4-4.3-0.6-7.8C957.3,1204.5,954.2,1203.9,951.6,1203.9z"/>
			</g>
			<g>
				<path fill="#0F7384" d="M1017.6,1211.8c-2,0-4.2,0.2-6.8,0.5c-3.1,0.3-6.6,0.7-10.3,0.7c-4.7,0-7.4,0-8.9-0.1l0.6-50.1l18.9-2.8
					c6-0.9,9.7-5.4,9.4-9c-0.1-1.2-0.9-5-7.4-5l-21.4,3.7l-1-63.3h22.7c4.2,0,10.5-3.1,10.5-8.3c0-0.5,0-1.4-0.4-2.2
					c-0.9-2-5.3-5.5-7.1-5.5h-32.2c-4.6,0-8.9,4.3-8.9,9l2.2,142.4c0,1.2,0,4.7,22.2,4.7c6.4,0,21.7-0.4,25.5-4.4c0.9-1,1.1-2,1-2.6
					C1026.2,1212.6,1021.3,1211.8,1017.6,1211.8z"/>
			</g>
			<g>
				<path fill="#0F7384" d="M1077.2,1146c-3-5.5-6.8-10.8-10.5-16c-8.1-11.3-15.8-21.9-15.8-35.4c0-13.2,3.2-19.9,9.5-19.9
					c5.1,0,6.7,2.8,8.5,6c1.7,2.9,3.5,6.2,8.2,6.2c7,0,7-5.9,7-7.9c0-11.3-15.3-19.5-25.6-19.5c-14.6,0-22.7,19-22.7,32.1
					c0,17,9,31,17.8,44.5c4.6,7,9.3,14.3,12.5,21.8c4.7,10.7,5.3,21.1,5.3,31.5c0,6.2-2.3,20.7-13,20.7h-0.7c-4.2,0-4.5-6.6-4.9-12
					c-0.3-5.4-0.7-10.2-5.7-11.7c-4-1.3-10.2,3.1-10.2,8c0,12.2,4.5,32.9,21.5,32.9c12.7,0,22.6-13.5,26.5-26.2
					C1090.4,1184.5,1085.1,1160.8,1077.2,1146z"/>
			</g>
		</g>
	</g>
	<g>
		<g>
			<g>
				<path fill="#8FFFDE" d="M599.3,381.8c-49.5-11.2-103.2-5-151.1,21.4c-104,57.3-141.8,188-84.5,292s188,141.8,292,84.5
					c0,0-15.8-28.6-69.3-125.8C524.8,542.2,545.4,441.8,599.3,381.8z"/>
			</g>
		</g>
		<g>
			<g>
				<circle fill="#8FFFDE" cx="511.1" cy="282.5" r="58.9"/>
			</g>
		</g>
		<g>
			<g>
				<circle fill="#8FFFDE" cx="332.5" cy="351" r="74.2"/>
			</g>
		</g>
		<g>
			<g>
				<circle fill="#8FFFDE" cx="239.1" cy="520.3" r="70.8"/>
			</g>
		</g>
		<g>
			<g>
				<circle fill="#8FFFDE" cx="272.7" cy="703.4" r="52.6"/>
			</g>
		</g>
		<g>
			<g>
				<path fill="#0F7384" d="M764.6,329.5c-59.7-17.3-122.8,4.9-165.3,52.2c-53.8,60-74.5,160.4-12.9,272.1
					c53.6,97.2,69.3,125.8,69.3,125.8s-2.5-48-6.1-116.1c-4.6-87.3,28.5-154.2,77.1-197.3c38.7-34.4,87.3-53.6,134.4-56
					C839.5,371.4,806.2,341.6,764.6,329.5z"/>
			</g>
		</g>
		<g>
			<g>
				<path fill="#881C9B" d="M980.4,449.5c-32.2-28.9-75.1-41.6-119.4-39.3c-47.1,2.4-95.6,21.6-134.4,56
					c-48.6,43.1-81.7,110-77.1,197.3c3.6,68.1,6.1,116.1,6.1,116.1s32.6-1.7,143.4-7.6C1026.9,760.1,1085.2,543.7,980.4,449.5z"/>
			</g>
		</g>
		<g>
			<g>
				<path fill="#003F48" d="M572.3,800.6C572.3,800.6,572.3,800.6,572.3,800.6c-88.3,0-167.5-52.6-201.8-133.9
					c-22.7-53.9-23.1-113.4-1-167.5c22-54.2,63.9-96.5,117.7-119.2c49.4-20.8,104.8-22.8,155.3-5.6c1.3,0.5,2.3,1.6,2.6,3
					c0.3,1.4-0.2,2.8-1.2,3.7c-81.1,73.3-74,184.8-40.3,264.8l55.8,132.3c0.4,1,0.4,2.1,0,3c-0.4,1-1.2,1.8-2.1,2.2
					C630.1,794.8,601.5,800.6,572.3,800.6z M572,370.6c-28.1,0-55.7,5.6-81.8,16.6c-51.9,21.9-92.2,62.7-113.5,114.9
					c-21.2,52.2-20.9,109.5,1,161.5c33,78.4,109.4,129.1,194.5,129.1h0c26.8,0,53.1-5.1,78.2-15.1l-54.2-128.7
					c-34-80.8-41.6-193,37.3-269.1C613.6,373.7,592.9,370.6,572,370.6z"/>
			</g>
		</g>
		<g>
			<g>
				<path fill="#003F48" d="M539.6,337.9C539.6,337.9,539.6,337.9,539.6,337.9c-32.8,0-60.3-25.6-62.7-58.4
					c-2.5-34.6,23.6-64.8,58.2-67.3c34.7-2.4,64.8,24,67.3,58.2c1.2,16.8-4.2,33-15.2,45.7c-11,12.7-26.3,20.4-43,21.6
					C542.7,337.9,541.1,337.9,539.6,337.9z M539.8,220c-1.3,0-2.7,0-4,0.1c-14.6,1.1-28,7.8-37.6,18.9
					c-9.6,11.1-14.3,25.3-13.3,39.9c2.1,28.6,26.1,51,54.8,51h0c1.3,0,2.7,0,4-0.1c14.6-1.1,28-7.8,37.6-18.9
					c9.6-11.1,14.3-25.3,13.3-39.9C592.5,242.5,568.4,220,539.8,220z"/>
			</g>
		</g>
		<g>
			<g>
				<path fill="#003F48" d="M357.5,411.4L357.5,411.4c-23.7,0-45.8-10.6-60.7-28.9c-13.1-16.2-19.2-36.6-17-57.3
					c2.2-20.8,12.3-39.4,28.5-52.6c13.9-11.2,31.3-17.4,49.2-17.4c23.7,0,45.8,10.6,60.7,28.9c13.1,16.2,19.2,36.6,17,57.3
					s-12.3,39.4-28.5,52.6C392.8,405.2,375.4,411.4,357.5,411.4z M357.5,263c-16,0-31.7,5.6-44.2,15.7
					c-14.6,11.8-23.7,28.6-25.6,47.2c-1.9,18.6,3.5,36.9,15.3,51.5c13.4,16.5,33.3,26,54.6,26l0,0c16,0,31.7-5.6,44.2-15.7
					c14.6-11.8,23.7-28.6,25.6-47.2c1.9-18.6-3.5-36.9-15.3-51.5C398.7,272.5,378.8,263,357.5,263z"/>
			</g>
		</g>
		<g>
			<g>
				<path fill="#003F48" d="M254.6,571.8L254.6,571.8c-7,0-14-1-20.8-2.9c-39.6-11.4-62.6-53-51.2-92.6
					c9.2-31.9,38.7-54.1,71.8-54.1c7,0,14,1,20.8,2.9c19.2,5.5,35.1,18.2,44.8,35.7c9.7,17.5,11.9,37.7,6.4,56.9
					C317.2,549.5,287.7,571.8,254.6,571.8z M254.5,430.1c-29.6,0-56,19.9-64.2,48.4c-10.2,35.4,10.3,72.6,45.7,82.8
					c6.1,1.8,12.3,2.6,18.6,2.6c29.6,0,56-19.9,64.2-48.4c5-17.2,2.9-35.2-5.7-50.9c-8.6-15.6-22.9-27-40-31.9
					C267,430.9,260.8,430.1,254.5,430.1z"/>
			</g>
		</g>
		<g>
			<g>
				<path fill="#003F48" d="M277.7,738.2c-24.2,0-45.7-15.4-53.5-38.3c-10.1-29.5,5.8-61.7,35.3-71.8c5.9-2,12-3,18.2-3
					c24.2,0,45.7,15.4,53.5,38.3c4.9,14.3,3.9,29.6-2.8,43.2c-6.7,13.5-18.2,23.7-32.5,28.6C290,737.2,283.9,738.2,277.7,738.2z
					 M277.7,633c-5.3,0-10.6,0.9-15.7,2.6c-25.4,8.6-39,36.3-30.3,61.7c6.7,19.7,25.2,32.9,46,32.9c5.3,0,10.6-0.9,15.7-2.6
					c12.3-4.2,22.2-12.9,27.9-24.6c5.7-11.7,6.6-24.8,2.4-37.1C317,646.2,298.5,633,277.7,633z"/>
			</g>
		</g>
		<g>
			<g>
				<path fill="#003F48" d="M655.7,783.6c-1.6,0-3-0.9-3.7-2.4l-55.8-132.3c-34.8-82.4-41.9-197.6,42.3-273.7
					c33.3-30.1,74.6-46.6,116.4-46.6c19.9,0,39.3,3.8,57.6,11.2c39.4,16,71.2,48.8,89.6,92.4c0.5,1.3,0.4,2.7-0.4,3.8
					c-0.8,1.1-2,1.8-3.5,1.7c-47.3-2.5-96.9,12.2-137,40.9c-57.6,41.2-91.6,107-95.6,185.2l-6.1,116.1c-0.1,1.8-1.5,3.4-3.3,3.7
					C656.1,783.6,655.9,783.6,655.7,783.6z M755,336.4c-39.8,0-79.3,15.8-111.1,44.6c-81.1,73.3-74,184.8-40.3,264.8l49.1,116.4
					l5.2-98.9c4.2-80.6,39.4-148.6,98.9-191.2c39.8-28.5,88-43.7,135.6-42.7c-17.9-38.7-47.1-67.9-82.8-82.4
					C792.2,340,773.8,336.4,755,336.4z"/>
			</g>
		</g>
		<g>
			<g>
				<path fill="#003F48" d="M817.5,791.6C817.5,791.6,817.5,791.6,817.5,791.6c-6.1,0-12.3-0.2-18.7-0.5l-143.4-7.5
					c-2.2-0.1-3.9-2-3.7-4.2l6.1-116.1c4.2-80.6,39.4-148.6,98.9-191.2c41.6-29.8,92.8-45.1,142-42.4c47.2,2.5,88.9,21.3,117.4,52.9
					c42.4,47,51.6,118.1,23.6,181.1C1004,743.8,921,791.6,817.5,791.6z M659.8,775.9l139.5,7.3c6.2,0.3,12.3,0.5,18.2,0.5
					c0,0,0,0,0,0c100.2,0,180.6-46.1,214.9-123.2c26.8-60.2,18-127.9-22.2-172.5c-27.1-30-66.8-47.9-111.9-50.3
					c-47.3-2.5-96.9,12.2-137,40.9c-57.6,41.2-91.6,107-95.6,185.2L659.8,775.9z"/>
			</g>
		</g>
	</g>
	<g>
		<path fill="#8FFFDE" d="M246.3,1046c-0.3,0-0.6,0-0.9-0.1c-37.9-9.6-51.4-41.9-51.4-68.9c0-2,1.6-3.6,3.6-3.6s3.6,1.6,3.6,3.6
			c0,11.8,3.3,51.1,45.9,61.9c1.9,0.5,3.1,2.5,2.6,4.4C249.4,1044.9,247.9,1046,246.3,1046z"/>
	</g>
	<g>
		<path fill="#8FFFDE" d="M1055.3,1252.2c-2,0-3.6-1.6-3.6-3.6s1.6-3.6,3.6-3.6c30.7,0,49-28,49-74.9c0-2,1.6-3.6,3.6-3.6
			c2,0,3.6,1.6,3.6,3.6C1111.5,1246.3,1068.5,1252.2,1055.3,1252.2z"/>
	</g>
	<g>
		<path fill="#8FFFDE" d="M185.5,1229.5c-2,0-3.5-1.6-3.5-3.6v-28.8c0-2,1.5-3.6,3.5-3.6s3.5,1.6,3.5,3.6v28.8
			C189,1227.9,187.5,1229.5,185.5,1229.5z"/>
	</g>
	<g>
		<path fill="#8FFFDE" d="M193.2,1250.8c-2.8,0-5.1-0.7-7.1-2.2c-4-3.1-4.4-7.9-4.4-8.5c-0.1-2,1.4-3.7,3.4-3.8
			c2.1-0.1,3.7,1.4,3.8,3.4c0,0.1,0.2,2.2,1.6,3.2c1.4,1,3.6,0.8,5.2,0.4c1.9-0.4,3.9,0.8,4.3,2.7c0.4,1.9-0.8,3.9-2.7,4.3
			C195.8,1250.7,194.4,1250.8,193.2,1250.8z"/>
	</g>
</g>
</svg>
