<svg id="Layer_2" data-name="Layer 2" xmlns="http://www.w3.org/2000/svg" viewBox="0 0 25 25"><defs><style>.cls-1{fill:#131313;}</style></defs><title>icon-twitter</title><path class="cls-1" d="M12.5,0A12.5,12.5,0,1,0,25,12.5,12.5,12.5,0,0,0,12.5,0Zm5.59,9.64A8.21,8.21,0,0,1,5.47,16.92,5.9,5.9,0,0,0,9.8,15.69a2.92,2.92,0,0,1-2.7-2,3,3,0,0,0,1.29-.06,2.89,2.89,0,0,1-2.3-2.86,2.63,2.63,0,0,0,1.29.37,2.86,2.86,0,0,1-.89-3.84,8.12,8.12,0,0,0,5.93,3,2.86,2.86,0,0,1,4.88-2.61A5.35,5.35,0,0,0,19.13,7a3,3,0,0,1-1.26,1.6,6,6,0,0,0,1.66-.46A6.12,6.12,0,0,1,18.09,9.64Z"/></svg>