<svg width="21" height="33" viewBox="0 0 21 33" version="1.1" xmlns="http://www.w3.org/2000/svg" xmlns:xlink="http://www.w3.org/1999/xlink">
<title>Vector</title>
<desc>Created using Figma</desc>
<g id="Canvas" transform="translate(-29168 2184)">
<g id="Vector">
<use xlink:href="#path0_fill" transform="translate(29168 -2184)"/>
</g>
</g>
<defs>
<path id="path0_fill" d="M 4.27778 9.15527e-06C 1.90556 9.15527e-06 0 1.83751 0 4.12501L 0 28.875C 0 31.1625 1.90556 33 4.27778 33L 16.7222 33C 19.0944 33 21 31.1625 21 28.875L 21 4.12501C 21 1.83751 19.0944 9.15527e-06 16.7222 9.15527e-06L 4.27778 9.15527e-06ZM 4.27778 1.50001L 16.7222 1.50001C 18.1222 1.50001 19.25 2.47501 19.4056 3.75001L 1.59444 3.75001C 1.75 2.43751 2.87778 1.50001 4.27778 1.50001ZM 1.55556 5.25001L 19.4444 5.25001L 19.4444 26.25L 1.55556 26.25L 1.55556 5.25001ZM 1.55556 27.75L 19.4444 27.75L 19.4444 28.875C 19.4444 30.3375 18.2389 31.5 16.7222 31.5L 4.27778 31.5C 2.76111 31.5 1.55556 30.3375 1.55556 28.875L 1.55556 27.75ZM 10.5 28.5C 9.83889 28.5 9.33333 28.9875 9.33333 29.625C 9.33333 30.2625 9.83889 30.75 10.5 30.75C 11.1611 30.75 11.6667 30.2625 11.6667 29.625C 11.6667 28.9875 11.1611 28.5 10.5 28.5Z"/>
</defs>
</svg>
