<?xml version="1.0" encoding="utf-8"?>
<!-- Generator: Adobe Illustrator 21.1.0, SVG Export Plug-In . SVG Version: 6.00 Build 0)  -->
<svg version="1.1" id="Layer_1" xmlns="http://www.w3.org/2000/svg" xmlns:xlink="http://www.w3.org/1999/xlink" x="0px" y="0px"
	 viewBox="0 0 66.9 53" style="enable-background:new 0 0 66.9 53;" xml:space="preserve">
<path d="M56.8,0H10.1C4.6,0,0,4.3,0,9.5v34C0,48.7,4.6,53,10.1,53h46.7c5.5,0,10.1-4.3,10.1-9.5v-34C66.9,4.3,62.3,0,56.8,0z
	 M10.1,5h46.7c1.6,0,2.9,0.7,3.8,1.8L35.1,25.4c-1.1,0.7-2.4,0.7-3.4,0L6.3,6.8C7.2,5.7,8.5,5,10.1,5z M56.8,48H10.1
	c-2.7,0-4.8-2-4.8-4.5V12.4l23.1,17c1.5,1.1,3.2,1.6,5,1.6s3.5-0.5,5-1.6l23.1-17v31.1C61.6,46,59.4,48,56.8,48z"/>
</svg>
